<svg xmlns="http://www.w3.org/2000/svg" width="87" height="83" fill="none" viewBox="0 0 87 83"><path fill="#fff" d="M41.5 1.382c.598-1.843 3.205-1.843 3.803 0l8.875 27.313a2 2 0 0 0 1.902 1.382H84.8c1.937 0 2.743 2.48 1.175 3.618L62.74 50.575a2 2 0 0 0-.726 2.236l8.874 27.314c.6 1.842-1.51 3.374-3.077 2.236L44.577 65.48a2 2 0 0 0-2.351 0L18.992 82.36c-1.568 1.138-3.677-.394-3.078-2.236l8.875-27.313a2 2 0 0 0-.727-2.236L.828 33.695c-1.567-1.139-.762-3.618 1.176-3.618h28.719a2 2 0 0 0 1.902-1.382z"/></svg>