<svg xmlns="http://www.w3.org/2000/svg" width="512" height="512"><path fill="#010101" d="M193.086.996c16.773 7.937 33.211 21.645 45.812 35.055l1.473 1.547a420 420 0 0 1 4.086 4.41c2.318 2.253 2.318 2.253 4.93 1.922L252 43c10.662-3.392 23.22-3.798 33.613.738 4.049 2.14 7.776 4.44 11.387 7.262l1.867 1.45c7.825 6.903 12.684 17.83 13.371 28.116.207 11.15-.595 20.393-8.238 29.121-1.901 2.47-3.035 4.168-2.937 7.338.79 5.143 2.335 10.036 3.937 14.975.343 1.33.68 2.664 1 4 11.58-15.543 22.866-31.249 33.598-47.39.49-.738.98-1.476 1.486-2.235q3.693-5.558 7.365-11.13l2.742-4.143 1.246-1.902c7.241-10.922 7.241-10.922 12.125-11.95L368 57c2.591-.99 4.17-2.143 6.313-3.937C378.812 49.61 383.258 47.478 389 48l.188-2.312C390 43 390 43 391.875 41.062c5.807-1.974 11.335-.305 16.816 2.137 9.176 5.113 15.53 12.557 18.891 22.528C429.399 75.61 429.016 86.215 424 95l-1.06 1.86c-6.998 12.137-14.928 23.657-22.94 35.14l-3.48 5.012c-11.124 15.984-22.56 31.73-34.13 47.394-3.264 4.42-6.517 8.85-9.765 13.281l-1.426 1.947L348 204l2.465.734c19.5 6.982 48.046 22.379 59.535 40.266a84 84 0 0 1 2.945 7.57c1.267 2.918 3.056 4.96 5.055 7.43 5.77 9.829 10.189 19.895 9.973 31.5-.173 13.119 3.086 22.655 8.534 34.523l.86 1.875.885 1.924c3.87 8.507 7.137 17.25 10.435 25.99l1.01 2.668a3526 3526 0 0 1 8.382 22.426c8.195 22.11 16.142 44.288 23.421 66.719l.842 2.594q1.164 3.595 2.314 7.195l.683 2.12c3.437 10.856 4.315 21.812-.339 32.466-5.104 9.544-12.44 16.101-22.73 19.586-9.528 1.738-20.946 1.749-29.27-3.586-10.673-8.012-15.106-16.206-18.687-28.812-4.3-14.451-9.219-28.665-14.25-42.875l-1.191-3.365C393.17 416.866 387.35 400.84 381 385l-2.198 1.203C351.727 401 351.727 401 344 401l-.792 2.104c-1.334 3.198-2.892 6.187-4.532 9.24l-2.085 3.901-1.121 2.094c-9.084 16.967-17.869 34.082-26.588 51.24-18.097 35.589-18.097 35.589-32.683 41.57-8.74 2.326-19.789 2.163-27.996-1.829-9.418-5.644-15.855-12.137-19.078-22.82-3.257-13.837 1.056-24.621 7.316-36.906q.975-1.937 1.945-3.875c1.702-3.391 3.417-6.776 5.134-10.16q2.063-4.077 4.11-8.162c6.972-13.879 14.002-27.723 21.37-41.397l-2.382-2.38c-6.593-6.6-12.063-13.48-17.117-21.303l-1.204-1.864-1.052-1.651c-1.633-2.363-3.434-4.574-5.245-6.802l-.788 2.063C214.152 424.629 214.152 424.629 205 432c-1.976.194-3.953.385-5.934.531-3.183.722-4.828 2.753-7.125 4.969-3.494 2.7-7.696 3.526-11.941 4.5l-.187 2.313C179 447 179 447 176.797 448.843c-5.03 2.08-9.705.593-14.797-.843-3.224-1.382-6.094-3.043-9-5l-2.687-1.75c-7.98-7.764-11.746-17.147-12.364-28.125.161-9.91 4.312-18.062 8.77-26.672 13.416-25.979 23.456-53.795 33.531-81.203l1.338-3.635c2.356-6.482 4.527-12.98 6.412-19.615l-3.996.105c-12.923.235-25.264-.328-37.668-4.27-4.429-1.109-6.764-.691-10.73 1.47l-2.418 1.57c-11.058 6.852-21.941 8.537-34.625 6-11.503-2.892-21.077-9.671-27.387-19.805-6.53-12.428-8.051-24.141-3.93-37.66C68 227 68 227 68.763 225.09c.486-2.191.486-2.191-1.127-3.974l-2.09-1.952-2.3-2.205-2.496-2.334C53.061 207.198 46.28 199.635 40 191l-1.937-2.594C30.459 177.951 22.97 167.317 24 154c1.253-7.018 5.317-10.964 11-15 3.12-1.921 5.351-2.203 9-2l-.14-3.742C43.347 113.71 48.097 97.138 55 79l1.411-3.732q1.937-5.095 3.921-10.17a737 737 0 0 0 1.562-4.043 525 525 0 0 1 2.239-5.707l1.309-3.344c5.779-11.142 19.905-14.482 30.905-18.66 2.19-.834 4.376-1.68 6.561-2.528 7.331-2.816 14.69-5.41 22.22-7.64l2.066-.614C137.42 19.624 150.646 16.55 161 20l.191-1.687C162.255 11.686 164.857 7.338 170 3c7.172-4.301 15.16-4.562 23.086-2.004"/><path fill="#fed2bc" d="M259.223 85.371c16.735 13.19 28.263 31.939 31.5 53.164 3.192 28.423-4.223 57.021-21.63 79.883-3.533 4.357-7.238 8.508-11.093 12.582l-2.336 2.531c-12.734 13.353-28.632 21.97-45.976 27.844l-2.134.723c-23.214 7.446-49.001 6.323-70.7-4.754C117.085 246.66 104.133 230.31 97 209c-.235-.69-.47-1.38-.71-2.09-7.936-25.359-1.331-53.799 10.585-76.66 5.538-9.71 12.47-18.147 20.125-26.25l2.113-2.309C141.535 88.588 159.606 77.941 177 73l1.842-.542c27.096-7.758 57.477-4.345 80.38 12.913"/><path fill="#8daee1" d="M295 201c34.04 6.96 77.627 25.591 101.625 51.875 3.49 7.934 1.141 15.126-1.864 22.88C389.708 287.965 382.172 298.68 374 309l-2.074 2.66C363.283 322.508 353.837 333.292 343 342l-3.29 2.727C326.679 355.444 313.576 364.395 298 371l-2.5 1.156c-5.66 1.91-13.021 2.243-18.617-.008C274.9 370.603 273.534 369 272 367l-2.355-3.059c-2.666-3.569-5.174-7.235-7.645-10.941l-1.996-2.992c-12.607-19.762-22.526-41.314-30.504-63.32l-.738-2.01C227.164 280.096 226.47 275.8 226 271l3.156-1.547c29.34-14.739 53.16-37.877 65.844-68.453"/><path fill="#4a5064" d="M409 279c3.09 3.09 3.432 6.751 4 11-.036 2.18-.23 4.305-.437 6.474-1.07 13.332 4.223 23.645 9.71 35.46 3.751 8.16 6.91 16.55 10.102 24.941l.948 2.482c6.795 17.786 13.386 35.647 19.907 53.534q1.476 4.038 2.96 8.072 1.597 4.361 3.185 8.724l1.138 3.096c.334.92.667 1.842 1.01 2.791l.873 2.394C463 440 463 440 463 443l-2.027.043c-6.447.32-12.365 1.405-18.536 3.207l-2.032.583c-4.215 1.286-8.174 2.922-12.178 4.764l-2.974 1.364L423 454l-.634-1.783c-12.287-34.668-12.287-34.668-24.994-69.184a754 754 0 0 1-1.598-4.299 579 579 0 0 0-2.208-5.867l-1.22-3.246c-1.457-2.838-2.599-4.045-5.346-5.621-3.712-.553-5.367-.427-8.5 1.688L376 368c-9.562 8.218-19.542 13.282-31.527 16.895L341 386l-3.61 1.105c-4.671 2.611-6.25 5.75-8.702 10.395l-1.488 2.7c-5.809 10.672-11.306 21.523-16.793 32.363-4.217 8.313-8.585 16.453-13.407 24.437l-1.969-1.116c-6.138-3.46-12.412-6.56-18.781-9.572l-2.435-1.152A372 372 0 0 0 260 439c5.355-11.653 11.044-23.112 16.938-34.5l1.012-1.961q1.442-2.787 2.89-5.57l1.699-3.268C284 391 284 391 286 388c2.73-.738 2.73-.738 6.188-1.312C311.226 382.899 326.966 372.915 342 361l2.73-2.145C371.945 337.06 394.085 310.607 409 279"/><path fill="#4a5063" d="M185.889 15.476c3.387.84 5.92 2.523 8.798 4.461l1.81 1.216A299 299 0 0 1 202 25l1.694 1.21C215.424 34.702 225.912 44.638 236 55l-1 2q-2.78-.215-5.563-.438c-1.032-.08-2.065-.162-3.128-.246a111 111 0 0 1-6.641-.84C207.889 53.947 195.593 54.553 184 57l-3.719.742C159.268 62.257 140.091 72.93 124 87l-2.207 1.84C103.991 103.85 90.883 125.902 84 148l-.637 1.97C77.412 169.1 78.743 190.47 82 210c-4 0-4 0-5.656-1.155l-1.63-1.634-1.84-1.832-1.937-2.004-2.016-2.059c-28.02-29.055-28.02-29.055-29.234-42.879C40 155 40 155 41.082 153.347c3.656-2.568 8.327-2.288 12.668-2.722 3.156-.408 3.156-.408 5.207-1.828 1.543-2.658 1.103-4.522.73-7.547l-.335-3.555L59 134c-1.944-22.747 7.929-44.332 16.673-64.831.816-1.95 1.593-3.917 2.303-5.908 1.514-4.067 2.615-6.44 6.654-8.296l2.165-1.005c3.4-1.48 6.813-2.912 10.264-4.273l2.265-.895q2.361-.931 4.727-1.855c2.354-.924 4.701-1.864 7.049-2.804 13.288-5.251 26.923-9.99 41.4-9.446l2.43.03c4.055.075 7.909.409 11.914 1.053 3.194.375 3.843.424 6.687-1.336 1.798-2.98 1.934-4.908 1.969-8.372.216-3.765.434-5.923 2.062-9.375 3.015-2.087 4.791-1.749 8.327-1.21"/><path fill="#fdbc9b" d="m389 48 .813 2.75c2.903 4.314 5.722 4.777 10.53 6.34 5.986 2.05 8.907 5.965 11.692 11.437 2.204 5.648 1.89 10.047-.262 15.692-3.996 8.41-9.059 16.082-14.35 23.722a940 940 0 0 0-4.462 6.528C373.82 142.629 353.944 170.15 333 197c-6.245-1.262-12.225-2.937-18.25-5-.776-.26-1.552-.52-2.352-.79-3.846-1.299-7.647-2.65-11.398-4.21l.367-1.695.508-2.43.602-2.79c.597-3.081.597-3.081.609-6.233.568-11.613 6.91-18.154 14.156-26.727 2.43-2.937 4.64-6 6.82-9.125l2.383-3.383 1.232-1.75c2.006-2.83 4.048-5.632 6.087-8.437 9.83-13.534 19.275-27.317 28.482-41.282a270 270 0 0 1 5.102-7.484c3.926-5.34 3.926-5.34 4.714-11.664-.968-3.125-.968-3.125-3.062-6 11.375-10.784 11.375-10.784 20-10"/><path fill="#fcd1bb" d="M209.563 276.938 212 277l.667 2.114c4.706 14.784 9.86 29.079 16.267 43.218l1.09 2.498c.776 1.725 1.644 3.408 2.542 5.072.76 5.423-1.907 9.948-4.066 14.848q-1.15 2.703-2.296 5.407-1.238 2.904-2.486 5.802c-1.759 4.111-3.443 8.25-5.116 12.396-6.15 15.204-12.51 30.23-19.691 44.979l-1.56 3.248-1.38 2.82c-1.479 3.957-1.296 6.624.029 10.598h2c-2.084 4.862-5.524 7.349-10 10-2.693.968-5.167 1.494-8 2l-.875-2.812c-2.766-4.15-4.96-4.316-9.625-5.489-6.151-1.72-9.854-5.736-13.5-10.699-2.509-5.445-3.024-10.086-2-16 1.949-4.745 4.366-9.183 6.794-13.697 18.353-35.048 32.11-74.361 44.104-112.018 1.432-4.269 1.432-4.269 4.665-4.348"/><path fill="#eca0aa" d="M139 192c2.259 1.696 3.973 3.171 5.875 5.188l1.469 1.423c3.222 3.3 4.344 5.809 4.656 10.389l3.5-.25c4.889.009 8.495 1.5 12.5 4.25 5.45 5.737 6.435 10.314 6.438 18.14-.173 6.296-1.952 10.714-5.438 15.86l-2.125 3.188c-3.78 4.225-8.97 7.078-13.875 9.812l-2.371 1.41c-4 .898-6.747-.867-10.191-2.723l-2.116-1.095c-6.63-3.542-12.511-7.838-18.322-12.592l1-2c.078-1.478.138-2.958.188-4.437.911-9.572 6.344-16.688 13.078-23.2C135 214 135 214 137 214c-1.854-3.49-4.015-6.07-6.75-8.875-2.723-3.045-3.228-3.68-3.437-7.937C128 194 128 194 129.625 192c3.497-1.473 5.71-.874 9.375 0m132.563-95.25c3.618 4.399 6.532 9.366 9.437 14.25l1.664 2.621c3.468 5.944 3.468 5.944 3.113 9.793-1.437 4.698-3.833 8.66-6.777 12.586l-1.625 2.5c-6.122 6.445-14.457 10.48-23.312 10.813-6.827-.154-12.169-2.419-17.063-7.313-3.341-5.001-4.498-9.029-4-15l-2.105-.148c-3.98-1.171-6.352-3.611-9.208-6.477l-1.666-1.543c-2.985-2.96-3.951-4.261-4.478-8.578.457-3.254.457-3.254 2.082-5.692C220 103 220 103 222.75 102.313c4.25.9 6.26 2.976 9.32 5.961 1.895 1.696 3.615 2.708 5.93 3.727l1.215-1.54c5.96-7.217 12.41-12.585 21.785-14.46l2.035-.508c3.61-.742 5.448-.845 8.527 1.258"/><path fill="#fdbc9c" d="m268 216 2 1c-15.669 21.119-35.369 35.929-60.312 44.375l-2.134.723c-10.442 3.35-20.558 4.244-31.492 4.214l-3.591.05c-7.68.004-15.27-.457-22.471-3.362l-2-3 3.5-1.125c9.613-3.696 14.654-9.928 19.5-18.875 1.054-3.162 1.313-5.87 1.563-9.187l.253-3.293L173 225h1v8c30.095 8.221 61.085 1.714 88-13 2.048-1.278 4.02-2.617 6-4"/><path fill="#7b92db" d="M295 201c7.22 1.444 14.051 3.578 21 6-8.162 15.867-16.801 30.875-29 44l-1.773 1.922c-11.863 12.721-24.787 22.564-39.852 31.203l-1.936 1.111c-4.09 2.255-7.942 3.643-12.439 4.764a460 460 0 0 1-1.937-5l-1.09-2.812c-1.148-3.762-1.573-7.279-1.973-11.188l3.156-1.547c29.34-14.739 53.16-37.877 65.844-68.453"/><path fill="#fdbc9c" d="M96 159c3 1 3 1 4.1 2.635l1.029 2.127 1.182 2.372 1.251 2.554C109.375 180.132 116.425 192.24 126 201h2c1.656 1.68 1.656 1.68 3.5 3.875 1.79 2.115 3.54 4.165 5.5 6.125v3c-1.574 1.543-1.574 1.543-3.687 3.188-4.15 3.465-6.788 7.065-9.313 11.812l-1.094 1.91c-1.08 2.492-1.318 4.638-1.531 7.34l-.227 2.703L121 243c-4 0-4 0-6.113-1.984-14.717-18.508-21.061-36.471-21.074-59.953l-.038-3.42c-.011-6.544.528-12.319 2.225-18.643"/><path fill="#fcd0ba" d="M253 453c13.258 2.18 25.97 9.646 37 17-1.373 7.728-6.795 17.644-12.75 22.813-6.18 4.16-10.772 5.313-18.25 4.187-6.285-2.542-10.956-5.913-14-12-2.712-9.289-1.037-15.876 3.5-24.187A370 370 0 0 1 253 453"/><path fill="#fbcfba" d="m461 457.875 2.059.027c1.647.024 3.294.06 4.941.098 3.778 8.541 5.925 17.093 3.316 26.453-2.506 5.45-6.205 9.09-11.675 11.652-5.161 1.749-10.838 1.996-15.957-.015-7.497-4.424-11.209-10.105-13.559-18.277l-.68-2.155c-1.58-5.251-1.58-5.251-.445-8.658a90 90 0 0 1 7.563-3.562l2.095-.92c7.515-3.215 14.16-4.79 22.342-4.643"/><path fill="#f8b999" d="M283.3 60.168C290.044 64.744 294.84 71.096 297 79c1.114 7.832-.583 13.968-4 21h-2c-1.25-1.577-2.424-3.215-3.562-4.875C277.263 80.877 265.238 71.402 250 63c10.63-8.705 21.128-9.627 33.3-2.832"/><path fill="#faceb9" d="M86 226c3 1 3 1 4.254 3.047l1.308 2.703C99.346 246.528 110.72 258.325 125 267c-6.159 5.018-11.634 5.505-19.422 5.375-7.764-.814-13.92-4.715-19.105-10.453C80.45 254.062 79.755 245.717 81 236c1.284-3.624 2.887-6.793 5-10"/><path fill="#050403" d="M202 144c2.71 2.076 3.85 3.296 4.566 6.664-.012 9.436-2.43 16.2-8.816 23.211-6.078 5.651-14.287 8.576-22.52 8.469-2.23-.344-2.23-.344-5.292-2.469-2.282-3.386-2.703-4.878-1.938-8.875 1.313-2.25 1.313-2.25 4-4 2.777-.598 5.559-1.018 8.367-1.445 3.423-.721 5.287-1.981 7.633-4.555 2.188-3.741 2.684-7.428 3.34-11.66 1.619-5.739 5.148-6.017 10.66-5.34"/><path fill="#070505" d="M135.32 191.055c4.284 1.1 6.59 2.956 9.555 6.07l1.469 1.398c3.537 3.597 4.52 6.48 4.656 11.477-2.049 3.474-3.675 3.915-7.562 4.938-4.549-.206-7.263-2.966-10.375-6l-1.47-1.409c-3.459-3.632-4.505-6.548-4.593-11.529 2.516-3.774 3.715-5.021 8.32-4.945"/><path fill="#040303" d="M222.75 102.313c4.986 1.054 7.74 4.135 11.25 7.687l1.656 1.555c2.73 2.804 3.344 4.179 3.344 8.132-1.473 4.881-1.473 4.881-4 6.313-3.233.416-5.812.712-8.695-1.016-1.694-1.43-3.216-2.94-4.743-4.546l-1.638-1.557c-2.927-2.979-3.86-4.349-4.373-8.631.449-3.25.449-3.25 2.074-5.687C220 103 220 103 222.75 102.313"/></svg>