<svg xmlns="http://www.w3.org/2000/svg" width="18" height="18" fill="none" viewBox="0 0 300 300"><path fill="#fff" d="M250 0c27.614 0 50 22.386 50 50v200c0 27.614-22.386 50-50 50H50c-27.614 0-50-22.386-50-50V50C0 22.386 22.386 0 50 0zM55 213c-5.523 0-10 4.477-10 10v10c0 5.523 4.477 10 10 10h150c5.523 0 10-4.477 10-10v-10c0-5.523-4.477-10-10-10zm0-55c-5.523 0-10 4.477-10 10v10c0 5.523 4.477 10 10 10h180c5.523 0 10-4.477 10-10v-10c0-5.523-4.477-10-10-10zM93.965 52.466c-8.818-8.818-23.354-8.58-32.466.532s-9.35 23.649-.532 32.467l33.53 33.53 32.999-32.998c9.112-9.112 9.351-23.648.532-32.467-8.818-8.818-23.354-8.58-32.466.532z"/></svg>