<svg xmlns="http://www.w3.org/2000/svg" width="512" height="512"><path fill="#010101" d="m230.272-.193 3.339-.049c5.045-.044 10.09-.085 15.136-.108 2.662-.013 5.322-.044 7.984-.082 3.835-.055 7.668-.077 11.503-.091l3.6-.07c9.213.024 9.213.024 12.901 3 3.864 4.423 3.407 8.046 3.394 13.693l.006 2.858q.004 4.692-.002 9.386l.003 6.501q.001 6.82-.006 13.639-.006 8.757.004 17.514.005 6.714 0 13.428l.002 6.46q.003 4.508-.007 9.014l.007 2.718c-.022 6.153-.022 6.153-1.136 8.382a178 178 0 0 0-.313 8.75l-.087 2.422c-.07 6.445 1.686 9.855 6.076 14.664l1.636 1.539c2.364 2.289 4.57 4.609 6.688 7.125 2.402 2.82 4.932 5.43 7.602 7.992l1.996 1.932a312 312 0 0 0 3.984 3.77c7.006 6.767 10.567 12.904 10.881 22.737.043 4.4-.045 8.794-.15 13.194q-.038 2.75-.069 5.5c-.055 4.46-.14 8.917-.244 13.375l3-2-.21-2.146c-2.08-22.748-1.144-44.3 4.855-66.35.673-2.748.673-2.748-1.645-5.504-.267-2.377-.267-2.377-.29-5.218l-.04-3.227-.006-3.485-.02-3.583q-.015-3.755-.015-7.51c-.004-3.83-.04-7.659-.078-11.489q-.009-3.646-.012-7.293l-.043-3.472c.045-7.913.045-7.913 2.283-11.86 3.917-3.286 6.717-4.114 11.828-4.138l3.408-.029 3.669.003 3.78-.013q3.959-.01 7.916-.002c3.374.006 6.747-.01 10.121-.034 3.228-.018 6.455-.015 9.683-.013l3.662-.028 3.417.019 2.999-.002c4.088.558 6.747 2.277 9.488 5.311 2.09 3.45 2.376 6.663 2.395 10.645l.02 2.73.003 2.93.01 3.034q.007 3.174.007 6.35c.002 3.23.02 6.46.04 9.69q.005 3.089.005 6.176l.022 2.917c-.017 4.996-.474 8.864-2.252 13.591.279 4.286 1.044 8.285 1.973 12.469 2.535 11.457 3.4 22.58 3.34 34.281l-.009 2.074c-.04 6.358-.153 12.52-1.195 18.797-.327 2.3-.327 2.3-.109 4.379 2.061 2.51 3.306 3.64 5.937 5.312q1.939 1.37 3.872 2.747l2.07 1.429c3.679 2.622 7.136 5.514 10.621 8.387l3.906 3.18 1.835 1.506q1.722 1.409 3.463 2.794c2.858 2.3 5.161 4.426 7.046 7.582l1.172 1.903c3.053 6.117 3.368 11.465 3.345 18.167l.014 3.042c.013 3.363.011 6.725.01 10.087q.008 3.617.02 7.235.023 8.804.023 17.608.001 7.158.012 14.316a28773 28773 0 0 1 .025 42.82v2.213c-.001 11.835.018 23.67.046 35.504q.043 18.238.04 36.477c0 6.824.006 13.647.027 20.47q.029 9.625.005 19.251-.003 3.531.015 7.063c.015 3.216.006 6.43-.01 9.646l.032 2.818c-.073 6.903-1.718 12.189-6.272 17.466l-1.692 1.352-1.683 1.398c-4.275 2.791-7.985 3.478-13.047 3.484l-3.784.02-4.149-.01-4.413.014c-4.044.012-8.087.012-12.13.01-4.362 0-8.722.01-13.083.02-8.544.017-17.088.022-25.632.023q-10.416.001-20.833.012a60821 60821 0 0 1-62.273.025h-3.22c-17.224-.001-34.449.018-51.673.046q-26.524.043-53.048.04c-9.929 0-19.857.006-29.786.027q-12.68.029-25.36.009c-4.313-.007-8.626-.007-12.939.01q-5.924.024-11.849-.004-2.14-.005-4.281.012c-7.888.057-13.677-.153-20.379-4.511-2.059-2.035-2.059-2.035-3.438-4.063l-1.433-2.035c-2.31-3.893-2.263-7.217-2.283-11.652l-.013-2.09c-.014-2.317-.02-4.634-.026-6.95l-.025-4.978c-.026-5.45-.041-10.902-.055-16.353l-.017-5.627q-.033-11.697-.051-23.396-.023-16.776-.107-33.553a5558 5558 0 0 1-.063-23.582c-.004-4.697-.016-9.394-.048-14.092q-.044-6.624-.025-13.25 0-2.433-.025-4.866a381 381 0 0 1 .001-6.636l-.01-3.754C62 328 62 328 64.413 325.57 67 324 67 324 69 324v-19l-5-1c-2.42-3.631-2.323-6.36-2.336-10.563l-.02-2.262a720 720 0 0 1-.015-4.75 507 507 0 0 0-.078-7.163c-.095-12.615 1.801-22.183 10.246-32.035 6.544-6.614 13.957-9.86 22.933-11.825 6.929-1.595 11.646-3.88 16.27-9.402 2.268-3.715 3.35-7.71 4-12h-2c-2.861-5.648-3.444-10.121-3.398-16.406l-.01-2.678q-.002-2.789.017-5.577c.016-2.83 0-5.66-.02-8.491q.004-2.721.013-5.442l-.019-2.541c.064-5.344.65-9.23 3.417-13.865 5.02-3.787 10.409-3.437 16.437-3.398l3.026-.01q3.157-.002 6.313.017c3.213.016 6.425 0 9.638-.02q3.075.004 6.148.013l2.899-.019c5.238.055 9.07.376 13.539 3.417 2.621 2.914 3.378 4.771 3.404 8.673l.038 2.792-.008 2.996.015 3.1q.01 3.247-.003 6.492c-.008 3.303.02 6.605.052 9.908q.003 3.156-.002 6.312l.034 2.984c-.06 5.986-.816 9.05-4.53 13.743.279 5.305 3.312 10.312 7 14a186 186 0 0 0 5 3l-.206-2.895c-.77-11.494-1.075-22.973-1.144-34.491a594 594 0 0 0-.082-6.14 663 663 0 0 1-.091-9.033l-.07-2.73c.028-8.206 2.814-14.903 8.344-20.998q1.461-1.44 2.96-2.842l1.61-1.574a597 597 0 0 1 5.054-4.86q3.335-3.21 6.648-6.44l1.598-1.557c8.254-7.55 8.254-7.55 12.508-17.288l.004-2.215.004-2.414-.012-2.523.012-2.523-.004-2.415-.004-2.214c-.017-1.944-.017-1.944-1.129-3.848-.12-3.02-.178-6.016-.193-9.036l-.025-2.839q-.036-4.665-.055-9.328l-.017-3.215q-.039-8.422-.06-16.846c-.017-5.802-.062-11.603-.112-17.405-.034-4.46-.046-8.919-.051-13.378a797 797 0 0 0-.046-6.416 690 690 0 0 1-.024-8.983l-.05-2.674c.043-4.269.311-7.028 3.044-10.415 3.537-3.368 5.101-3.595 9.861-3.658"/><path fill="#bdd5cb" d="M236 111h34l2 15c2.53 8.601 6.722 13.701 13 20l2.117 2.125a935 935 0 0 0 3.988 3.95c2.468 2.508 4.734 5.165 7.024 7.835 2.875 3.212 5.962 6.202 9.05 9.207 2.781 2.876 2.945 4.563 2.933 8.453l-.004 2.91-.02 3.2-.012 3.37c-.061 13.31-.25 26.62-.447 39.93l-.126 8.725q-.15 10.34-.303 20.681-.138 9.332-.27 18.663c-.847 59.68-.847 59.68-1.565 84.079a3554 3554 0 0 0-1.097 50.304c-.077 4.991-.164 9.982-.273 14.972-.108 4.944-.19 9.888-.256 14.834q-.043 2.782-.113 5.565a500 500 0 0 0-.118 7.706l-.078 2.259c0 5.19 1.407 8.26 4.437 12.462 1.725 2.695 1.717 5.02 1.656 8.168l-.035 3.45-.113 3.527-.043 3.598c-.148 8.66-.148 8.66-1.332 11.027q-22.049.07-44.096.104-10.238.014-20.474.047-9.872.032-19.744.039-3.774.004-7.547.021c-3.513.015-7.026.017-10.539.016l-3.18.022-2.89-.008-2.52.005C197 497 197 497 195 495c-.487-4.251-.37-8.536-.375-12.812l-.074-3.604-.012-3.479-.025-3.182c.602-3.62 2.09-5.206 4.486-7.923 1.135-3.405 1.128-5.987 1.13-9.58l.004-2.063q.001-3.47-.013-6.943l-.004-2.48c-.044-24.588-.537-49.172-.986-73.754q-.136-7.608-.267-15.214c-.39-22.533-.791-45.065-1.459-67.592-.434-14.65-.7-29.302-.908-43.957q-.059-4.177-.125-8.355l-.033-2.095-.065-4.191q-.082-5.185-.126-10.37l-.035-4.103-.017-2.05a419 419 0 0 0-.352-12.883c-.115-2.91-.193-5.82-.267-8.731a257 257 0 0 0-.29-6.074c-.152-7.024.406-10.95 5.174-16.294A151 151 0 0 1 205 163a258 258 0 0 0 2.82-2.883l2.305-2.242a171 171 0 0 0 10.219-11.012c1.692-1.903 3.487-3.62 5.344-5.363 8.478-8.383 9.267-19.002 10.312-30.5"/><path fill="#342e3e" d="M342 186h51c0 10.028 0 10.028-1.5 14.125-1.334 4.135-2.187 7.493-1.5 11.875 3.731 4.183 8.08 7.626 12.438 11.125l2.114 1.71c4.64 3.74 9.317 7.43 14.01 11.102q3.22 2.53 6.438 5.063l2.32 1.805c3.786 3.057 6.233 5.513 7.68 10.195.073 2.237.09 4.477.066 6.715l-.029 3.562L435 266l-2.561.018q-11.941.087-23.882.218c-4.093.044-8.185.084-12.278.11q-5.923.04-11.846.117-2.261.025-4.522.035c-2.11.01-4.219.037-6.328.07l-3.64.033c-2.922.164-2.922.164-4.831 1.739-1.743 2.603-1.492 4.617-1.112 7.66 16.761 16.761 47.298 3.651 71 4v186l-54.812.313-17.32.137c-6.969.023-6.969.023-10.23.027q-3.422.013-6.844.05c-3.452.037-6.903.043-10.356.04l-3.09.055c-2.548-.019-4.86-.07-7.348-.622-2.027-2.348-2.027-2.348-3-5l-2-3a133 133 0 0 1-.152-9.29l.025-3.017q.031-3.418.077-6.836c.054-4.186.096-8.373.135-12.56.081-8.185.182-16.371.287-24.557q.066-5.11.125-10.22c.227-19.522.542-39.017 1.503-58.52l2.809 1.469c4.859 2.331 8.141 2.239 13.246.476q3.3-1.286 6.566-2.656c7.252-2.767 13.558-3.625 21.254-3.539l2.692.023c10.428.171 19.066 2.64 28.82 6.204 4.702 1.331 8.698 1.534 13.426.273 2.659-1.52 2.914-2.507 4.187-5.25a988 988 0 0 1 3.063-5.625c2.899-5.288 4.453-8.185 3.937-14.375-2.869-5.556-5.935-7.476-11.5-9.687l-2.168-.896c-11.796-4.745-23.727-6.48-36.332-7.417l-2.13-.162c-13.803-.9-27.425 1.834-40.304 6.83C326 300 326 300 323 300v-20c7.813-.312 7.813-.312 10.261-.388 4.103-.207 4.103-.207 7.727-1.967 1.61-2.616 1.385-4.657 1.012-7.645-.956-1.805-.956-1.805-3-3a78 78 0 0 0-8.187-.687l-2.272-.104A495 495 0 0 0 323 266c-.03-3.937-.047-7.875-.062-11.812l-.026-3.334c-.01-3.286.037-6.568.088-9.854l-.065-3.015c.07-4.01.203-6.85 2.677-10.105 2.136-1.978 4.334-3.685 6.7-5.38l2.342-1.797c2.8-2.137 5.628-4.216 8.542-6.193 2.108-1.483 2.108-1.483 2.741-4.635.056-3.464-.178-5.008-1.312-8.125C343 197 343 197 342 186"/><path fill="#cbe8de" d="M234 129c4.34 4 7.43 8.37 10.625 13.313q1.576 2.407 3.156 4.812c.531.81 1.062 1.62 1.61 2.453 2.962 4.458 6.037 8.84 9.131 13.206 4.151 5.948 5.742 10.102 5.603 17.529l-.055 3.8L264 187l-1.857.028c-28.221.476-28.221.476-52.143 13.972-3.53 5.397-3.453 10.27-3.375 16.5l-.035 2.8c.023 5.31.422 9.122 3.41 13.7 3.373 2.65 6.849 2.303 11 2 2.791-1.036 5.34-2.427 7.938-3.875 8.16-4.48 15.101-6.479 24.437-6.312l2.152.001c5.19.045 5.19.045 7.473 1.186q.037 6.086.055 12.17.008 2.07.02 4.138.017 2.979.023 5.958l.016 3.618c-.096 2.612-.434 4.626-1.114 7.116l-3.469.044c-4.27.058-8.54.136-12.81.218q-2.765.051-5.53.084c-2.66.034-5.318.087-7.976.142l-2.476.02c-5.286.134-9.081.92-13.739 3.492-2.782 2.988-3.377 4.98-3.388 9.025l-.029 3.024.019 3.252-.01 3.363q-.002 3.52.017 7.043c.016 3.582 0 7.162-.02 10.744q.004 3.425.013 6.85l-.019 3.233c.055 5.89.335 10.369 3.417 15.466 4.192 3.786 8.872 3.471 14.238 3.512l2.67.054c2.801.054 5.602.088 8.405.122q2.856.05 5.712.103 6.987.125 13.975.209c.142 27.684-.207 55.327-1 83l-3.225.044c-3.961.058-7.921.136-11.881.218q-2.568.051-5.136.084c-2.465.034-4.93.086-7.395.142l-2.308.02c-4.464.122-7.585.578-11.055 3.492-.477 3.337-.765 5.719 1.007 8.687 3.198 2.107 6.669 1.795 10.38 1.825l2.476.054c2.608.054 5.216.088 7.825.122q2.652.05 5.306.103 6.502.125 13.006.209v8l-3.241.044c-3.974.058-7.947.135-11.92.218q-2.579.051-5.156.084a833 833 0 0 0-7.417.142l-2.324.02c-3.24.089-5.578.289-8.434 1.883-1.707 1.526-1.707 1.526-1.899 3.87l.141 2.426.11 2.45L219 449c4.711 1.837 9.019 2.333 14.023 2.414l2.262.059c2.363.06 4.726.106 7.09.152l4.832.117q5.896.142 11.793.258l.297 2.012.453 2.675.422 2.637c.683 2.825.683 2.825 2.88 5.1 2.464 3.258 2.426 5.073 2.374 9.119l-.026 3.752-.087 3.892-.03 3.928c-.114 9.548-.114 9.548-1.283 11.885q-13.051.07-26.104.104-6.06.014-12.12.047-5.844.032-11.69.039-2.234.004-4.466.021c-2.081.015-4.162.017-6.243.016l-3.593.014C197 497 197 497 195 495c-.487-4.251-.37-8.536-.375-12.812l-.074-3.604-.012-3.479-.025-3.182c.602-3.62 2.09-5.206 4.486-7.923 1.135-3.405 1.128-5.987 1.13-9.58l.004-2.063q.001-3.47-.013-6.943l-.004-2.48c-.044-24.588-.537-49.172-.986-73.754q-.136-7.608-.267-15.214c-.39-22.533-.791-45.065-1.459-67.592-.434-14.65-.7-29.302-.908-43.957q-.059-4.178-.125-8.355l-.033-2.095-.065-4.191q-.082-5.185-.126-10.37l-.035-4.103-.017-2.05a419 419 0 0 0-.352-12.883c-.115-2.91-.193-5.82-.267-8.731a257 257 0 0 0-.29-6.074c-.152-7.024.406-10.95 5.174-16.294A151 151 0 0 1 205 163a258 258 0 0 0 2.82-2.883l2.305-2.242a172 172 0 0 0 10.223-11.016c1.671-1.88 3.442-3.576 5.277-5.297 3.763-3.669 6.07-7.877 8.375-12.562"/><path fill="#020102" d="m365.875 328.75 2.664.014c6.608.092 13.44.226 19.461 3.236v18l5 1c7.628 3.895 15.544 10.561 18.559 18.828 1.679 8.261 1.57 16.19-3.133 23.344-1.97 2.526-4.014 4.718-6.426 6.828l-2.25 2c-3.687 2.681-7.765 4.786-11.75 7v21l-5.644.044q-9.225.079-18.452.192c-3.73.044-7.459.084-11.188.11q-5.4.04-10.796.117-2.06.025-4.12.035c-1.923.01-3.846.039-5.768.07l-3.317.033c-2.715.19-2.715.19-4.565 1.707-1.96 2.882-1.57 5.338-1.15 8.692 2.225 2.282 3.629 2.947 6.797 3.399l3.257.033 3.7.06 3.98.02 4.086.054c3.577.048 7.155.077 10.732.104 3.653.03 7.306.076 10.96.121 7.162.086 14.325.152 21.488.209v21c-8.162.113-16.324.205-24.487.26-3.79.025-7.58.06-11.37.117q-5.486.08-10.97.097-2.096.015-4.188.055c-1.954.036-3.908.038-5.861.039l-3.372.033C325 466 325 466 323.242 463.652L322 461l-2-3a133 133 0 0 1-.152-9.29l.025-3.017q.031-3.418.077-6.836c.054-4.186.096-8.373.135-12.56.081-8.185.182-16.371.287-24.557q.066-5.11.125-10.22c.227-19.522.542-39.017 1.503-58.52l2.809 1.469c4.859 2.331 8.141 2.239 13.246.476q3.3-1.286 6.566-2.656c7.253-2.767 13.557-3.622 21.254-3.539"/><path fill="#2f6217" d="M102.738 250.773h2.632c2.863 0 5.725.016 8.587.032l5.965.008c5.226.008 10.452.028 15.678.05 5.336.02 10.672.03 16.007.04 10.465.02 20.929.056 31.393.097v23l-7.951.012c-8.686.018-17.37.062-26.056.12-5.264.034-10.528.06-15.792.064q-7.625.008-15.25.077-2.904.02-5.808.013c-2.72-.005-5.437.021-8.157.055l-2.406-.027c-5.754.117-10.36 1.638-14.58 5.686-2.71 4.38-3.376 7.68-3.381 12.793l-.014 1.995c-.012 2.193-.003 4.385.007 6.577q-.007 2.367-.016 4.732c-.014 4.275-.008 8.55.001 12.824.008 4.478 0 8.955-.004 13.433q-.007 11.278.016 22.556c.016 8.687.01 17.375-.006 26.062a7786 7786 0 0 0-.007 22.393q.008 6.684-.005 13.367-.013 6.286.015 12.568.006 2.304-.004 4.608c-.008 2.1.002 4.199.017 6.299l.003 3.557C84.054 447.46 85.06 449.84 87 453c5.354 4.023 9.578 4.586 16.148 4.546l2.693.031c2.916.03 5.832.031 8.749.032q3.045.023 6.09.05c5.329.044 10.657.064 15.985.08 5.443.019 10.886.06 16.33.1 10.668.076 21.336.126 32.005.161a56.5 56.5 0 0 1-4 7 90 90 0 0 0-.414 7.293l-.059 2.14c-.06 2.251-.106 4.503-.152 6.754q-.057 2.293-.117 4.584-.143 5.615-.258 11.229-19.48.106-38.96.155c-6.03.016-12.06.037-18.09.071q-8.723.048-17.447.059-3.333.008-6.666.032c-3.106.022-6.211.025-9.317.024l-2.8.032-2.563-.012-2.226.008C80 497 80 497 78.264 495.89c-1.888-2.823-1.64-5.119-1.643-8.495l-.013-2.043c-.012-2.264-.002-4.527.007-6.791q-.007-2.433-.016-4.864-.017-5.24-.01-10.48c.007-5.52-.009-11.041-.028-16.562-.041-12.715-.052-25.431-.064-38.147-.01-11.652-.027-23.305-.068-34.957q-.026-8.236-.015-16.474c.002-3.412-.009-6.824-.023-10.236q-.006-2.379.004-4.757c.008-2.16-.002-4.32-.016-6.48l-.003-3.666c-.144-2.903-.144-2.903-1.65-4.788-1.963-1.447-1.963-1.447-5.726-2.15v-20l6-2c1.653-3.238 1.126-7.283 1.14-10.855q.029-2.04.06-4.077c.028-2.121.05-4.242.05-6.364.016-9.64.575-17.38 7.563-24.57 5.817-5.42 11.061-6.43 18.925-6.361"/><path fill="#e17d22" d="M342 186h51c0 10.028 0 10.028-1.5 14.125-1.334 4.135-2.187 7.493-1.5 11.875 3.731 4.183 8.08 7.626 12.438 11.125l2.114 1.71c4.64 3.74 9.317 7.43 14.01 11.102q3.22 2.53 6.438 5.063l2.32 1.805c3.786 3.057 6.233 5.513 7.68 10.195.073 2.237.09 4.477.066 6.715l-.029 3.562L435 266l-2.561.018q-11.941.087-23.882.218c-4.093.044-8.185.084-12.278.11q-5.923.04-11.846.117-2.261.025-4.522.035c-2.11.01-4.219.037-6.328.07l-3.64.033c-2.92.16-2.92.16-4.792 1.739-1.345 1.774-1.345 1.774-2.151 4.66-3.27.145-6.54.234-9.812.313l-2.815.126c-2.55.046-4.867.044-7.373-.439-2.074-2.457-2.074-2.457-3-5-2.06-2.06-6.217-1.414-9.062-1.562l-2.3-.131q-2.818-.159-5.638-.307c-.03-3.937-.047-7.875-.062-11.812l-.026-3.334c-.01-3.286.037-6.568.088-9.854l-.065-3.015c.07-4.01.203-6.85 2.677-10.105 2.136-1.978 4.334-3.685 6.7-5.38l2.342-1.797c2.8-2.137 5.628-4.216 8.542-6.193 2.108-1.483 2.108-1.483 2.741-4.635.056-3.464-.178-5.008-1.312-8.125C343 197 343 197 342 186"/><path fill="#010101" d="m225.488 260.694 1.981-.026c2.163-.024 4.325-.032 6.488-.04l4.518-.026q4.737-.024 9.474-.028c4.04-.005 8.077-.043 12.115-.088 3.112-.03 6.223-.037 9.335-.038q2.233-.006 4.465-.038c13.1-.17 13.1-.17 17.033 3 2.805 3.455 3.23 5.03 3.264 9.388l.03 3.025.012 3.282.017 3.372q.014 3.54.02 7.079c.01 3.6.04 7.198.072 10.798q.01 3.438.016 6.876l.038 3.252c-.018 5.959-.448 10.277-3.366 15.518-4.002 3.752-7.695 4.129-13.029 4.177l-3.762.039-4.072.022-2.075.013q-5.437.03-10.875.044c-3.736.011-7.471.046-11.207.085-2.88.027-5.76.035-8.64.038q-2.065.008-4.13.035c-12.091.154-12.091.154-15.914-2.042-5.983-6.282-5.752-12.813-5.73-21.075l-.015-3.364q-.01-3.508.003-7.015c.008-3.577-.02-7.153-.052-10.73q-.003-3.414.002-6.829l-.034-3.235c.07-7.392.07-7.392 2.374-11.25 4.059-3.6 6.297-4.171 11.644-4.22"/><path fill="#494154" d="m365.875 328.75 2.664.014c6.608.092 13.44.226 19.461 3.236v17l-4.355-.977c-15.76-3.133-31.588-1.96-45.582 6.227-6.544 4.435-11.863 10.59-13.688 18.438L324 376l-.234 2.035c-.474 7.465 2.31 13.03 6.703 18.942 7.337 8.164 18.463 12.522 29.277 13.194 2.942.06 5.875.053 8.817.017l2.998-.002c5.64-.034 10.774-.478 16.439-1.186v21l-5.644.044q-9.225.079-18.452.192c-3.73.044-7.459.084-11.188.11q-5.4.04-10.796.117-2.06.025-4.12.035c-1.923.01-3.846.039-5.768.07l-3.317.033c-2.715.19-2.715.19-4.565 1.707-1.96 2.882-1.57 5.338-1.15 8.692 2.225 2.282 3.629 2.947 6.797 3.399l3.257.033 3.7.06 3.98.02 4.086.054c3.577.048 7.155.077 10.732.104 3.653.03 7.306.076 10.96.121 7.162.086 14.325.152 21.488.209v21c-8.162.113-16.324.205-24.487.26-3.79.025-7.58.06-11.37.117q-5.486.08-10.97.097-2.096.015-4.188.055c-1.954.036-3.908.038-5.861.039l-3.372.033C325 466 325 466 323.242 463.652L322 461l-2-3a133 133 0 0 1-.152-9.29l.025-3.017q.031-3.418.077-6.836c.054-4.186.096-8.373.135-12.56.081-8.185.182-16.371.287-24.557q.066-5.11.125-10.22c.227-19.522.542-39.017 1.503-58.52l2.809 1.469c4.859 2.331 8.141 2.239 13.246.476q3.3-1.286 6.566-2.656c7.253-2.767 13.557-3.622 21.254-3.539"/><path fill="#040303" d="M291 195c2.648 2.29 2.648 2.29 5 5l2.285 2.625c2.447 4.817 2.262 9.051 2.152 14.375l.022 2.945c-.048 5.409-.378 9.415-3.459 14.055-3.935 3.28-6.983 3.41-12 3-2.79-1.04-5.34-2.427-7.937-3.875-12.24-6.72-25.305-8.387-38.875-4.5-4.304 1.482-8.12 3.361-12.063 5.625-4.255 2.443-7.122 3.65-12.125 2.75-3.295-1.348-4.666-2.488-6.61-5.469-1.859-4.72-1.904-8.877-1.89-13.906l-.086-2.75c-.021-7.44 2.07-12.298 7.282-17.6C231.59 180.186 270.147 184.816 291 195"/><path fill="#030303" d="M161.672 300.3c6.806 4.968 10.696 11.805 13.328 19.7 1.202 11.43-1.19 19.418-7.93 28.64-2.02 2.303-3.89 3.876-6.445 5.548l-2.21 1.48c-7.547 4.164-16.008 4.492-24.415 3.332-9.615-2.88-16.242-8.787-21.375-17.273-3.72-7.775-4.124-17.157-1.895-25.442.937-2.236 1.995-4.225 3.27-6.285l1.063-1.887c4.211-6.741 11.392-11.146 18.84-13.648 10.173-2.255 19.18.396 27.769 5.836"/><path fill="#e7e8e9" d="M98 289h86v76H98zm19.05 16.367-1.737 2.508-1.762 2.492c-4.72 8.014-4.853 17.553-2.934 26.516 3.077 8.685 8.971 15.09 16.883 19.68 7.977 3.63 16.817 3.95 25.273 1.699 2.232-.926 4.186-1.975 6.227-3.262l1.883-1.062C166.075 350.7 168.987 346.23 172 341l1.875-3.187c2.417-8.19 2.448-17.15-1.621-24.793L171 311l-1.285-2.113c-4.65-6.879-12.169-12.566-20.34-14.512-12.384-1.376-23.972.849-32.324 10.992"/><path fill="#bcd4ca" d="M98 407h88v36H98z"/><path fill="#fa9526" d="M343 187h10l.594 3.813c3.196 18.883 9.91 34.077 24.656 46.812 5.96 5.191 9.1 10.404 9.75 18.375q.024 2.346.016 4.691l-.007 2.448L388 265l-3.98.078q-2.604.084-5.207.172l-2.62.043c-4.162.16-6.625.361-10.244 2.566-2.151 2.073-2.151 2.073-2.949 5.141-3.27.145-6.54.234-9.812.313l-2.815.126c-2.55.046-4.867.044-7.373-.439-2.074-2.457-2.074-2.457-3-5-2.06-2.06-6.217-1.414-9.062-1.562l-2.3-.131q-2.818-.159-5.638-.307c-.03-3.937-.047-7.875-.062-11.812l-.026-3.334c-.01-3.286.037-6.568.088-9.854l-.065-3.015c.07-4.01.203-6.85 2.677-10.105 2.136-1.978 4.334-3.685 6.7-5.38l2.342-1.797c2.8-2.137 5.628-4.216 8.542-6.193 2.108-1.483 2.108-1.483 2.741-4.635.067-4.146-.791-6.65-2.234-10.453-1.206-4.156-.885-8.123-.703-12.422"/><path fill="#e50d27" d="M233 41h40v55h-40z"/><path fill="#fb4f29" d="M226 275h54l.063 16.063.027 5.027.008 4.008.015 2.05c.001 4.46-.472 8.363-1.113 12.852h-52c-1.125-12.375-1.125-12.375-1.098-18.418l.008-3.485.028-4.284z"/><path fill="#2b5013" d="M135 458h50c-2 4-2 4-4 7a90 90 0 0 0-.414 7.293l-.108 3.915-.103 4.98L180 497h-46z"/><path fill="#fc9626" d="M326 481h109c0 11 0 11-1.37 14.152-4.08 2.866-7.85 2.506-12.723 2.416l-3.105.002a965 965 0 0 1-10.161-.082q-3.523-.014-7.046-.021c-6.181-.02-12.362-.068-18.544-.124-6.307-.05-12.615-.074-18.922-.099A8915 8915 0 0 1 326 497z"/><path fill="#e6e7e8" d="M385.727 363.652C390.064 366.224 394.7 369.4 397 374c.553 4.533.428 8.074-1.5 12.25-6.666 7.333-15.177 10.153-24.895 11.07-10.649.353-19.604-1.342-27.793-8.445-3.453-3.298-4.977-5.264-5.25-10.062.082-4.591 1.272-6.981 4.45-10.243 11.699-9.24 30.109-10.905 43.715-4.918"/><path fill="#bbd4ca" d="M135 289h49v76h-49v-6l2.965-.078c7.75-.335 14.225-.928 21.035-4.922l3.188-1.687c3.917-3.222 6.276-6.96 8.812-11.313l1.875-3.187c2.416-8.187 2.455-17.158-1.625-24.793L170 311l-1.25-2.113c-4.739-7.149-12.177-11.925-20.59-13.653-4.38-.475-8.763-.38-13.16-.234z"/><path fill="#332d3c" d="M352.602 138.886a782 782 0 0 1 4.808.016l2.552.005c2.7.005 5.4.018 8.1.03l5.479.014q6.73.017 13.459.049c.829 3.058 1.636 6.122 2.438 9.187l.697 2.561c1.89 7.317 2.263 13.427 2.865 21.252h-51c4.114-32.909 4.114-32.909 10.602-33.114"/><path fill="#010101" d="m334.01 429.498 2.435-.016c2.654-.013 5.307.004 7.961.022q2.769 0 5.537-.005 5.8 0 11.6.034c4.957.029 9.913.026 14.87.013 3.81-.007 7.621.001 11.432.014q2.741.006 5.483 0c2.554-.002 5.108.014 7.662.036l2.29-.014c3.19.046 5.388.23 8.19 1.822C413 433 413 433 413.496 434.937c-.158 5.564-.158 5.564-1.808 8-3.906 2.46-7.851 2.224-12.293 2.24l-2.341.02q-3.836.028-7.671.041l-2.647.013q-6.934.03-13.867.044c-4.774.011-9.548.046-14.322.085-3.671.026-7.343.035-11.015.038q-2.64.008-5.28.035a582 582 0 0 1-7.388.017l-2.198.039c-3.551-.037-5.569-.45-8.622-2.32C322 441 322 441 321.438 437.5c1.204-7.495 5.805-8.088 12.572-8.002"/><path fill="#2b4f13" d="M135 251h48v23H99v-1h36z"/><path fill="#5c274f" d="M125 171h34v31h-34z"/><path fill="#e00c27" d="M98 380h87v12H98z"/><path fill="#e8e9ea" d="M98 407h37v12l-2.887.113-3.8.2-3.762.175c-3.93.567-6.717 1.678-9.551 4.512.204 4.064.204 4.064 1 8 3.72 2.48 6.865 2.444 11.188 2.625l2.271.117c1.847.094 3.694.177 5.541.258v8H98z"/><path fill="#484054" d="M343 273c3.27-.145 6.54-.234 9.813-.312l2.814-.127c2.548-.046 4.869-.041 7.373.439 1.95 2.395 1.95 2.395 3 5 3.077 2.051 3.936 2.273 7.45 2.414l2.568.117 2.67.094 2.705.117c2.202.094 4.404.177 6.607.258v12l-2.902-.219a550 550 0 0 0-10.815-.66 507 507 0 0 1-4.37-.249c-13.88-.784-27.38 1.766-40.347 6.796C326 300 326 300 323 300v-20c7.813-.312 7.813-.312 10.261-.388 4.09-.198 4.09-.198 7.688-1.967 1.232-1.78 1.232-1.78 2.051-4.645"/><path fill="#050606" d="m228.904 435.498 3.53-.028 3.785.034 3.91-.005a922 922 0 0 1 8.181.034c3.487.029 6.973.026 10.46.013 3.337-.008 6.674.007 10.011.02l3.785-.008 3.53.038 3.097.016c3.551.49 6.253 1.834 8.807 4.388.586 6.214.586 6.214-1.64 9.198-3.007 2.296-4.682 2.309-8.442 2.32l-3.721.038-4.01-.025-4.124.012q-4.317.008-8.634-.022c-3.686-.022-7.37-.01-11.056.015-2.838.014-5.676.01-8.514 0q-2.038-.005-4.076.01c-1.9.01-3.8-.009-5.701-.028l-3.274-.01c-3.5-.633-4.682-1.699-6.808-4.508-.563-3.5-.563-3.5 0-7 3.537-3.571 5.93-4.5 10.904-4.502"/><path fill="#030404" d="m229.585 412.839 3.47-.03 3.75-.012 3.852-.017q4.038-.015 8.075-.02c3.442-.006 6.884-.03 10.326-.058 3.29-.023 6.581-.025 9.872-.03l3.737-.038 3.489.01 3.061-.011c3.547.468 6.236 1.82 8.783 4.367.586 6.214.586 6.214-1.64 9.198-3.007 2.296-4.682 2.309-8.442 2.32l-3.721.038-4.01-.025-4.124.012q-4.317.008-8.634-.022c-3.686-.022-7.37-.01-11.056.015-2.838.014-5.676.01-8.514 0q-2.038-.005-4.076.01c-1.9.01-3.8-.009-5.701-.028l-3.274-.01c-3.502-.633-4.69-1.69-6.808-4.508-.731-5.955-.731-5.955 1.312-8.875 3.357-2.238 6.362-2.26 10.273-2.286"/><path fill="#501f46" d="M149.02 309.695c5.18 2.686 9.13 6.757 10.98 12.305.784 6.514-.211 11.598-4 17-5.336 5.075-9.94 5.35-17.05 5.281-5.282-.503-7.837-3.048-11.262-6.844-3.65-5.271-3.385-11.252-2.688-17.437 1.87-4.729 5.474-8.072 9.98-10.34 4.634-1.515 9.422-1.554 14.04.035"/><path fill="#050505" d="m128.75 419.469 3.183-.012q3.328-.004 6.657.022c3.398.02 6.793 0 10.191-.026q3.235.004 6.469.016l3.081-.025c6.993.093 6.993.093 10.314 2.367 1.98 3.198 1.823 5.51 1.355 9.189-1.831 2.616-2.91 2.97-6 4-1.467.1-2.938.148-4.408.161l-2.69.03-2.898.012-2.985.017q-3.126.014-6.252.02c-3.189.01-6.377.041-9.566.072q-3.036.01-6.072.016l-2.892.038-2.7-.01-2.368.011c-2.742-.464-4.124-1.516-6.169-3.367-.75-1.902-.75-1.902-1-3.937l-.312-2.028c.312-2.035.312-2.035 1.66-4.129 4.182-3.005 8.377-2.477 13.402-2.437"/><path fill="#d60f25" d="M226 275h54l.063 16.063.027 5.027.008 4.008.015 2.05c.001 4.46-.472 8.363-1.113 12.852h-18c-.099-13.06.26-25.96 1-39h-35v28h-1z"/><path fill="#e47e22" d="M388 481h47c0 11 0 11-1.36 14.157-4.118 2.875-7.973 2.463-12.874 2.331l-3.01-.021c-3.17-.028-6.337-.09-9.506-.154q-3.225-.038-6.45-.069-7.9-.084-15.8-.244l1-3z"/><path fill="#e0e1e2" d="m367.125 305.625 3.32.005c13.055.196 24.447 3.547 36.555 8.37l-2 6c-4.334 1.258-6.964.643-11.187-.812-8.847-3.022-17.406-4.598-26.75-4.625l-2.718-.01c-8.907.155-16.948 2.275-25.407 4.896-2.615.744-5.247 1.18-7.938 1.551-3-4.75-3-4.75-3-7q3.933-1.45 7.875-2.875l2.203-.816c9.655-3.473 18.8-4.7 29.047-4.684"/><path fill="#f64e29" d="M285 209v10l-3.625-1.25-2.516-.816a224 224 0 0 1-5.906-2.024c-15.989-5.273-30.403-3.775-45.953 2.09a719 719 0 0 1-6 2v-10c19.464-11.068 44.32-9.512 64 0"/><path fill="#66b142" d="M130 217h24l3 10 4 9h-37l2-5a247 247 0 0 0 1.563-4.5l.753-2.219c.715-2.386 1.195-4.838 1.684-7.281"/><path fill="#473f52" d="M346 112h44v12h-44z"/><path fill="#443d50" d="M346 87h44v12h-44z"/><path fill="#f54d28" d="M98 380h37v12H98z"/><path fill="#e50d27" d="M233 15h40v11h-40z"/><path fill="#484053" d="M352.563 138.938 356 139c.349 27.303.349 27.303-2 32h-11c.839-31.91.839-31.91 9.563-32.062"/><path fill="#5d2750" d="M135 312v30c-4.933-1.233-6.034-2.992-9-7-1.796-5.389-2.34-12.043.047-17.309 2.672-3.78 4.277-5.691 8.953-5.691"/><path fill="#dd0d26" d="M262 202c7.62.98 14.161 2.458 21 6l2 1v10l-3.625-1.25c-6.393-2.138-12.885-3.931-19.375-5.75z"/><path fill="#bbd3c9" d="M387 365c7.68 4.608 7.68 4.608 10 9 .981 4.719.462 8.076-1.687 12.375C393 389 393 389 388 392z"/><path fill="#b6cec5" d="M388 308c6.487 1.681 12.768 3.53 19 6l-2 6c-4.502 1.348-7.41.53-11.812-.937l-3.52-1.153L387 317z"/><path fill="#73c953" d="M130 217h5v18h-10l1.375-3.937c1.55-4.629 2.664-9.281 3.625-14.063"/><path fill="#332e3c" d="M321 358h1v14h2l-2 18h-1z"/></svg>