<svg xmlns="http://www.w3.org/2000/svg" width="512" height="512"><path fill="#010101" d="m287 11 3.723 1.031c31.267 9.571 56.821 30.924 72.218 59.73a124.3 124.3 0 0 1 8.872 21.927l.59 1.975c8.694 30.974 3.951 63.937-11.232 91.964-5.772 10.22-13.312 18.735-21.171 27.373l1.917.018c60.812.588 60.812.588 85.083 3.982 1.295.175 2.59.35 3.925.532 23.683 3.261 43.67 7.518 59.973 26.609C502.575 262.028 505.595 278.52 504 298c-2.411 14.281-10.617 27.124-22 36-5.274 3.594-10.934 6.978-17 9l-.004 2q-.056 24.14-.18 48.28c-.04 7.783-.072 15.565-.087 23.348q-.019 10.182-.084 20.363c-.022 3.59-.038 7.18-.037 10.77.001 4.02-.03 8.038-.062 12.057l.015 3.563c-.147 11.732-3.4 21.07-11.561 29.619-10.554 10.075-21.835 11.597-35.903 11.508q-2.39.007-4.781.019c-4.355.016-8.71.008-13.065-.004-4.706-.01-9.413.005-14.119.016-9.21.018-18.42.014-27.63.002q-11.23-.013-22.46-.006l-3.232.002-6.5.004c-20.308.011-40.616-.002-60.923-.023q-26.123-.025-52.244.003a36460 36460 0 0 1-67.185.014l-3.22-.002q-11.212-.003-22.426.012-13.67.017-27.34-.013c-4.647-.01-9.294-.015-13.942-.001q-6.388.017-12.776-.016a499 499 0 0 0-4.608.007C47.343 504.6 36.856 502.41 27 493c-8.444-8.845-11.414-18.048-11.531-30.152.67-3.592 1.559-4.747 4.531-6.848 3.016-.61 3.016-.61 6.25-.75l3.266-.172L32 455l-1.469-2.762c-14.1-27.016-22.909-56.69-22.902-87.32a393 393 0 0 0-.078-6.23q-.009-2.004-.012-4.008l-.025-3.602C8 348 8 348 9.78 345.583 12 344 12 344 16 344l-.25-3c-.01-4.598 1.776-8.194 4.25-12l1.559-1.441c1.845-1.996 2.111-3.607 2.691-6.247C26.142 314.5 30.1 310.11 35.75 306c2.25-1 2.25-1 5.25-1l.309-2.246c1.31-5.222 5.281-8.908 9.476-12.121 4.222-2.456 7.862-2.823 12.715-3.008 5.71-.252 8.704-1.426 12.914-5.25 3.246-2.814 6.69-2.462 10.773-2.562 5.787-.381 8.957-1.56 13.227-5.438C102 273 102 273 105 272c1.006-2.386 1.006-2.386 1.75-5.312 5.22-16.562 16.257-29.493 31.419-37.763 11.715-5.92 25.024-7.743 37.831-9.925l-2.238-2.098C161.229 204.92 152.04 191.837 145 176l-1.46-3.23C133.408 148.55 132.156 118.069 140 93l.633-2.072c9.206-29.162 30.305-55.068 57.459-69.286 3.265-1.634 6.573-3.156 9.908-4.642l3.195-1.46C234.191 5.834 263.015 4.247 287 11"/><path fill="#f6cbbc" d="m204.79 235.39 1.89.896 1.945.964c29.675 13.755 61.857 12.513 92.012 1.469a57 57 0 0 0 7.523-3.442c8.772-3.945 22.896.193 32.09 1.536l3.26.463c15.79 2.442 29.275 7.972 39.49 20.724 7.818 11.89 10.906 24.418 8.313 38.5-2.85 11.163-9.333 20.581-19.063 26.813-4.713 2.648-9.591 4.265-14.781 5.73-2.785.807-2.785.807-4.469 3.957-.3 2.551-.3 2.551-.252 5.463l-.016 3.441.013 3.778-.017 6.044q-.006 3.251-.002 6.503c.002 4.522-.012 9.045-.03 13.567q-.068 19.293-.077 38.584-.006 10.654-.055 21.307-.03 6.734-.012 13.467c.003 2.804-.011 5.608-.03 8.412a534 534 0 0 0 .017 5.717c-.078 8.187-1.4 14.308-6.18 21.022l-1.609 1.57-1.578 1.617c-6.889 4.783-13.724 4.93-21.82 4.849h-3.462c-3.755-.001-7.51-.024-11.265-.048q-3.918-.009-7.835-.013-9.238-.017-18.476-.064c-7.016-.034-14.031-.05-21.047-.065-14.423-.031-28.845-.084-43.267-.151l1.048-2.299 1.37-3.01 1.36-2.986c2.843-6.294 4.031-11.79 3.222-18.705-1.722-3.248-1.722-3.248-5-4a166 166 0 0 0-5.687-.562l-3.012-.254L207 456c1.228-4.032 2.785-7.733 4.665-11.502 8.768-17.662 13.64-36.203 17.335-55.498l.75-3.648c1.42-7.984 1.449-15.947 1.5-24.04l.029-3.516-.013-3.308-.007-2.983c-.088-2.753-.088-2.753-2.259-5.505l-2.5-.687L224 344c-1.062-3.687-1.062-3.687-1.473-5.832-1.051-4.323-3.39-8.03-6.527-11.168-.44-1.53-.83-3.074-1.187-4.625-1.757-6.109-5.043-11.143-10.614-14.441l-1.762-.872c-4.015-2.007-5.658-5.145-7.976-8.875-2.8-4.192-5.904-6.576-10.649-8.437-3.222-.634-6.173-.923-9.437-1.125-4.753-.363-6.856-1.302-10.375-4.625-4.54-2.502-7.943-3.158-13.125-3.437-4.989-.304-7.22-1.013-10.875-4.563-5.604-2.967-10.705-3.633-17-4 1.55-9.94 8.52-17.702 16-24 10.55-7.597 21.555-9.634 34.193-11.363a947 947 0 0 0 7.102-1.006q2.292-.323 4.584-.643l2.11-.303c12.884-1.736 12.884-1.736 17.8.706"/><path fill="#85dbf8" d="M317.688 43.625Q320.368 45.783 323 48l2.188 1.734C341.16 62.838 351.67 82.34 357 102l.91 2.867c6.886 24.147 1.3 50.34-9.91 72.133l-1.758 3.438c-3.873 7.061-8.63 12.811-14.242 18.562l-2.437 2.563L327 204l-1.96 1.98C310.764 219.757 291.397 227.967 272 231l-3.309.55c-20.86 2.54-41.125-.604-59.691-10.55l-2.844-1.398c-23.891-12.148-40.403-34.482-49.472-59.188A151 151 0 0 1 154 151l-.68-2.508c-5.84-25.525.601-53.321 13.68-75.492 2.72-4.221 5.805-8.13 9-12l1.855-2.352c33.77-40.753 97.99-46.008 139.833-15.023"/><path fill="#b67b69" d="M368 344h80c.16 30.877.16 30.877.201 46.153.022 8.254.05 16.508.1 24.762q.06 9.805.075 19.61c.006 3.458.018 6.916.047 10.374.032 3.868.033 7.736.031 11.605l.044 3.444c-.041 7.909-1.525 13.876-6.139 20.357l-1.609 1.57-1.578 1.617c-8.012 5.563-16.72 4.901-26.047 4.801q-2.304-.009-4.607-.013c-4.018-.011-8.035-.04-12.053-.074-4.11-.03-8.219-.044-12.328-.06A6215 6215 0 0 1 360 488l1.023-2.195 1.352-2.93 1.336-2.883L365 477l1.144-2.596c1.313-5.223 1.165-10.378 1.175-15.743l.03-3.757q.038-5.079.056-10.157c.015-3.544.042-7.087.068-10.63q.068-10.057.116-20.113c.046-9.063.107-18.126.167-27.19.094-14.271.167-28.543.244-42.814"/><path fill="#020202" d="M240.906 39.406h3.508q3.666.008 7.333.052a856 856 0 0 0 11.218.034q3.564.016 7.129.04h3.387l3.165.048 2.774.026c3.12.477 5.029 1.563 7.58 3.394 3.26 6.518.69 16.759-.25 23.75-1.499 11.753-2.743 23.525-3.937 35.313l-.274 2.695q-.774 7.62-1.539 15.242l2.216-.048c3.323-.062 6.647-.101 9.971-.14l3.487-.076 3.369-.029 3.094-.048c3.324.396 5.18 1.373 7.863 3.341 1.429 2.858 1.276 4.817 1 8a59 59 0 0 1-3.559 6.602l-1.137 1.895a779 779 0 0 1-3.741 6.128q-1.304 2.151-2.603 4.304a2511 2511 0 0 1-6.678 10.97 2418 2418 0 0 0-5.837 9.628q-4.19 6.931-8.41 13.844-4.08 6.69-8.101 13.414l-1.948 3.242a1340 1340 0 0 0-3.61 6.046l-1.618 2.685-1.402 2.348C262 214 262 214 259 216c-2.875.438-2.875.438-6 0-3.91-3.396-6.453-7.049-9.047-11.504l-1.116-1.9a970 970 0 0 1-2.363-4.049 1760 1760 0 0 0-5.041-8.611l-2.6-4.428c-3.84-6.543-7.758-13.036-11.708-19.514a2848 2848 0 0 1-3.163-5.206c-3.2-5.273-6.42-10.533-9.689-15.765l-1.719-2.782q-1.56-2.525-3.153-5.03c-4.497-7.318-4.497-7.318-3.401-12.211 1.668-2.855 1.668-2.855 5-5 4.454-.608 8.828-.47 13.313-.312l3.689.068q4.5.088 8.998.244l-.212-1.644c-1.786-14.013-3.313-28.047-4.703-42.105q-.27-2.736-.546-5.472a2550 2550 0 0 1-.77-7.81l-.236-2.337A268 268 0 0 1 224 54l-.223-2.383c-.234-4.02-.081-6.093 1.979-9.642 4.934-3.004 9.479-2.652 15.15-2.569"/><path fill="#d5deee" d="M27 392h186c-3.498 17.488-3.498 17.488-6.625 25.75l-1.038 2.795c-3.263 8.597-6.88 17.122-11.201 25.246-1.157 2.164-1.157 2.164-1.983 4.334-1.14 2.436-2.168 4.043-4.153 5.875-4.334 1.191-8.583 1.01-13.052.908a795 795 0 0 0-4.022.004c-3.633.002-7.263-.045-10.895-.1-3.799-.05-7.597-.056-11.395-.065-7.19-.025-14.379-.09-21.568-.17a4077 4077 0 0 0-24.559-.174A8979 8979 0 0 1 52 456a6885 6885 0 0 1-4.358-7.706l-1.243-2.192c-2.674-4.738-5.098-9.458-7.212-14.477l-.853-2.024Q37.161 426.803 36 424l-1.145-2.523C31.115 412.982 27 401.355 27 392"/><path fill="#cf8b75" d="M380 233c30.376-.975 71.418-1.093 95.125 20.563 9.052 9.486 12.749 20.716 13.125 33.562-.322 12.024-4.779 22.06-13.008 30.832-7.445 6.784-15.799 10.31-25.912 10.27h-3.88l-4.134-.032-4.274-.008q-5.595-.014-11.19-.05c-3.815-.02-7.63-.03-11.444-.04A8042 8042 0 0 1 392 328c1.494-3.097 3.198-5.598 5.313-8.312C406.084 307.4 408.36 291.75 407 277c-3.034-17.552-13.242-32.064-27-43z"/><path fill="#fde7c9" d="m115 288 2 1c4.145.248 4.145.248 8-1 2.813-.375 2.813-.375 6 0 2.872 2.394 4.835 4.746 6.875 7.875L140 298c3.406-.021 3.406-.021 7-1 7.308-1.363 7.308-1.363 11 1 1.703 1.945 1.703 1.945 3.25 4.125l1.578 2.195L164 306c4.646-.485 4.646-.485 9-2 3.875-.517 5.477-.377 8.688 1.938 2.224 2.946 2.692 4.248 3.5 7.687.57 2.379.57 2.379 1.812 4.375 2.545 1.223 4.848 1.786 7.625 2.27 3.048.937 3.84 1.966 5.375 4.73.555 2.438.555 2.438.875 5 .7 4.214.7 4.214 3.688 7.313L207 339l1 5H32l1-5 2.375-1.562c3.66-3.399 3.892-6.85 4.754-11.66 1.031-3.29 1.878-4.148 4.871-5.778q2.266-.6 4.563-1.062c2.412-.626 2.412-.626 4.437-1.938 1.224-2.547 1.786-4.846 2.27-7.625.923-3.003 2.034-3.838 4.73-5.375 4.103-.419 5.511-.326 9 2 3.465.232 3.465.232 7-1 1.559-1.667 2.697-3.348 3.86-5.309C82 298 82 298 85 296c4.075-.34 5.53-.313 9 2 3.426.31 3.426.31 7-1 1.837-1.945 3.278-3.948 4.738-6.187 2.45-3.52 5.255-2.98 9.262-2.813"/><path fill="#e6343e" d="M241 56h30c-.905 11.922-1.87 23.83-3.023 35.73l-.273 2.822q-.683 7.038-1.383 14.074l-.516 5.284-.246 2.419c-1.22 8.829-1.22 8.829.77 17.124 4.26 2.467 8.58 2.226 13.421 2.297l2.98.09q3.635.105 7.27.16c-5.755 10.156-11.653 20.22-17.625 30.25l-3.71 6.241q-1.76 2.956-3.525 5.91a529 529 0 0 0-3.99 6.808l-1.61 2.775-1.362 2.382L257 192h-2c-1.534-2.25-1.534-2.25-3.352-5.43l-1.004-1.739a886 886 0 0 1-2.149-3.743c-1.89-3.312-3.804-6.61-5.718-9.908l-1.187-2.05c-4.76-8.188-9.754-16.229-14.762-24.266l-1.926-3.098-1.703-2.726C222 137 222 137 222 136l1.772-.06c2.66-.096 5.319-.205 7.978-.315l2.79-.094 2.694-.117 2.476-.095c2.496-.348 4.156-.99 6.29-2.319 1.533-3.066.93-6.179.723-9.52l-.142-2.387c-.722-11.288-1.966-22.533-3.143-33.78q-.53-5.06-1.05-10.121-.32-3.12-.651-6.237l-.294-2.856-.26-2.48c-.224-3.2-.183-6.412-.183-9.619"/><path fill="#0067dc" d="M24 360h192c0 12 0 12-1 16H25c-2.39-4.78-1-10.656-1-16"/><path fill="#0055bf" d="M34 472h172c-1.576 6.303-5.674 10.586-11.187 13.938-4.316 1.63-7.853 2.19-12.48 2.21l-3.5.02c-1.263.004-2.526.006-3.828.009l-4.042.02q-6.63.028-13.26.041l-4.572.013q-10.741.029-21.484.041-12.382.015-24.766.077-9.582.044-19.164.048c-3.813.002-7.624.011-11.436.036q-5.383.035-10.766.018c-1.935-.001-3.871.018-5.806.038-8.347-.05-13.84-1.064-20.24-6.763l-1.969-2.308-2.031-2.317C34 475 34 475 34 472"/><path fill="#eeb59c" d="M126 263c7.45.949 16.43 2.43 22 8 1.976.274 3.956.519 5.938.75 6.254.903 13.41 2.597 18.062 7.25 1.755.294 3.51.583 5.27.848 9.84 1.54 17.87 3.99 24.105 12.277q1.318 1.933 2.625 3.875c1.809 2.05 3.545 3.694 5.813 5.219 7.943 5.416 11.515 12.86 15.175 21.539 1.47 3.257 3.255 6.313 5.059 9.394C231 334 231 334 231 336h9c.886 39.712-4.09 75.265-20 112h12c.256 14.649-.164 26.384-6 40h-10l1.023-2.195c3.864-8.375 7.078-15.399 5.977-24.805-1.722-3.248-1.722-3.248-5-4a166 166 0 0 0-5.687-.562l-3.012-.254L207 456c1.228-4.032 2.785-7.733 4.665-11.502 8.768-17.662 13.64-36.203 17.335-55.498l.75-3.648c1.42-7.984 1.449-15.947 1.5-24.04l.029-3.516-.013-3.308-.007-2.983c-.088-2.753-.088-2.753-2.259-5.505l-2.5-.687L224 344c-1.062-3.687-1.062-3.687-1.473-5.832-1.051-4.323-3.39-8.03-6.527-11.168-.44-1.53-.83-3.074-1.187-4.625-1.757-6.109-5.043-11.143-10.614-14.441l-1.762-.872c-4.015-2.007-5.658-5.145-7.976-8.875-2.8-4.192-5.904-6.576-10.649-8.437-3.222-.634-6.173-.923-9.437-1.125-4.753-.363-6.856-1.302-10.375-4.625-4.54-2.502-7.943-3.158-13.125-3.437-4.989-.304-7.22-1.013-10.875-4.563-5.604-2.967-10.705-3.633-17-4 .56-3.363 1.418-5.991 3-9"/><path fill="#60bee6" d="M163 81c1.325 3.685.601 6.038-.437 9.75-6.227 27.518.57 57.604 15.437 81.25 2.842 4.137 5.849 8.094 9 12l1.86 2.363C205.964 206.942 233.675 220.136 260 223c3.813.186 7.62.238 11.438.25l3.201.012c7.748-.057 14.883-.933 22.412-2.703C300 220 300 220 303 221c-25.62 12.528-53.829 14.944-81 6-4.518-1.65-8.763-3.73-13-6l-2.844-1.398c-23.891-12.148-40.403-34.482-49.472-59.188A151 151 0 0 1 154 151l-.68-2.508c-5.04-22.027-1.15-47.835 9.68-67.492"/><path fill="#fd4a4f" d="M256 56h15c-.887 11.922-1.87 23.831-3.023 35.73l-.273 2.822q-.683 7.038-1.383 14.074l-.516 5.284-.246 2.419c-1.22 8.829-1.22 8.829.77 17.124 4.26 2.467 8.58 2.226 13.421 2.297l2.98.09q3.635.105 7.27.16c-2.63 4.688-5.303 9.35-8 14l-1.394 2.414a891 891 0 0 1-4.356 7.399l-1.392 2.407-1.342 2.237-1.18 2c-1.653 1.91-2.88 2.172-5.336 2.543-7.776-8.294-11.16-15.63-11.114-27.061v-2.81c0-3.067.009-6.135.016-9.203l.005-6.377q.006-8.397.024-16.793.014-8.566.02-17.133.016-16.811.049-33.623"/><path fill="#0067dc" d="M52 472h154c-.933 3.73-1.359 5.356-4 8-2.47.5-2.47.5-5.47.501l-3.445.03-3.783-.03-3.982.017c-3.608.014-7.215.003-10.823-.014-3.779-.013-7.557-.007-11.336-.003q-9.526.002-19.053-.034c-7.33-.027-14.661-.029-21.992-.017q-10.588.014-21.177-.01-4.5-.007-8.998 0-5.31.006-10.62-.028c-1.91-.008-3.819-.001-5.728.006-9.332-.08-16.06-1.768-23.593-7.418z"/><path fill="#fadca6" d="M67 304c2.875 1.188 2.875 1.188 5 3 .313 2.688.313 2.688 0 5l-1.793.445c-5.751 1.633-8.97 3.259-12.207 8.555-.556 2.246-.947 4.49-1.34 6.77-.951 3.214-2.821 5.062-5.222 7.332-2.061 2.484-2.061 2.484-3.438 8.898H32l1-5 2.375-1.562c3.66-3.399 3.892-6.85 4.754-11.66 1.031-3.29 1.878-4.148 4.871-5.778q2.266-.6 4.563-1.062c2.412-.626 2.412-.626 4.437-1.938 1.224-2.547 1.786-4.846 2.27-7.625 1.63-5.303 5.688-5.992 10.73-5.375"/><path fill="#bccae3" d="M27 392h8l.516 2.07c5.167 20.51 11.55 39.29 21.797 57.817C59 455 59 455 59 456h-7c-6.102-10.404-11.378-20.862-16-32l-1.145-2.523C31.115 412.982 27 401.355 27 392"/><path fill="#0053b9" d="M24 360h8l1 16h-8c-1.502-3.003-1.093-5.79-1.062-9.125l.027-3.883z"/></svg>