<svg xmlns="http://www.w3.org/2000/svg" width="512" height="512"><path fill="#ef6191" d="M92 16c2.5 1.75 2.5 1.75 4 4v4h128l1-6c3.67-2.446 6.736-2.84 11-2 2.691 2.176 4.455 3.91 6 7 4.583.174 9.165.28 13.75.375l3.945.152c6.371.43 6.371.43 12.018-1.854C272.94 19.88 272.94 19.88 274 17c3.198-1.599 6.53-1.5 10-1 2.5 1.75 2.5 1.75 4 4v4h128l1-6c3.214-2.143 5.174-2.3 8.965-2.46 3.031.686 4.091 2.054 6.035 4.46a90 90 0 0 1 3.375 7.125l.901 2.113c3.384 8.1 6.2 16.358 8.724 24.762l1.04 3.336c5.52 20.896 2.971 43.394-7.052 62.367-4.8 7.959-10.703 14.562-17.988 20.297 1.298 4.019 2.768 7.908 4.375 11.813 5.71 14.977 10.008 32.512 5.54 48.402-1.838 7.609 1.516 13.823 4.272 20.847 3.07 8.003 5.903 16.006 8.25 24.25l.71 2.471c3.112 11.258 4.264 21.968 4.228 33.655l-.003 2.134c-.068 16.653-2.472 31.488-9.173 46.814-4.229 10.196-.464 20.4 1.953 30.695 6.7 28.705 11.321 57.55 13.848 86.919q.197 2.053.398 4.105c.682 8.002.786 16.05.886 24.076.028 1.974.073 3.947.12 5.92l.022 3.692.044 3.329c-.578 3.542-1.683 4.693-4.47 6.878-2.743.729-5.228.568-8 0-2.5-1.75-2.5-1.75-4-4v-4q-31.841-.016-63.683.08c-9.856.03-19.713.048-29.57.04a4806 4806 0 0 0-25.779.046c-4.548.02-9.096.03-13.644.014q-6.428-.02-12.856.035-2.353.012-4.706-.008c-8.107-.063-14.543.053-21.065 5.41-5.178 4.22-14.372 2.843-20.697 2.383-3.858-1.131-6.78-2.897-9.784-5.612-3.06-1.916-5.326-1.773-8.923-1.787l-2.04-.02c-2.254-.019-4.508-.016-6.762-.013l-4.849-.031c-4.388-.028-8.776-.037-13.164-.043-4.586-.01-9.171-.036-13.757-.06-8.684-.044-17.368-.072-26.052-.095-9.886-.027-19.772-.071-29.659-.117A35447 35447 0 0 0 72 488l-.312 2.875C71 494 71 494 68 496c-7.146.68-7.146.68-10.096-1.671-2.375-2.906-2.407-4.335-2.4-8.052l-.01-3.513.069-3.827.021-1.99c.492-43.999 7.295-88.833 18.876-131.257.912-4.544.953-8.437-.85-12.73l-.897-2.222-.963-2.363c-14.13-37.135-9.005-76.412 6.91-112.203l1.403-3.11c2.456-5.644 2.021-9.129.397-15.02-3.873-17.184 1.576-35.29 8.27-50.968.986-2.387 1.754-4.556 2.27-7.074l-1.941-1.617C79.364 130.033 73.058 120.733 68 109l-1.262-2.926C57.535 80.144 66.098 50.043 77 26c5.7-11.342 5.7-11.342 15-10"/><path fill="#fecbbb" d="M301.674 148.45c6.633 3.286 13.116 5.798 20.326 7.55l3.102.895c24.053 6.054 52.513 3.426 75.097-6.723C403 149 403 149 406 149c6.98 13.759 13.222 31.863 9.129 47.281-4.963 13.929-13.473 21.967-26.254 29.094-2.953 1.316-2.953 1.316-3.875 3.625-.39 3.582-.436 5.363 1.625 8.375 3.084 2.11 4.68 1.953 8.375 1.625 8.536-3.627 15.426-9.586 22-16 2.535 1.267 2.611 2.082 3.586 4.691l.876 2.34.913 2.532.942 2.592c2.789 7.842 4.934 15.713 6.683 23.845l.684 2.957c5.711 28.165-1.315 59.077-17.006 82.89-26.256 38.24-71.882 58.812-116.342 67.239C260.669 418.795 224.71 416.874 189 406l-2.559-.776C168.561 399.666 150.23 392.012 135 381l-2.96-2.11c-26.687-19.493-45.883-45.45-51.158-78.575C77.2 273.897 82.831 248.43 93 224c3.82 0 4.268.943 6.938 3.563 5.608 5.14 12.467 11.024 20.277 11.726 2.877-.075 2.877-.075 5.16-1.914 2.112-3.087 2.237-4.703 1.625-8.375-2.727-3.172-5.748-5.227-9.312-7.375C107.504 215.22 101.19 208.537 97 197c-3.115-16.509 1.41-33.308 9-48 3.93.65 7.323 1.858 11 3.375 29.322 11.49 63.782 9.09 92.363-3.281 5.498-2.455 10.934-5.038 16.371-7.621 25.437-11.471 52.082-4.853 75.94 6.978"/><path fill="#ef6191" d="M236 16c2.691 2.176 4.455 3.91 6 7 4.583.174 9.165.28 13.75.375l3.945.152c6.371.43 6.371.43 12.018-1.854C272.94 19.88 272.94 19.88 274 17c3.198-1.599 6.53-1.5 10-1 2.5 1.75 2.5 1.75 4 4v4h128c22.31 53.545 22.31 53.545 11.766 80.96-2.214 5.286-4.99 9.726-8.766 14.04l-1.953 2.316c-13.968 15.287-35.748 21.703-55.872 22.844-24.406.92-42.4-3.691-64.25-14.418-5.2-2.505-10.355-4.27-15.925-5.742l-3.082-.95c-26.166-7.074-51.296.787-74.76 12.115-13.264 6.314-27.002 9.23-41.658 9.148l-3.148-.015c-25.225-.377-46.983-6.929-65.133-25.08-9.45-10.22-13.868-24.72-13.691-38.425C80.363 60.298 88.016 42.629 96 24h128l1-6c3.67-2.446 6.736-2.84 11-2"/><path fill="#020101" d="M92 16c2.563 1.438 2.563 1.438 4 4 .184 6.57-2.022 12.034-4.75 17.875-9.478 21.324-14.61 44.721-6.02 67.082 2.21 5.278 5.01 9.728 8.77 14.043l1.73 2.094c13.881 15.39 36.25 20.818 56.158 22.09 20.524.93 37.498-2.26 55.95-11.145C232.237 120.31 259.665 114.981 286 124c6.817 2.664 13.407 5.83 20 9 26.579 12.704 56.196 13.79 84 4 14.35-5.153 27.04-13.467 34.613-27.059 9.322-19.773 7.871-39.91.961-60.343-1.833-5.097-3.913-10.076-6.07-15.043l-1.379-3.18-1.242-2.727c-1.019-3.056-1.141-5.445-.883-8.648 1.5-2.375 1.5-2.375 4-4 2.776-.557 5.255-.73 8 0 3.824 2.974 5.543 6.758 7.375 11.125l.901 2.113c3.384 8.1 6.2 16.358 8.724 24.762l1.04 3.336c5.52 20.896 2.971 43.394-7.052 62.367-4.8 7.959-10.703 14.562-17.988 20.297 1.298 4.019 2.768 7.908 4.375 11.813 5.71 14.977 10.008 32.512 5.54 48.402-1.838 7.609 1.516 13.823 4.272 20.847 3.07 8.003 5.903 16.006 8.25 24.25l.71 2.471c3.112 11.258 4.264 21.968 4.228 33.655l-.003 2.134c-.068 16.653-2.472 31.488-9.173 46.814-4.229 10.196-.464 20.4 1.953 30.695 6.7 28.705 11.321 57.55 13.848 86.919q.197 2.053.398 4.105c.682 8.002.786 16.05.886 24.076.028 1.974.073 3.947.12 5.92l.022 3.692.044 3.329c-.578 3.542-1.683 4.693-4.47 6.878-2 .531-2 .531-4 .5l-2 .031c-2.909-.772-4.093-2.238-6-4.531-.498-2.44-.498-2.44-.504-5.207l-.05-3.164-.009-3.442C438.582 439.917 432.88 399.044 423 360a200 200 0 0 0-9.375 9.875C383.353 403.522 338.99 421.719 295 429l-2.97.492c-15.38 2.44-30.482 2.946-46.03 2.508-.784-.015-1.568-.03-2.376-.047C202.779 431.07 157.33 416.824 124 393l-1.687-1.204c-9.797-7.089-18.224-15.394-26.626-24.06A558 558 0 0 0 89 361c-5.045 18.457-8.242 36.988-10.812 55.938l-.444 3.237c-2.85 20.953-5.04 41.838-5.135 62.999l-.07 3.338-.025 2.92c-.658 3.289-1.94 4.488-4.514 6.568-2 .531-2 .531-4 .5l-2 .031c-2.926-.777-4.095-2.208-6-4.531-.502-2.653-.502-2.653-.496-5.723l-.01-3.513.069-3.827.021-1.99c.492-43.999 7.295-88.833 18.876-131.257.912-4.544.953-8.437-.85-12.73l-.897-2.222-.963-2.363c-14.13-37.135-9.005-76.412 6.91-112.203l1.403-3.11c2.456-5.644 2.021-9.129.397-15.02-3.873-17.184 1.576-35.29 8.27-50.968.986-2.387 1.754-4.556 2.27-7.074l-1.941-1.617C79.364 130.033 73.058 120.733 68 109l-1.262-2.926C57.535 80.144 66.098 50.043 77 26c3.84-7.64 5.657-11.253 15-10m122.25 130.563c-31.054 14.95-65.535 16.948-98.176 5.62C113 151 113 151 110.77 149.849c-1.894-1.064-1.894-1.064-4.77-.848-7.62 15.021-13.31 33.384-8 50 4.4 10.825 10.13 16.857 19.974 22.805 3.44 2.086 6.436 4.094 9.026 7.195.612 3.672.487 5.288-1.625 8.375-3.084 2.11-4.68 1.953-8.375 1.625-8.536-3.627-15.426-9.586-22-16-3.492 1.746-4.103 5.988-5.375 9.5l-.942 2.582C85.775 243.267 83.755 251.505 82 260l-.684 2.73C75.788 286.714 81.48 312.335 92 334l1.465 3.133c17.105 34.012 54.435 55.2 89.223 67.055C215.537 414.859 250.698 419.885 285 414l2.501-.423C326.371 406.872 365.976 393.75 395 366l3.063-2.375C413.944 349.433 426.315 326.975 430 306l.613-3.363c2.484-15.728 2.327-31.174-1.613-46.637l-1.137-4.691c-2.33-9.396-5.094-18.377-8.863-27.309-3.82 0-4.268.943-6.937 3.563-5.609 5.14-12.468 11.024-20.278 11.726C389 239 389 239 386.625 237.375c-2.112-3.087-2.237-4.703-1.625-8.375 2.593-3.008 5.294-4.903 8.75-6.812 10.81-6.375 18.196-14.62 21.781-26.868 3.097-15.328-2.557-32.822-9.531-46.32-3.717.59-7.058 1.722-10.565 3.07-29.598 11.23-62.915 9.89-91.943-2.465a314 314 0 0 1-7.11-3.367c-27.963-13.694-54.162-13.171-82.132.325"/><path fill="#e83f78" d="M400 24h16c11.333 25.813 22.475 53.116 11.766 80.96-2.214 5.286-4.99 9.726-8.766 14.04l-1.953 2.316c-13.968 15.287-35.748 21.703-55.872 22.844-24.406.92-42.4-3.691-64.25-14.418-5.2-2.505-10.355-4.27-15.925-5.742l-3.082-.95c-26.166-7.074-51.296.787-74.76 12.115-13.264 6.314-27.002 9.23-41.658 9.148l-3.148-.015C134.57 143.942 112.225 138.285 95 121c-3.878-4.025-6.73-7.83-9-13 3 1 3 1 4.828 3.29 11.663 14.557 35.086 21.497 52.837 23.518 24.923 2.048 46.125-1.711 68.773-11.905 22.547-10.137 46.794-16.147 70.972-6.99 5.398 2.18 10.711 4.542 16.018 6.934 17.427 7.815 33.026 12.322 52.26 12.403l3.646.063c16.876.072 32.237-5.034 44.486-16.942 12.212-13.284 16.057-28.325 15.355-45.963C414.207 59.07 408.844 46.315 404 34l-1.34-3.422A637 637 0 0 0 400 24"/><path fill="#fba98f" d="M417 223c2.535 1.267 2.611 2.082 3.586 4.691l.876 2.34.913 2.531.942 2.593c2.789 7.842 4.934 15.713 6.683 23.845l.684 2.957c5.711 28.165-1.315 59.077-17.006 82.89-17.464 25.436-41.83 40.83-69.678 53.153l-2.914 1.336C339 400 339 400 336 399l2.684-1.328C354.104 389.853 367.63 380.06 380 368l1.938-1.75c19.086-17.672 31.863-47.354 33.21-73.075.369-11.48.366-22.92-2.148-34.175l-.455-2.05a545 545 0 0 0-3.045-12.91q-.524-2.142-1-4.295c-.44-1.93-.964-3.84-1.5-5.745l-2-1 1.863-1.426 2.45-1.887 2.425-1.863A53 53 0 0 0 417 223"/><path fill="#e83f78" d="M422 359c2 1 2 1 2.759 3.15a608 608 0 0 1 2.428 10.225l.455 1.99c3.172 14.09 5.22 28.334 7.17 42.635l.445 3.233c2.602 19.095 5.226 38.396 4.868 57.704l-.027 3.01A1009 1009 0 0 1 440 488h-16l-.297-6.828c-1.443-31.56-4.723-62.433-10.417-93.517l-.457-2.498q-.427-2.319-.864-4.638c-.537-2.89-.965-5.571-.965-8.519 1.898-2.375 1.898-2.375 4.375-5 2.455-2.618 4.632-5.01 6.625-8"/><path fill="#040102" d="M215.813 447.25c9.44 2.221 17.258 13.767 23.925 20.584q2.164 2.208 4.34 4.404l2.575 2.627c3.049 2.774 5.148 3.979 9.222 4.51 6.515-.782 10.938-5.917 15.328-10.418l1.709-1.724q2.674-2.704 5.338-5.42 2.688-2.73 5.381-5.453a947 947 0 0 0 3.332-3.385c4.74-4.802 4.74-4.802 8.85-5.35 3.187.375 3.187.375 6.062 2.5C304 453 304 453 304.75 455.813c-1.98 8.413-11.93 15.486-17.875 21.375l-2.668 2.654a3470 3470 0 0 1-5.045 5.008 536 536 0 0 0-5.072 5.119c-5.973 5.805-12.083 6.603-20.22 6.506-8.888-.376-12.801-3.368-18.87-9.475q-1.468-1.463-2.938-2.923a8371 8371 0 0 1-8.493-8.453q-1.828-1.82-3.66-3.64a3447 3447 0 0 1-5.3-5.277l-1.66-1.645c-4.778-4.777-4.778-4.777-5.324-8.875.375-3.187.375-3.187 2.5-6.062C213 448 213 448 215.813 447.25"/><path fill="#020101" d="M236 16c2.691 2.176 4.455 3.91 6 7 4.583.174 9.165.28 13.75.375l3.945.152c6.371.43 6.371.43 12.018-1.854C272.94 19.88 272.94 19.88 274 17c3.211-1.606 6.517-1.467 10-1 2.563 1.438 2.563 1.438 4 4 .896 5.757-1.252 9.868-4.5 14.5-6.683 8.499-16.064 20.38-27.473 21.895-10.76-1.403-20.38-12.772-26.945-20.715-3.56-4.854-5.782-9.54-5.082-15.68 2.628-4.685 7.023-5.175 12-4"/><path fill="#fba88f" d="M406 149c6.98 13.759 13.222 31.863 9.129 47.281-4.895 13.737-13.317 22.187-26.192 28.906-3.487 1.75-3.487 1.75-4.937 6.813h-15c3.185-2.548 5.854-4.575 9.25-6.625 11.41-7.588 17.575-18.246 20.75-31.375.314-2.84.38-5.645.375-8.5v-2.36c-.169-8.706-2.168-16.82-5.508-24.87C393 156 393 156 393 153a742 742 0 0 1 4.813-2l2.707-1.125C403 149 403 149 406 149"/><path fill="#040303" d="M256 335.375c4.184.872 5.43 2.206 8 5.625.687 3.517.608 6.929.5 10.5l.008 2.84c-.07 4.964-.188 8.69-3.508 12.66-2.81 1.405-4.888 1.249-8 1-3.136-1.78-3.841-2.523-5-6-.304-3.453-.323-6.91-.375-10.375l-.113-2.867c-.06-4.727-.078-7.001 2.824-10.883C253 336 253 336 256 335.375"/><path fill="#f9c7b7" d="M242 24h28c-2.623 5.246-6.635 11.23-12 14-4.529.122-7.168-2.484-10.352-5.375-2.105-2.076-3.961-4.196-5.648-6.625z"/></svg>