<svg xmlns="http://www.w3.org/2000/svg" width="512" height="512"><path fill="#5fa816" d="m54.636 24.74 5.42-.012c4.953-.01 9.905-.008 14.857-.004 5.346.002 10.692-.007 16.037-.014q15.702-.018 31.404-.012 12.764.002 25.527-.005l3.67-.001 7.382-.004q34.61-.014 69.22-.003c21.106.006 42.211-.006 63.316-.025q32.512-.03 65.026-.024 18.25.005 36.501-.014 15.537-.019 31.073-.002 7.926.011 15.85-.005 7.26-.015 14.52.007 2.621.003 5.242-.008c15.877-.068 29.294 2.172 41.397 13.234 7.034 7.877 11.158 17.23 11.19 27.804l.025 3.933-.002 4.264q.008 2.265.02 4.53c.017 4.09.022 8.178.024 12.268q.001 3.839.01 7.677.028 13.412.026 26.823a6283 6283 0 0 0 .051 24.94q.038 10.73.036 21.463c0 4.265.005 8.53.026 12.796q.029 6.022.005 12.046a453 453 0 0 0 .015 4.398c.106 13.687-2.796 24.97-12.316 35.147-10.389 9.719-22.112 12.35-35.94 12.382l-3.137.03c-3.393.031-6.785.048-10.177.065q-3.546.028-7.091.059-9.3.073-18.599.128c-6.334.04-12.669.091-19.004.141q-18.62.144-37.24.258l1.879 2.484 2.46 3.266 1.236 1.632c2.954 3.924 5.632 7.875 7.988 12.18l1.106 2.011c18.954 35.272 22.898 74.869 12.272 113.42-6.84 22.01-18.588 40.99-33.941 58.007l-2.098 2.352c-25.078 26.576-61.865 41.544-98.062 42.87-40.43.933-78.207-12.922-107.591-40.949-27.867-27.34-43.46-63.965-44.28-103.023-.103-34.518 11.34-65.82 32.031-93.25l1-1-3.943-.018q-18.45-.086-36.897-.218a6742 6742 0 0 0-18.967-.11q-9.162-.041-18.323-.117-3.486-.025-6.97-.035c-17.636-.052-32.408-.109-46.19-12.572-7.558-7.9-11.816-17.311-11.857-28.221l-.022-3.921-.008-4.296-.02-4.53q-.028-7.436-.041-14.872l-.013-5.13q-.029-12.054-.041-24.108-.015-13.89-.077-27.778a5724 5724 0 0 1-.048-21.502c-.002-4.275-.011-8.55-.036-12.826a1447 1447 0 0 1-.018-12.083q.001-2.206-.02-4.412c-.12-13.71 2.768-24.995 12.304-35.189C24.29 25.39 38.447 24.701 54.636 24.74"/><path fill="#a2c200" d="m44.802 42.622 2.262-.013c2.491-.01 4.981 0 7.472.01q2.712-.005 5.424-.014c4.96-.013 9.92-.006 14.881.003 5.353.007 10.705-.004 16.058-.012 10.482-.013 20.965-.01 31.447-.002q12.78.01 25.557.005l3.674-.002 7.387-.003c23.095-.008 46.189.002 69.283.018q29.728.018 59.455-.003a62874 62874 0 0 1 76.395-.01l3.658.001q12.765.003 25.528-.009 15.554-.013 31.107.01 7.938.013 15.874.001 7.264-.013 14.53.012 2.628.005 5.256-.006a741 741 0 0 1 7.148.014l2.058-.02c8.01.093 14.043 2.826 19.744 8.398 4.211 5.615 6.246 10.128 6.267 17.16l.026 3.754-.002 4.097.02 4.332c.018 3.918.022 7.835.024 11.753q.001 3.675.01 7.35.028 12.835.026 25.67c-.002 7.961.02 15.923.051 23.886q.038 10.269.036 20.538c0 4.084.005 8.168.026 12.252q.029 5.768.005 11.534-.003 2.108.015 4.217c.078 9.644-.951 16.962-6.817 24.77-5.512 5.512-11.175 7.777-18.909 7.868l-3.202.043-3.498.032-3.697.045c-11.254.126-22.51.196-33.764.247-8.308.04-16.614.108-24.921.215-5.854.073-11.708.111-17.562.124-3.49.01-6.978.033-10.468.095-25.156.428-25.156.428-32.237-5.39A116 116 0 0 1 336 221c-22.978-16.387-51.403-23.245-79.125-23.313l-2.183-.01c-13.33-.036-26.5.856-39.317 4.823l-2.51.77c-15.365 4.952-34.63 12.662-45.798 24.838-4.828 2.979-9.603 2.44-15.166 2.394l-3.717.016q-5.036.013-10.073-.014c-3.52-.014-7.041-.007-10.562-.003q-8.873.002-17.747-.034a3646 3646 0 0 0-20.475-.017q-9.867.014-19.736-.01-4.188-.007-8.378 0c-3.909.005-7.817-.014-11.726-.036l-3.488.014c-8.875-.082-15.748-1.538-22.46-7.668-4.7-5.343-6.657-11.662-6.693-18.662l-.026-3.742-.013-4.114-.025-4.327c-.026-4.74-.041-9.48-.055-14.221l-.017-4.902q-.033-10.2-.051-20.4-.023-14.6-.107-29.198-.056-10.275-.063-20.548c-.004-4.087-.016-8.174-.048-12.261q-.044-5.775-.025-11.551 0-2.11-.025-4.22c-.113-9.446.785-17.28 7.335-24.51 5.886-5.684 13.063-7.554 21.076-7.472"/><path fill="#010100" d="m54.636 24.74 5.42-.012c4.953-.01 9.905-.008 14.857-.004 5.346.002 10.692-.007 16.037-.014q15.702-.018 31.404-.012 12.764.002 25.527-.005l3.67-.001 7.382-.004q34.61-.014 69.22-.003c21.106.006 42.211-.006 63.316-.025q32.512-.03 65.026-.024 18.25.005 36.501-.014 15.537-.019 31.073-.002 7.926.011 15.85-.005 7.26-.015 14.52.007 2.621.003 5.242-.008c15.877-.068 29.294 2.172 41.397 13.234 7.034 7.877 11.158 17.23 11.19 27.804l.025 3.933-.002 4.264q.008 2.265.02 4.53c.017 4.09.022 8.178.024 12.268q.001 3.839.01 7.677.028 13.412.026 26.823a6283 6283 0 0 0 .051 24.94q.038 10.73.036 21.463c0 4.265.005 8.53.026 12.796q.029 6.022.005 12.046a453 453 0 0 0 .015 4.398c.106 13.687-2.796 24.97-12.316 35.147-10.389 9.719-22.112 12.35-35.94 12.382l-3.137.03c-3.393.031-6.785.048-10.177.065q-3.546.028-7.091.059-9.3.073-18.599.128c-6.334.04-12.669.091-19.004.141q-18.62.144-37.24.258l1.879 2.484 2.46 3.266 1.236 1.632c2.954 3.924 5.632 7.875 7.988 12.18l1.106 2.011c18.954 35.272 22.898 74.869 12.272 113.42-6.84 22.01-18.588 40.99-33.941 58.007l-2.098 2.352c-25.078 26.576-61.865 41.544-98.062 42.87-40.43.933-78.207-12.922-107.591-40.949-27.867-27.34-43.46-63.965-44.28-103.023-.103-34.518 11.34-65.82 32.031-93.25l1-1-3.943-.018q-18.45-.086-36.897-.218a6742 6742 0 0 0-18.967-.11q-9.162-.041-18.323-.117-3.486-.025-6.97-.035c-17.636-.052-32.408-.109-46.19-12.572-7.558-7.9-11.816-17.311-11.857-28.221l-.022-3.921-.008-4.296-.02-4.53q-.028-7.436-.041-14.872l-.013-5.13q-.029-12.054-.041-24.108-.015-13.89-.077-27.778a5724 5724 0 0 1-.048-21.502c-.002-4.275-.011-8.55-.036-12.826a1447 1447 0 0 1-.018-12.083q.001-2.206-.02-4.412c-.12-13.71 2.768-24.995 12.304-35.189C24.29 25.39 38.447 24.701 54.636 24.74M22 52c-5.418 7.808-5.715 15.34-5.631 24.578q-.008 2.168-.022 4.335c-.018 3.897-.005 7.793.014 11.69.017 4.093.008 8.186.003 12.28q-.005 10.305.04 20.61c.031 7.925.031 15.85.014 23.775-.016 7.648-.01 15.296.008 22.945q.01 4.866-.002 9.732-.01 5.736.032 11.473.01 2.096 0 4.192c-.044 9.604 1.014 16.928 6.857 24.702 5.512 5.513 11.175 7.778 18.909 7.869l3.202.043 3.498.032 3.697.045c11.254.126 22.51.196 33.764.247 8.308.04 16.614.108 24.921.215 5.854.073 11.708.111 17.562.124 3.49.01 6.978.033 10.468.095 17.08 1.068 17.08 1.068 32.21-5.377 1.52-1.501 3.01-3.032 4.456-4.605 2.497-1.715 5.09-3.179 7.75-4.625l2.008-1.11c31.698-17.186 71.532-23.72 106.809-13.997C311.56 206.982 333.66 215.66 348 230c1.627.103 3.258.135 4.888.14l3.207.018 3.55.003 3.715.015q5.061.018 10.123.024 3.164.005 6.327.012 9.903.02 19.805.027 11.423.007 22.844.05 8.831.034 17.662.034 5.273 0 10.544.025c3.928.02 7.856.015 11.784.008l3.507.028c8.906-.046 15.77-1.483 22.505-7.634 4.704-5.35 6.658-11.669 6.686-18.676l.022-3.75.008-4.124.02-4.336q.028-7.125.041-14.25l.013-4.91q.029-11.535.041-23.07.015-13.303.077-26.608.044-10.29.048-20.578c.002-4.095.011-8.19.036-12.285q.035-5.782.018-11.566 0-2.115.02-4.232C495.592 63.239 494.016 56.203 486 48c-6.03-4.25-11.09-5.15-18.31-5.131l-2.248-.007q-3.75-.006-7.497-.002l-5.414-.01q-7.453-.011-14.908-.01c-5.355-.002-10.71-.01-16.066-.016q-17.572-.02-35.144-.024l-21.937-.012q-30.357-.019-60.714-.026H295.9l-7.896-.002h-3.956q-31.74-.009-63.478-.046-32.572-.035-65.144-.037-18.292.001-36.587-.025-15.575-.023-31.151-.012c-5.3.004-10.599.003-15.898-.011q-7.275-.019-14.552 0-2.633.004-5.265-.01a740 740 0 0 0-7.16.01c-.68-.009-1.36-.016-2.062-.024C34.392 42.695 27.567 45.853 22 52m138.875 202.785C146.041 271.031 136.933 289.958 131 311l-.586 2.055c-8.38 30.92-.926 65.658 14.493 93.091C160.902 433.272 187.58 455.201 218 464c5.965 1.488 11.977 2.771 18 4l2.415.542c30.125 5.343 64.947-4.06 89.889-20.99 29.876-21.058 48.253-51.591 54.837-87.376 5.2-33.085-3.424-66.794-22.77-93.957C339.32 237.922 308.818 219.568 274 214l-2.336-.398c-41.338-5.86-82.487 11.38-110.789 41.183"/><path fill="#020201" d="M341.645 265.578c6.89 2.655 12.27 8.257 15.554 14.817 2.31 7.515 1.62 15.748-2.008 22.687-2.723 4.385-5.963 7.777-9.851 11.117-4.282 3.722-8.413 7.584-12.527 11.488-5.122 4.84-10.252 9.668-15.438 14.438A2362 2362 0 0 0 303.5 353q-7.767 7.26-15.586 14.46c-4.154 3.83-8.287 7.682-12.414 11.54a2881 2881 0 0 1-15.582 14.457c-3.549 3.271-7.082 6.56-10.607 9.858q-2.863 2.675-5.733 5.341a478 478 0 0 0-6.656 6.313c-5.315 5.047-9.984 8.606-16.922 11.031l-2 1c-7.835 1.055-13.402-.856-20-5-3.42-2.762-6.5-5.797-9.586-8.922l-2.619-2.604q-2.718-2.715-5.42-5.447a1100 1100 0 0 0-8.293-8.261q-2.649-2.654-5.293-5.313l-2.494-2.463c-6.442-6.574-10.89-13.055-10.795-22.553.284-7.86 2.54-12.538 7.813-18.25 6.45-5.948 11.938-6.722 20.546-6.457 13.513 1.16 22.174 13.131 31.141 22.27 3.773-1.59 6.337-3.968 9.313-6.75l1.564-1.455A1832 1832 0 0 0 229 351q1.831-1.71 3.664-3.418 3.81-3.552 7.613-7.11 5.096-4.753 10.223-9.472a2974 2974 0 0 0 15.916-14.791q5.99-5.594 12.022-11.147c4.88-4.493 9.726-9.021 14.562-13.562l4.066-3.809a1431 1431 0 0 0 7.524-7.101c11.418-10.79 20.457-18.64 37.055-15.012"/><path fill="#f1f1f1" d="M333.125 281.438C337 282 337 282 339.5 283.5c2.104 3.507 2.423 6.58 1.5 10.5-2.105 3.115-4.734 5.534-7.5 8.063l-2.11 2.025c-4.029 3.839-8.197 7.506-12.398 11.154-3.472 3.064-6.82 6.258-10.18 9.445a2017 2017 0 0 1-20.26 18.886 6795 6795 0 0 0-7.927 7.302l-1.61 1.485a3214 3214 0 0 0-14.43 13.43c-4.515 4.218-9.05 8.412-13.596 12.596a1878 1878 0 0 0-13.114 12.239c-4.729 4.44-9.464 8.872-14.25 13.25l-2.586 2.367c-3.103 2.675-5.62 3.358-9.767 3.288-4.832-1.127-7.98-5.15-11.33-8.596l-2.515-2.506a679 679 0 0 1-5.21-5.279 722 722 0 0 0-8.012-8.026 2712 2712 0 0 1-5.076-5.127l-2.427-2.41c-6.07-6.279-6.07-6.279-6.827-10.43.14-3.519.916-5.568 3.437-8.097 2.605-1.634 5.012-1.577 7.982-1.15 6.362 2.566 11.027 8.67 15.643 13.591q2.548 2.654 5.107 5.299a454 454 0 0 1 3.149 3.302c3.639 3.902 3.639 3.902 8.643 5.2 3.914-.372 5.012-1.389 7.789-4.113l2.621-2.508L227 376q2.837-2.601 5.688-5.187c5.257-4.816 10.467-9.681 15.674-14.55Q254.41 350.609 260.5 345a2644 2644 0 0 0 14-13q7.767-7.26 15.586-14.46A2491 2491 0 0 0 302.5 306c4.848-4.528 9.697-9.054 14.563-13.562l1.55-1.444A497 497 0 0 1 323 287l1.558-1.429c4.82-4.262 4.82-4.262 8.567-4.134"/><path fill="#020200" d="M207.313 96c7.175 4.084 12.25 10.063 14.687 18 .439 3.395.468 6.756.469 10.176l.023 2.925q.015 3.052.009 6.104c-.001 3.088.04 6.174.085 9.262q.008 2.979.008 5.959l.05 2.76c-.087 8.136-2.85 14.433-8.019 20.689-6.729 5.447-12.778 7.559-21.418 7.465-7.476-.792-13.175-4.541-17.953-10.203-3.958-6.746-4.712-12.75-4.688-20.41l-.015-2.921q-.01-3.044.003-6.086c.008-3.08-.02-6.157-.052-9.236a2562 2562 0 0 1 .002-5.945l-.034-2.75c.08-7.42 1.76-14.276 6.425-20.191 9.215-7.377 19.087-10.71 30.417-5.598"/><path fill="#020300" d="m113.043 93.238 3.506-.01 3.638.085 3.58-.045c9.018.085 15.689 1.952 22.67 7.76l1.563 1.91 1.625 1.902c4.134 6.495 4.223 13.714 3.375 21.16-2.088 6.631-5.338 11.05-11 15 .58 3.597 1.536 6.358 3.285 9.547l1.358 2.562a543 543 0 0 0 2.851 5.235c2.888 5.5 4.792 10.383 3.506 16.656-2.545 3.069-4.09 3.848-8 4.5-3.797-.633-5.198-1.878-8-4.5-1.853-2.993-1.853-2.993-3.55-6.445l-.921-1.852a491 491 0 0 1-1.888-3.858 635 635 0 0 0-2.909-5.911C123 147.328 123 147.328 123 145h-4l.08 2.583c.085 3.177.147 6.354.195 9.532q.037 2.06.102 4.118c.061 1.978.087 3.956.111 5.935l.08 3.602c-.736 4.189-2.27 5.633-5.568 8.23-3.5.688-3.5.688-7 0-3.343-3.23-4.79-4.857-5.635-9.453l-.012-3.834-.027-2.131c-.021-2.31-.007-4.617.01-6.926q-.005-2.42-.015-4.84-.009-5.065.027-10.128a957 957 0 0 0-.018-12.952c-.018-3.33-.012-6.66 0-9.991q.006-2.387-.011-4.775a367 367 0 0 1 .034-6.683l.012-3.834c1.205-6.553 4.816-10.212 11.678-10.215"/><path fill="#529113" d="M291 218c21.226 5.76 39.195 16.89 55 32l2.004 1.813c21.844 20.476 35.006 52.127 36.375 81.75.37 13.911-.681 27.015-4.379 40.437l-.617 2.29c-8.68 31.181-29.14 58.32-57.024 74.831C303.701 461.557 303.701 461.557 294 464l-2-1 2.824-1.617c9.698-5.637 19.527-11.596 27.414-19.676C324 440 324 440 326 440v-2h2l.746-1.727c1.46-2.648 3.213-4.474 5.317-6.648 24.134-26.455 33.415-62.605 32.11-97.635-.708-12.244-2.632-25.908-8.173-36.99-.13-1.873-.23-3.749-.312-5.625-.657-8.08-2.694-12.828-8.75-18.25-2.257-1.862-4.499-3.499-6.938-5.125v-3c-2.342-3.35-5.036-6.403-7.705-9.496a423 423 0 0 1-3.627-4.285c-9.1-10.504-19.748-18.468-31.782-25.315-3.023-1.724-5.5-3.38-7.886-5.904"/><path fill="#010100" d="M435 93.438c3.805.713 5.194 1.889 8 4.562 1.635 2.501 2.918 5.135 4.207 7.828l1.122 2.27c1.173 2.378 2.328 4.765 3.483 7.152q1.193 2.43 2.39 4.86 2.916 5.936 5.798 11.89l.012-2.95c.022-3.625.077-7.25.14-10.874q.036-2.35.044-4.7c.009-2.257.05-4.512.097-6.769l-.012-2.11c.115-3.846.643-5.502 3.076-8.544C466 94 466 94 469 93.438c3.66.686 5.352 1.99 8 4.562 1.473 2.946 1.135 5.576 1.145 8.865l.01 2.139q.013 3.51.013 7.02l.01 4.872q.009 5.112.007 10.224c0 4.367.014 8.734.031 13.101q.015 5.034.013 10.068 0 2.415.013 4.83c.01 2.253.007 4.505 0 6.757l.005 3.885c-.235 3.077-.5 4.736-2.247 7.239-3.75 2.5-5.559 2.536-10 2-4.33-3.6-6.6-7.522-8.988-12.488l-1.055-2.131c-1.1-2.227-2.185-4.46-3.27-6.693q-1.12-2.28-2.244-4.557A2371 2371 0 0 1 445 142l-.028 2.766q-.067 5.103-.18 10.204-.042 2.205-.063 4.408a450 450 0 0 1-.12 6.352l-.063 3.857c-.63 3.94-1.767 5.606-4.546 8.413-2.889 1.444-4.796 1.377-8 1-3.4-2.638-4.84-4.135-5.635-8.415l-.012-3.958-.027-2.195c-.021-2.384-.007-4.766.01-7.15q-.005-2.495-.015-4.988-.009-5.22.027-10.44c.029-4.456.012-8.91-.018-13.366a1178 1178 0 0 1 0-10.295q.006-2.464-.011-4.927c-.013-2.299.006-4.595.034-6.893l.012-3.958c.95-5.11 3.474-8.01 8.635-8.978m-118.748-.197 2.437-.048 2.592.046 2.7-.01q2.82 0 5.639.045c2.871.04 5.739.02 8.61-.005q2.745.01 5.489.033l2.592-.021c4.345.102 6.177.33 9.738 3.041 2.545 3.495 2.567 5.443 1.951 9.679-1.76 3.185-2.499 3.833-6 5-2.138.083-4.278.107-6.418.098l-3.799-.01-3.97-.025-4.006-.014q-4.904-.02-9.807-.049v17l5.95-.105q3.868-.043 7.738-.082l3.92-.077 3.779-.029 3.475-.048c3.49.38 5.344 1.253 8.138 3.341 1.528 3.057 1.232 5.63 1 9-1.76 3.185-2.499 3.833-6 5-2.138.083-4.278.107-6.418.098l-3.799-.01-3.97-.025-4.006-.014q-4.904-.02-9.807-.049v17l5.95-.105q3.868-.043 7.738-.082l3.92-.077 3.779-.029 3.475-.048c3.49.38 5.344 1.253 8.138 3.341 1.57 3.139 1.352 5.539 1 9-1.996 2.76-3.591 4.667-7.003 5.474-2.44.205-4.83.245-7.278.225l-2.7.022q-2.82.012-5.639-.014c-2.872-.02-5.739.02-8.61.064q-2.745.001-5.489-.01l-2.592.047-2.437-.048-2.128-.005c-3.433-1.22-5.366-3.685-7.124-6.755-.635-3.453-.635-3.453-.647-7.287l-.027-2.131c-.021-2.31-.007-4.617.01-6.926q-.004-2.42-.015-4.84-.009-5.065.027-10.128a957 957 0 0 0-.018-12.952c-.018-3.33-.012-6.66 0-9.991q.006-2.387-.011-4.775a367 367 0 0 1 .034-6.683l.012-3.834c.978-5.316 3.881-10.198 9.887-10.213m-271.392.131 3.382-.006 3.508.073 3.46-.034C65.21 93.49 72.87 95.87 80 103c4.96 7.06 5.633 13.564 5 22-1.242 6.063-4.368 10.927-9 15-5.988 3.743-11.107 5.127-18.187 5.063l-3.856-.028L51 145l.08 2.583c.085 3.177.147 6.354.195 9.532q.037 2.06.102 4.118c.061 1.978.087 3.956.111 5.935l.08 3.602c-.737 4.19-2.261 5.64-5.568 8.23-3.562.563-3.562.563-7 0-2.365-1.867-3.66-3.32-5-6a169 169 0 0 1-.193-6.94l-.025-2.164q-.036-3.552-.055-7.103l-.017-2.45q-.039-6.418-.06-12.835c-.017-4.42-.062-8.837-.112-13.256-.034-3.398-.046-6.796-.051-10.194a462 462 0 0 0-.046-4.886 400 400 0 0 1-.024-6.843l-.025-3.932c1.162-6.493 5.144-9.03 11.467-9.026m208.422-.035 2.7-.015q2.82-.004 5.639.027c2.871.027 5.739 0 8.61-.032q2.745.006 5.489.02l2.592-.03c4.372.085 6.17.294 9.742 3.044 2.37 3.225 2.53 4.73 1.947 8.65-.853 2.56-1.445 3.644-3.719 5.102-2.811 1.107-5.019 1.095-8.031 1.023l-2.984-.055L273 111l.02 2.32q.09 10.836.135 21.672c.016 3.714.037 7.428.071 11.142.033 3.585.05 7.17.059 10.756q.008 2.05.032 4.1c.022 1.916.023 3.834.024 5.751l.02 3.304c-.411 3.368-1.357 5.242-3.361 7.955-3.092 1.546-5.594 1.294-9 1-2.365-1.867-3.66-3.32-5-6a123 123 0 0 1-.114-5.918v-3.761l.016-4.079.005-4.161q.006-5.48.024-10.96.014-5.59.02-11.18.016-10.97.049-21.941l-2.51.092-3.287.072-3.26.092c-3.142-.273-4.133-.566-6.193-2.881-1.902-3.668-2.609-5.338-1.75-9.375 4.168-5.621 7.767-5.741 14.281-5.664"/><path fill="#000100" d="M392.5 93.375c4.46.797 5.702 2.107 8.5 5.625.621 3.377.621 3.377.615 7.281l.017 2.165c.012 2.352-.012 4.702-.038 7.054q-.003 2.46 0 4.92-.004 5.15-.052 10.299c-.04 4.395-.044 8.789-.037 13.184.004 3.385-.009 6.77-.026 10.156q-.01 2.43-.009 4.86a615 615 0 0 1-.05 6.8l-.026 3.904c-.42 3.603-1.217 5.507-3.394 8.377-3.092 1.546-5.594 1.294-9 1-2.365-1.867-3.66-3.32-5-6a169 169 0 0 1-.193-6.94l-.025-2.164q-.036-3.552-.055-7.103l-.017-2.45q-.039-6.418-.06-12.835c-.017-4.42-.062-8.837-.112-13.256-.034-3.398-.046-6.796-.051-10.194a462 462 0 0 0-.046-4.886 400 400 0 0 1-.024-6.843l-.025-3.932c.978-5.467 3.69-8.054 9.108-9.022"/><path fill="#a1c000" d="M196 110.438c3.66.686 5.352 1.99 8 4.562 1.643 3.287 1.206 6.936 1.238 10.55l.025 2.58q.02 2.704.032 5.409c.017 2.752.061 5.504.105 8.256q.015 2.628.026 5.256l.053 2.488c-.015 4.02-.173 5.98-2.38 9.458-2.49 2.376-3.502 2.923-6.911 3.378C193 162 193 162 190.342 160.057c-3.195-4.17-3.067-7.22-3.006-12.338l-.015-2.7q-.005-2.82.027-5.639c.027-2.871 0-5.739-.032-8.61q.005-2.745.02-5.489l-.03-2.592c.085-4.372.29-6.167 3.048-9.734C193 111 193 111 196 110.438"/><path fill="#9dbc00" d="M119 111c10.957-.482 10.957-.482 15.25 1.5 2.136 3.052 2.352 4.939 2.113 8.598-.503 2.633-1.403 4.087-3.363 5.902-4.637 1.546-9.125 1.057-14 1z"/><path fill="#9fbe00" d="M51 111c12.036-.435 12.036-.435 16 3 1.528 3.057 1.232 5.63 1 9-1.76 3.185-2.499 3.833-6 5-3.671.133-7.325.043-11 0z"/></svg>