<svg xmlns="http://www.w3.org/2000/svg" width="1057" height="1008"><path d="m615 243 4.8 1.234C665.755 256.53 706.646 286.402 734 325l1.398 1.965c21.369 30.331 36.575 69.723 36.805 107.152l.022 2.321c.185 26.082-1.567 50.47-9.225 75.562l-.847 2.802c-4.35 14.094-10.29 27.141-16.801 40.354-33.93 68.91-59.746 147.902-61.656 225.12-.238 9.54-.456 17.09-7.255 24.4-7.939 6.447-17.759 5.157-27.43 5.084q-3.056.01-6.112.027c-5.517.024-11.033.009-16.55-.014-5.78-.019-11.56-.008-17.34-.001-9.706.006-19.41-.012-29.116-.045a6260 6260 0 0 0-33.637-.013c-10.798.021-21.596.014-32.394-.006q-6.885-.011-13.77.004-8.11.014-16.22-.037a669 669 0 0 0-5.945.002c-2.71.011-5.419-.008-8.129-.035l-2.363.031c-7.015-.13-11.845-3.083-16.748-7.986-4.902-7.807-5.177-15.321-5.481-24.303-1.151-32.13-6.1-65.284-15.27-96.115-.98-3.424-1.815-6.864-2.623-10.332-9.892-40.37-25.65-80.61-44.621-117.568C371.147 530.76 362.658 506.13 359 481l-.346-2.175c-3.328-21.226-2.712-43.601.346-64.825l.292-2.068c7.37-49.727 36.32-98.88 76.04-129.64a398 398 0 0 0 3.481-2.729C456.371 265.742 476.687 254.79 498 248l2.215-.747c5.873-1.978 11.786-3.701 17.785-5.253l2.475-.65c29.47-7.305 65.377-6.416 94.525 1.65M492.532 901.72l1.947-.019c2.145-.017 4.29-.02 6.434-.023l4.623-.03c4.182-.027 8.364-.04 12.546-.048q3.924-.01 7.848-.023 12.288-.043 24.578-.055 14.162-.014 28.323-.102 10.962-.063 21.924-.066c4.36-.002 8.72-.014 13.08-.05q6.157-.048 12.314-.02 2.25.003 4.5-.026c9.096-.113 16.151.678 23.351 6.742 4.67 5.076 5.417 10.73 5.348 17.398-.74 5.535-3.92 9.28-7.91 12.977-4.882 3.254-7.843 3.783-13.813 3.813-5.066.123-5.066.123-9.59 2.183-1.377 1.749-1.377 1.749-2.61 3.664-9.17 12.638-29.858 18.013-44.38 20.56-5.406.72-10.786.745-16.233.718l-3.6-.018c-21.747-.299-43.479-6.348-59.212-22.295l-1.27-2.145c-1.665-2.17-1.665-2.17-4.804-2.324l-3.614-.031c-7.467-.34-12.362-1.47-17.625-6.875-3.863-6.01-5.757-10.465-4.687-17.625 1.885-6.16 5.643-10.503 11-14 3.963-1.9 7.155-2.258 11.532-2.28m-23.398-65.86 2.542-.01q4.231-.01 8.464-.011l6.055-.015q8.238-.019 16.476-.024l10.29-.012q16.095-.02 32.189-.027 18.585-.007 37.171-.05 14.361-.034 28.722-.034 8.58 0 17.158-.025a3440 3440 0 0 1 16.143-.01q2.962.002 5.923-.013c2.697-.013 5.394-.007 8.09.004l2.362-.025c7.177.065 13.096 2.207 18.281 7.392 3.739 5.376 5.057 10.523 4 17-1.7 6.418-4.608 10.115-10 13.906-4.523 2.474-9.21 2.245-14.248 2.248l-2.542.013q-4.224.019-8.447.026l-6.052.025c-6.627.026-13.255.041-19.883.055l-6.845.017q-14.238.033-28.474.051-20.403.023-40.805.107-14.347.056-28.693.063c-5.713.004-11.425.016-17.137.048q-8.062.044-16.124.025-2.955 0-5.91.025c-2.696.023-5.39.015-8.084-.001l-2.35.042c-6.548-.095-11.328-2.607-15.973-7.199-4.78-5.497-4.784-10.265-4.706-17.287.569-6.588 4.835-9.93 9.59-13.965 3.93-2.8 8.213-2.345 12.817-2.34M201.93 424.823l2.412-.02q3.945-.028 7.888-.041l2.73-.013q7.155-.03 14.309-.044c4.911-.011 9.822-.046 14.733-.085 3.79-.027 7.58-.035 11.369-.038q2.715-.008 5.428-.035c18.157-.176 18.157-.176 25.201 4.453l2.488 1.605c5.615 4.87 8.853 9.643 9.887 17.098.37 8.297-2.073 14.563-7.062 21.11-4.446 4.71-10.253 7.277-16.714 7.702q-2.323.038-4.648.018l-2.59.027c-2.798.022-5.595.016-8.392.006l-5.883.02q-6.148.014-12.295-.01c-5.236-.017-10.47.007-15.706.042-4.046.022-8.091.02-12.137.012q-2.895 0-5.79.02c-19.497.127-19.497.127-26.158-5.65-2.121-2.098-2.121-2.098-3.437-4.063l-1.372-1.972L175 463l-1.137-1.793c-2.217-5.67-1.81-13.977-.105-19.793A36.5 36.5 0 0 1 177 436l1.688-2.688c6.714-6.714 14.055-8.456 23.242-8.489m668.718-.354q2.733-.005 5.465-.012 5.712-.008 11.423.022c4.854.022 9.707.01 14.561-.015 3.76-.014 7.52-.01 11.279 0q2.682.005 5.365-.01c22.321-.09 22.321-.09 31.197 7.733 5.747 6.522 7.839 13.146 7.507 21.817-1.107 7.448-4.702 13.059-10.504 17.742-5.773 3.729-10.016 4.698-16.741 4.674l-2.619.026c-2.846.023-5.692.024-8.538.023l-5.963.023q-6.246.019-12.49.009c-5.32-.006-10.639.025-15.958.065-4.105.026-8.21.029-12.315.025q-2.94.002-5.881.03c-20.383.165-20.383.165-28.557-7.648-5.769-8.371-7.242-16.117-5.484-26.246 2.165-7.07 7.709-12.355 14.097-15.81 7.556-3.267 16.077-2.49 24.156-2.448M321 169c4.788 3.785 9.01 8.21 13.281 12.555a3157 3157 0 0 0 3.687 3.683q3.835 3.837 7.643 7.701c3.242 3.287 6.506 6.552 9.778 9.81 2.533 2.527 5.056 5.064 7.577 7.603q1.8 1.812 3.607 3.615c14.824 14.817 14.824 14.817 15.034 25.02l-.045 2.013-.033 2.12c-.35 8.332-3.628 12.252-9.466 17.755-4.856 4.287-9.996 5.43-16.375 5.563l-3.176.12c-10.931-1.738-18.283-10.741-25.719-18.234q-1.882-1.878-3.767-3.755-3.928-3.92-7.838-7.86a2026 2026 0 0 0-10.03-10.015 2282 2282 0 0 1-7.755-7.755q-1.845-1.85-3.699-3.69a779 779 0 0 1-5.16-5.188c-.505-.496-1.01-.992-1.529-1.504-5.609-5.743-8.588-11.814-8.64-19.932.249-8.329 2.563-13.764 8.594-19.496 11.278-9.044 22.322-7.54 34.031-.129m503.938-5.5 2.134.041c8.056.321 12.312 2.495 17.74 8.272 4.892 6.074 6.499 11.352 6.782 19.05-2.044 10.796-9.497 17.665-17.094 24.95a1901 1901 0 0 0-3.129 3.06 1113 1113 0 0 1-5.771 5.607A614 614 0 0 0 818 232c-.73.718-1.46 1.436-2.21 2.176-3.633 3.586-7.165 7.188-10.477 11.074-2.037 2.381-4.057 4.476-6.5 6.438-2.848 2.167-2.848 2.167-4.75 4.812-4.468 5.415-10.25 9.016-17.262 9.906-8.496.229-14.287-.742-20.801-6.406-6.345-6.782-8.452-12.834-8.238-22.078 1.001-12.283 12.908-21.902 21.229-30.119a959 959 0 0 0 4.52-4.5c4.799-4.78 9.667-9.427 14.809-13.84 2.95-2.569 5.634-5.384 8.355-8.19q2.844-2.923 5.7-5.835l1.922-1.999c6.206-6.3 11.387-10.196 20.64-9.939M576.375 57.438C582.522 61.147 587.822 67.15 590 74c.197 2.806.294 5.514.29 8.32l.02 2.5c.02 2.721.024 5.443.026 8.164l.02 5.699q.017 5.97.015 11.943c0 5.085.027 10.17.061 15.255.022 3.924.026 7.848.025 11.772q.005 2.811.027 5.621c.152 20.205.152 20.205-6.632 28.285l-2.227 1.879-2.21 1.933c-6.76 4.56-14.548 4.59-22.415 3.629-8.656-3.043-13.129-9.178-17.054-17.138-1.208-3.656-1.241-7.098-1.237-10.906l-.02-2.412c-.019-2.624-.023-5.248-.025-7.872l-.02-5.497q-.017-5.76-.015-11.52c0-4.903-.027-9.806-.061-14.71-.022-3.784-.026-7.57-.025-11.355a743 743 0 0 0-.027-5.42c-.141-18.099-.141-18.099 4.484-25.17l1.75-2.75c8.151-8.151 20.664-11.626 31.625-6.812"/></svg>