<svg xmlns="http://www.w3.org/2000/svg" width="512" height="512"><path fill="#0f0f0f" d="M282.203 8.32C291.243 14.635 296.77 22.466 300 33c.667 4.778.722 9.478.707 14.297l.046 3.984c.04 3.452.05 6.904.054 10.357.01 3.54.047 7.08.082 10.62.064 6.914.097 13.828.111 20.742l1.645-1.264c.715-.545 1.43-1.09 2.168-1.65l2.144-1.64C309.199 86.86 311.379 85.82 314 85l-.687-3.187C313 78 313 78 313.938 75.25 318.514 70.258 325.47 69.365 332 69c3.002-.066 5.998-.063 9 0l.809-2.23c5.698-13.248 18.406-21.485 31.151-26.972 14.816-5.798 31.181-5.154 45.79 1.014q2.143 1.06 4.25 2.188l2.418 1.238c14.23 7.832 23.094 20.403 28.02 35.637 2.533 9.231 3.854 18.908 1.562 28.313-.415 3.697-.415 3.697 1.434 5.476q2.093 1.719 4.238 3.375c9.946 8.378 16.406 22.584 17.55 35.451.656 15.151-.344 27.466-8.952 40.389-1.732 2.876-1.732 2.876-2.27 6.121 1.353 3.1 1.353 3.1 3.313 6.313C473.716 211.146 476 216.16 476 223l1.836.043c10.492.597 19.129 5.152 26.164 12.957 8.331 11.497 9.176 23.222 8 37-2.166 10.227-9.531 19.115-18 25-6.994 3.524-13.484 5.149-21.312 5.063L467 303v21l5 1c2.28 1.588 2.28 1.588 4 4a45.5 45.5 0 0 1 .518 7.588l.02 2.303a611 611 0 0 1-.007 7.55l.012 5.295q.008 5.565-.022 11.129c-.022 4.7-.01 9.399.015 14.098.014 3.655.01 7.309 0 10.963q-.005 2.594.01 5.187c.065 15.55-1.693 31.253-8.171 45.575l-1.032 2.348C461.062 454.872 452.81 466.372 442 477l-2.492 2.488c-19.601 18.605-46.941 29.665-73.909 29.66l-2.809.01q-4.644.015-9.289.019l-6.674.02q-10.95.028-21.901.041l-7.561.013a34347 34347 0 0 1-39.634.044l-2.047.002c-10.918.008-21.836.033-32.753.066q-16.863.049-33.725.054c-6.299.002-12.597.011-18.895.036q-8.906.035-17.811.018-3.245-.001-6.491.02c-30.734.185-59.912-7.224-83.009-28.491l-1.565-1.437c-16.107-14.954-27.301-32.505-33.372-53.75l-.568-1.972c-3.911-15.045-3.77-30.425-3.69-45.841l.008-6.523q.014-8.502.05-17.005c.02-5.806.03-11.611.04-17.417Q43.934 320.028 44 303l-2.082-.397-2.731-.531-2.708-.522c-10.176-2.256-17.223-8.563-22.9-16.956-5.654-9.291-7.1-20.284-4.895-30.88 3.184-11.298 8.493-20.252 18.843-26.155 5.303-2.733 9.814-4.576 15.801-4.875l2.422-.127 2.5-.12 2.547-.13q3.1-.158 6.203-.307l-.975-1.354c-26.829-37.378-26.829-37.378-23.564-60.978C34.499 148.795 38.81 140.09 45 131q-2.591-1.83-5.182-3.657-2.28-1.61-4.558-3.223c-3.961-2.802-7.932-5.59-11.928-8.343l-2.266-1.57q-2.127-1.476-4.267-2.933C8.665 105.615 2.386 99.897 0 90c-1.13-8.816.093-16.846 5.543-24.035C13.057 57.866 21.298 56.24 32 55l-.14-2.344c-.29-8.343.585-13.392 5.94-19.816 6.276-6.714 12.303-9.258 21.434-9.832 9.138-.026 15.77 3.54 22.524 9.558C83 34 83 34 83 36l2.23-1.46 2.957-1.915 2.918-1.898c7.655-4.566 15.824-5.15 24.528-3.11 7.606 2.995 13.473 8.726 16.867 16.133 4.293 13.374-.493 26.473-4 39.5q-.797 3.025-1.59 6.05A2659 2659 0 0 1 123 104l2.058.388 2.712.524 2.682.513c11.83 2.67 22.604 10.81 29.548 20.575q2.813-.683 5.625-1.375l3.164-.773c3.122-.828 6.159-1.798 9.211-2.852l-1.421-1.497a6447 6447 0 0 1-6.392-6.753l-2.236-2.355-2.158-2.286-1.984-2.094c-4.692-5.225-4.692-5.225-5.309-9.39.65-4.717 1.928-6.5 5.5-9.625 3.78-1.364 6.645-1.633 10.324.086 3.539 2.531 6.463 5.488 9.488 8.602l1.811 1.837Q187.818 99.756 190 102l.078-3.762q.084-2.463.172-4.925l.043-2.475c.21-5.169.79-8.105 4.707-11.838 3.15-1.575 5.52-1.348 9-1 2.977 1.773 5.428 3.856 7 7 .233 2.88.42 5.741.563 8.625l.13 2.43q.159 2.972.307 5.945c3.992-3.018 7.451-5.856 8.726-10.838.227-3.342.225-6.607.133-9.955l.005-3.706c0-3.897-.054-7.792-.114-11.689q-.062-5.817-.07-11.634a386 386 0 0 0-.08-7.22C220.528 33.875 224.047 22.686 233 13c13.642-11.993 33.627-14.014 49.203-4.68"/><path fill="#bd512f" d="M64 302h403v22l-7 3c-2.457 3.685-2.256 5.514-2.271 9.911l-.016 2.12a828 828 0 0 0-.018 4.563q-.008 3.63-.04 7.258c-.056 6.88-.087 13.76-.111 20.64q-.026 6.318-.085 12.635a667 667 0 0 0-.018 4.78C457.44 414.624 449.416 438.695 432 458l-2.117 2.367c-15.561 16.473-39.665 28.114-62.412 28.826-5.666.107-11.33.1-16.997.098q-3.269.008-6.537.02c-5.898.017-11.795.022-17.692.024q-5.538.001-11.077.01-19.356.028-38.712.026c-11.99-.002-23.981.02-35.972.051q-15.488.038-30.974.036c-6.153 0-12.306.005-18.46.026q-8.69.029-17.381.005-3.17-.003-6.34.015c-29.696.16-53.551-7.637-75.329-28.504l-1.93-1.773C73.864 443.885 66.863 422.47 64 401z"/><path fill="#7fd249" d="M413.453 60.516C424.693 67.066 431.853 75.56 436 88c.226 3.1.185 6.205.188 9.313l.037 2.552c.01 4.82-.46 8.586-2.225 13.135-.507 4.125-.693 6.1 1.875 9.438 1.743 1.53 3.568 2.887 5.438 4.261 8.1 6.088 14.134 13.303 16.687 23.301 1.4 14.057.384 24.766-8.625 35.938l-2.352 2.714c-2.5 2.901-3.923 4.708-4.523 8.536.592 4.515 2.025 6.325 4.836 9.769a71 71 0 0 1 4.476 6.168l1.208 1.82C454 217 454 217 455 223h-96l3-10 1.078-4.012c1.762-5.525 3.099-9.652 7.875-13.152a113 113 0 0 1 9.643-3.939c4.808-1.794 9.47-3.93 14.154-6.022l2.924-1.238c5.31-2.31 5.31-2.31 9.474-6.215 1.223-3.477.767-5.891-.148-9.422-1.579-2.06-2.691-2.846-5-4-5.433-.57-8.974 1.055-13.687 3.438-7.146 3.506-7.146 3.506-10.313 4.562 2.424-8.676 5.609-16.982 8.947-25.342 2.97-7.623 2.97-7.623 3.053-15.658-2.505-2.8-4.428-3.821-8-4.937-3.735-.078-5.032.705-8 2.937-1.627 2.654-1.627 2.654-2.812 5.875-.24.59-.478 1.18-.724 1.788A438 438 0 0 0 368 144l-1.047 2.71A1989 1989 0 0 0 360 165h-2l-1.61-3.578q-1.068-2.337-2.14-4.672l-1.055-2.355c-1.897-4.112-3.544-7.543-7.195-10.395-3.362-1.254-3.362-1.254-7-1-3.575 1.827-3.575 1.827-6 5-.706 5.927.884 9.705 3.535 14.805q1.101 2.227 2.201 4.457 1.74 3.464 3.504 6.917a577 577 0 0 1 3.358 6.75l1.076 2.047c3.122 6.406 2.332 11.53.402 18.233l-1.107 2.885-1.207 3.18-1.262 3.226-1.262 3.32c-3.072 8.014-3.072 8.014-4.238 9.18-2.812.089-5.599.115-8.41.098l-2.552-.005c-2.7-.005-5.4-.018-8.1-.03l-5.479-.014q-6.73-.017-13.459-.049a7403 7403 0 0 1-.466-50.096 3181 3181 0 0 0-.213-23.261q-.136-10.14-.168-20.28a713 713 0 0 0-.105-10.733c-.072-3.998-.074-7.994-.07-11.994l-.098-3.579c.09-7.87.09-7.87 3.087-11.32 2.27-1.791 4.53-3.295 7.033-4.737l3-2h3l1.737 2.472c2.079 2.852 2.079 2.852 5.575 3.083l3.903-.11 2.1-.052q2.192-.066 4.384-.168c2.228-.1 4.452-.146 6.682-.186q2.136-.073 4.271-.156l3.906-.144c4.231-.908 5.738-2.431 8.442-5.739 1.265-2.294 1.265-2.294 2.188-4.687C363.349 68.556 372.215 62.448 383 58c9.534-3.178 21.582-1.847 30.453 2.516"/><path fill="#ee3939" d="M133 128c4.033 2.921 7.235 5.852 10 10l-1.871 1.328c-15.876 11.89-24.184 29.144-27.816 48.297-.974 8.974-.974 8.974 1.687 17.375 3.692 2.461 6.714 2.675 11 2 3.292-2.08 3.914-3.739 5.125-7.437.545-2.513.932-5 1.262-7.551 2.08-15.935 8.668-28.906 21.488-38.95 14.062-9.836 30.383-14.236 47.438-14.25l2.396-.037c6.217-.015 10.96.959 17.291 2.225v82c-34.535.484-34.535.484-49.02.586-9.997.071-19.993.155-29.99.32q-10.92.181-21.842.223c-3.854.016-7.706.052-11.56.14-3.632.082-7.26.106-10.893.088-1.96.005-3.92.07-5.879.136-3.645-.05-6.393-.226-9.816-1.493-3.48-3.62-5.699-7.567-8-12a111 111 0 0 0-2.75-3.945l-2.25-3.18-2.312-3.258C65 198 65 198 65 196l1.972-.747c2.954-1.13 5.897-2.285 8.84-3.44l3.104-1.174 2.979-1.182 2.745-1.063c2.914-1.721 3.917-3.363 5.36-6.394.583-3.043.583-3.043 0-6-2.71-3.342-4.65-4.857-8.95-5.312-5.315.077-10.01 2.33-14.862 4.312q-2.82 1.13-5.645 2.25l-2.5 1.016C56 179 56 179 54 179c-2.664-7.993-1.924-18.16 1.684-25.727 7.883-13.614 19.635-18.18 33.847-23.28 2.406-.868 4.8-1.765 7.194-2.665 13.296-4.886 23.34-6.542 36.275.672"/><path fill="#f1b482" d="M268.625 24.5c5.507 2.649 8.688 7.127 11.375 12.5.096 2.52.13 5.01.12 7.53l.003 2.38q0 3.972-.01 7.942l.001 5.676q-.001 7.723-.013 15.445-.007 8.064-.008 16.128-.005 15.277-.021 30.556-.016 17.391-.022 34.781-.016 35.781-.05 71.562l-2.704-.856-3.547-1.11-3.517-1.107c-8.727-2.503-17.146-1.71-25.341 2.198C243 229 243 229 241 229q-.141-36.953-.207-73.904-.028-17.158-.095-34.316-.06-14.955-.074-29.911a3635 3635 0 0 0-.047-15.836q-.039-7.455-.03-14.912a698 698 0 0 0-.024-5.466c-.02-2.494-.015-4.986-.004-7.48l-.035-2.17c.073-6.25 2.196-11.37 6.297-16.028l1.719-1.352 1.719-1.398c6.016-4.143 11.671-4.294 18.406-1.727"/><path fill="#f0b382" d="m50.156 242.88 2.223-.003q3.697 0 7.393.01l5.292-.001q7.192.001 14.385.013 7.514.007 15.027.008 14.232.005 28.464.021 16.2.016 32.4.022 33.33.016 66.66.05l.044 2.396c.075 3.64.172 7.278.268 10.917l.069 3.767c.223 7.724 1.165 14.582 3.619 21.92q-36.026.141-72.052.207c-11.152.02-22.303.049-33.455.095q-14.578.06-29.157.074c-5.147.006-10.294.018-15.44.047a2123 2123 0 0 1-14.533.03q-2.667 0-5.333.024c-2.429.02-4.856.015-7.285.004l-2.128.035c-5.734-.07-9.256-2.172-13.262-6.149-5.181-6.62-5.159-12.036-4.355-20.367 2.036-5.756 5.657-9.096 11-12 3.564-1.188 6.392-1.123 10.156-1.12M300 243q34.605-.141 69.21-.207 16.07-.028 32.137-.095 14.006-.06 28.012-.074c4.944-.006 9.887-.018 14.83-.047q6.983-.039 13.967-.03 2.559 0 5.118-.024c17.724-.152 17.724-.152 24.82 6.415 4.248 6.23 5.082 11.62 3.906 19.062-1.77 5.962-4.979 9.474-10 13-3.51 1.17-6.657 1.135-10.308 1.12l-2.272.003q-3.78 0-7.56-.01l-5.41.001q-7.354-.001-14.707-.013-7.681-.007-15.363-.008-14.55-.005-29.101-.021-16.563-.016-33.127-.022-34.076-.016-68.152-.05l.402-1.793.536-2.394.527-2.356L298 273c.18-.801.36-1.603.547-2.428.504-2.864.665-5.623.77-8.529l.126-3.37.12-3.486.13-3.544q.159-4.322.307-8.643"/><path fill="#f28d41" d="M133 128c4.033 2.921 7.235 5.852 10 10l-1.871 1.328c-15.876 11.89-24.184 29.144-27.816 48.297-.974 8.974-.974 8.974 1.687 17.375 3.118 2.354 3.118 2.354 8 3l2 15c-5.977.298-11.95.515-17.932.66q-3.048.09-6.093.245c-16.865.844-16.865.844-21.96-3.38C76.96 217.434 75.459 214.41 74 211a72 72 0 0 0-2.75-3.945l-2.25-3.18-2.312-3.258C65 198 65 198 65 196l1.972-.747c2.954-1.13 5.897-2.285 8.84-3.44l3.104-1.174 2.979-1.182 2.745-1.063c2.914-1.721 3.917-3.363 5.36-6.394.583-3.043.583-3.043 0-6-2.71-3.342-4.65-4.857-8.95-5.312-5.315.077-10.01 2.33-14.862 4.312q-2.82 1.13-5.645 2.25l-2.5 1.016C56 179 56 179 54 179c-2.664-7.993-1.924-18.16 1.684-25.727 7.883-13.614 19.635-18.18 33.847-23.28 2.406-.868 4.8-1.765 7.194-2.665 13.296-4.886 23.34-6.542 36.275.672"/><path fill="#7ed049" d="M61.125 42.938C64.587 44.217 65.681 45.104 68 48c1.544 3.404 2.769 6.91 4 10.438 2.745 8.509 2.745 8.509 8 15.562 1.973.705 1.973.705 4 .5l2-.031c2.824-.662 3.983-1.328 6-3.469 1.121-2.89 1.805-5.859 2.5-8.875 1.304-5.604 2.321-9.897 6.5-14.125 2.889-1.444 4.796-1.377 8-1 2.938 1.875 2.938 1.875 5 5 1.03 7.58-2.58 16.036-4.668 23.25-1.498 5.232-2.733 10.514-3.9 15.828a108 108 0 0 1-.954 3.901c-.534 2.046-.534 2.046-.686 4.288-.476 2.866-1.02 4.404-2.792 6.733-5.209 2.915-10.711 4.675-16.375 6.5q-2.302.788-4.602 1.586c-15.83 5.426-15.83 5.426-18.881 4.116l-1.751-1.307-2.012-1.465-2.129-1.618-4.543-3.332-2.35-1.744c-3.76-2.769-7.592-5.435-11.42-8.111a692 692 0 0 1-12.37-8.852c-.66-.482-1.32-.965-1.998-1.463-2.299-1.92-2.547-3.144-2.944-6.123C20 81 20 81 22.125 78.126c3.434-2.538 4.7-2.573 8.875-2.125 2.527 1.39 2.527 1.39 4.938 3.25l2.609 1.926L41 83c5.54 3.844 9.684 4.568 16.375 3.688L59 86c2.745-8.234.251-15.05-3-22.75a697 697 0 0 1-2.25-5.484l-1.016-2.413c-.825-2.645-1.05-4.6-.734-7.353 2.974-3.257 4.628-4.973 9.125-5.062"/><path fill="#f0e593" d="M270.883 245.586c4.19 2.799 6.889 6.957 9.117 11.414.773 6.82.085 12.378-4 18-4.565 4.792-8.658 6.185-15.187 6.438-5.73-.045-8.992-.881-13.223-4.754L246 275l-2.5-2.562c-2.359-5.406-2.225-10.637-1.5-16.438 2.59-5.578 6.912-8.839 11.875-12.312 6.07-1.964 11.418-.79 17.008 1.898"/><path fill="#0f0e0f" d="M142.16 427.406h2.629a423 423 0 0 1 5.479.052c2.79.042 5.577.041 8.367.034q2.669.016 5.338.04h2.516c4.638.094 7.76.45 11.511 3.468 2.12 3.18 2.292 3.827 2 7.438l-.125 2.308c-1.38 3.554-3.561 4.468-6.875 6.254-3.048.571-6.03.585-9.125.566l-2.622.02a503 503 0 0 1-5.466-.01c-2.78-.013-5.555.02-8.334.059q-2.664 0-5.328-.006l-2.5.04c-4.167-.067-6.837-.414-10.146-3.066-2.526-2.652-3.305-3.522-3.229-7.103-.015-.732-.03-1.464-.047-2.219 2.609-7.468 9.138-8.01 15.957-7.875m0-48h2.629a423 423 0 0 1 5.479.052c2.79.042 5.577.041 8.367.034q2.669.016 5.338.04h2.516c4.638.094 7.76.45 11.511 3.468 2.36 3.541 2.573 4.828 2 9-1.822 2.926-3.87 5.435-7 7-5.634.286-11.27.314-16.911.35q-2.829.025-5.656.082c-2.723.055-5.444.077-8.167.091l-2.539.07c-4.21-.016-6.91-.3-10.256-2.983-2.515-2.657-3.297-3.533-3.221-7.11-.015-.732-.03-1.464-.047-2.219 2.609-7.468 9.138-8.01 15.957-7.875"/><path fill="#100e0f" d="m249.906 330.371 2.555-.007q2.662 0 5.325.04c2.706.033 5.41.02 8.116 0q2.595.01 5.192.03l2.434-.015c5.255.109 8.3 1.103 12.472 4.581 1.532 3.064 1.23 5.617 1 9-2.2 4.6-2.2 4.6-5 6-1.331.114-2.667.17-4.003.193l-2.499.049c-3.773.044-7.545.085-11.319.108q-2.983.025-5.967.082a615 615 0 0 1-8.607.091l-2.686.07c-4.494-.016-6.325-.129-9.976-2.983-1.985-2.666-2.648-3.838-2.63-7.11l-.075-2.219c2.458-7.36 8.99-8.02 15.668-7.91"/><path fill="#100f0f" d="m357.906 330.371 2.555-.007q2.663 0 5.325.04c2.706.033 5.41.02 8.116 0q2.595.01 5.192.03l2.434-.015c5.255.109 8.3 1.103 12.472 4.581 1.532 3.064 1.23 5.617 1 9-2.2 4.6-2.2 4.6-5 6-1.331.114-2.667.17-4.003.193l-2.499.049c-3.773.044-7.545.085-11.319.108q-2.983.025-5.967.082a615 615 0 0 1-8.607.091l-2.686.07c-4.494-.016-6.325-.129-9.976-2.983-1.985-2.666-2.648-3.838-2.63-7.11l-.075-2.219c2.458-7.36 8.99-8.02 15.668-7.91"/><path fill="#0f0e0f" d="m141.55 331.797 2.58-.017q2.704-.014 5.409-.02c2.752-.01 5.504-.04 8.256-.072q2.628-.01 5.256-.016l2.488-.038c4.644.018 7.703.334 11.461 3.366 2.492 3.737 2.458 5.573 2 10-1.796 2.753-3.053 4.526-6 6-5.795.286-11.592.314-17.393.35q-2.912.025-5.823.082c-2.8.055-5.597.077-8.397.091l-2.62.07c-4.453-.016-6.203-.148-9.814-2.997-2.446-3.251-2.63-4.753-2.387-8.662.682-3.04 2.236-4.801 4.434-6.934 3.287-1.644 6.937-1.185 10.55-1.203m216.391 95.609h2.562q2.67.008 5.338.052c2.717.042 5.432.041 8.15.034q2.6.016 5.2.04h2.45c4.589.096 7.641.496 11.359 3.468 2.492 3.737 2.458 5.573 2 10-1.796 2.753-3.053 4.526-6 6-5.634.286-11.27.314-16.911.35q-2.829.025-5.656.082c-2.723.055-5.444.077-8.167.091l-2.539.07c-4.21-.016-6.91-.3-10.256-2.983-2.515-2.657-3.297-3.533-3.221-7.11-.015-.732-.03-1.464-.047-2.219 2.574-7.368 8.99-8.012 15.738-7.875"/><path fill="#0e0e0f" d="M249.941 427.406h2.562q2.67.008 5.338.052c2.717.042 5.432.041 8.15.034q2.6.016 5.2.04h2.45c4.589.096 7.641.496 11.359 3.468 2.492 3.737 2.458 5.573 2 10-1.796 2.753-3.053 4.526-6 6-5.634.286-11.27.314-16.911.35q-2.829.025-5.656.082c-2.723.055-5.444.077-8.167.091l-2.539.07c-4.21-.016-6.91-.3-10.256-2.983-2.515-2.657-3.297-3.533-3.221-7.11-.015-.732-.03-1.464-.047-2.219 2.574-7.368 8.99-8.012 15.738-7.875"/><path fill="#0f0e0f" d="M357.941 379.406h2.562q2.67.008 5.338.052c2.717.042 5.432.041 8.15.034q2.6.016 5.2.04h2.45c4.589.096 7.641.496 11.359 3.468 2.492 3.737 2.458 5.573 2 10-1.796 2.753-3.053 4.526-6 6-5.634.286-11.27.314-16.911.35q-2.829.025-5.656.082c-2.723.055-5.444.077-8.167.091l-2.539.07c-4.21-.016-6.91-.3-10.256-2.983-2.515-2.657-3.297-3.533-3.221-7.11-.015-.732-.03-1.464-.047-2.219 2.574-7.368 8.99-8.012 15.738-7.875m-108 0h2.562q2.67.008 5.338.052c2.717.042 5.432.041 8.15.034q2.6.016 5.2.04h2.45c4.589.096 7.641.496 11.359 3.468 2.492 3.737 2.458 5.573 2 10-1.796 2.753-3.053 4.526-6 6-5.634.286-11.27.314-16.911.35q-2.829.025-5.656.082c-2.723.055-5.444.077-8.167.091l-2.539.07c-4.21-.016-6.91-.3-10.256-2.983-2.515-2.657-3.297-3.533-3.221-7.11-.015-.732-.03-1.464-.047-2.219 2.574-7.368 8.99-8.012 15.738-7.875"/></svg>