<svg width="20" height="20" viewBox="0 0 87 83" fill="none" xmlns="http://www.w3.org/2000/svg"><path d="M41.4992 1.38196C42.0979 -0.460659 44.7047 -0.460657 45.3034 1.38196L54.178 28.695C54.4457 29.5191 55.2136 30.077 56.0801 30.077H84.7988C86.7362 30.077 87.5418 32.5562 85.9743 33.695L62.7404 50.5755C62.0395 51.0847 61.7462 51.9875 62.0139 52.8115L70.8885 80.1246C71.4872 81.9672 69.3782 83.4995 67.8108 82.3607L44.5769 65.4803C43.8759 64.971 42.9267 64.971 42.2257 65.4803L18.9918 82.3607C17.4244 83.4995 15.3155 81.9672 15.9142 80.1246L24.7887 52.8115C25.0565 51.9875 24.7631 51.0847 24.0622 50.5755L0.828273 33.695C-0.739154 32.5562 0.0664003 30.077 2.00385 30.077H30.7225C31.589 30.077 32.3569 29.5191 32.6246 28.695L41.4992 1.38196Z" fill="white"/></svg>
