<svg width="18" height="18" viewBox="0 0 300 300" fill="none" xmlns="http://www.w3.org/2000/svg"><path d="M250 0C277.614 3.2213e-06 300 22.3858 300 50V250C300 277.614 277.614 300 250 300H50C22.3858 300 8.0543e-07 277.614 0 250V50C3.22172e-06 22.3858 22.3858 8.05326e-07 50 0H250ZM55 213C49.4772 213 45 217.477 45 223V233C45 238.523 49.4772 243 55 243H205C210.523 243 215 238.523 215 233V223C215 217.477 210.523 213 205 213H55ZM55 158C49.4772 158 45 162.477 45 168V178C45 183.523 49.4772 188 55 188H235C240.523 188 245 183.523 245 178V168C245 162.477 240.523 158 235 158H55ZM93.9648 52.4658C85.1465 43.6479 70.6111 43.886 61.499 52.998C52.3868 62.1103 52.1485 76.6466 60.9668 85.4648L94.4971 118.995L127.496 85.9971C136.608 76.8848 136.847 62.3486 128.028 53.5303C119.21 44.712 104.674 44.9503 95.5615 54.0625L93.9648 52.4658Z" fill="white"/></svg>
