<?xml version="1.0" encoding="UTF-8"?>
<svg version="1.1" xmlns="http://www.w3.org/2000/svg" width="512" height="512">
<path d="M0 0 C1.1016449 -0.01606293 2.20328979 -0.03212585 3.33831787 -0.04867554 C8.38374264 -0.09307976 13.42903491 -0.13419594 18.47460938 -0.15722656 C21.13669014 -0.17054996 23.796955 -0.20106092 26.45898438 -0.23925781 C30.29352933 -0.29400982 34.12703089 -0.3159002 37.96191406 -0.33056641 C39.74344879 -0.36457047 39.74344879 -0.36457047 41.56097412 -0.39926147 C50.77482288 -0.3756943 50.77482288 -0.3756943 54.46289062 2.60058594 C58.32633931 7.02297685 57.86968005 10.64608642 57.85693359 16.29248047 C57.85956207 17.70724419 57.85956207 17.70724419 57.86224365 19.15058899 C57.86665762 22.27928488 57.86372576 25.40792459 57.86035156 28.53662109 C57.86102473 30.70373546 57.86199487 32.87084976 57.86325073 35.03796387 C57.86472709 39.58423581 57.86257513 44.13048814 57.85791016 48.67675781 C57.85221291 54.51470247 57.85549225 60.35260116 57.86148262 66.19054413 C57.8650899 70.66681263 57.86394887 75.14307017 57.86135483 79.61933899 C57.86068602 81.77240504 57.86151237 83.92547208 57.86383438 86.07853699 C57.86636362 89.08347219 57.86251643 92.08833214 57.85693359 95.09326172 C57.85895782 95.98995071 57.86098206 96.88663971 57.86306763 97.8105011 C57.84180283 103.96434356 57.84180283 103.96434356 56.72753906 106.19287109 C56.54944402 109.12414032 56.44984636 112.00977619 56.41503906 114.94287109 C56.38603516 115.74208984 56.35703125 116.54130859 56.32714844 117.36474609 C56.25824146 123.81019918 58.01392829 127.21991757 62.40332031 132.02880859 C62.9434375 132.53669922 63.48355469 133.04458984 64.04003906 133.56787109 C66.40320965 135.85672814 68.60895835 138.17671611 70.72753906 140.69287109 C73.12978702 143.51194747 75.65979954 146.12225558 78.32910156 148.68505859 C79.31716797 149.6412207 79.31716797 149.6412207 80.32519531 150.61669922 C81.64251953 151.8845286 82.97017418 153.14174164 84.30957031 154.38623047 C91.31576305 161.15406819 94.87616344 167.29115427 95.19061279 177.12368774 C95.23366244 181.52470675 95.14514962 185.91830018 95.04003906 190.31787109 C95.01491866 192.15117393 94.99211212 193.98451001 94.97167969 195.81787109 C94.91699459 200.27703536 94.83093169 204.73458113 94.72753906 209.19287109 C96.21253906 208.20287109 96.21253906 208.20287109 97.72753906 207.19287109 C97.65825195 206.48469238 97.58896484 205.77651367 97.51757812 205.046875 C95.43844084 182.29844941 96.37388056 160.74646081 102.37207031 138.69677734 C103.04581021 135.9486224 103.04581021 135.9486224 100.72753906 133.19287109 C100.46011353 130.81570435 100.46011353 130.81570435 100.43701172 127.97460938 C100.42425201 126.90985382 100.41149231 125.84509827 100.39834595 124.74807739 C100.39500748 123.02305496 100.39500748 123.02305496 100.39160156 121.26318359 C100.38494476 120.08070038 100.37828796 118.89821716 100.37142944 117.67990112 C100.36129676 115.17659055 100.35661261 112.67325293 100.35693359 110.16992188 C100.35256417 106.3398788 100.31625902 102.51099116 100.27832031 98.68115234 C100.27245161 96.25016671 100.26848258 93.81917559 100.26660156 91.38818359 C100.25223053 90.2422171 100.2378595 89.09625061 100.22305298 87.91555786 C100.26851403 80.0024335 100.26851403 80.0024335 102.50634766 76.05566406 C106.42380239 72.77030689 109.22340385 71.94203342 114.3347168 71.91821289 C115.45945908 71.90868088 116.58420135 71.89914886 117.74302673 71.889328 C119.55873924 71.89069511 119.55873924 71.89069511 121.41113281 71.89208984 C122.65878922 71.88780472 123.90644562 71.88351959 125.19190979 71.87910461 C127.83063846 71.87336114 130.46897598 71.87192591 133.10766602 71.87719727 C136.4814905 71.88299037 139.85476571 71.86606057 143.22849941 71.84285259 C146.45603964 71.82453901 149.68355 71.82830124 152.91113281 71.82958984 C154.11958359 71.8203801 155.32803436 71.81117035 156.57310486 71.80168152 C158.26494652 71.8110247 158.26494652 71.8110247 159.9909668 71.82055664 C160.9803978 71.81992722 161.9698288 71.81929779 162.98924255 71.81864929 C167.07718963 72.3773174 169.73687996 74.09606994 172.47753906 77.13037109 C174.56818562 80.57993792 174.8535981 83.79319443 174.87280273 87.77441406 C174.88237251 89.12634354 174.88237251 89.12634354 174.89213562 90.50558472 C174.89380486 91.95567429 174.89380486 91.95567429 174.89550781 93.43505859 C174.89883621 94.43618683 174.90216461 95.43731506 174.90559387 96.46878052 C174.91065318 98.58530214 174.91300251 100.70183172 174.9128418 102.81835938 C174.91502617 106.04879977 174.93318676 109.27889744 174.95214844 112.50927734 C174.95508302 114.56786993 174.95706738 116.62646413 174.95800781 118.68505859 C174.96519333 119.64773651 174.97237885 120.61041443 174.9797821 121.6022644 C174.96284708 126.59801367 174.5052912 130.46621556 172.72753906 135.19287109 C173.00646087 139.47852687 173.77139396 143.47799227 174.70019531 147.66162109 C177.23570192 159.11912124 178.10048156 170.24228051 178.04003906 181.94287109 C178.03730988 182.62728271 178.03458069 183.31169434 178.0317688 184.0168457 C177.99121548 190.37484244 177.87897213 196.53659773 176.83691406 202.81396484 C176.50984254 205.11333014 176.50984254 205.11333014 176.72753906 207.19287109 C178.78864371 209.70306196 180.03312927 210.83209021 182.66503906 212.50537109 C183.95719463 213.41820573 185.24748485 214.33368518 186.53613281 215.25146484 C187.2191748 215.72310059 187.9022168 216.19473633 188.60595703 216.68066406 C192.28531159 219.30320976 195.74281818 222.19476262 199.22753906 225.06787109 C200.52934316 226.12810988 201.83141514 227.18801985 203.13378906 228.24755859 C203.73932617 228.74473389 204.34486328 229.24190918 204.96875 229.75415039 C206.11666192 230.69316274 207.27073671 231.62470544 208.43164062 232.54760742 C211.28911062 234.84751161 213.59291731 236.97427507 215.47753906 240.13037109 C215.86425781 240.75814453 216.25097656 241.38591797 216.64941406 242.03271484 C219.70232262 248.14959323 220.01718161 253.49814742 219.9949646 260.19967651 C219.99949571 261.20371242 220.00402683 262.20774832 220.00869524 263.24220955 C220.02134947 266.60455375 220.0197182 269.96673619 220.01806641 273.32910156 C220.02405096 275.74062305 220.03085634 278.15214262 220.03842163 280.56365967 C220.05425955 286.43300438 220.06053028 292.30231121 220.06164639 298.17167293 C220.06259769 302.94358777 220.06671209 307.71548939 220.07304764 312.48740005 C220.09065401 326.02446456 220.09988734 339.56149739 220.09838669 353.09857343 C220.09830678 353.82788014 220.09822687 354.55718684 220.09814453 355.30859375 C220.09806277 356.03879349 220.09798101 356.76899323 220.09789677 357.52132024 C220.09708383 369.3557989 220.11622514 381.1901503 220.14442126 393.02459215 C220.17316193 405.18376323 220.18696094 417.34287227 220.18523371 429.50207818 C220.18457026 436.32551521 220.19004277 443.14881879 220.21158981 449.97222519 C220.23172412 456.38921912 220.23111584 462.80600407 220.21655655 469.22301483 C220.21446391 471.57722256 220.2191963 473.9314478 220.23127747 476.28562546 C220.24671074 479.50144826 220.23743361 482.71629661 220.22201538 485.93209839 C220.23230251 486.86187622 220.24258963 487.79165405 220.25318849 488.74960697 C220.18013946 495.65251071 218.53558234 500.93880752 213.98144531 506.21630859 C213.42328125 506.66232422 212.86511719 507.10833984 212.29003906 507.56787109 C211.73445313 508.02935547 211.17886719 508.49083984 210.60644531 508.96630859 C206.33145048 511.75705366 202.62195643 512.443525 197.55924511 512.45014 C196.31065124 512.45658889 195.06205737 512.46303778 193.77562732 512.4696821 C192.39275077 512.46673991 191.00987462 512.46360448 189.6269989 512.46029663 C188.15582906 512.46403324 186.68466121 512.46863481 185.21349651 512.47402728 C181.16985356 512.48627137 177.12629326 512.48599515 173.082636 512.48363853 C168.72191727 512.48323071 164.36122516 512.49426609 160.0005188 512.50375366 C151.45665262 512.52037237 142.91281403 512.5258636 134.36893304 512.52697842 C127.42451289 512.52792848 120.48010185 512.53203669 113.53568459 512.53837967 C93.85024837 512.55599447 74.16483396 512.56521817 54.47938981 512.56371872 C53.41796119 512.56363881 52.35653257 512.5635589 51.26293945 512.56347656 C50.20021597 512.5633948 49.13749249 512.56331304 48.04256526 512.5632288 C30.81819034 512.56241584 13.59390286 512.58155552 -3.63044677 512.6097533 C-21.31308398 512.63847308 -38.99567853 512.65229409 -56.67833966 512.65056574 C-66.6070981 512.64990153 -76.53576489 512.65540763 -86.46450233 512.67692184 C-94.91791938 512.69512173 -103.37120323 512.6994908 -111.82463137 512.685903 C-116.13754298 512.67936731 -120.45019894 512.67927773 -124.76308632 512.6966095 C-128.71288144 512.71231887 -132.66221777 512.70949871 -136.61200156 512.69204123 C-138.0393087 512.6889666 -139.4666499 512.69262125 -140.89391688 512.70376138 C-148.7811943 512.7612361 -154.57060919 512.55109699 -161.27246094 508.19287109 C-163.33105469 506.15771484 -163.33105469 506.15771484 -164.70996094 504.13037109 C-165.18304688 503.45876953 -165.65613281 502.78716797 -166.14355469 502.09521484 C-168.45410777 498.20165307 -168.40640345 494.8782128 -168.42636108 490.44313049 C-168.43074334 489.75326913 -168.43512559 489.06340777 -168.43964064 488.35264152 C-168.45301957 486.03579145 -168.45920535 483.71897941 -168.46533203 481.40209961 C-168.47323347 479.74314197 -168.48150245 478.08418605 -168.4901123 476.42523193 C-168.51631915 470.97409708 -168.53163477 465.52295457 -168.54589844 460.07177734 C-168.55125794 458.19626294 -168.55663545 456.3207486 -168.56203079 454.4452343 C-168.58365412 446.64654106 -168.6023929 438.84784988 -168.61365318 431.04913425 C-168.62990782 419.86463807 -168.66312843 408.68048843 -168.72005403 397.4961229 C-168.7587036 389.63534298 -168.77827972 381.77465596 -168.78357375 373.91378349 C-168.78723296 369.21643371 -168.79931507 364.51945365 -168.83167648 359.8222065 C-168.86167103 355.40538784 -168.86810004 350.9891643 -168.85629272 346.57226562 C-168.85607129 344.95007551 -168.86443402 343.32785846 -168.88194656 341.70576286 C-168.90453893 339.49298455 -168.89639298 337.28238275 -168.88046265 335.06959534 C-168.88377279 333.83091485 -168.88708294 332.59223436 -168.89049339 331.3160181 C-168.27246094 328.19287109 -168.27246094 328.19287109 -165.85946083 325.76307583 C-163.27246094 324.19287109 -163.27246094 324.19287109 -161.27246094 324.19287109 C-161.27246094 317.92287109 -161.27246094 311.65287109 -161.27246094 305.19287109 C-162.92246094 304.86287109 -164.57246094 304.53287109 -166.27246094 304.19287109 C-168.69340638 300.56145293 -168.59532966 297.83224795 -168.60839844 293.63037109 C-168.61838364 292.51057861 -168.61838364 292.51057861 -168.62857056 291.36816406 C-168.6386972 289.78453021 -168.64338757 288.20085369 -168.64306641 286.6171875 C-168.64739562 284.22890528 -168.68358726 281.84253959 -168.72167969 279.45458984 C-168.81664306 266.84030225 -166.92040819 257.27172622 -158.47558594 247.41943359 C-151.93169201 240.80592377 -144.51828121 237.55998197 -135.54199219 235.59521484 C-128.61395018 233.9993762 -123.89662318 231.714598 -119.27246094 226.19287109 C-117.00398829 222.47795073 -115.92250794 218.48318129 -115.27246094 214.19287109 C-115.93246094 214.19287109 -116.59246094 214.19287109 -117.27246094 214.19287109 C-120.13341328 208.54483409 -120.71640435 204.07171903 -120.67089844 197.78662109 C-120.67376862 196.9030896 -120.67663879 196.01955811 -120.67959595 195.10925293 C-120.68162795 193.25023758 -120.67615884 191.39120043 -120.66357422 189.53222656 C-120.64750803 186.7011697 -120.6634522 183.87154028 -120.68261719 181.04052734 C-120.6806346 179.22672214 -120.67679061 177.41291781 -120.67089844 175.59912109 C-120.67697113 174.76038452 -120.68304382 173.92164795 -120.68930054 173.05749512 C-120.62595 167.71338183 -120.03866839 163.82730892 -117.27246094 159.19287109 C-112.25216423 155.40540919 -106.86383179 155.75615323 -100.83496094 155.79443359 C-99.8366626 155.79156342 -98.83836426 155.78869324 -97.80981445 155.78573608 C-95.70523509 155.78370027 -93.60063661 155.78919626 -91.49609375 155.80175781 C-88.28309638 155.81781793 -85.07135689 155.80189228 -81.85839844 155.78271484 C-79.80891651 155.78469736 -77.75943536 155.78854121 -75.70996094 155.79443359 C-74.75355713 155.7883609 -73.79715332 155.78228821 -72.81176758 155.77603149 C-67.57343791 155.83100234 -63.74135852 156.15192056 -59.27246094 159.19287109 C-56.65103739 162.10728923 -55.89450159 163.96416684 -55.8684082 167.86621094 C-55.85572403 168.78751801 -55.84303986 169.70882507 -55.82997131 170.65805054 C-55.83290695 171.6466507 -55.83584259 172.63525085 -55.83886719 173.65380859 C-55.83362534 174.67713287 -55.82838348 175.70045715 -55.82298279 176.75479126 C-55.81656284 178.91838677 -55.81789922 181.08201719 -55.82641602 183.24560547 C-55.83491234 186.54897601 -55.80618507 189.85060947 -55.77441406 193.15380859 C-55.77280156 195.25797474 -55.77338052 197.36214395 -55.77636719 199.46630859 C-55.76513321 200.45086029 -55.75389923 201.43541199 -55.74232483 202.44979858 C-55.80286474 208.43613336 -56.55819376 211.49929134 -60.27246094 216.19287109 C-59.99371462 221.49776202 -56.96084917 226.50448286 -53.27246094 230.19287109 C-51.62067875 231.21727013 -49.95556052 232.22078387 -48.27246094 233.19287109 C-48.34029785 232.23759521 -48.40813477 231.28231934 -48.47802734 230.2980957 C-49.24869752 218.80428237 -49.55385778 207.32492425 -49.62255859 195.80639648 C-49.63926338 193.75973252 -49.66673881 191.71313016 -49.70458984 189.66674805 C-49.75960274 186.65562932 -49.78124474 183.6458318 -49.79589844 180.63427734 C-49.8299025 179.28240074 -49.8299025 179.28240074 -49.86459351 177.9032135 C-49.83756813 169.69776609 -47.05156011 163.00118509 -41.52099609 156.90551758 C-40.54701575 155.94547354 -39.56012273 154.99837466 -38.56152344 154.06396484 C-38.03029877 153.54455826 -37.4990741 153.02515167 -36.95175171 152.49000549 C-35.27867563 150.8575172 -33.58958508 149.24308585 -31.89746094 147.63037109 C-29.67398422 145.49070827 -27.45820265 143.34338506 -25.24902344 141.18896484 C-24.72181702 140.67530365 -24.1946106 140.16164246 -23.65142822 139.63241577 C-15.39732171 132.08296714 -15.39732171 132.08296714 -11.14306641 122.34521484 C-11.14193848 121.61431641 -11.14081055 120.88341797 -11.13964844 120.13037109 C-11.13771484 118.93541016 -11.13771484 118.93541016 -11.13574219 117.71630859 C-11.13960937 116.88357422 -11.14347656 116.05083984 -11.14746094 115.19287109 C-11.14359375 114.36013672 -11.13972656 113.52740234 -11.13574219 112.66943359 C-11.13703125 111.87279297 -11.13832031 111.07615234 -11.13964844 110.25537109 C-11.14134033 109.15902344 -11.14134033 109.15902344 -11.14306641 108.04052734 C-11.16044299 106.09721056 -11.16044299 106.09721056 -12.27246094 104.19287109 C-12.3921352 101.1737005 -12.4508826 98.17692559 -12.46533203 95.15673828 C-12.47759827 93.75161232 -12.47759827 93.75161232 -12.4901123 92.31809998 C-12.51498621 89.20865523 -12.53148788 86.09925622 -12.54589844 82.98974609 C-12.55122211 81.9289106 -12.55654579 80.8680751 -12.56203079 79.77509308 C-12.58877167 74.15963971 -12.60814316 68.54420864 -12.62255859 62.92871094 C-12.63920425 57.12678746 -12.68397908 51.32543224 -12.73493004 45.5237236 C-12.76857919 41.06444645 -12.78013354 36.60530452 -12.78578568 32.14591217 C-12.79250509 30.00727244 -12.80774497 27.86864181 -12.83167648 25.73012543 C-12.86327871 22.73513959 -12.86337189 19.74169068 -12.85595703 16.74658203 C-12.87236237 15.86427414 -12.8887677 14.98196625 -12.90567017 14.07292175 C-12.86244648 9.80416402 -12.59449191 7.04447022 -9.86099243 3.65826416 C-6.32401773 0.28954606 -4.76015487 0.06296188 0 0 Z " fill="#010101" transform="translate(230.2724609375,-0.19287109375)"/>
<path d="M0 0 C11.22 0 22.44 0 34 0 C34.99 7.425 34.99 7.425 36 15 C38.52983635 23.60144358 42.72188165 28.70116179 49 35 C49.69867188 35.70125 50.39734375 36.4025 51.1171875 37.125 C52.44269648 38.44535136 53.77205789 39.7618479 55.10546875 41.07421875 C57.57314165 43.58259553 59.83943518 46.23998792 62.12890625 48.91015625 C65.00445252 52.12188329 68.0907814 55.11204834 71.1796875 58.1171875 C73.96013066 60.99309652 74.12421115 62.68002108 74.11180115 66.57037354 C74.11069619 67.53051235 74.10959124 68.49065117 74.1084528 69.4798851 C74.10158671 70.53614216 74.09472063 71.59239922 74.08764648 72.68066406 C74.08185278 74.34805822 74.08185278 74.34805822 74.07594204 76.04913712 C74.01504608 89.36053546 73.82651772 102.67072299 73.62907338 115.98066616 C73.58615376 118.88874149 73.54439362 121.79683307 73.50260442 124.70492482 C73.40351965 131.5987179 73.30260317 138.49248238 73.20043945 145.38623047 C73.10827153 151.60723151 73.01811585 157.82825763 72.92993164 164.04931641 C72.08338054 223.72882551 72.08338054 223.72882551 71.36497498 248.12791443 C70.87192431 264.89339739 70.52340024 281.66120816 70.26778126 298.43197441 C70.19129787 303.42307094 70.10433916 308.41355599 69.99511719 313.40405273 C69.88718991 318.34834525 69.80421401 323.29247641 69.73885727 328.23750877 C69.71014183 330.09271087 69.67271237 331.94780139 69.62598038 333.8026371 C69.56282857 336.37170898 69.53183715 338.9393345 69.50830078 341.5090332 C69.46966667 342.62702049 69.46966667 342.62702049 69.43025208 343.76759338 C69.42954906 348.95819348 70.83695415 352.02836902 73.86655426 356.22984028 C75.59230613 358.92503454 75.58375245 361.24980114 75.5234375 364.3984375 C75.51183594 365.53667969 75.50023437 366.67492187 75.48828125 367.84765625 C75.45089844 369.01167969 75.41351563 370.17570312 75.375 371.375 C75.36082031 372.56222656 75.34664063 373.74945313 75.33203125 374.97265625 C75.18392119 383.63215762 75.18392119 383.63215762 74 386 C59.30118739 386.04667909 44.60238457 386.08196873 29.90351295 386.10362434 C23.0788793 386.11394578 16.25429164 386.1280226 9.4296875 386.15087891 C2.84856644 386.17290929 -3.73251926 386.18455551 -10.31367874 386.18975449 C-12.8295937 386.19346141 -15.34550592 386.20069966 -17.8614006 386.21146011 C-21.37429298 386.22589263 -24.88698529 386.2279814 -28.39990234 386.22705078 C-29.44934525 386.23424133 -30.49878815 386.24143188 -31.58003235 386.24884033 C-33.01035545 386.24471634 -33.01035545 386.24471634 -34.46957397 386.24050903 C-35.71675988 386.24327441 -35.71675988 386.24327441 -36.98914146 386.24609566 C-39 386 -39 386 -41 384 C-41.48735365 379.7485561 -41.37040937 375.46366779 -41.375 371.1875 C-41.39949219 369.99833984 -41.42398438 368.80917969 -41.44921875 367.58398438 C-41.45308594 366.43607422 -41.45695313 365.28816406 -41.4609375 364.10546875 C-41.46915527 363.05512451 -41.47737305 362.00478027 -41.48583984 360.92260742 C-40.88408062 357.30267792 -39.39657343 355.71736327 -37 353 C-35.86503587 349.5951076 -35.87155317 347.0125217 -35.86938477 343.42041016 C-35.86818823 342.73964291 -35.86699169 342.05887566 -35.8657589 341.3574791 C-35.86416215 339.04296195 -35.87107298 336.72856602 -35.87890625 334.4140625 C-35.8802463 333.59563496 -35.88158634 332.77720741 -35.882967 331.93397903 C-35.92729448 307.34632967 -36.42045259 282.76234145 -36.86883545 258.17950439 C-36.96035875 253.1084627 -37.04801656 248.03735721 -37.1356802 242.96624756 C-37.52622143 220.43274685 -37.92715398 197.90128923 -38.59496689 175.37408829 C-39.02901228 160.72322807 -39.29483627 146.07219014 -39.50268555 131.41650391 C-39.54220227 128.63163621 -39.5838853 125.84681534 -39.62768555 123.06201172 C-39.63851984 122.37051277 -39.64935413 121.67901382 -39.66051674 120.96656036 C-39.68241217 119.56956076 -39.70440391 118.17256267 -39.72649193 116.7755661 C-39.77958836 113.31903324 -39.82449681 109.86271722 -39.85244751 106.40588379 C-39.86389606 105.03816616 -39.87548259 103.67044967 -39.88720703 102.30273438 C-39.89290522 101.62614021 -39.8986034 100.94954605 -39.90447426 100.25244904 C-39.95056021 95.95405836 -40.07728221 91.66488538 -40.25561237 87.37001419 C-40.37051796 84.4601561 -40.44942233 81.54988158 -40.52329826 78.63872528 C-40.58774439 76.61286824 -40.69976777 74.58869823 -40.81336975 72.56500244 C-40.96464343 65.54063223 -40.40717908 61.61459927 -35.6394043 56.27099609 C-34.12118565 54.81724275 -32.57764872 53.38903246 -31 52 C-30.05312006 51.04573845 -29.11152125 50.08614704 -28.1796875 49.1171875 C-27.41914063 48.37726563 -26.65859375 47.63734375 -25.875 46.875 C-22.28965488 43.33398681 -18.91800616 39.70199899 -15.65625 35.86328125 C-13.96422679 33.95975514 -12.16882836 32.24227429 -10.3125 30.5 C-1.83437321 22.11691948 -1.04524885 11.49773734 0 0 Z " fill="#BDD5CB" transform="translate(236,111)"/>
<path d="M0 0 C16.83 0 33.66 0 51 0 C51 10.02777778 51 10.02777778 49.5 14.125 C48.16644019 18.26031767 47.31268341 21.61835676 48 26 C51.73112453 30.18252712 56.0792789 33.62567146 60.4375 37.125 C61.13544678 37.68904541 61.83339355 38.25309082 62.55249023 38.83422852 C67.1921403 42.57439208 71.86896679 46.26532765 76.5625 49.9375 C78.7094538 51.62358155 80.85479331 53.31169447 83 55 C83.76570313 55.59554687 84.53140625 56.19109375 85.3203125 56.8046875 C89.10631251 59.86200131 91.55278375 62.31782978 93 67 C93.07301005 69.23719969 93.0900548 71.47657798 93.06640625 73.71484375 C93.05681885 74.89038818 93.04723145 76.06593262 93.03735352 77.27709961 C93.02502686 78.17565674 93.0127002 79.07421387 93 80 C92.15475266 80.00586624 91.30950531 80.01173248 90.43864441 80.01777649 C82.47795735 80.07564942 74.51755248 80.14769474 66.5571394 80.23571491 C62.46446382 80.28046719 58.3718889 80.31971232 54.27905273 80.34643555 C50.33016285 80.37242049 46.38165934 80.412788 42.43300819 80.46318626 C40.92555861 80.47988771 39.41804214 80.49138156 37.91051292 80.49761391 C35.80084989 80.5072199 33.69218261 80.53523419 31.58276367 80.56762695 C30.38141281 80.57873001 29.18006195 80.58983307 27.94230652 80.60127258 C25.02127755 80.76545601 25.02127755 80.76545601 23.11201477 82.33952332 C21.36859354 84.94282534 21.61968257 86.95746059 22 90 C38.76139745 106.76139745 69.29836716 93.65144658 93 94 C93 155.38 93 216.76 93 280 C74.911875 280.103125 56.82375 280.20625 38.1875 280.3125 C29.61430786 280.38078003 29.61430786 280.38078003 20.86791992 280.45043945 C13.89904785 280.47302246 13.89904785 280.47302246 10.6386261 280.47721863 C8.35704173 280.48490644 6.07547792 280.50251233 3.79402161 280.52787781 C0.34173183 280.5643484 -3.10931474 280.56953463 -6.56176758 280.56762695 C-8.09135589 280.59461277 -8.09135589 280.59461277 -9.65184498 280.62214375 C-12.1995989 280.6032296 -14.51281482 280.55173361 -17 280 C-19.02738953 277.65202332 -19.02738953 277.65202332 -20 275 C-20.99 273.515 -20.99 273.515 -22 272 C-22.16580156 268.87186451 -22.20344184 265.83781349 -22.15234375 262.7109375 C-22.14404037 261.71508636 -22.135737 260.71923523 -22.12718201 259.69320679 C-22.10632991 257.41436033 -22.08039473 255.13555698 -22.05047607 252.85681152 C-21.99568831 248.67054948 -21.95448082 244.48427462 -21.91455078 240.29785156 C-21.83388401 232.11177548 -21.7334345 223.92602032 -21.62768555 215.74023438 C-21.58376886 212.33368215 -21.54215407 208.92711445 -21.50268555 205.52050781 C-21.27606756 185.99826507 -20.96090689 166.50299502 -20 147 C-18.60974609 147.72703125 -18.60974609 147.72703125 -17.19140625 148.46875 C-12.33243377 150.80010522 -9.0497839 150.7077259 -3.9453125 148.9453125 C-1.74580181 148.08684297 0.44391109 147.2026778 2.62109375 146.2890625 C9.87290771 143.52247451 16.17880505 142.66442984 23.875 142.75 C24.76340576 142.75749268 25.65181152 142.76498535 26.56713867 142.77270508 C36.99471734 142.94430907 45.63341043 145.41305175 55.38671875 148.9765625 C60.08866738 150.30835768 64.0847643 150.51072952 68.8125 149.25 C71.47195379 147.73031212 71.72738541 146.74319145 73 144 C74.01455405 142.12159489 75.03579092 140.24678903 76.0625 138.375 C78.96188414 133.08663676 80.51579976 130.18959715 80 124 C77.13144448 118.44352848 74.06486676 116.52414417 68.5 114.3125 C67.78440918 114.01706299 67.06881836 113.72162598 66.33154297 113.41723633 C54.53570627 108.67225482 42.60505874 106.93689886 30 106 C29.29713867 105.94650391 28.59427734 105.89300781 27.87011719 105.83789062 C14.06683648 104.93725103 0.44467233 107.67231753 -12.43359375 112.66796875 C-16 114 -16 114 -19 114 C-19 107.4 -19 100.8 -19 94 C-11.1875 93.6875 -11.1875 93.6875 -8.73901367 93.61206055 C-4.63583074 93.40480629 -4.63583074 93.40480629 -1.01171875 91.64453125 C0.59741681 89.02890936 0.37348991 86.98791927 0 84 C-0.95597432 82.19514239 -0.95597432 82.19514239 -3 81 C-5.79251583 80.62325482 -8.38779201 80.39808059 -11.1875 80.3125 C-11.93708984 80.27833984 -12.68667969 80.24417969 -13.45898438 80.20898438 C-15.30546838 80.12665706 -17.15270994 80.06164719 -19 80 C-19.02946879 76.0625162 -19.04695407 72.12506144 -19.0625 68.1875 C-19.07087891 67.08728516 -19.07925781 65.98707031 -19.08789062 64.85351562 C-19.0975838 61.56752973 -19.05103303 58.28553116 -19 55 C-19.02151123 54.00500488 -19.04302246 53.01000977 -19.06518555 51.98486328 C-18.99523127 47.97575927 -18.86206331 45.1342251 -16.38842773 41.87963867 C-14.25198821 39.90188442 -12.05351033 38.19528431 -9.6875 36.5 C-8.91470703 35.90703125 -8.14191406 35.3140625 -7.34570312 34.703125 C-4.54675923 32.5660122 -1.71803376 30.48725715 1.19604492 28.50976562 C3.30433804 27.02653471 3.30433804 27.02653471 3.9375 23.875 C3.99337134 20.41097716 3.75908041 18.86732448 2.625 15.75 C1 11 1 11 0 0 Z " fill="#342E3E" transform="translate(342,186)"/>
<path d="M0 0 C4.33937587 4.00011558 7.43012983 8.36906459 10.625 13.3125 C11.67587259 14.91746007 12.72798415 16.5216095 13.78125 18.125 C14.31234375 18.93453125 14.8434375 19.7440625 15.390625 20.578125 C18.35283234 25.03581566 21.42813452 29.41725664 24.52197266 33.78442383 C28.67330476 39.73196036 30.26380772 43.8862869 30.125 51.3125 C30.10695313 52.56675781 30.08890625 53.82101563 30.0703125 55.11328125 C30.04710937 56.06589844 30.02390625 57.01851562 30 58 C29.38705078 58.0093457 28.77410156 58.01869141 28.14257812 58.02832031 C-0.07819569 58.50415695 -0.07819569 58.50415695 -24 72 C-27.53067613 77.39689066 -27.4532078 82.2694455 -27.375 88.5 C-27.38660156 89.42425781 -27.39820313 90.34851563 -27.41015625 91.30078125 C-27.3873659 96.61093167 -26.98842786 100.42166964 -24 105 C-20.62679533 107.6503751 -17.15120578 107.30282352 -13 107 C-10.20903055 105.96383591 -7.65965599 104.57259514 -5.0625 103.125 C3.09826749 98.64488904 10.03907974 96.64609992 19.375 96.8125 C20.08527344 96.81314453 20.79554688 96.81378906 21.52734375 96.81445312 C26.71754344 96.85877172 26.71754344 96.85877172 29 98 C29.02477373 102.05679377 29.04289493 106.11355806 29.05493164 110.17041016 C29.05995118 111.54964973 29.06676819 112.92888402 29.07543945 114.30810547 C29.0876092 116.29392183 29.09271633 118.27977749 29.09765625 120.265625 C29.10289307 121.45961914 29.10812988 122.65361328 29.11352539 123.88378906 C29.01836613 126.49585973 28.67981515 128.51021357 28 131 C26.85523193 131.01458252 25.71046387 131.02916504 24.53100586 131.04418945 C20.26100303 131.10240761 15.99151462 131.17963828 11.72192383 131.26245117 C9.87825912 131.29559026 8.03449564 131.32365613 6.19067383 131.34643555 C3.53163792 131.38018512 0.87349813 131.43250966 -1.78515625 131.48828125 C-3.01057884 131.49786613 -3.01057884 131.49786613 -4.26075745 131.50764465 C-9.54673713 131.64173939 -13.34197695 132.42812803 -18 135 C-20.78239757 137.98750784 -21.37716366 139.98004079 -21.38818359 144.0246582 C-21.39764008 145.02282059 -21.40709656 146.02098297 -21.4168396 147.0493927 C-21.40773056 148.65883003 -21.40773056 148.65883003 -21.3984375 150.30078125 C-21.40130768 151.41051804 -21.40417786 152.52025482 -21.40713501 153.66362 C-21.40917614 156.01134755 -21.40364289 158.3590921 -21.39111328 160.70678711 C-21.37510663 164.2886394 -21.39093759 167.86935542 -21.41015625 171.45117188 C-21.40817294 173.73437748 -21.40432744 176.01758238 -21.3984375 178.30078125 C-21.40451019 179.36766678 -21.41058289 180.43455231 -21.4168396 181.5337677 C-21.3615654 187.423413 -21.0822615 191.90260797 -18 197 C-13.80763807 200.78588278 -9.12802451 200.47133661 -3.76171875 200.51171875 C-2.88095169 200.52966995 -2.00018463 200.54762115 -1.09272766 200.56611633 C1.7089668 200.6201191 4.51049187 200.65408266 7.3125 200.6875 C9.21682039 200.72068195 11.12111846 200.75517243 13.02539062 200.79101562 C17.68347134 200.87583978 22.3415027 200.94269874 27 201 C27.14184768 228.68430282 26.79265095 256.32678436 26 284 C24.93563721 284.01458252 23.87127441 284.02916504 22.7746582 284.04418945 C18.81403531 284.1022978 14.85397352 284.17952945 10.89379883 284.26245117 C9.18197762 284.29564169 7.47004852 284.32369189 5.75805664 284.34643555 C3.29266521 284.38009032 0.82825719 284.43240974 -1.63671875 284.48828125 C-2.39836838 284.49467117 -3.16001801 284.5010611 -3.94474792 284.50764465 C-8.40863283 284.63030234 -11.52965965 285.08562277 -15 288 C-15.4767145 291.33700147 -15.76492813 293.71881493 -13.99291992 296.68676758 C-10.79494779 298.79406785 -7.32426715 298.48184782 -3.61328125 298.51171875 C-2.79627243 298.52966995 -1.97926361 298.54762115 -1.13749695 298.56611633 C1.47078294 298.62027788 4.07887925 298.65413308 6.6875 298.6875 C8.45640579 298.72066799 10.22528733 298.75515717 11.99414062 298.79101562 C16.32929473 298.87600746 20.66439384 298.94279035 25 299 C25 301.64 25 304.28 25 307 C23.93040039 307.01458252 22.86080078 307.02916504 21.75878906 307.04418945 C17.78514406 307.10222301 13.81206275 307.17945519 9.83886719 307.26245117 C8.12021035 307.29567681 6.40144501 307.32371616 4.68261719 307.34643555 C2.20981677 307.38002561 -0.26199156 307.43234178 -2.734375 307.48828125 C-3.88459137 307.49786613 -3.88459137 307.49786613 -5.05804443 307.50764465 C-8.29810259 307.59666495 -10.63581531 307.79678722 -13.4921875 309.390625 C-15.19898497 310.91696058 -15.19898497 310.91696058 -15.390625 313.26171875 C-15.34421875 314.06222656 -15.2978125 314.86273438 -15.25 315.6875 C-15.19585937 316.89986328 -15.19585937 316.89986328 -15.140625 318.13671875 C-15.07101563 319.05904297 -15.07101563 319.05904297 -15 320 C-10.28898598 321.83671545 -5.98127868 322.33295234 -0.9765625 322.4140625 C-0.23038666 322.43342865 0.51578918 322.4527948 1.28457642 322.4727478 C3.64793777 322.53212065 6.01134897 322.5787578 8.375 322.625 C9.98569732 322.66321884 11.59637506 322.7022728 13.20703125 322.7421875 C17.13786016 322.83778676 21.06878463 322.921972 25 323 C25.09796875 323.66386719 25.1959375 324.32773437 25.296875 325.01171875 C25.44640625 325.89472656 25.5959375 326.77773438 25.75 327.6875 C25.95882812 328.99267578 25.95882812 328.99267578 26.171875 330.32421875 C26.85479562 333.14921038 26.85479562 333.14921038 29.05151367 335.4230957 C31.51557296 338.68185348 31.47780214 340.49712329 31.42578125 344.54296875 C31.41321289 346.40018555 31.41321289 346.40018555 31.40039062 348.29492188 C31.37138672 349.57947266 31.34238281 350.86402344 31.3125 352.1875 C31.30283203 353.48365234 31.29316406 354.77980469 31.28320312 356.11523438 C31.16853097 365.66293807 31.16853097 365.66293807 30 368 C21.29884419 368.0462833 12.59773058 368.08184872 3.89647865 368.10362434 C-0.14360264 368.11407407 -4.18359989 368.1282548 -8.22363281 368.15087891 C-12.12044733 368.17256512 -16.01718087 368.18455967 -19.91405106 368.18975449 C-21.40285136 368.19345786 -22.8916471 368.20068938 -24.38041306 368.21146011 C-26.46122667 368.22591919 -28.54170306 368.22798033 -30.62255859 368.22705078 C-32.40126846 368.23371262 -32.40126846 368.23371262 -34.21591187 368.24050903 C-37 368 -37 368 -39 366 C-39.48735365 361.7485561 -39.37040937 357.46366779 -39.375 353.1875 C-39.39949219 351.99833984 -39.42398438 350.80917969 -39.44921875 349.58398438 C-39.45308594 348.43607422 -39.45695313 347.28816406 -39.4609375 346.10546875 C-39.46915527 345.05512451 -39.47737305 344.00478027 -39.48583984 342.92260742 C-38.88408062 339.30267792 -37.39657343 337.71736327 -35 335 C-33.86503587 331.5951076 -33.87155317 329.0125217 -33.86938477 325.42041016 C-33.86818823 324.73964291 -33.86699169 324.05887566 -33.8657589 323.3574791 C-33.86416215 321.04296195 -33.87107298 318.72856602 -33.87890625 316.4140625 C-33.8802463 315.59563496 -33.88158634 314.77720741 -33.882967 313.93397903 C-33.92729448 289.34632967 -34.42045259 264.76234145 -34.86883545 240.17950439 C-34.96035875 235.1084627 -35.04801656 230.03735721 -35.1356802 224.96624756 C-35.52622143 202.43274685 -35.92715398 179.90128923 -36.59496689 157.37408829 C-37.02901228 142.72322807 -37.29483627 128.07219014 -37.50268555 113.41650391 C-37.54220227 110.63163621 -37.5838853 107.84681534 -37.62768555 105.06201172 C-37.63851984 104.37051277 -37.64935413 103.67901382 -37.66051674 102.96656036 C-37.68241217 101.56956076 -37.70440391 100.17256267 -37.72649193 98.7755661 C-37.77958836 95.31903324 -37.82449681 91.86271722 -37.85244751 88.40588379 C-37.86389606 87.03816616 -37.87548259 85.67044967 -37.88720703 84.30273438 C-37.89290522 83.62614021 -37.8986034 82.94954605 -37.90447426 82.25244904 C-37.95056021 77.95405836 -38.07728221 73.66488538 -38.25561237 69.37001419 C-38.37051796 66.4601561 -38.44942233 63.54988158 -38.52329826 60.63872528 C-38.58774439 58.61286824 -38.69976777 56.58869823 -38.81336975 54.56500244 C-38.96464343 47.54063223 -38.40717908 43.61459927 -33.6394043 38.27099609 C-32.12118565 36.81724275 -30.57764872 35.38903246 -29 34 C-28.05312006 33.04573845 -27.11152125 32.08614704 -26.1796875 31.1171875 C-25.41914063 30.37726563 -24.65859375 29.63734375 -23.875 28.875 C-20.28833965 25.33268784 -16.91594955 21.69891124 -13.65234375 17.859375 C-11.98090143 15.97850846 -10.20981659 14.28288717 -8.375 12.5625 C-4.61208218 8.89301806 -2.30547853 4.68532734 0 0 Z " fill="#CBE8DE" transform="translate(234,129)"/>
<path d="M0 0 C1.31846924 0.00688843 1.31846924 0.00688843 2.66357422 0.01391602 C9.2717172 0.10642757 16.10411261 0.23955631 22.125 3.25 C22.125 9.19 22.125 15.13 22.125 21.25 C23.775 21.58 25.425 21.91 27.125 22.25 C34.75253402 26.14462426 42.66881865 32.81119453 45.68359375 41.078125 C47.36259426 49.33940183 47.25370111 57.26813775 42.55078125 64.421875 C40.58083348 66.94772583 38.53671748 69.13974721 36.125 71.25 C35.3825 71.91 34.64 72.57 33.875 73.25 C30.1879508 75.93149033 26.11030615 78.03594103 22.125 80.25 C22.125 87.18 22.125 94.11 22.125 101.25 C20.26254639 101.26458252 18.40009277 101.27916504 16.48120117 101.29418945 C10.33031636 101.34581797 4.17969526 101.41109748 -1.97095203 101.48571491 C-5.70042069 101.53045871 -9.42977911 101.56970559 -13.15942383 101.59643555 C-16.75820552 101.62242913 -20.35656386 101.66280248 -23.95508385 101.71318626 C-25.32855657 101.72988191 -26.70210257 101.7413794 -28.07566261 101.74761391 C-29.9982319 101.75722475 -31.92066877 101.78696665 -33.84301758 101.81762695 C-34.93777908 101.82873001 -36.03254059 101.83983307 -37.16047668 101.85127258 C-39.87525773 102.04081718 -39.87525773 102.04081718 -41.72465515 103.55827332 C-43.68449412 106.44046285 -43.29423492 108.89612063 -42.875 112.25 C-40.6502208 114.53244295 -39.24623881 115.19707439 -36.07818604 115.64872742 C-35.00341003 115.65983047 -33.92863403 115.67093353 -32.82128906 115.68237305 C-31.60032532 115.70216721 -30.37936157 115.72196136 -29.12139893 115.74235535 C-27.80774353 115.74874527 -26.49408813 115.75513519 -25.140625 115.76171875 C-23.77869041 115.77856971 -22.41677133 115.79672052 -21.05487061 115.81611633 C-17.47764941 115.86357789 -13.90049112 115.8934117 -10.32305908 115.91955566 C-6.66967344 115.94938088 -3.01650446 115.99590439 0.63671875 116.04101562 C7.79939017 116.12700503 14.96203 116.19282512 22.125 116.25 C22.125 123.18 22.125 130.11 22.125 137.25 C13.96262048 137.36291761 5.80084701 137.45466601 -2.36210346 137.50906086 C-6.15242313 137.53516647 -9.94218128 137.57057991 -13.73217773 137.62719727 C-17.38914195 137.68148603 -21.0455658 137.71141327 -24.70290184 137.72438622 C-26.09884336 137.73363205 -27.49475496 137.7516876 -28.89046669 137.77865028 C-30.84375847 137.81488701 -32.79759292 137.8170419 -34.7512207 137.81762695 C-35.8637471 137.82873001 -36.9762735 137.83983307 -38.12251282 137.85127258 C-40.875 137.25 -40.875 137.25 -42.63273621 134.90202332 C-43.24765678 133.58927177 -43.24765678 133.58927177 -43.875 132.25 C-44.535 131.26 -45.195 130.27 -45.875 129.25 C-46.04080156 126.12186451 -46.07844184 123.08781349 -46.02734375 119.9609375 C-46.01904037 118.96508636 -46.010737 117.96923523 -46.00218201 116.94320679 C-45.98132991 114.66436033 -45.95539473 112.38555698 -45.92547607 110.10681152 C-45.87068831 105.92054948 -45.82948082 101.73427462 -45.78955078 97.54785156 C-45.70888401 89.36177548 -45.6084345 81.17602032 -45.50268555 72.99023438 C-45.45876886 69.58368215 -45.41715407 66.17711445 -45.37768555 62.77050781 C-45.15106756 43.24826507 -44.83590689 23.75299502 -43.875 4.25 C-42.94816406 4.7346875 -42.02132813 5.219375 -41.06640625 5.71875 C-36.20743377 8.05010522 -32.9247839 7.9577259 -27.8203125 6.1953125 C-25.62080181 5.33684297 -23.43108891 4.4526778 -21.25390625 3.5390625 C-14.00065376 0.77192571 -7.69714576 -0.08275713 0 0 Z " fill="#020102" transform="translate(365.875,328.75)"/>
<path d="M0 0 C0.86879791 -0.00029205 1.73759583 -0.00058411 2.63272095 -0.00088501 C5.49507751 0.00050471 8.35717151 0.01604909 11.21948242 0.03173828 C13.20773679 0.03546968 15.19599301 0.03831606 17.18424988 0.04031372 C22.41048279 0.04794015 27.63660408 0.06758019 32.86279297 0.08972168 C38.19847097 0.1102014 43.53416705 0.11931999 48.86987305 0.12939453 C59.33412263 0.15082699 69.79826014 0.18600112 80.26245117 0.22705078 C80.26245117 7.81705078 80.26245117 15.40705078 80.26245117 23.22705078 C76.32662109 23.23321411 76.32662109 23.23321411 72.3112793 23.23950195 C63.62590257 23.25672677 54.94081912 23.30127417 46.25562286 23.35914135 C40.99156537 23.39338008 35.72779715 23.41851652 30.46362305 23.42260742 C25.37995863 23.426897 20.29694642 23.45541477 15.21348572 23.50048256 C13.27754012 23.51343643 11.34151639 23.51777274 9.40553284 23.51320457 C6.68590542 23.50828353 3.96817321 23.53445662 1.2487793 23.56762695 C0.45467651 23.55900131 -0.33942627 23.55037567 -1.15759277 23.54148865 C-6.91104906 23.65853789 -11.51698493 25.17886956 -15.73754883 29.22705078 C-18.44733504 33.60732713 -19.11357358 36.90749811 -19.11849976 42.02038574 C-19.12551971 43.00790337 -19.12551971 43.00790337 -19.13268149 44.01537085 C-19.14458906 46.20788429 -19.13519145 48.39976775 -19.12573242 50.59228516 C-19.12980003 52.16962548 -19.13514297 53.74696295 -19.1416626 55.32429504 C-19.15531958 59.59907096 -19.15004427 63.87362925 -19.14052534 68.14840889 C-19.13292036 72.62592268 -19.13997669 77.10341808 -19.14468384 81.58093262 C-19.15013894 89.09956196 -19.14295621 96.61810284 -19.12866211 104.13671875 C-19.11233606 112.8243581 -19.11762474 121.51178622 -19.13414133 130.19942045 C-19.14776317 137.66371068 -19.14967244 145.12793739 -19.14182532 152.59223604 C-19.13715264 157.04803205 -19.13651279 161.50372883 -19.14643478 165.95951843 C-19.15511234 170.14895687 -19.14906821 174.33812345 -19.13175201 178.52753258 C-19.12779138 180.0633925 -19.12891399 181.59927538 -19.13554001 183.13512611 C-19.14376272 185.23496299 -19.13342646 187.33393382 -19.11849976 189.43371582 C-19.11680314 191.19463436 -19.11680314 191.19463436 -19.11507225 192.99112701 C-18.68392974 196.68664421 -17.67820625 199.06596822 -15.73754883 202.22705078 C-10.38335911 206.24970069 -6.16000119 206.81297675 0.41064453 206.77294922 C1.29924164 206.7832869 2.18783875 206.79362457 3.10336304 206.80427551 C6.01986075 206.83360722 8.93566157 206.83520065 11.85229492 206.83642578 C13.88254614 206.85141392 15.9127852 206.8681424 17.94300842 206.88653564 C23.27109348 206.93015003 28.59901405 206.95019524 33.92724609 206.965271 C39.37046001 206.98486332 44.81349687 207.02683099 50.2565918 207.06689453 C60.9251569 207.14213269 71.59368224 207.19246295 82.26245117 207.22705078 C81.05863669 209.72066649 79.80816395 211.90848161 78.26245117 214.22705078 C78.0228007 216.69089981 77.89003117 219.05245655 77.84838867 221.52001953 C77.82902252 222.22604813 77.80965637 222.93207672 77.78970337 223.65950012 C77.72999893 225.9110614 77.68355977 228.16267406 77.63745117 230.41455078 C77.59926289 231.94256767 77.56021065 233.47056323 77.52026367 234.99853516 C77.42430521 238.74120013 77.34024106 242.48396588 77.26245117 246.22705078 C64.27591695 246.29647616 51.28942667 246.34982411 38.30274487 246.3824873 C32.27288967 246.39816178 26.24316117 246.4194327 20.21337891 246.45336914 C14.39733442 246.48589882 8.58141201 246.50389036 2.76528358 246.51168251 C0.54324737 246.51723751 -1.67878195 246.52808466 -3.90076637 246.54424095 C-7.00642101 246.56593006 -10.11156731 246.56902125 -13.21728516 246.56762695 C-14.14157318 246.57841278 -15.06586121 246.58919861 -16.01815796 246.60031128 C-16.86369736 246.59618729 -17.70923676 246.59206329 -18.58039856 246.58781433 C-19.31506757 246.59057971 -20.04973658 246.59334509 -20.80666828 246.59619427 C-22.73754883 246.22705078 -22.73754883 246.22705078 -24.47371197 245.11729145 C-26.36153733 242.29379074 -26.11410131 239.99804527 -26.11608887 236.62243652 C-26.12288406 235.61108745 -26.12288406 235.61108745 -26.12981653 234.57930708 C-26.14146395 232.31520885 -26.13178458 230.05169876 -26.12231445 227.78759766 C-26.12641846 226.16642372 -26.13187832 224.54525274 -26.13859558 222.92408752 C-26.15033336 219.43075416 -26.15280043 215.93757885 -26.14823914 212.44422913 C-26.14144289 206.92347107 -26.15727384 201.40292191 -26.17663574 195.88220215 C-26.2177541 183.16657389 -26.22904343 170.45095113 -26.24016571 157.73526764 C-26.25066376 146.08270548 -26.26739452 134.43024324 -26.30826139 122.77774286 C-26.32665721 117.28659453 -26.33049598 111.79568388 -26.32332611 106.30451202 C-26.32180777 102.89220128 -26.33256579 99.48001022 -26.34670448 96.06773186 C-26.35071817 94.48223763 -26.34956341 92.89672087 -26.34293175 91.31123543 C-26.3345886 89.15108406 -26.3444952 86.99176577 -26.35900879 84.83166504 C-26.3597213 83.62156013 -26.36043381 82.41145523 -26.36116791 81.16468048 C-26.50524773 78.26229665 -26.50524773 78.26229665 -28.01120758 76.37676239 C-29.97413157 74.92998329 -29.97413157 74.92998329 -33.73754883 74.22705078 C-33.73754883 67.62705078 -33.73754883 61.02705078 -33.73754883 54.22705078 C-31.75754883 53.56705078 -29.77754883 52.90705078 -27.73754883 52.22705078 C-26.08416025 48.98877647 -26.61107395 44.94425112 -26.59692383 41.37158203 C-26.57858443 40.01284146 -26.55901308 38.65411707 -26.53833008 37.29541016 C-26.50950224 35.17363254 -26.48755192 33.05289369 -26.48706055 30.9309082 C-26.47128581 21.29141611 -25.91260667 13.55189827 -18.92407227 6.36108398 C-13.10763722 0.94122406 -7.86355348 -0.06944308 0 0 Z " fill="#2F6217" transform="translate(102.737548828125,250.77294921875)"/>
<path d="M0 0 C16.83 0 33.66 0 51 0 C51 10.02777778 51 10.02777778 49.5 14.125 C48.16644019 18.26031767 47.31268341 21.61835676 48 26 C51.73112453 30.18252712 56.0792789 33.62567146 60.4375 37.125 C61.13544678 37.68904541 61.83339355 38.25309082 62.55249023 38.83422852 C67.1921403 42.57439208 71.86896679 46.26532765 76.5625 49.9375 C78.7094538 51.62358155 80.85479331 53.31169447 83 55 C83.76570313 55.59554687 84.53140625 56.19109375 85.3203125 56.8046875 C89.10631251 59.86200131 91.55278375 62.31782978 93 67 C93.07301005 69.23719969 93.0900548 71.47657798 93.06640625 73.71484375 C93.05681885 74.89038818 93.04723145 76.06593262 93.03735352 77.27709961 C93.02502686 78.17565674 93.0127002 79.07421387 93 80 C92.15475266 80.00586624 91.30950531 80.01173248 90.43864441 80.01777649 C82.47795735 80.07564942 74.51755248 80.14769474 66.5571394 80.23571491 C62.46446382 80.28046719 58.3718889 80.31971232 54.27905273 80.34643555 C50.33016285 80.37242049 46.38165934 80.412788 42.43300819 80.46318626 C40.92555861 80.47988771 39.41804214 80.49138156 37.91051292 80.49761391 C35.80084989 80.5072199 33.69218261 80.53523419 31.58276367 80.56762695 C30.38141281 80.57873001 29.18006195 80.58983307 27.94230652 80.60127258 C25.023666 80.76076382 25.023666 80.76076382 23.15107727 82.33952332 C21.80621897 84.11368913 21.80621897 84.11368913 21 87 C17.72963272 87.14510162 14.46008993 87.23399373 11.1875 87.3125 C10.25873047 87.35439453 9.32996094 87.39628906 8.37304688 87.43945312 C5.82280286 87.48548641 3.5055711 87.48332865 1 87 C-1.07421875 84.54296875 -1.07421875 84.54296875 -2 82 C-4.05922402 79.94077598 -8.21708124 80.58572421 -11.0625 80.4375 C-11.82111328 80.39431641 -12.57972656 80.35113281 -13.36132812 80.30664062 C-15.24065438 80.20026367 -17.12030244 80.09960066 -19 80 C-19.02946879 76.0625162 -19.04695407 72.12506144 -19.0625 68.1875 C-19.07087891 67.08728516 -19.07925781 65.98707031 -19.08789062 64.85351562 C-19.0975838 61.56752973 -19.05103303 58.28553116 -19 55 C-19.02151123 54.00500488 -19.04302246 53.01000977 -19.06518555 51.98486328 C-18.99523127 47.97575927 -18.86206331 45.1342251 -16.38842773 41.87963867 C-14.25198821 39.90188442 -12.05351033 38.19528431 -9.6875 36.5 C-8.91470703 35.90703125 -8.14191406 35.3140625 -7.34570312 34.703125 C-4.54675923 32.5660122 -1.71803376 30.48725715 1.19604492 28.50976562 C3.30433804 27.02653471 3.30433804 27.02653471 3.9375 23.875 C3.99337134 20.41097716 3.75908041 18.86732448 2.625 15.75 C1 11 1 11 0 0 Z " fill="#E17D22" transform="translate(342,186)"/>
<path d="M0 0 C0.65404312 -0.00832352 1.30808624 -0.01664703 1.98194885 -0.02522278 C4.14452062 -0.04932031 6.30679062 -0.05809514 8.46948242 -0.06469727 C9.97539866 -0.07366512 11.48131398 -0.08278699 12.98722839 -0.09205627 C16.14547896 -0.10854905 19.30362351 -0.11624665 22.46191406 -0.11914062 C26.50063864 -0.12451923 30.53836051 -0.16217475 34.57680225 -0.20788479 C37.68844702 -0.23769406 40.7998517 -0.24486503 43.91162682 -0.24586678 C45.39994579 -0.2500629 46.88826588 -0.26247299 48.37644386 -0.28338432 C61.47555042 -0.45276688 61.47555042 -0.45276688 65.40966797 2.71630859 C68.21482357 6.17153856 68.63979699 7.74725066 68.67358398 12.10400391 C68.68319153 13.10231735 68.69279907 14.1006308 68.70269775 15.12919617 C68.70694763 16.21247696 68.71119751 17.29575775 68.71557617 18.41186523 C68.72127625 19.52443192 68.72697632 20.6369986 68.73284912 21.78327942 C68.74231013 24.14294481 68.74883746 26.50262347 68.75268555 28.86230469 C68.76236471 32.46174451 68.7933675 36.06060704 68.82495117 39.65991211 C68.83148378 41.95222643 68.83673324 44.24454483 68.84057617 46.53686523 C68.85292297 47.61002487 68.86526978 48.68318451 68.87799072 49.78886414 C68.86035751 55.74714473 68.4307534 60.06526424 65.51245117 65.30639648 C61.5104015 69.05831806 57.81745877 69.43542385 52.48388672 69.48339844 C51.24217209 69.49623367 50.00045746 69.50906891 48.72111511 69.52229309 C47.36380412 69.53046104 46.0064886 69.53790467 44.64916992 69.54467773 C43.96435862 69.54875326 43.27954731 69.55282879 42.57398415 69.55702782 C38.94906544 69.577869 35.32418436 69.59217895 31.69921875 69.6015625 C27.96332441 69.61262145 24.2280266 69.64701999 20.49234295 69.6867342 C17.61233952 69.71293171 14.73247758 69.72125706 11.85236549 69.72484398 C10.47569565 69.72970212 9.09903179 69.74129421 7.72247887 69.75988197 C-4.36896572 69.91300269 -4.36896572 69.91300269 -8.19140625 67.71728516 C-14.17410333 61.43561225 -13.94394407 54.90461058 -13.92114258 46.64233398 C-13.92638443 45.53209869 -13.93162628 44.4218634 -13.93702698 43.27798462 C-13.94342959 40.93980748 -13.9421331 38.60159805 -13.93359375 36.26342773 C-13.92505987 32.68602436 -13.95391039 29.11020583 -13.9855957 25.53295898 C-13.98720728 23.2569178 -13.98663103 20.98087378 -13.98364258 18.70483398 C-13.99487656 17.63703705 -14.00611053 16.56924011 -14.01768494 15.46908569 C-13.94821564 8.07789596 -13.94821564 8.07789596 -11.64404297 4.21899414 C-7.58489185 0.61892736 -5.34701969 0.04808033 0 0 Z " fill="#010101" transform="translate(225.487548828125,260.693603515625)"/>
<path d="M0 0 C1.31846924 0.00688843 1.31846924 0.00688843 2.66357422 0.01391602 C9.2717172 0.10642757 16.10411261 0.23955631 22.125 3.25 C22.125 8.86 22.125 14.47 22.125 20.25 C20.68769531 19.92773438 19.25039063 19.60546875 17.76953125 19.2734375 C2.00928789 16.13969212 -13.81783685 17.31302839 -27.8125 25.5 C-34.35584054 29.93535474 -39.67520227 36.09086977 -41.5 43.9375 C-41.685625 45.5771875 -41.685625 45.5771875 -41.875 47.25 C-41.95234375 47.92160156 -42.0296875 48.59320313 -42.109375 49.28515625 C-42.58334682 56.75021237 -39.79918977 62.31478717 -35.40625 68.2265625 C-28.06924802 76.39077549 -16.94311716 80.74861185 -6.12890625 81.4206543 C-3.18726912 81.48168928 -0.25448633 81.47405837 2.6875 81.4375 C3.67685547 81.43685547 4.66621094 81.43621094 5.68554688 81.43554688 C11.32565262 81.40186343 16.46011919 80.9581101 22.125 80.25 C22.125 87.18 22.125 94.11 22.125 101.25 C20.26254639 101.26458252 18.40009277 101.27916504 16.48120117 101.29418945 C10.33031636 101.34581797 4.17969526 101.41109748 -1.97095203 101.48571491 C-5.70042069 101.53045871 -9.42977911 101.56970559 -13.15942383 101.59643555 C-16.75820552 101.62242913 -20.35656386 101.66280248 -23.95508385 101.71318626 C-25.32855657 101.72988191 -26.70210257 101.7413794 -28.07566261 101.74761391 C-29.9982319 101.75722475 -31.92066877 101.78696665 -33.84301758 101.81762695 C-34.93777908 101.82873001 -36.03254059 101.83983307 -37.16047668 101.85127258 C-39.87525773 102.04081718 -39.87525773 102.04081718 -41.72465515 103.55827332 C-43.68449412 106.44046285 -43.29423492 108.89612063 -42.875 112.25 C-40.6502208 114.53244295 -39.24623881 115.19707439 -36.07818604 115.64872742 C-35.00341003 115.65983047 -33.92863403 115.67093353 -32.82128906 115.68237305 C-31.60032532 115.70216721 -30.37936157 115.72196136 -29.12139893 115.74235535 C-27.80774353 115.74874527 -26.49408813 115.75513519 -25.140625 115.76171875 C-23.77869041 115.77856971 -22.41677133 115.79672052 -21.05487061 115.81611633 C-17.47764941 115.86357789 -13.90049112 115.8934117 -10.32305908 115.91955566 C-6.66967344 115.94938088 -3.01650446 115.99590439 0.63671875 116.04101562 C7.79939017 116.12700503 14.96203 116.19282512 22.125 116.25 C22.125 123.18 22.125 130.11 22.125 137.25 C13.96262048 137.36291761 5.80084701 137.45466601 -2.36210346 137.50906086 C-6.15242313 137.53516647 -9.94218128 137.57057991 -13.73217773 137.62719727 C-17.38914195 137.68148603 -21.0455658 137.71141327 -24.70290184 137.72438622 C-26.09884336 137.73363205 -27.49475496 137.7516876 -28.89046669 137.77865028 C-30.84375847 137.81488701 -32.79759292 137.8170419 -34.7512207 137.81762695 C-35.8637471 137.82873001 -36.9762735 137.83983307 -38.12251282 137.85127258 C-40.875 137.25 -40.875 137.25 -42.63273621 134.90202332 C-43.24765678 133.58927177 -43.24765678 133.58927177 -43.875 132.25 C-44.535 131.26 -45.195 130.27 -45.875 129.25 C-46.04080156 126.12186451 -46.07844184 123.08781349 -46.02734375 119.9609375 C-46.01904037 118.96508636 -46.010737 117.96923523 -46.00218201 116.94320679 C-45.98132991 114.66436033 -45.95539473 112.38555698 -45.92547607 110.10681152 C-45.87068831 105.92054948 -45.82948082 101.73427462 -45.78955078 97.54785156 C-45.70888401 89.36177548 -45.6084345 81.17602032 -45.50268555 72.99023438 C-45.45876886 69.58368215 -45.41715407 66.17711445 -45.37768555 62.77050781 C-45.15106756 43.24826507 -44.83590689 23.75299502 -43.875 4.25 C-42.94816406 4.7346875 -42.02132813 5.219375 -41.06640625 5.71875 C-36.20743377 8.05010522 -32.9247839 7.9577259 -27.8203125 6.1953125 C-25.62080181 5.33684297 -23.43108891 4.4526778 -21.25390625 3.5390625 C-14.00065376 0.77192571 -7.69714576 -0.08275713 0 0 Z " fill="#494154" transform="translate(365.875,328.75)"/>
<path d="M0 0 C2.6484375 2.2890625 2.6484375 2.2890625 5 5 C5.75410156 5.86625 6.50820313 6.7325 7.28515625 7.625 C9.73247703 12.44159488 9.54693959 16.67629328 9.4375 22 C9.44458984 22.97195312 9.45167969 23.94390625 9.45898438 24.9453125 C9.41108749 30.35397651 9.0810963 34.35970485 6 39 C2.06510946 42.27907545 -0.9828673 42.4099802 -6 42 C-8.78973633 40.96043839 -11.3402634 39.57264007 -13.9375 38.125 C-26.17741982 31.40550959 -39.24188568 29.73842788 -52.8125 33.625 C-57.11563593 35.10736901 -60.93212965 36.98620233 -64.875 39.25 C-69.13044573 41.69317015 -71.99707533 42.90052644 -77 42 C-80.29485219 40.65210592 -81.66607868 39.51222882 -83.609375 36.53125 C-85.46850822 31.81030497 -85.5141661 27.65396488 -85.5 22.625 C-85.52835938 21.7175 -85.55671875 20.81 -85.5859375 19.875 C-85.60737729 12.43539415 -83.51559253 7.5768345 -78.30419922 2.2746582 C-59.40934567 -14.81402768 -20.8527263 -10.18388959 0 0 Z " fill="#040303" transform="translate(291,195)"/>
<path d="M0 0 C6.80585535 4.96736087 10.69636629 11.80394261 13.328125 19.69921875 C14.5304833 31.12923248 12.1379858 39.11730397 5.3984375 48.33984375 C3.377837 50.64256583 1.50747952 52.215185 -1.046875 53.88671875 C-1.77648437 54.37527344 -2.50609375 54.86382812 -3.2578125 55.3671875 C-10.80371642 59.53086588 -19.26481923 59.85902425 -27.671875 58.69921875 C-37.28704535 55.81904813 -43.91396617 49.91257937 -49.046875 41.42578125 C-52.76604733 33.65167798 -53.17057693 24.26926067 -50.94140625 15.984375 C-50.00493317 13.74830663 -48.94701343 11.75873509 -47.671875 9.69921875 C-47.1459375 8.76529297 -47.1459375 8.76529297 -46.609375 7.8125 C-42.39787839 1.07118077 -35.21720609 -3.33363721 -27.76953125 -5.8359375 C-17.59609914 -8.09038521 -8.58820392 -5.44007395 0 0 Z " fill="#030303" transform="translate(161.671875,300.30078125)"/>
<path d="M0 0 C28.38 0 56.76 0 86 0 C86 25.08 86 50.16 86 76 C57.62 76 29.24 76 0 76 C0 50.92 0 25.84 0 0 Z M19.05078125 16.3671875 C18.47714844 17.19476563 17.90351562 18.02234375 17.3125 18.875 C16.73113281 19.69742187 16.14976563 20.51984375 15.55078125 21.3671875 C10.83046117 29.38103065 10.69824934 38.91967097 12.6171875 47.8828125 C15.69382386 56.56818417 21.58820342 62.97236801 29.5 67.5625 C37.47735817 71.19224852 46.31731439 71.5127149 54.7734375 69.26171875 C57.00475607 68.33644501 58.95898796 67.2872773 61 66 C61.62132812 65.649375 62.24265625 65.29875 62.8828125 64.9375 C68.07477145 61.70095416 70.98711617 57.23146192 74 52 C74.61875 50.948125 75.2375 49.89625 75.875 48.8125 C78.29177545 40.62231652 78.32343094 31.66229713 74.25390625 24.01953125 C73.84011719 23.35308594 73.42632812 22.68664062 73 22 C72.36384766 20.95392578 72.36384766 20.95392578 71.71484375 19.88671875 C67.06449224 13.00834367 59.54616342 7.3205151 51.375 5.375 C38.99096175 3.99899575 27.40335724 6.22357818 19.05078125 16.3671875 Z " fill="#E7E8E9" transform="translate(98,289)"/>
<path d="M0 0 C29.04 0 58.08 0 88 0 C88 11.88 88 23.76 88 36 C58.96 36 29.92 36 0 36 C0 24.12 0 12.24 0 0 Z " fill="#BCD4CA" transform="translate(98,407)"/>
<path d="M0 0 C3.3 0 6.6 0 10 0 C10.29390625 1.8871875 10.29390625 1.8871875 10.59375 3.8125 C13.78983505 22.6960976 20.50369636 37.88955595 35.25 50.625 C41.21034854 55.81627131 44.34931686 61.02913159 45 69 C45.01683411 70.56372015 45.02129608 72.12760578 45.015625 73.69140625 C45.01336914 74.49908447 45.01111328 75.3067627 45.00878906 76.13891602 C45.00443848 77.06015259 45.00443848 77.06015259 45 78 C43.68644531 78.02578125 42.37289062 78.0515625 41.01953125 78.078125 C39.2838215 78.13441829 37.5481457 78.19176535 35.8125 78.25 C34.94818359 78.26417969 34.08386719 78.27835937 33.19335938 78.29296875 C29.03079645 78.45245392 26.5677507 78.65397013 22.94921875 80.859375 C20.79773818 82.93193402 20.79773818 82.93193402 20 86 C16.72963272 86.14510162 13.46008993 86.23399373 10.1875 86.3125 C9.25873047 86.35439453 8.32996094 86.39628906 7.37304688 86.43945312 C4.82280286 86.48548641 2.5055711 86.48332865 0 86 C-2.07421875 83.54296875 -2.07421875 83.54296875 -3 81 C-5.05922402 78.94077598 -9.21708124 79.58572421 -12.0625 79.4375 C-12.82111328 79.39431641 -13.57972656 79.35113281 -14.36132812 79.30664062 C-16.24065438 79.20026367 -18.12030244 79.09960066 -20 79 C-20.02946879 75.0625162 -20.04695407 71.12506144 -20.0625 67.1875 C-20.07087891 66.08728516 -20.07925781 64.98707031 -20.08789062 63.85351562 C-20.0975838 60.56752973 -20.05103303 57.28553116 -20 54 C-20.02151123 53.00500488 -20.04302246 52.01000977 -20.06518555 50.98486328 C-19.99523127 46.97575927 -19.86206331 44.1342251 -17.38842773 40.87963867 C-15.25198821 38.90188442 -13.05351033 37.19528431 -10.6875 35.5 C-9.91470703 34.90703125 -9.14191406 34.3140625 -8.34570312 33.703125 C-5.54675923 31.5660122 -2.71803376 29.48725715 0.19604492 27.50976562 C2.30433804 26.02653471 2.30433804 26.02653471 2.9375 22.875 C3.00436713 18.72923773 2.14569599 16.2250167 0.703125 12.421875 C-0.50334804 8.26624563 -0.18164064 4.29882845 0 0 Z " fill="#FA9526" transform="translate(343,187)"/>
<path d="M0 0 C13.2 0 26.4 0 40 0 C40 18.15 40 36.3 40 55 C26.8 55 13.6 55 0 55 C0 36.85 0 18.7 0 0 Z " fill="#E50D27" transform="translate(233,41)"/>
<path d="M0 0 C17.82 0 35.64 0 54 0 C54.020625 5.300625 54.04125 10.60125 54.0625 16.0625 C54.071604 17.721604 54.08070801 19.38070801 54.09008789 21.09008789 C54.09301237 22.42594319 54.09555967 23.76179939 54.09765625 25.09765625 C54.10277222 25.77437378 54.10788818 26.45109131 54.11315918 27.14831543 C54.11396469 31.60840014 53.64125183 35.51123722 53 40 C35.84 40 18.68 40 1 40 C-0.125 27.625 -0.125 27.625 -0.09765625 21.58203125 C-0.09515869 20.4319458 -0.09266113 19.28186035 -0.09008789 18.09692383 C-0.08098389 16.68306396 -0.07187988 15.2692041 -0.0625 13.8125 C-0.041875 9.254375 -0.02125 4.69625 0 0 Z " fill="#FB4F29" transform="translate(226,275)"/>
<path d="M0 0 C16.5 0 33 0 50 0 C48 4 48 4 46 7 C45.76044246 9.46289362 45.62741534 11.82621409 45.5859375 14.29296875 C45.55032715 15.58485107 45.5147168 16.8767334 45.47802734 18.20776367 C45.44402832 19.85107666 45.4100293 21.49438965 45.375 23.1875 C45.189375 31.0146875 45.189375 31.0146875 45 39 C29.82 39 14.64 39 -1 39 C-0.67 26.13 -0.34 13.26 0 0 Z " fill="#2B5013" transform="translate(135,458)"/>
<path d="M0 0 C35.97 0 71.94 0 109 0 C109 11 109 11 107.63079834 14.15202332 C103.55047707 17.01820217 99.77975593 16.65816472 94.90722656 16.56762695 C93.88251755 16.56835709 92.85780853 16.56908722 91.80204773 16.56983948 C88.41436873 16.5663555 85.02806387 16.52745404 81.640625 16.48828125 C79.29222362 16.47895606 76.94381253 16.47183856 74.59539795 16.46684265 C68.41376907 16.44774999 62.2327274 16.39862857 56.05133057 16.34332275 C49.74393661 16.29217981 43.43644778 16.26933913 37.12890625 16.24414062 C24.75234614 16.19051292 12.37622189 16.10517184 0 16 C0 10.72 0 5.44 0 0 Z " fill="#FC9626" transform="translate(326,481)"/>
<path d="M0 0 C4.33766419 2.57129578 8.97318033 5.7471419 11.2734375 10.34765625 C11.82652307 14.88114451 11.70102181 18.42122357 9.7734375 22.59765625 C3.10696162 29.93077972 -5.40397592 32.75104854 -15.12109375 33.66796875 C-25.77058628 34.02021216 -34.72590381 32.32594849 -42.9140625 25.22265625 C-46.3680372 21.92426599 -47.89150093 19.95889181 -48.1640625 15.16015625 C-48.08300987 10.56963009 -46.89294318 8.17950277 -43.71484375 4.91796875 C-32.01586627 -4.3216952 -13.60565494 -5.98734657 0 0 Z " fill="#E6E7E8" transform="translate(385.7265625,363.65234375)"/>
<path d="M0 0 C16.17 0 32.34 0 49 0 C49 25.08 49 50.16 49 76 C32.83 76 16.66 76 0 76 C0 74.02 0 72.04 0 70 C0.97839844 69.97421875 1.95679688 69.9484375 2.96484375 69.921875 C10.71411254 69.58660673 17.19038827 68.99382292 24 65 C25.051875 64.443125 26.10375 63.88625 27.1875 63.3125 C31.1053695 60.09114063 33.46408486 56.35369502 36 52 C36.61875 50.948125 37.2375 49.89625 37.875 48.8125 C40.29060094 40.62629683 40.32991824 31.65521156 36.25 24.01953125 C35.8375 23.35308594 35.425 22.68664062 35 22 C34.5875 21.30261719 34.175 20.60523438 33.75 19.88671875 C29.01139563 12.73842636 21.57321127 7.9619017 13.16015625 6.234375 C8.78049744 5.75918598 4.39686226 5.85451559 0 6 C0 4.02 0 2.04 0 0 Z " fill="#BBD4CA" transform="translate(135,289)"/>
<path d="M0 0 C1.60279192 0.00015914 3.20558896 0.00585476 4.80834961 0.01586914 C5.65038437 0.01728409 6.49241913 0.01869904 7.35997009 0.02015686 C10.06024671 0.02577276 12.76044163 0.03832791 15.46069336 0.05102539 C17.28686404 0.05603834 19.11303602 0.06060161 20.93920898 0.06469727 C25.42556878 0.07574735 29.9118672 0.0930226 34.39819336 0.11352539 C35.2267687 3.17197064 36.03449611 6.23528716 36.83569336 9.30102539 C37.06579102 10.14600586 37.29588867 10.99098633 37.53295898 11.86157227 C39.42397016 19.17896334 39.79629078 25.28879188 40.39819336 33.11352539 C23.56819336 33.11352539 6.73819336 33.11352539 -10.60180664 33.11352539 C-6.48817859 0.20450099 -6.48817859 0.20450099 0 0 Z " fill="#332D3C" transform="translate(352.601806640625,138.886474609375)"/>
<path d="M0 0 C0.80370529 -0.00540298 1.60741058 -0.01080597 2.43547058 -0.01637268 C5.0895176 -0.02886991 7.74248191 -0.0123629 10.39648438 0.00561523 C12.24206601 0.00546027 14.08764797 0.0039717 15.93322754 0.00120544 C19.80019526 -0.00017899 23.66679229 0.01238691 27.53369141 0.03515625 C32.4904474 0.06354103 37.44658741 0.06080417 42.40338898 0.04806614 C46.21410381 0.04111117 50.02467627 0.04889617 53.83537292 0.06132317 C55.66301426 0.06583943 57.49067087 0.06617293 59.3183136 0.06225777 C61.87268402 0.05934732 64.42620559 0.07584409 66.98046875 0.09765625 C67.73591476 0.0931546 68.49136078 0.08865295 69.2696991 0.08401489 C72.46107376 0.12929454 74.65859491 0.31314652 77.45983887 1.90586853 C78.99023438 3.50170898 78.99023438 3.50170898 79.48632812 5.43920898 C79.32827448 11.00269741 79.32827448 11.00269741 77.67773438 13.43920898 C73.77192434 15.89842271 69.82705766 15.66233681 65.38525391 15.67871094 C64.61256165 15.68528214 63.83986938 15.69185333 63.04376221 15.69862366 C60.4868561 15.71833385 57.93000861 15.73001298 55.37304688 15.73999023 C54.49943386 15.74406576 53.62582085 15.74814129 52.72573471 15.75234032 C48.10345446 15.77318944 43.48120381 15.78749723 38.85888672 15.796875 C34.08490434 15.80794846 29.3113869 15.84236227 24.53756905 15.8820467 C20.86582571 15.90818537 17.19419376 15.91656428 13.52236557 15.92015648 C11.76249927 15.92502808 10.00263813 15.93665842 8.2428627 15.95519447 C5.77953379 15.97953232 3.31741614 15.97863135 0.85400391 15.97167969 C-0.23405045 15.99089478 -0.23405045 15.99089478 -1.34408569 16.01049805 C-4.89520284 15.97400345 -6.91250215 15.56127863 -9.96609497 13.69108582 C-12.00976562 11.50170898 -12.00976562 11.50170898 -12.57226562 8.00170898 C-11.36770558 0.5066687 -6.76695078 -0.08660138 0 0 Z " fill="#010101" transform="translate(334.009765625,429.498291015625)"/>
<path d="M0 0 C15.84 0 31.68 0 48 0 C48 7.59 48 15.18 48 23 C20.28 23 -7.44 23 -36 23 C-36 22.67 -36 22.34 -36 22 C-24.12 22 -12.24 22 0 22 C0 14.74 0 7.48 0 0 Z " fill="#2B4F13" transform="translate(135,251)"/>
<path d="M0 0 C11.22 0 22.44 0 34 0 C34 10.23 34 20.46 34 31 C22.78 31 11.56 31 0 31 C0 20.77 0 10.54 0 0 Z " fill="#5C274F" transform="translate(125,171)"/>
<path d="M0 0 C28.71 0 57.42 0 87 0 C87 3.96 87 7.92 87 12 C58.29 12 29.58 12 0 12 C0 8.04 0 4.08 0 0 Z " fill="#E00C27" transform="translate(98,380)"/>
<path d="M0 0 C12.21 0 24.42 0 37 0 C37 3.96 37 7.92 37 12 C36.04738281 12.03738281 35.09476563 12.07476562 34.11328125 12.11328125 C32.23189453 12.21189453 32.23189453 12.21189453 30.3125 12.3125 C29.07113281 12.37050781 27.82976562 12.42851562 26.55078125 12.48828125 C22.62133198 13.05457152 19.83369511 14.16630489 17 17 C17.20438426 21.0642508 17.20438426 21.0642508 18 25 C21.72066472 27.48044315 24.86540474 27.44381173 29.1875 27.625 C29.93708984 27.66367187 30.68667969 27.70234375 31.45898438 27.7421875 C33.30559199 27.83628216 35.1527619 27.91922319 37 28 C37 30.64 37 33.28 37 36 C24.79 36 12.58 36 0 36 C0 24.12 0 12.24 0 0 Z " fill="#E8E9EA" transform="translate(98,407)"/>
<path d="M0 0 C3.27036728 -0.14510162 6.53991007 -0.23399373 9.8125 -0.3125 C10.74126953 -0.35439453 11.67003906 -0.39628906 12.62695312 -0.43945312 C15.17541265 -0.4854542 17.49566301 -0.48024413 20 0 C21.94921875 2.39453125 21.94921875 2.39453125 23 5 C26.07691766 7.05127844 26.93644999 7.27260872 30.44921875 7.4140625 C31.29677734 7.45273437 32.14433594 7.49140625 33.01757812 7.53125 C34.33918945 7.57765625 34.33918945 7.57765625 35.6875 7.625 C37.02651367 7.68300781 37.02651367 7.68300781 38.39257812 7.7421875 C40.59471378 7.83639651 42.79732847 7.91928494 45 8 C45 11.96 45 15.92 45 20 C44.04222656 19.9278125 43.08445312 19.855625 42.09765625 19.78125 C38.49469475 19.52203096 34.89048681 19.30941629 31.28320312 19.12011719 C29.82584315 19.04344684 28.36875296 18.96132209 26.91210938 18.87207031 C13.0324647 18.08756866 -0.46619419 20.63774146 -13.43359375 25.66796875 C-17 27 -17 27 -20 27 C-20 20.4 -20 13.8 -20 7 C-12.1875 6.6875 -12.1875 6.6875 -9.73901367 6.61206055 C-5.64969754 6.41416711 -5.64969754 6.41416711 -2.05078125 4.64453125 C-0.81907988 2.86444363 -0.81907988 2.86444363 0 0 Z " fill="#484054" transform="translate(343,273)"/>
<path d="M0 0 C1.16470825 -0.00938095 2.3294165 -0.0187619 3.52941895 -0.02842712 C4.77848022 -0.01719315 6.0275415 -0.00595917 7.31445312 0.00561523 C9.25040344 0.00343239 9.25040344 0.00343239 11.22546387 0.00120544 C13.95243822 -0.00017618 16.67888509 0.01233845 19.40576172 0.03515625 C22.89283573 0.06354119 26.37903396 0.06080089 29.86617279 0.04806614 C33.20319052 0.03941989 36.53995014 0.05456214 39.87695312 0.06811523 C41.75054504 0.06371178 41.75054504 0.06371178 43.6619873 0.05921936 C44.82669556 0.07190353 45.99140381 0.08458771 47.19140625 0.09765625 C48.21335083 0.10305923 49.23529541 0.10846222 50.28820801 0.11402893 C53.84006777 0.60449646 56.54219836 1.94820422 59.09570312 4.50170898 C59.6819283 10.71569583 59.6819283 10.71569583 57.45629883 13.6998291 C54.44844452 15.99577167 52.77362712 16.00821275 49.01367188 16.01928711 C47.78559814 16.03189575 46.55752441 16.04450439 45.29223633 16.05749512 C43.95588608 16.05033525 42.61954108 16.04213125 41.28320312 16.03295898 C39.90844447 16.03565475 38.53368768 16.03953788 37.15893555 16.04455566 C34.28057668 16.05044691 31.40271503 16.04190075 28.52441406 16.02319336 C24.83866296 16.00040287 21.1540769 16.01352812 17.46836853 16.03748322 C14.6304042 16.05195197 11.79271515 16.04733052 8.95474243 16.03697205 C7.59599672 16.03430768 6.23722584 16.03756439 4.87850952 16.04689026 C2.97825614 16.05707139 1.07791489 16.03879628 -0.82226562 16.01928711 C-1.9027417 16.01610474 -2.98321777 16.01292236 -4.09643555 16.00964355 C-7.5971084 15.37638124 -8.77790239 14.31081443 -10.90429688 11.50170898 C-11.46679688 8.00170898 -11.46679688 8.00170898 -10.90429688 4.50170898 C-7.36772689 0.93043597 -4.97494073 0.00080893 0 0 Z " fill="#050606" transform="translate(228.904296875,435.498291015625)"/>
<path d="M0 0 C1.71725784 -0.01441132 1.71725784 -0.01441132 3.46920776 -0.02911377 C4.70671783 -0.03336365 5.94422791 -0.03761353 7.21923828 -0.04199219 C8.49050568 -0.04769226 9.76177307 -0.05339233 11.07156372 -0.05926514 C13.76324036 -0.06871852 16.45480541 -0.07561375 19.14648438 -0.07910156 C22.58867877 -0.08458438 26.03047723 -0.10861218 29.47254753 -0.13707352 C32.76308101 -0.16022182 36.05363477 -0.16215088 39.34423828 -0.16699219 C41.19443069 -0.18551239 41.19443069 -0.18551239 43.08200073 -0.20440674 C44.23314362 -0.20140564 45.3842865 -0.19840454 46.5703125 -0.1953125 C48.08563065 -0.20078094 48.08563065 -0.20078094 49.63156128 -0.20635986 C53.17849504 0.26201135 55.86784269 1.61442472 58.41455078 4.16113281 C59.00077596 10.37511966 59.00077596 10.37511966 56.77514648 13.35925293 C53.76729218 15.6551955 52.09247478 15.66763658 48.33251953 15.67871094 C47.1044458 15.69131958 45.87637207 15.70392822 44.61108398 15.71691895 C43.27473374 15.70975908 41.93838873 15.70155508 40.60205078 15.69238281 C39.22729213 15.69507858 37.85253534 15.69896171 36.4777832 15.70397949 C33.59942434 15.70987074 30.72156269 15.70132458 27.84326172 15.68261719 C24.15751062 15.6598267 20.47292456 15.67295195 16.78721619 15.69690704 C13.94925185 15.7113758 11.11156281 15.70675435 8.27359009 15.69639587 C6.91484437 15.69373151 5.5560735 15.69698822 4.19735718 15.70631409 C2.29710379 15.71649522 0.39676254 15.69822011 -1.50341797 15.67871094 C-2.58389404 15.67552856 -3.66437012 15.67234619 -4.77758789 15.66906738 C-8.27897093 15.0356766 -9.46667097 13.97847668 -11.58544922 11.16113281 C-12.3167925 5.20590893 -12.3167925 5.20590893 -10.27294922 2.28613281 C-6.91604326 0.04819551 -3.91152745 0.02647964 0 0 Z " fill="#030404" transform="translate(229.58544921875,412.8388671875)"/>
<path d="M0 0 C5.17976971 2.68580652 9.13108876 6.75654754 10.98046875 12.3046875 C11.76420363 18.81868067 10.76899227 23.90298623 6.98046875 29.3046875 C1.64496649 34.37992136 -2.95927376 34.65456031 -10.0703125 34.5859375 C-15.35163932 34.08228779 -17.90671407 31.53780924 -21.33203125 27.7421875 C-24.98154078 22.47067373 -24.71649559 16.4892446 -24.01953125 10.3046875 C-22.14980458 5.57587206 -18.54551705 2.232798 -14.0390625 -0.03515625 C-9.40508572 -1.54993783 -4.61759166 -1.58980912 0 0 Z " fill="#501F46" transform="translate(149.01953125,309.6953125)"/>
<path d="M0 0 C1.05026367 -0.0038269 2.10052734 -0.00765381 3.18261719 -0.01159668 C5.40170247 -0.01431696 7.62081974 -0.00694777 9.83984375 0.00976562 C13.23770595 0.03117255 16.63345361 0.00996675 20.03125 -0.015625 C22.18750467 -0.01298175 24.34375802 -0.00785682 26.5 0 C27.51674805 -0.00809692 28.53349609 -0.01619385 29.58105469 -0.02453613 C36.57408709 0.06849426 36.57408709 0.06849426 39.89453125 2.34179688 C41.87466712 5.54025842 41.71812064 7.85315927 41.25 11.53125 C39.41884793 14.14718153 38.34031634 14.50114455 35.25 15.53125 C33.78316336 15.63212317 32.31228582 15.67952394 30.84204102 15.69238281 C29.5103463 15.70679413 29.5103463 15.70679413 28.15174866 15.72149658 C27.19546066 15.72574646 26.23917267 15.72999634 25.25390625 15.734375 C24.26881577 15.74007507 23.28372528 15.74577515 22.26878357 15.75164795 C20.18497796 15.76109434 18.10115744 15.7676305 16.01733398 15.77148438 C12.82834919 15.78120171 9.64000572 15.81223346 6.45117188 15.84375 C4.42708716 15.85027901 2.40299784 15.85552988 0.37890625 15.859375 C-0.57535751 15.8717218 -1.52962128 15.8840686 -2.51280212 15.89678955 C-3.40375076 15.89378845 -4.2946994 15.89078735 -5.21264648 15.88769531 C-5.99413559 15.89134094 -6.77562469 15.89498657 -7.58079529 15.89874268 C-10.3234942 15.43409231 -11.70534493 14.38263785 -13.75 12.53125 C-14.5 10.62890625 -14.5 10.62890625 -14.75 8.59375 C-14.853125 7.92472656 -14.95625 7.25570313 -15.0625 6.56640625 C-14.75 4.53125 -14.75 4.53125 -13.40234375 2.43725586 C-9.22002687 -0.56820694 -5.02543938 -0.04002034 0 0 Z " fill="#050505" transform="translate(128.75,419.46875)"/>
<path d="M0 0 C17.82 0 35.64 0 54 0 C54.020625 5.300625 54.04125 10.60125 54.0625 16.0625 C54.071604 17.721604 54.08070801 19.38070801 54.09008789 21.09008789 C54.09301237 22.42594319 54.09555967 23.76179939 54.09765625 25.09765625 C54.10277222 25.77437378 54.10788818 26.45109131 54.11315918 27.14831543 C54.11396469 31.60840014 53.64125183 35.51123722 53 40 C47.06 40 41.12 40 35 40 C34.90105653 26.93946194 35.26010833 14.04059072 36 1 C24.45 1 12.9 1 1 1 C1 10.24 1 19.48 1 29 C0.67 29 0.34 29 0 29 C0 19.43 0 9.86 0 0 Z " fill="#D60F25" transform="translate(226,275)"/>
<path d="M0 0 C15.51 0 31.02 0 47 0 C47 11 47 11 45.63964844 14.15698242 C41.52214384 17.03184759 37.66730036 16.61954411 32.765625 16.48828125 C31.77246277 16.48120651 30.77930054 16.47413177 29.75604248 16.46684265 C26.58659267 16.43887288 23.41891503 16.37612801 20.25 16.3125 C18.10028594 16.28742054 15.95054418 16.26460676 13.80078125 16.24414062 C8.5332504 16.18903822 3.2667518 16.10538665 -2 16 C-1.67 15.01 -1.34 14.02 -1 13 C-0.67 8.71 -0.34 4.42 0 0 Z " fill="#E47E22" transform="translate(388,481)"/>
<path d="M0 0 C1.64379639 0.00241699 1.64379639 0.00241699 3.32080078 0.00488281 C16.37529637 0.20072905 27.76673719 3.55221735 39.875 8.375 C39.215 10.355 38.555 12.335 37.875 14.375 C33.54138623 15.63262914 30.91132676 15.01845977 26.6875 13.5625 C17.84128694 10.54104375 9.28165591 8.96517977 -0.0625 8.9375 C-0.95912354 8.93435791 -1.85574707 8.93121582 -2.77954102 8.92797852 C-11.68738172 9.08348867 -19.72799745 11.20265561 -28.18701172 13.82373047 C-30.80214613 14.56761728 -33.43434592 15.00402234 -36.125 15.375 C-39.125 10.625 -39.125 10.625 -39.125 8.375 C-36.50300609 7.40772151 -33.87784282 6.45115523 -31.25 5.5 C-30.52296875 5.23058594 -29.7959375 4.96117187 -29.046875 4.68359375 C-19.39238638 1.21136539 -10.24662648 -0.01579076 0 0 Z " fill="#E0E1E2" transform="translate(367.125,305.625)"/>
<path d="M0 0 C0 3.3 0 6.6 0 10 C-1.19625 9.5875 -2.3925 9.175 -3.625 8.75 C-4.45515625 8.48058594 -5.2853125 8.21117187 -6.140625 7.93359375 C-8.11892836 7.2876723 -10.08737492 6.61105435 -12.046875 5.91015625 C-28.03595964 0.63676096 -42.44998715 2.13542373 -58 8 C-59.99749768 8.67412719 -61.99665092 9.343466 -64 10 C-64 6.7 -64 3.4 -64 0 C-44.5358364 -11.06785773 -19.68019767 -9.51209554 0 0 Z " fill="#F64E29" transform="translate(285,209)"/>
<path d="M0 0 C7.92 0 15.84 0 24 0 C24.99 3.3 25.98 6.6 27 10 C28.32 12.97 29.64 15.94 31 19 C18.79 19 6.58 19 -6 19 C-5.34 17.35 -4.68 15.7 -4 14 C-3.46497539 12.505003 -2.94359505 11.0050366 -2.4375 9.5 C-2.18871094 8.7678125 -1.93992188 8.035625 -1.68359375 7.28125 C-0.96852559 4.89496541 -0.48854874 2.44274369 0 0 Z " fill="#66B142" transform="translate(130,217)"/>
<path d="M0 0 C14.52 0 29.04 0 44 0 C44 3.96 44 7.92 44 12 C29.48 12 14.96 12 0 12 C0 8.04 0 4.08 0 0 Z " fill="#473F52" transform="translate(346,112)"/>
<path d="M0 0 C14.52 0 29.04 0 44 0 C44 3.96 44 7.92 44 12 C29.48 12 14.96 12 0 12 C0 8.04 0 4.08 0 0 Z " fill="#443D50" transform="translate(346,87)"/>
<path d="M0 0 C12.21 0 24.42 0 37 0 C37 3.96 37 7.92 37 12 C24.79 12 12.58 12 0 12 C0 8.04 0 4.08 0 0 Z " fill="#F54D28" transform="translate(98,380)"/>
<path d="M0 0 C13.2 0 26.4 0 40 0 C40 3.63 40 7.26 40 11 C26.8 11 13.6 11 0 11 C0 7.37 0 3.74 0 0 Z " fill="#E50D27" transform="translate(233,15)"/>
<path d="M0 0 C1.134375 0.020625 2.26875 0.04125 3.4375 0.0625 C3.78604772 27.36540456 3.78604772 27.36540456 1.4375 32.0625 C-2.1925 32.0625 -5.8225 32.0625 -9.5625 32.0625 C-8.72388109 0.15305055 -8.72388109 0.15305055 0 0 Z " fill="#484053" transform="translate(352.5625,138.9375)"/>
<path d="M0 0 C0 9.9 0 19.8 0 30 C-4.93297869 28.76675533 -6.03373926 27.00846045 -9 23 C-10.79617354 17.61147938 -11.34080708 10.95677978 -8.953125 5.69140625 C-6.2812696 1.9115167 -4.67630238 0 0 0 Z " fill="#5D2750" transform="translate(135,312)"/>
<path d="M0 0 C7.61973057 0.97986383 14.16119367 2.45792766 21 6 C21.66 6.33 22.32 6.66 23 7 C23 10.3 23 13.6 23 17 C21.80375 16.5875 20.6075 16.175 19.375 15.75 C12.9817563 13.61209931 6.48957398 11.81855772 0 10 C0 6.7 0 3.4 0 0 Z " fill="#DD0D26" transform="translate(262,202)"/>
<path d="M0 0 C7.68060837 4.60836502 7.68060837 4.60836502 10 9 C10.98098017 13.7188529 10.46215534 17.07568931 8.3125 21.375 C6 24 6 24 1 27 C0.67 18.09 0.34 9.18 0 0 Z " fill="#BBD3C9" transform="translate(387,365)"/>
<path d="M0 0 C6.48707154 1.6813917 12.7677635 3.53062327 19 6 C18.34 7.98 17.68 9.96 17 12 C12.49819881 13.34799697 9.58916468 12.52972156 5.1875 11.0625 C4.02605469 10.68222656 2.86460937 10.30195313 1.66796875 9.91015625 C0.78753906 9.60980469 -0.09289062 9.30945313 -1 9 C-0.67 6.03 -0.34 3.06 0 0 Z " fill="#B6CEC5" transform="translate(388,308)"/>
<path d="M0 0 C1.65 0 3.3 0 5 0 C5 5.94 5 11.88 5 18 C1.7 18 -1.6 18 -5 18 C-4.54625 16.700625 -4.0925 15.40125 -3.625 14.0625 C-2.07492613 9.43431736 -0.96082189 4.78150189 0 0 Z " fill="#73C953" transform="translate(130,217)"/>
<path d="M0 0 C0.33 0 0.66 0 1 0 C1 4.62 1 9.24 1 14 C1.66 14 2.32 14 3 14 C2.34 19.94 1.68 25.88 1 32 C0.67 32 0.34 32 0 32 C0 21.44 0 10.88 0 0 Z " fill="#332E3C" transform="translate(321,358)"/>
</svg>

