<?xml version="1.0" encoding="UTF-8"?>
<svg version="1.1" xmlns="http://www.w3.org/2000/svg" width="512" height="512">
<path d="M0 0 C1.22847656 0.3403125 2.45695312 0.680625 3.72265625 1.03125 C34.98973473 10.60214476 60.54423121 31.95541597 75.94140625 60.76123047 C79.61879329 67.84096985 82.52931098 75.04299387 84.8125 82.6875 C85.00739014 83.33944336 85.20228027 83.99138672 85.40307617 84.66308594 C94.09669108 115.6367232 89.35416236 148.60034809 74.1706543 176.62695312 C68.39901445 186.84781992 60.85886663 195.36235545 53 204 C53.63273331 204.00586624 54.26546661 204.01173248 54.91737366 204.01777649 C115.72895652 204.60585156 115.72895652 204.60585156 140 208 C141.29518555 208.17547363 142.59037109 208.35094727 143.92480469 208.53173828 C167.60810955 211.79305168 187.59474988 216.05048895 203.8984375 235.140625 C215.57487738 251.02752833 218.59472142 267.52107969 217 287 C214.58873281 301.28101697 206.38265072 314.12352638 195 323 C189.72550059 326.59386435 184.0661812 329.9779396 178 332 C177.99780016 332.98976821 177.99780016 332.98976821 177.99555588 333.99953175 C177.95842141 350.09308156 177.89931925 366.18638065 177.81609726 382.27975178 C177.77637448 390.06256241 177.74394781 397.84527291 177.72900391 405.62817383 C177.71595215 412.41581181 177.6888983 419.20322887 177.64538693 425.99074239 C177.62285072 429.58105962 177.60708456 433.17110517 177.60811615 436.7614994 C177.60900749 440.78051788 177.57862284 444.79874142 177.54589844 448.81762695 C177.5509288 449.99367493 177.55595917 451.1697229 177.56114197 452.38140869 C177.41396512 464.11257011 174.16105521 473.45109266 166 482 C155.44629617 492.07489685 144.16499076 493.59714804 130.09716797 493.50793457 C128.50333526 493.5125503 126.90950682 493.51890772 125.31568718 493.52684355 C120.96065204 493.54346774 116.60596968 493.53532216 112.25093365 493.52289867 C107.54464575 493.51382207 102.83841712 493.52783083 98.13214111 493.53881836 C88.92229712 493.55658035 79.71258372 493.55277393 70.50273466 493.5411678 C63.01595204 493.53212462 55.52920595 493.5309133 48.04241943 493.53526306 C46.44248479 493.53618246 46.44248479 493.53618246 44.81022823 493.53712043 C42.64322614 493.53839937 40.47622405 493.53969622 38.30922198 493.5410108 C18.00175413 493.5524098 -2.30564143 493.53931354 -22.61309743 493.51780933 C-40.02790844 493.49993898 -57.44261279 493.50304328 -74.85742188 493.52148438 C-95.09352562 493.54290308 -115.32956605 493.55131123 -135.56567955 493.53903532 C-137.72459283 493.53776116 -139.88350613 493.53650368 -142.04241943 493.53526306 C-143.1045733 493.53464596 -144.16672716 493.53402886 -145.26106751 493.53339306 C-152.73658085 493.52994316 -160.21205393 493.53576073 -167.68756104 493.54518127 C-176.80098167 493.55641373 -185.91426453 493.55333496 -195.02766943 493.5320583 C-199.67514723 493.52156471 -204.32239555 493.51739719 -208.96987152 493.53065491 C-213.22860842 493.54261971 -217.48690424 493.53594929 -221.74560142 493.5147447 C-223.28179292 493.51029589 -224.8180221 493.51250599 -226.35418916 493.52224785 C-239.65662702 493.60010176 -250.14356186 491.40926514 -260 482 C-268.44405598 473.15464235 -271.41358446 463.95249861 -271.53125 451.84765625 C-270.86119409 448.25595951 -269.97220416 447.10121056 -267 445 C-263.984375 444.390625 -263.984375 444.390625 -260.75 444.25 C-259.67234375 444.19328125 -258.5946875 444.1365625 -257.484375 444.078125 C-256.66453125 444.05234375 -255.8446875 444.0265625 -255 444 C-255.4846875 443.08863281 -255.969375 442.17726563 -256.46875 441.23828125 C-270.56809491 414.22223169 -279.37798587 384.54762138 -279.37060547 353.91894531 C-279.37507306 351.841017 -279.41184194 349.76506832 -279.44921875 347.6875 C-279.45507292 346.35156962 -279.45905166 345.01562938 -279.4609375 343.6796875 C-279.46915527 342.49101074 -279.47737305 341.30233398 -279.48583984 340.07763672 C-279 337 -279 337 -277.22119141 334.58251953 C-275 333 -275 333 -271 333 C-271.0825 332.01 -271.165 331.02 -271.25 330 C-271.25934566 325.40193442 -269.47362719 321.80558029 -267 318 C-266.48566406 317.52433594 -265.97132813 317.04867188 -265.44140625 316.55859375 C-263.5961531 314.56332002 -263.33002684 312.95162213 -262.75 310.3125 C-260.85750427 303.49951536 -256.90067946 299.10958506 -251.25 295 C-249 294 -249 294 -246 294 C-245.89816406 293.25878906 -245.79632813 292.51757812 -245.69140625 291.75390625 C-244.38040002 286.53210178 -240.40987374 282.84563635 -236.21484375 279.6328125 C-231.99274918 277.17664708 -228.35259282 276.80991405 -223.5 276.625 C-217.78963272 276.37326687 -214.79601783 275.19900309 -210.5859375 271.375 C-207.34013247 268.56090303 -203.89663258 268.91304723 -199.8125 268.8125 C-194.02569078 268.43187375 -190.85593926 267.25342955 -186.5859375 263.375 C-185 262 -185 262 -182 261 C-180.99402649 258.61429901 -180.99402649 258.61429901 -180.25 255.6875 C-175.03037482 239.12598252 -163.99324181 226.19521278 -148.83105469 217.92529297 C-137.1160794 212.00532546 -123.80678586 210.18165013 -111 208 C-111.73863281 207.30777344 -112.47726563 206.61554688 -113.23828125 205.90234375 C-125.7705332 193.91967892 -134.96028226 180.83728708 -142 165 C-142.48210937 163.93394531 -142.96421875 162.86789063 -143.4609375 161.76953125 C-153.59099816 137.54947712 -154.84345059 107.06899036 -147 82 C-146.68651611 80.97447021 -146.68651611 80.97447021 -146.36669922 79.92822266 C-137.16087144 50.76609106 -116.0615353 24.85973659 -88.90795898 10.64233398 C-85.64283191 9.00839805 -82.33469642 7.48579057 -79 6 C-77.94554687 5.51789062 -76.89109375 5.03578125 -75.8046875 4.5390625 C-52.80930585 -5.16487093 -23.98453745 -6.75160646 0 0 Z " fill="#010101" transform="translate(287,11)"/>
<path d="M0 0 C0.62398682 0.29559814 1.24797363 0.59119629 1.89086914 0.89575195 C2.85367798 1.37274536 2.85367798 1.37274536 3.8359375 1.859375 C33.51091589 15.61440467 65.69306815 14.3725866 95.84765625 3.328125 C98.52322277 2.32129855 100.84510442 1.26367956 103.37109375 -0.11328125 C112.14270672 -4.05869726 126.26666558 0.07891355 135.4609375 1.421875 C137.07500488 1.65112671 137.07500488 1.65112671 138.72167969 1.88500977 C154.51060287 4.32772861 167.99636075 9.8570152 178.2109375 22.609375 C186.02914883 34.49860761 189.11741894 47.02776146 186.5234375 61.109375 C183.67371232 72.27243641 177.19054836 81.69055119 167.4609375 87.921875 C162.74836544 90.57086737 157.86993029 92.18757162 152.6796875 93.65234375 C149.89542533 94.45940071 149.89542533 94.45940071 148.2109375 97.609375 C147.91011799 100.16056692 147.91011799 100.16056692 147.9593811 103.07266235 C147.95399826 104.20810486 147.94861542 105.34354736 147.94306946 106.51339722 C147.94925545 108.38356003 147.94925545 108.38356003 147.95556641 110.29150391 C147.95000868 112.30626019 147.94444663 114.32101646 147.93872237 116.33577228 C147.93437964 118.5032368 147.934853 120.67065555 147.93654251 122.83812332 C147.93937604 127.36076495 147.92502036 131.88325038 147.90756226 136.40585327 C147.86054486 149.26712682 147.83660899 162.12839045 147.83007812 174.98974609 C147.82631945 182.09195049 147.80822207 189.19397874 147.77498376 196.29610765 C147.75483118 200.7854578 147.75236966 205.27435167 147.76326394 209.76372838 C147.76588407 212.56782543 147.75180333 215.37166085 147.73318291 218.1756897 C147.72538297 220.08117908 147.73724973 221.9867178 147.74986267 223.8921814 C147.67155118 232.07936342 146.34985782 238.19993931 141.5703125 244.9140625 C141.03921875 245.43226563 140.508125 245.95046875 139.9609375 246.484375 C139.44015625 247.01804687 138.919375 247.55171875 138.3828125 248.1015625 C131.49420767 252.88393924 124.65884471 253.0319261 116.5625 252.94995117 C114.84899605 252.95060829 114.84899605 252.95060829 113.10087585 252.95127869 C109.34571922 252.94919784 105.59101562 252.92589924 101.8359375 252.90234375 C99.22420495 252.89674531 96.61246925 252.89247639 94.00073242 252.88948059 C87.84208483 252.88018373 81.68359841 252.85560227 75.52502155 252.82543212 C68.50927287 252.79181425 61.49351619 252.77538361 54.47770691 252.76034582 C40.05536759 252.72905034 25.6331548 252.67633617 11.2109375 252.609375 C11.55664795 251.85084229 11.9023584 251.09230957 12.25854492 250.31079102 C12.71076416 249.31748779 13.1629834 248.32418457 13.62890625 247.30078125 C14.0777417 246.31537354 14.52657715 245.32996582 14.98901367 244.31469727 C17.83204488 238.02026592 19.02024014 232.52415198 18.2109375 225.609375 C16.48867254 222.36087523 16.48867254 222.36087523 13.2109375 221.609375 C11.31881013 221.38757715 9.42209278 221.20323485 7.5234375 221.046875 C6.52957031 220.96308594 5.53570312 220.87929688 4.51171875 220.79296875 C3.75246094 220.73238281 2.99320312 220.67179688 2.2109375 220.609375 C3.43852483 216.57765419 4.99561504 212.87667591 6.87573242 209.10693359 C15.64384186 191.4451271 20.51529616 172.90459334 24.2109375 153.609375 C24.5821875 151.80339844 24.5821875 151.80339844 24.9609375 149.9609375 C26.38018779 141.97765463 26.40991123 134.01420266 26.4609375 125.921875 C26.47036377 124.76131592 26.47979004 123.60075684 26.48950195 122.4050293 C26.48309692 120.76787964 26.48309692 120.76787964 26.4765625 119.09765625 C26.47317871 117.62099487 26.47317871 117.62099487 26.46972656 116.11450195 C26.38201983 113.36087813 26.38201983 113.36087813 24.2109375 110.609375 C23.3859375 110.3825 22.5609375 110.155625 21.7109375 109.921875 C20.8859375 109.48875 20.0609375 109.055625 19.2109375 108.609375 C18.1484375 104.921875 18.1484375 104.921875 17.73828125 102.77734375 C16.68683611 98.45473594 14.34817971 94.74661721 11.2109375 91.609375 C10.77029335 90.07991337 10.38116476 88.53532675 10.0234375 86.984375 C8.2666806 80.87545152 4.98078899 75.8418467 -0.58984375 72.54296875 C-1.17121094 72.25550781 -1.75257813 71.96804688 -2.3515625 71.671875 C-6.36683848 69.66423701 -8.00973104 66.52593196 -10.328125 62.796875 C-13.12818107 58.60427767 -16.23190132 56.22002644 -20.9765625 54.359375 C-24.19935116 53.72538379 -27.15002503 53.43591288 -30.4140625 53.234375 C-35.16722672 52.87173577 -37.27024345 51.9327041 -40.7890625 48.609375 C-45.32898084 46.10778735 -48.73210736 45.451637 -53.9140625 45.171875 C-58.90305628 44.86819712 -61.13432094 44.15969537 -64.7890625 40.609375 C-70.39345842 37.64234187 -75.49421396 36.97668005 -81.7890625 36.609375 C-80.23812996 26.66930737 -73.26972442 18.90760971 -65.7890625 12.609375 C-55.23918108 5.01213335 -44.23367914 2.9749845 -31.59594727 1.24682617 C-29.22704708 0.92194146 -26.86064534 0.58208734 -24.49414062 0.24023438 C-22.9662706 0.02515351 -21.43827936 -0.18906846 -19.91015625 -0.40234375 C-19.21409775 -0.50230148 -18.51803925 -0.60225922 -17.80088806 -0.70524597 C-4.91640086 -2.44130811 -4.91640086 -2.44130811 0 0 Z " fill="#F6CBBC" transform="translate(204.7890625,235.390625)"/>
<path d="M0 0 C1.78648706 1.43911458 3.55919022 2.89564487 5.3125 4.375 C6.034375 4.94734375 6.75625 5.5196875 7.5 6.109375 C23.47379538 19.21287902 33.98279091 38.71429535 39.3125 58.375 C39.61285156 59.32117188 39.91320312 60.26734375 40.22265625 61.2421875 C47.10800755 85.3889544 41.52221392 111.58253783 30.3125 133.375 C29.73242188 134.509375 29.15234375 135.64375 28.5546875 136.8125 C24.68140181 143.87449064 19.92423411 149.62430866 14.3125 155.375 C13.508125 156.220625 12.70375 157.06625 11.875 157.9375 C11.029375 158.741875 10.18375 159.54625 9.3125 160.375 C8.66539062 161.02855469 8.01828125 161.68210938 7.3515625 162.35546875 C-6.92262958 176.1317239 -26.28938449 184.34199881 -45.6875 187.375 C-47.32525391 187.64763672 -47.32525391 187.64763672 -48.99609375 187.92578125 C-69.8561279 190.46430392 -90.12198168 187.32081339 -108.6875 177.375 C-109.6259375 176.91351563 -110.564375 176.45203125 -111.53125 175.9765625 C-135.42272198 163.82949388 -151.93418758 141.4952991 -161.00390625 116.7890625 C-162.00813558 113.66891085 -162.88670215 110.55290304 -163.6875 107.375 C-164.02394531 106.13363281 -164.02394531 106.13363281 -164.3671875 104.8671875 C-170.20844232 79.34170409 -163.76621607 51.54587162 -150.6875 29.375 C-147.96722819 25.15355886 -144.88265916 21.24551252 -141.6875 17.375 C-141.07519531 16.59898438 -140.46289062 15.82296875 -139.83203125 15.0234375 C-106.06321937 -25.72954229 -41.84272447 -30.9848023 0 0 Z " fill="#85DBF8" transform="translate(317.6875,43.625)"/>
<path d="M0 0 C26.4 0 52.8 0 80 0 C80.16065467 30.87693574 80.16065467 30.87693574 80.20101547 46.15258694 C80.22316224 54.40691289 80.25125822 62.66107677 80.30175781 70.9152832 C80.34172779 77.45155139 80.36745693 83.98769714 80.37635398 90.52408415 C80.38155167 93.9825234 80.39369766 97.44061252 80.42292023 100.89893913 C80.45533951 104.76724499 80.45595291 108.63521376 80.45410156 112.50366211 C80.46848267 113.64014694 80.48286377 114.77663177 80.49768066 115.94755554 C80.45681318 123.85653634 78.9727593 129.82398098 74.359375 136.3046875 C73.82828125 136.82289063 73.2971875 137.34109375 72.75 137.875 C72.22921875 138.40867187 71.7084375 138.94234375 71.171875 139.4921875 C63.15955977 145.05469412 54.4529392 144.39335613 45.125 144.29296875 C43.58944109 144.28736509 42.05387677 144.28309863 40.51831055 144.28010559 C36.50035479 144.2687173 32.48273062 144.23930299 28.46490479 144.20599365 C24.35555505 144.17516208 20.24615111 144.16157244 16.13671875 144.14648438 C8.09099462 144.11442662 0.0455387 144.06330436 -8 144 C-7.49339844 142.91332031 -7.49339844 142.91332031 -6.9765625 141.8046875 C-6.53054688 140.83789062 -6.08453125 139.87109375 -5.625 138.875 C-5.18414062 137.92367187 -4.74328125 136.97234375 -4.2890625 135.9921875 C-3.86367188 135.00476563 -3.43828125 134.01734375 -3 133 C-2.62243561 132.14332733 -2.24487122 131.28665466 -1.85586548 130.40402222 C-0.5426448 125.18096734 -0.69109327 120.02630978 -0.68115234 114.66064453 C-0.67110672 113.42106491 -0.6610611 112.18148529 -0.65071106 110.90434265 C-0.62517475 107.51840589 -0.6082859 104.1326356 -0.59528303 100.74664164 C-0.57961693 97.20318782 -0.55283786 93.65981814 -0.5272522 90.11642456 C-0.48052585 83.4124135 -0.44375209 76.70838651 -0.41057932 70.00429618 C-0.36515478 60.94088535 -0.3043046 51.87757882 -0.24433136 42.81425476 C-0.1503014 28.54288888 -0.07683717 14.27149279 0 0 Z " fill="#B67B69" transform="translate(368,344)"/>
<path d="M0 0 C1.73618591 -0.00006042 1.73618591 -0.00006042 3.50744629 -0.00012207 C5.95179684 0.00523347 8.39614694 0.02281732 10.84033203 0.05175781 C14.58028833 0.09359939 18.31844293 0.09282635 22.05859375 0.0859375 C24.43490834 0.09643055 26.81121365 0.10936926 29.1875 0.125 C30.3053186 0.12520142 31.42313721 0.12540283 32.5748291 0.12561035 C34.14170471 0.14947815 34.14170471 0.14947815 35.74023438 0.17382812 C36.6555896 0.18224731 37.57094482 0.1906665 38.51403809 0.19934082 C41.63433226 0.676399 43.54257635 1.76301627 46.09375 3.59375 C49.35291497 10.11207995 46.78369343 20.35273496 45.84375 27.34375 C44.34487506 39.09711176 43.10091038 50.86868434 41.90625 62.65625 C41.81589478 63.54574341 41.72553955 64.43523682 41.63244629 65.35168457 C41.11663532 70.43208216 40.6038349 75.51277442 40.09375 80.59375 C40.82489014 80.57803955 41.55603027 80.5623291 42.30932617 80.54614258 C45.6332216 80.48364649 48.9569932 80.44471248 52.28125 80.40625 C54.00698242 80.36854492 54.00698242 80.36854492 55.76757812 80.33007812 C56.87939453 80.32041016 57.99121094 80.31074219 59.13671875 80.30078125 C60.66848755 80.27721558 60.66848755 80.27721558 62.23120117 80.25317383 C65.55452459 80.64857137 67.41117158 81.62584803 70.09375 83.59375 C71.52274174 86.45173349 71.36959392 88.41079013 71.09375 91.59375 C69.99727755 93.95446117 68.90053001 96.00507533 67.53515625 98.1953125 C67.15968658 98.82094589 66.78421692 99.44657928 66.39736938 100.09117126 C65.16272011 102.14148709 63.90974819 104.17991335 62.65625 106.21875 C61.78765048 107.65285775 60.92023363 109.08768243 60.05395508 110.52319336 C57.83912948 114.18685559 55.60938514 117.84118923 53.37585449 121.49346924 C51.42043256 124.69674564 49.47954737 127.90875468 47.5390625 131.12109375 C44.74593659 135.74199922 41.94184962 140.35597241 39.12890625 144.96484375 C36.40826379 149.42438586 33.70949569 153.89611252 31.02734375 158.37890625 C30.38450439 159.44874756 29.74166504 160.51858887 29.0793457 161.62084961 C27.87090875 163.63290268 26.66733274 165.64788615 25.46948242 167.66625977 C24.93556885 168.55240967 24.40165527 169.43855957 23.8515625 170.3515625 C23.3889502 171.1264502 22.92633789 171.90133789 22.44970703 172.69970703 C21.09375 174.59375 21.09375 174.59375 18.09375 176.59375 C15.21875 177.03125 15.21875 177.03125 12.09375 176.59375 C8.18296665 173.19781088 5.64103008 169.54495445 3.046875 165.08984375 C2.67838943 164.46265945 2.30990387 163.83547516 1.93025208 163.18928528 C1.13957785 161.84178803 0.3523019 160.49229196 -0.43185425 159.14099121 C-2.10146769 156.26410089 -3.78764435 153.39705013 -5.47325134 150.5295105 C-6.34046584 149.05416481 -7.20688515 147.57835143 -8.07252502 146.1020813 C-11.91283523 139.55900264 -15.83120689 133.06546644 -19.78091431 126.58798218 C-20.83750148 124.85400452 -21.89121658 123.11831372 -22.9440918 121.38208008 C-26.14492552 116.10865977 -29.36443351 110.84903949 -32.6328125 105.6171875 C-33.4837146 104.23998535 -33.4837146 104.23998535 -34.35180664 102.83496094 C-35.39213265 101.15171566 -36.44263096 99.47469291 -37.50561523 97.80566406 C-42.00200443 90.48674149 -42.00200443 90.48674149 -40.90625 85.59375 C-39.23828125 82.73828125 -39.23828125 82.73828125 -35.90625 80.59375 C-31.45243184 79.98561344 -27.07798315 80.12445863 -22.59375 80.28125 C-21.37623047 80.30380859 -20.15871094 80.32636719 -18.90429688 80.34960938 C-15.90369518 80.4084447 -12.90560203 80.4906086 -9.90625 80.59375 C-9.97618164 80.05113525 -10.04611328 79.50852051 -10.11816406 78.94946289 C-11.90407114 64.93640908 -13.43109912 50.90231829 -14.82141113 36.84518433 C-15.00197806 35.02092014 -15.18400935 33.19680027 -15.36755371 31.37283325 C-15.62868298 28.76983089 -15.8836036 26.16629253 -16.13671875 23.5625 C-16.214702 22.79135361 -16.29268524 22.02020721 -16.37303162 21.22569275 C-16.58344796 19.01625355 -16.75140551 16.80772282 -16.90625 14.59375 C-16.97977692 13.80750244 -17.05330383 13.02125488 -17.12905884 12.21118164 C-17.36323417 8.19093841 -17.21058083 6.1181198 -15.15039062 2.56835938 C-10.21579565 -0.43517797 -5.67136302 -0.08318299 0 0 Z " fill="#020202" transform="translate(240.90625,39.40625)"/>
<path d="M0 0 C61.38 0 122.76 0 186 0 C182.50233868 17.48830658 182.50233868 17.48830658 179.375 25.75 C179.03235107 26.67248535 178.68970215 27.5949707 178.33666992 28.54541016 C175.07404962 37.14224913 171.45767533 45.66699755 167.1355238 53.79129791 C165.97901752 55.95458924 165.97901752 55.95458924 165.15263081 58.12471771 C164.01230994 60.56129822 162.98456036 62.16752035 161 64 C156.66592923 65.19132357 152.41702407 65.01072892 147.94799805 64.90820312 C146.60737748 64.90594525 145.26674702 64.90721572 143.9261322 64.91174316 C140.29344254 64.91403618 136.66287143 64.86705009 133.03067374 64.8111515 C129.23245765 64.76109658 125.43419143 64.75643833 121.63569641 64.74694824 C114.4459537 64.72209561 107.25718563 64.6564652 100.06787187 64.57615232 C91.88183442 64.4866926 83.69575009 64.44273732 75.50934541 64.40258884 C58.67232662 64.31899651 41.83628774 64.17830938 25 64 C23.54547628 61.4324857 22.09306592 58.86381424 20.6418457 56.29443359 C20.02648327 55.20895485 20.02648327 55.20895485 19.39868927 54.10154724 C16.72536587 49.36358263 14.30086755 44.64357914 12.1875 39.625 C11.90600098 38.95694336 11.62450195 38.28888672 11.33447266 37.60058594 C10.5512454 35.73584523 9.77530172 33.8680498 9 32 C8.43345703 30.75089844 8.43345703 30.75089844 7.85546875 29.4765625 C4.11486298 20.98195976 0 9.35540712 0 0 Z " fill="#D5DEEE" transform="translate(27,392)"/>
<path d="M0 0 C30.37568623 -0.97520039 71.41776107 -1.09315094 95.125 20.5625 C104.17709412 30.04909464 107.87393245 41.27932433 108.25 54.125 C107.92759985 66.14862929 103.47136417 76.18441839 95.2421875 84.95703125 C87.79650866 91.74116023 79.44300299 95.267101 69.33032227 95.22705078 C68.04952286 95.22689972 66.76872345 95.22674866 65.44911194 95.22659302 C64.07154175 95.21638289 62.69397319 95.20595096 61.31640625 95.1953125 C59.89151712 95.19157721 58.46662541 95.18873267 57.04173279 95.18673706 C53.31154145 95.17914121 49.5815086 95.15952809 45.85137939 95.1373291 C42.0370091 95.11678291 38.22261293 95.10771667 34.40820312 95.09765625 C26.93873024 95.07627788 19.46938742 95.04219155 12 95 C13.49407544 91.90319643 15.19821628 89.40184651 17.3125 86.6875 C26.08437699 74.39954705 28.36143538 58.75137674 27 44 C23.96625999 26.44847736 13.75802243 11.93586398 0 1 C0 0.67 0 0.34 0 0 Z " fill="#CF8B75" transform="translate(380,233)"/>
<path d="M0 0 C0.99 0.495 0.99 0.495 2 1 C6.14503661 1.24787017 6.14503661 1.24787017 10 0 C12.8125 -0.375 12.8125 -0.375 16 0 C18.87232597 2.39360497 20.83455736 4.74632129 22.875 7.875 C23.57625 8.57625 24.2775 9.2775 25 10 C28.40614946 9.97873538 28.40614946 9.97873538 32 9 C39.30809986 7.63747291 39.30809986 7.63747291 43 10 C44.703125 11.9453125 44.703125 11.9453125 46.25 14.125 C47.03117187 15.21167969 47.03117187 15.21167969 47.828125 16.3203125 C48.21484375 16.87460937 48.6015625 17.42890625 49 18 C53.64586892 17.51515724 53.64586892 17.51515724 58 16 C61.87527869 15.48329617 63.47657559 15.62264752 66.6875 17.9375 C68.91249471 20.88411461 69.37974549 22.18643391 70.1875 25.625 C70.75798378 28.00372696 70.75798378 28.00372696 72 30 C74.54514812 31.22288102 76.84783368 31.78600676 79.625 32.26953125 C82.67345393 33.20713139 83.46581801 34.23557774 85 37 C85.5546875 39.4375 85.5546875 39.4375 85.875 42 C86.57585182 46.21357138 86.57585182 46.21357138 89.5625 49.3125 C90.7690625 50.1478125 90.7690625 50.1478125 92 51 C92.33 52.65 92.66 54.3 93 56 C34.92 56 -23.16 56 -83 56 C-82.67 54.35 -82.34 52.7 -82 51 C-80.824375 50.2265625 -80.824375 50.2265625 -79.625 49.4375 C-75.96540581 46.0393054 -75.73348312 42.58888166 -74.87109375 37.77734375 C-73.83962914 34.48868306 -72.99300842 33.62964515 -70 32 C-68.49063466 31.59976967 -66.96830388 31.24573293 -65.4375 30.9375 C-63.02508551 30.31249967 -63.02508551 30.31249967 -61 29 C-59.77620701 26.45330403 -59.214288 24.15385926 -58.73046875 21.375 C-57.80687798 18.37209525 -56.69597875 17.53700634 -54 16 C-49.89718519 15.58134543 -48.48868651 15.67420899 -45 18 C-41.53540765 18.23239871 -41.53540765 18.23239871 -38 17 C-36.44133376 15.33297728 -35.3032712 13.65234826 -34.140625 11.69140625 C-33 10 -33 10 -30 8 C-25.92509248 7.66042437 -24.46998729 7.68667514 -21 10 C-17.57383927 10.31044613 -17.57383927 10.31044613 -14 9 C-12.16330294 7.05477084 -10.72153407 5.05221666 -9.26171875 2.8125 C-6.81199738 -0.70660439 -4.00736204 -0.16697342 0 0 Z " fill="#FDE7C9" transform="translate(115,288)"/>
<path d="M0 0 C9.9 0 19.8 0 30 0 C29.0945019 11.9223917 28.12923067 23.82982977 26.9765625 35.73046875 C26.88652954 36.66167542 26.79649658 37.59288208 26.70373535 38.55230713 C26.24886073 43.24429945 25.78828234 47.93566373 25.32128906 52.62646484 C25.14899792 54.38768645 24.97679372 56.14891656 24.8046875 57.91015625 C24.72352692 58.70834274 24.64236633 59.50652924 24.55874634 60.3289032 C23.33850921 69.15792505 23.33850921 69.15792505 25.328125 77.453125 C29.58946525 79.92021673 33.90901696 79.67909346 38.75 79.75 C39.73355469 79.77964844 40.71710938 79.80929688 41.73046875 79.83984375 C44.15372776 79.91042411 46.57603154 79.96317701 49 80 C43.24514422 90.15609622 37.34731724 100.22047913 31.375 110.25 C30.13831357 112.33023471 28.90193662 114.41065314 27.66558838 116.49108887 C26.49266999 118.46229539 25.3162422 120.43137645 24.13964844 122.40039062 C22.79098003 124.66040242 21.46437635 126.92879119 20.14941406 129.20898438 C19.61799805 130.12486328 19.08658203 131.04074219 18.5390625 131.984375 C18.08998535 132.77038086 17.6409082 133.55638672 17.17822266 134.36621094 C16.78940918 134.90536133 16.4005957 135.44451172 16 136 C15.34 136 14.68 136 14 136 C12.46630859 133.75048828 12.46630859 133.75048828 10.6484375 130.5703125 C10.31691177 129.99644806 9.98538605 129.42258362 9.64381409 128.83132935 C8.92454547 127.58518286 8.20851928 126.33716061 7.49533081 125.08752441 C5.60486366 121.77592403 3.69112112 118.47785558 1.77734375 115.1796875 C1.38541336 114.50325195 0.99348297 113.82681641 0.5896759 113.12988281 C-4.17020775 104.94227789 -9.16447203 96.90119739 -14.17236328 88.86376953 C-14.80770996 87.84138184 -15.44305664 86.81899414 -16.09765625 85.765625 C-16.65976807 84.86618164 -17.22187988 83.96673828 -17.80102539 83.04003906 C-19 81 -19 81 -19 80 C-18.41508789 79.98018066 -17.83017578 79.96036133 -17.22753906 79.93994141 C-14.56791975 79.84446519 -11.90906162 79.73487858 -9.25 79.625 C-8.32960937 79.5940625 -7.40921875 79.563125 -6.4609375 79.53125 C-5.57148438 79.49257812 -4.68203125 79.45390625 -3.765625 79.4140625 C-2.94868164 79.3826416 -2.13173828 79.3512207 -1.29003906 79.31884766 C1.20601917 78.97131546 2.86620725 78.32904468 5 77 C6.53318757 73.93362487 5.93077321 70.82132227 5.72265625 67.48046875 C5.67601334 66.69262497 5.62937042 65.90478119 5.58131409 65.09306335 C4.85889709 53.80493393 3.61478512 42.56020172 2.4375 31.3125 C2.08522567 27.93921374 1.73427333 24.56581841 1.38771057 21.19194031 C1.17408629 19.11249826 0.95726373 17.03338136 0.73667908 14.95466614 C0.63980301 14.01225571 0.54292694 13.06984528 0.44311523 12.09887695 C0.35730698 11.28046829 0.27149872 10.46205963 0.18309021 9.61885071 C-0.04056355 6.41979491 0 3.20686436 0 0 Z " fill="#E6343E" transform="translate(241,56)"/>
<path d="M0 0 C63.36 0 126.72 0 192 0 C192 12 192 12 191 16 C128.3 16 65.6 16 1 16 C-1.38979311 11.22041378 0 5.34373985 0 0 Z " fill="#0067DC" transform="translate(24,360)"/>
<path d="M0 0 C56.76 0 113.52 0 172 0 C170.42413408 6.30346367 166.32615163 10.5860647 160.8125 13.9375 C156.49746058 15.567626 152.95994054 16.12747186 148.33380127 16.14717102 C147.17871063 16.15432632 146.02362 16.16148163 144.83352661 16.16885376 C143.57007416 16.17154266 142.3066217 16.17423157 141.00488281 16.17700195 C139.65768256 16.18327012 138.31048402 16.18991723 136.96328735 16.19691467 C132.54324539 16.21791527 128.12320324 16.22831321 123.703125 16.23828125 C122.17904391 16.24233028 120.65496299 16.24644725 119.13088226 16.25063133 C111.96973354 16.2696741 104.80859506 16.28390713 97.64742589 16.2922433 C89.39195102 16.3020131 81.13674446 16.32832954 72.88136411 16.36874419 C66.49309861 16.39894094 60.10490989 16.41371553 53.71657443 16.41702431 C49.90446729 16.41937071 46.09264709 16.42827725 42.28061676 16.45348549 C38.69196751 16.47683398 35.10379276 16.48097265 31.51508713 16.47072411 C29.57954585 16.46999586 27.6440283 16.48903919 25.70858765 16.50878906 C17.3616354 16.45909667 11.86934832 15.44539194 5.46875 9.74609375 C4.49421875 8.60333984 4.49421875 8.60333984 3.5 7.4375 C2.8296875 6.67308594 2.159375 5.90867187 1.46875 5.12109375 C0 3 0 3 0 0 Z " fill="#0055BF" transform="translate(34,472)"/>
<path d="M0 0 C7.45043834 0.94901021 16.42929523 2.42929523 22 8 C23.97596058 8.27419061 25.9560501 8.51879231 27.9375 8.75 C34.19156115 9.65328777 41.34706639 11.34706639 46 16 C47.75490972 16.29354086 49.51064876 16.58289134 51.27001953 16.84838867 C61.10982604 18.3878673 69.13986425 20.83720818 75.375 29.125 C76.25388268 30.41402793 77.12944726 31.70533182 78 33 C79.80868116 35.04983864 81.54479938 36.69391682 83.8125 38.21875 C91.75594381 43.63473441 95.3283985 51.07910319 98.98828125 59.7578125 C100.4579169 63.01484286 102.24264816 66.07102864 104.046875 69.15234375 C105 71 105 71 105 73 C107.97 73 110.94 73 114 73 C114.88619611 112.71181105 109.91070193 148.26499702 94 185 C97.96 185 101.92 185 106 185 C106.25599738 199.64873917 105.83553893 211.38374249 100 225 C96.7 225 93.4 225 90 225 C90.33773437 224.27554688 90.67546875 223.55109375 91.0234375 222.8046875 C94.88705787 214.42978785 98.10091217 207.40632306 97 198 C95.27773504 194.75150023 95.27773504 194.75150023 92 194 C90.10787263 193.77820215 88.21115528 193.59385985 86.3125 193.4375 C85.31863281 193.35371094 84.32476562 193.26992188 83.30078125 193.18359375 C82.54152344 193.12300781 81.78226562 193.06242188 81 193 C82.22758733 188.96827919 83.78467754 185.26730091 85.66479492 181.49755859 C94.43290436 163.8357521 99.30435866 145.29521834 103 126 C103.37125 124.19402344 103.37125 124.19402344 103.75 122.3515625 C105.16925029 114.36827963 105.19897373 106.40482766 105.25 98.3125 C105.25942627 97.15194092 105.26885254 95.99138184 105.27856445 94.7956543 C105.27215942 93.15850464 105.27215942 93.15850464 105.265625 91.48828125 C105.26224121 90.01161987 105.26224121 90.01161987 105.25878906 88.50512695 C105.17108233 85.75150313 105.17108233 85.75150313 103 83 C102.175 82.773125 101.35 82.54625 100.5 82.3125 C99.675 81.879375 98.85 81.44625 98 81 C96.9375 77.3125 96.9375 77.3125 96.52734375 75.16796875 C95.47589861 70.84536094 93.13724221 67.13724221 90 64 C89.55935585 62.47053837 89.17022726 60.92595175 88.8125 59.375 C87.0557431 53.26607652 83.76985149 48.2324717 78.19921875 44.93359375 C77.61785156 44.64613281 77.03648437 44.35867188 76.4375 44.0625 C72.42222402 42.05486201 70.77933146 38.91655696 68.4609375 35.1875 C65.66088143 30.99490267 62.55716118 28.61065144 57.8125 26.75 C54.58971134 26.11600879 51.63903747 25.82653788 48.375 25.625 C43.62183578 25.26236077 41.51881905 24.3233291 38 21 C33.46008166 18.49841235 30.05695514 17.842262 24.875 17.5625 C19.88600622 17.25882212 17.65474156 16.55032037 14 13 C8.39560408 10.03296687 3.29484854 9.36730505 -3 9 C-2.43945339 5.63672037 -1.58158962 3.00887781 0 0 Z " fill="#EEB59C" transform="translate(126,263)"/>
<path d="M0 0 C1.32473035 3.68468046 0.60123671 6.0382475 -0.4375 9.75 C-6.66416589 37.26784603 0.13216956 67.35365844 15 91 C17.84222024 95.13740922 20.84873638 99.09397569 24 103 C24.61359375 103.77988281 25.2271875 104.55976563 25.859375 105.36328125 C42.96537333 125.94165104 70.67599036 139.13630021 97 142 C100.81337116 142.1862148 104.61990034 142.23766673 108.4375 142.25 C110.02244263 142.25592163 110.02244263 142.25592163 111.6394043 142.26196289 C119.38650664 142.20484737 126.5222377 141.3286275 134.05078125 139.55859375 C137 139 137 139 140 140 C114.37963057 152.52779588 86.17133766 154.94431192 59 146 C54.48212783 144.35040764 50.23736213 142.27001543 46 140 C45.0615625 139.53851563 44.123125 139.07703125 43.15625 138.6015625 C19.26477802 126.45449388 2.75331242 104.1202991 -6.31640625 79.4140625 C-7.32063558 76.29391085 -8.19920215 73.17790304 -9 70 C-9.33644531 68.75863281 -9.33644531 68.75863281 -9.6796875 67.4921875 C-14.72036996 45.46509566 -10.83125546 19.65672286 0 0 Z " fill="#60BEE6" transform="translate(163,81)"/>
<path d="M0 0 C4.95 0 9.9 0 15 0 C14.11341237 11.92227046 13.12911437 23.83103056 11.9765625 35.73046875 C11.84151306 37.12727875 11.84151306 37.12727875 11.70373535 38.55230713 C11.24886073 43.24429945 10.78828234 47.93566373 10.32128906 52.62646484 C10.14899792 54.38768645 9.97679372 56.14891656 9.8046875 57.91015625 C9.72352692 58.70834274 9.64236633 59.50652924 9.55874634 60.3289032 C8.33850921 69.15792505 8.33850921 69.15792505 10.328125 77.453125 C14.58946525 79.92021673 18.90901696 79.67909346 23.75 79.75 C24.73355469 79.77964844 25.71710938 79.80929688 26.73046875 79.83984375 C29.15372776 79.91042411 31.57603154 79.96317701 34 80 C31.36957527 84.68803491 28.69652161 89.34980301 26 94 C25.53996582 94.79647949 25.07993164 95.59295898 24.60595703 96.41357422 C23.1681732 98.88854355 21.71156499 101.35151327 20.25 103.8125 C19.79069092 104.6070459 19.33138184 105.4015918 18.8581543 106.22021484 C18.41511963 106.95836426 17.97208496 107.69651367 17.515625 108.45703125 C17.12665039 109.11678955 16.73767578 109.77654785 16.33691406 110.45629883 C14.68292933 112.36611356 13.45675018 112.62862322 11 113 C3.22414904 104.70575898 -0.16035887 97.36982882 -0.11352539 85.9387207 C-0.11367142 85.01169342 -0.11381744 84.08466614 -0.1139679 83.12954712 C-0.11327054 80.06160146 -0.10548637 76.99371632 -0.09765625 73.92578125 C-0.09579144 71.8001458 -0.09436784 69.67450993 -0.09336853 67.5488739 C-0.08954829 61.95110897 -0.07972219 56.35336993 -0.06866455 50.75561523 C-0.05843984 45.04476268 -0.05386863 39.33390594 -0.04882812 33.62304688 C-0.03809951 22.4153532 -0.02102897 11.20767875 0 0 Z " fill="#FD4A4F" transform="translate(256,56)"/>
<path d="M0 0 C50.82 0 101.64 0 154 0 C153.06743901 3.73024396 152.64107766 5.35602903 150 8 C147.52924061 8.50057125 147.52924061 8.50057125 144.52998352 8.50120544 C143.39309586 8.51103958 142.25620819 8.52087372 141.08486938 8.53100586 C139.83652313 8.52133789 138.58817688 8.51166992 137.30200195 8.50170898 C135.98792862 8.50711197 134.67385529 8.51251495 133.31996155 8.51808167 C129.71211181 8.53206386 126.10473757 8.52084457 122.49691415 8.50437045 C118.71833178 8.49052394 114.93977716 8.49698012 111.16117859 8.50050354 C104.80992984 8.50320765 98.45886984 8.48971867 92.10766602 8.46655273 C84.77714706 8.43999883 77.44694485 8.43817688 70.11639434 8.4499411 C63.05720701 8.46074727 55.99813363 8.45450591 48.93895531 8.44038582 C45.93953935 8.43464479 42.9402073 8.43469396 39.94079018 8.43945122 C36.40058311 8.44424789 32.86071947 8.43400906 29.32057762 8.41249657 C27.41132621 8.40433634 25.50202967 8.41075287 23.59277344 8.41769409 C14.26114987 8.3373923 7.53313894 6.64985421 0 1 C0 0.67 0 0.34 0 0 Z " fill="#0067DC" transform="translate(52,472)"/>
<path d="M0 0 C2.875 1.1875 2.875 1.1875 5 3 C5.3125 5.6875 5.3125 5.6875 5 8 C4.40832031 8.14695312 3.81664062 8.29390625 3.20703125 8.4453125 C-2.54424543 10.07781192 -5.76325902 11.70351477 -9 17 C-9.55628918 19.24560851 -9.94659254 21.49020144 -10.33984375 23.76953125 C-11.29120814 26.98390441 -13.16125945 28.83239018 -15.5625 31.1015625 C-17.62343067 33.58571839 -17.62343067 33.58571839 -19 40 C-24.28 40 -29.56 40 -35 40 C-34.67 38.35 -34.34 36.7 -34 35 C-32.824375 34.2265625 -32.824375 34.2265625 -31.625 33.4375 C-27.96540581 30.0393054 -27.73348312 26.58888166 -26.87109375 21.77734375 C-25.83962914 18.48868306 -24.99300842 17.62964515 -22 16 C-20.49063466 15.59976967 -18.96830388 15.24573293 -17.4375 14.9375 C-15.02508551 14.31249967 -15.02508551 14.31249967 -13 13 C-11.77620701 10.45330403 -11.214288 8.15385926 -10.73046875 5.375 C-9.0993499 0.07168309 -5.04192407 -0.61737846 0 0 Z " fill="#FADCA6" transform="translate(67,304)"/>
<path d="M0 0 C2.64 0 5.28 0 8 0 C8.25523438 1.02432129 8.25523438 1.02432129 8.515625 2.06933594 C13.68269889 22.57959601 20.06655911 41.36033865 30.3125 59.88671875 C32 63 32 63 32 64 C29.69 64 27.38 64 25 64 C18.89848532 53.59560309 13.62246648 43.13759639 9 32 C8.43345703 30.75089844 8.43345703 30.75089844 7.85546875 29.4765625 C4.11486298 20.98195976 0 9.35540712 0 0 Z " fill="#BCCAE3" transform="translate(27,392)"/>
<path d="M0 0 C2.64 0 5.28 0 8 0 C8.33 5.28 8.66 10.56 9 16 C6.36 16 3.72 16 1 16 C-0.50156874 12.99686252 -0.09281204 10.20932478 -0.0625 6.875 C-0.05347656 5.59367187 -0.04445313 4.31234375 -0.03515625 2.9921875 C-0.02355469 2.00476563 -0.01195313 1.01734375 0 0 Z " fill="#0053B9" transform="translate(24,360)"/>
</svg>

