<?xml version="1.0" encoding="UTF-8"?>
<svg version="1.1" xmlns="http://www.w3.org/2000/svg" width="512" height="512">
<path d="M0 0 C2.5 1.75 2.5 1.75 4 4 C4 5.32 4 6.64 4 8 C46.24 8 88.48 8 132 8 C132.33 6.02 132.66 4.04 133 2 C136.66908557 -0.44605705 139.73618769 -0.83946402 144 0 C146.69105198 2.17574416 148.45532928 3.91065856 150 7 C154.58285502 7.17406637 159.16486293 7.28078485 163.75 7.375 C165.05195313 7.42527344 166.35390625 7.47554687 167.6953125 7.52734375 C174.06612198 7.95686302 174.06612198 7.95686302 179.71289062 5.67285156 C180.93984181 3.87962487 180.93984181 3.87962487 182 1 C185.19802294 -0.59901147 188.52920172 -0.50072781 192 0 C194.5 1.75 194.5 1.75 196 4 C196 5.32 196 6.64 196 8 C238.24 8 280.48 8 324 8 C324.33 6.02 324.66 4.04 325 2 C328.21436529 -0.14291019 330.17426609 -0.30025791 333.96484375 -0.4609375 C336.99611104 0.22560672 338.05601041 1.59426438 340 4 C341.24676366 6.37397465 342.34201692 8.66279643 343.375 11.125 C343.67245117 11.82222168 343.96990234 12.51944336 344.27636719 13.23779297 C347.66033188 21.33809103 350.4752328 29.59607505 353 38 C353.51433594 39.65128906 353.51433594 39.65128906 354.0390625 41.3359375 C359.55964662 62.23160637 357.0111887 84.73042653 346.98828125 103.703125 C342.18858766 111.66175248 336.28530392 118.26476074 329 124 C330.29795768 128.01890565 331.76831004 131.90834572 333.375 135.8125 C339.08467479 150.78980717 343.38304199 168.32472022 338.9140625 184.21484375 C337.07656102 191.8239845 340.43137244 198.03770175 343.1875 205.0625 C346.25627033 213.06503583 349.09011608 221.06756897 351.4375 229.3125 C351.78880981 230.5356189 351.78880981 230.5356189 352.1472168 231.78344727 C355.25931236 243.04052531 356.41058243 253.75082032 356.375 265.4375 C356.37412384 266.14176117 356.37324768 266.84602234 356.37234497 267.57162476 C356.30420848 284.22545701 353.89951085 299.06030933 347.19897461 314.38598633 C342.96999071 324.58181465 346.73497968 334.78567068 349.15200806 345.08053589 C355.85147978 373.78628512 360.4733049 402.63094439 363 432 C363.13183197 433.36858439 363.26447052 434.7370917 363.3984375 436.10546875 C364.07977395 444.10656846 364.18419324 452.15451827 364.28408813 460.18115234 C364.31203726 462.15482304 364.35741068 464.12822223 364.40307617 466.1015625 C364.41431519 467.92880859 364.41431519 467.92880859 364.42578125 469.79296875 C364.44765503 471.44075317 364.44765503 471.44075317 364.4699707 473.12182617 C363.89158687 476.66393893 362.78668273 477.81507215 360 480 C357.25729328 480.72853147 354.77228723 480.56809165 352 480 C349.5 478.25 349.5 478.25 348 476 C348 474.68 348 473.36 348 472 C326.77236624 471.99043708 305.5450164 472.01509582 284.31747532 472.0802784 C274.46069883 472.10975098 264.60413765 472.12810676 254.74731445 472.12011719 C246.15413826 472.11318028 237.5612954 472.12727978 228.9682011 472.16643608 C224.41986988 472.18643231 219.87206182 472.19603244 215.32370186 472.18042374 C211.03802802 472.16604932 206.75335164 472.17991125 202.46780586 472.21495247 C200.8993609 472.22288741 199.33082527 472.22071647 197.76241684 472.20739174 C189.6553709 472.14437013 183.21891042 472.26035559 176.69653225 477.61701775 C171.51890013 481.83772935 162.3246685 480.46020203 156 480 C152.14242439 478.86904169 149.2205469 477.10277504 146.21606827 474.38820171 C143.15657738 472.47165855 140.89033866 472.61502423 137.29290771 472.60127258 C136.28322729 472.59130234 136.28322729 472.59130234 135.25314927 472.58113068 C132.99901586 472.56248709 130.74541262 472.56510677 128.49121094 472.56762695 C126.87487029 472.55861059 125.25853651 472.54828368 123.64221191 472.53674316 C119.25414099 472.50913218 114.86619965 472.4998831 110.47805309 472.49388909 C105.89223773 472.48451608 101.30651958 472.45831358 96.72076416 472.43388367 C88.03692143 472.39018542 79.35309753 472.36165889 70.66917825 472.33856028 C60.78288161 472.31152643 50.89668259 472.26761381 41.01045561 472.22227156 C20.67368956 472.12937767 0.33689429 472.05771866 -20 472 C-20.103125 472.94875 -20.20625 473.8975 -20.3125 474.875 C-21 478 -21 478 -24 480 C-31.14629281 480.68059932 -31.14629281 480.68059932 -34.09619141 478.32885742 C-36.47144276 475.42330181 -36.50289238 473.99441984 -36.49609375 470.27734375 C-36.49915527 469.1179126 -36.5022168 467.95848145 -36.50537109 466.76391602 C-36.48297363 465.50119873 -36.46057617 464.23848145 -36.4375 462.9375 C-36.43034973 462.28063202 -36.42319946 461.62376404 -36.41583252 460.94699097 C-35.92410897 416.94827929 -29.12080882 372.11386079 -17.53979492 329.69018555 C-16.6280803 325.14645718 -16.58681426 321.25339927 -18.390625 316.9609375 C-18.68638428 316.22721924 -18.98214355 315.49350098 -19.28686523 314.73754883 C-19.60469971 313.95790771 -19.92253418 313.1782666 -20.25 312.375 C-34.37994541 275.23965904 -29.25471137 235.9632511 -13.33984375 200.171875 C-12.64568359 198.63273437 -12.64568359 198.63273437 -11.9375 197.0625 C-9.48079742 191.41783554 -9.9158057 187.9332078 -11.53979492 182.04174805 C-15.41303849 164.85769714 -9.96423754 146.75169551 -3.26953125 131.07421875 C-2.28366015 128.68689396 -1.51602904 126.51797305 -1 124 C-1.64066406 123.46632813 -2.28132813 122.93265625 -2.94140625 122.3828125 C-12.63550509 114.03230709 -18.94227517 104.73333858 -24 93 C-24.41636719 92.03449219 -24.83273438 91.06898437 -25.26171875 90.07421875 C-34.4650112 64.14353861 -25.90141054 34.04256544 -15 10 C-9.29907601 -1.3415663 -9.29907601 -1.3415663 0 0 Z " fill="#EF6191" transform="translate(92,16)"/>
<path d="M0 0 C6.63355445 3.28481282 13.11572852 5.797435 20.32617188 7.54907227 C21.3496875 7.84426758 22.37320313 8.13946289 23.42773438 8.44360352 C47.48087562 14.49835976 75.94164231 11.86981748 98.52539062 1.72094727 C101.32617188 0.54907227 101.32617188 0.54907227 104.32617188 0.54907227 C111.30557701 14.3076537 117.54816011 32.41243499 113.45507812 47.83032227 C108.49221964 61.75886935 99.98221093 69.79719658 87.20117188 76.92407227 C84.24788319 78.24014933 84.24788319 78.24014933 83.32617188 80.54907227 C82.9368499 84.13083447 82.8902047 85.91188947 84.95117188 88.92407227 C88.03536072 91.03430674 89.6302996 90.8772945 93.32617188 90.54907227 C101.86243897 86.92232491 108.75212487 80.9631314 115.32617188 74.54907227 C117.86086413 75.81641839 117.93751924 76.63129873 118.91210938 79.24047852 C119.20126221 80.01254639 119.49041504 80.78461426 119.78833008 81.58007812 C120.08956787 82.41547119 120.39080566 83.25086426 120.70117188 84.11157227 C121.16753052 85.39463257 121.16753052 85.39463257 121.64331055 86.70361328 C124.43201201 94.54642733 126.5767134 102.41716729 128.32617188 110.54907227 C128.55175781 111.52489258 128.77734375 112.50071289 129.00976562 113.50610352 C134.72150926 141.67090832 127.69507682 172.5826608 112.00390625 196.39624023 C85.74843911 234.63647907 40.12257302 255.20767081 -4.33789062 263.63500977 C-41.00451464 270.34360911 -76.96236104 268.42292473 -112.67382812 257.54907227 C-113.51816406 257.29287109 -114.3625 257.03666992 -115.23242188 256.77270508 C-133.11315681 251.21461391 -151.44530907 243.56122611 -166.67382812 232.54907227 C-167.6509375 231.85297852 -168.62804687 231.15688477 -169.63476562 230.43969727 C-196.32047344 210.94635906 -215.51654377 184.98869192 -220.79174805 151.86376953 C-224.47350604 125.44573155 -218.84280845 99.97869363 -208.67382812 75.54907227 C-204.85364049 75.54907227 -204.40553877 76.49206759 -201.73632812 79.11157227 C-196.1283006 84.25226416 -189.26895477 90.1359017 -181.45898438 90.83813477 C-178.58193066 90.76309018 -178.58193066 90.76309018 -176.29882812 88.92407227 C-174.18676307 85.83720795 -174.06187668 84.22078096 -174.67382812 80.54907227 C-177.40045979 77.37740417 -180.42208556 75.32169226 -183.98632812 73.17407227 C-194.17007403 66.76860443 -200.48377278 60.08581658 -204.67382812 48.54907227 C-207.78873901 32.04004455 -203.26452602 15.24074562 -195.67382812 0.54907227 C-191.74423033 1.19918955 -188.35065021 2.40738316 -184.67382812 3.92407227 C-155.35145132 15.41392773 -120.8922883 13.0143666 -92.31054688 0.64282227 C-86.81309939 -1.8121057 -81.37725936 -4.39472501 -75.93945312 -6.97827148 C-50.50309052 -18.44897567 -23.85796201 -11.83095249 0 0 Z " fill="#FECBBB" transform="translate(301.673828125,148.450927734375)"/>
<path d="M0 0 C2.69105198 2.17574416 4.45532928 3.91065856 6 7 C10.58285502 7.17406637 15.16486293 7.28078485 19.75 7.375 C21.05195313 7.42527344 22.35390625 7.47554687 23.6953125 7.52734375 C30.06612198 7.95686302 30.06612198 7.95686302 35.71289062 5.67285156 C36.93984181 3.87962487 36.93984181 3.87962487 38 1 C41.19802294 -0.59901147 44.52920172 -0.50072781 48 0 C50.5 1.75 50.5 1.75 52 4 C52 5.32 52 6.64 52 8 C94.24 8 136.48 8 180 8 C202.3103125 61.54475 202.3103125 61.54475 191.765625 88.9609375 C189.55182889 94.24619245 186.77552871 98.68622443 183 103 C182.35546875 103.76441406 181.7109375 104.52882813 181.046875 105.31640625 C167.07913482 120.60332189 145.29937629 127.01940803 125.17456055 128.16015625 C100.76911127 129.08089196 82.77499596 124.46903355 60.92578125 113.7421875 C55.72532176 111.23704971 50.57034429 109.47143555 45 108 C43.98292969 107.68675781 42.96585938 107.37351562 41.91796875 107.05078125 C15.75173878 99.97579203 -9.37784957 107.83716627 -32.84228516 119.1652832 C-46.10637346 125.47881773 -59.84408201 128.39578598 -74.5 128.3125 C-76.05823486 128.30512817 -76.05823486 128.30512817 -77.64794922 128.29760742 C-102.8728444 127.92091462 -124.63100277 121.36899723 -142.78125 103.21875 C-152.23016349 92.99849664 -156.64870629 78.4971113 -156.47241211 64.79296875 C-155.63740511 44.29775606 -147.98399938 26.62933189 -140 8 C-97.76 8 -55.52 8 -12 8 C-11.67 6.02 -11.34 4.04 -11 2 C-7.33091443 -0.44605705 -4.26381231 -0.83946402 0 0 Z " fill="#EF6191" transform="translate(236,16)"/>
<path d="M0 0 C2.5625 1.4375 2.5625 1.4375 4 4 C4.18420315 10.56991235 1.97818749 16.03412789 -0.75 21.875 C-10.22761591 43.19910419 -15.35931577 66.59604911 -6.76953125 88.95703125 C-4.55947993 94.23503895 -1.75935619 98.6851929 2 103 C2.57105469 103.6909375 3.14210937 104.381875 3.73046875 105.09375 C17.61137289 120.48409147 39.97947662 125.91211399 59.88769531 127.18457031 C80.41194019 128.11475291 97.38620465 124.92398249 115.83886719 116.0390625 C140.23595164 104.30905895 167.66416274 98.98057314 194 108 C200.81726415 110.66426413 207.40742146 113.82922932 214 117 C240.57853657 129.70424797 270.19615283 130.78912956 298 121 C312.35059362 115.84666962 325.03941413 107.53286642 332.61328125 93.94140625 C341.93539753 74.16801593 340.48432954 54.03137756 333.57421875 33.59765625 C331.74098477 28.50128968 329.66112808 23.52249338 327.50390625 18.5546875 C327.04886719 17.50539063 326.59382813 16.45609375 326.125 15.375 C325.71507812 14.47523437 325.30515625 13.57546875 324.8828125 12.6484375 C323.86405261 9.59215782 323.74201907 7.20252185 324 4 C325.5 1.625 325.5 1.625 328 0 C330.77609721 -0.55749493 333.25471167 -0.72921721 336 0 C339.82433531 2.97448302 341.54287695 6.75797794 343.375 11.125 C343.67245117 11.82222168 343.96990234 12.51944336 344.27636719 13.23779297 C347.66033188 21.33809103 350.4752328 29.59607505 353 38 C353.51433594 39.65128906 353.51433594 39.65128906 354.0390625 41.3359375 C359.55964662 62.23160637 357.0111887 84.73042653 346.98828125 103.703125 C342.18858766 111.66175248 336.28530392 118.26476074 329 124 C330.29795768 128.01890565 331.76831004 131.90834572 333.375 135.8125 C339.08467479 150.78980717 343.38304199 168.32472022 338.9140625 184.21484375 C337.07656102 191.8239845 340.43137244 198.03770175 343.1875 205.0625 C346.25627033 213.06503583 349.09011608 221.06756897 351.4375 229.3125 C351.78880981 230.5356189 351.78880981 230.5356189 352.1472168 231.78344727 C355.25931236 243.04052531 356.41058243 253.75082032 356.375 265.4375 C356.37412384 266.14176117 356.37324768 266.84602234 356.37234497 267.57162476 C356.30420848 284.22545701 353.89951085 299.06030933 347.19897461 314.38598633 C342.96999071 324.58181465 346.73497968 334.78567068 349.15200806 345.08053589 C355.85147978 373.78628512 360.4733049 402.63094439 363 432 C363.13183197 433.36858439 363.26447052 434.7370917 363.3984375 436.10546875 C364.07977395 444.10656846 364.18419324 452.15451827 364.28408813 460.18115234 C364.31203726 462.15482304 364.35741068 464.12822223 364.40307617 466.1015625 C364.41431519 467.92880859 364.41431519 467.92880859 364.42578125 469.79296875 C364.44765503 471.44075317 364.44765503 471.44075317 364.4699707 473.12182617 C363.89158687 476.66393893 362.78668273 477.81507215 360 480 C358 480.53125 358 480.53125 356 480.5 C355.01 480.51546875 355.01 480.51546875 354 480.53125 C351.09137131 479.7586455 349.90743518 478.29336777 348 476 C347.50170898 473.55932617 347.50170898 473.55932617 347.49609375 470.79296875 C347.47156128 469.22675781 347.47156128 469.22675781 347.4465332 467.62890625 C347.44206177 465.92541016 347.44206177 465.92541016 347.4375 464.1875 C346.58140564 423.91595714 340.8786351 383.04308013 331 344 C327.75595318 347.19851634 324.64387495 350.46378029 321.625 353.875 C291.35278794 387.5218193 246.98967893 405.71940205 203 413 C202.01966797 413.16226074 201.03933594 413.32452148 200.02929688 413.49169922 C184.64913808 415.93167529 169.54827474 416.43836546 154 416 C153.2157666 415.98453125 152.4315332 415.9690625 151.62353516 415.953125 C110.77858581 415.06939384 65.32960385 400.82404896 32 377 C31.1649292 376.40396973 31.1649292 376.40396973 30.31298828 375.79589844 C20.51639637 368.7071035 12.08862776 360.40228179 3.68701172 351.73535156 C1.4812552 349.46639102 -0.75599961 347.23107908 -3 345 C-8.04480202 363.45744055 -11.24181973 381.9883248 -13.8125 400.9375 C-13.9589798 402.00594147 -14.10545959 403.07438293 -14.25637817 404.17520142 C-17.10663574 425.12787653 -19.29578723 446.01315067 -19.390625 467.17382812 C-19.41382812 468.27533203 -19.43703125 469.37683594 -19.4609375 470.51171875 C-19.47326416 471.95744263 -19.47326416 471.95744263 -19.48583984 473.43237305 C-20.14437947 476.7210061 -21.42594455 477.91966077 -24 480 C-26 480.53125 -26 480.53125 -28 480.5 C-28.66 480.5103125 -29.32 480.520625 -30 480.53125 C-32.92611464 479.7540008 -34.09494227 478.3233066 -36 476 C-36.50170898 473.34741211 -36.50170898 473.34741211 -36.49609375 470.27734375 C-36.49915527 469.1179126 -36.5022168 467.95848145 -36.50537109 466.76391602 C-36.48297363 465.50119873 -36.46057617 464.23848145 -36.4375 462.9375 C-36.43034973 462.28063202 -36.42319946 461.62376404 -36.41583252 460.94699097 C-35.92410897 416.94827929 -29.12080882 372.11386079 -17.53979492 329.69018555 C-16.6280803 325.14645718 -16.58681426 321.25339927 -18.390625 316.9609375 C-18.68638428 316.22721924 -18.98214355 315.49350098 -19.28686523 314.73754883 C-19.60469971 313.95790771 -19.92253418 313.1782666 -20.25 312.375 C-34.37994541 275.23965904 -29.25471137 235.9632511 -13.33984375 200.171875 C-12.64568359 198.63273437 -12.64568359 198.63273437 -11.9375 197.0625 C-9.48079742 191.41783554 -9.9158057 187.9332078 -11.53979492 182.04174805 C-15.41303849 164.85769714 -9.96423754 146.75169551 -3.26953125 131.07421875 C-2.28366015 128.68689396 -1.51602904 126.51797305 -1 124 C-1.64066406 123.46632813 -2.28132813 122.93265625 -2.94140625 122.3828125 C-12.63550509 114.03230709 -18.94227517 104.73333858 -24 93 C-24.41636719 92.03449219 -24.83273438 91.06898437 -25.26171875 90.07421875 C-34.4650112 64.14353861 -25.90141054 34.04256544 -15 10 C-11.15976474 2.36013621 -9.3425301 -1.25304151 0 0 Z M122.25 130.5625 C91.19559434 145.51236447 56.71482824 147.51076742 24.07421875 136.18359375 C21 135 21 135 18.76953125 133.84765625 C16.87608125 132.78399051 16.87608125 132.78399051 14 133 C6.38014147 148.02111456 0.69050651 166.38376131 6 183 C10.39987582 193.82535485 16.12983787 199.85662778 25.97436523 205.80493164 C29.41308935 207.89076142 32.41044384 209.8988486 35 213 C35.61195145 216.6717087 35.48706506 218.28813568 33.375 221.375 C30.29081116 223.48523447 28.69587228 223.32822223 25 223 C16.4637329 219.37325264 9.574047 213.41405913 3 207 C-0.49209569 208.74604784 -1.10267104 212.98824956 -2.375 216.5 C-2.68590576 217.35207031 -2.99681152 218.20414062 -3.31713867 219.08203125 C-6.22503442 227.26688244 -8.244549 235.50502859 -10 244 C-10.22558594 244.90105469 -10.45117188 245.80210937 -10.68359375 246.73046875 C-16.21233687 270.71377509 -10.52087848 296.33526096 0 318 C0.48339844 319.03382813 0.96679688 320.06765625 1.46484375 321.1328125 C18.57004603 355.14489587 55.89967488 376.33205579 90.6875 388.1875 C123.5367607 398.85919181 158.69819956 403.88476849 193 398 C194.2382251 397.79068848 194.2382251 397.79068848 195.50146484 397.57714844 C234.37088803 390.87233309 273.97569968 377.74978015 303 350 C304.5159375 348.824375 304.5159375 348.824375 306.0625 347.625 C321.94441052 333.43265443 334.31477827 310.97528458 338 290 C338.30357422 288.33517578 338.30357422 288.33517578 338.61328125 286.63671875 C341.09656152 270.90927704 340.94027832 255.46284521 337 240 C336.62087863 238.43625006 336.24198446 236.87244502 335.86328125 235.30859375 C333.53343822 225.91274158 330.76853223 216.9322232 327 208 C323.17981236 208 322.73171065 208.94299532 320.0625 211.5625 C314.45447248 216.70319189 307.59512665 222.58682944 299.78515625 223.2890625 C297 223 297 223 294.625 221.375 C292.51293494 218.28813568 292.38804855 216.6717087 293 213 C295.59337252 209.99192151 298.29352954 208.09736505 301.75 206.1875 C312.55979895 199.81289797 319.94630458 191.56887601 323.53125 179.3203125 C326.62793899 163.991702 320.97383049 146.49773643 314 133 C310.28283368 133.5895699 306.94175094 134.72216555 303.43457031 136.06982422 C273.83744111 147.29984402 240.5203134 145.95988995 211.4921875 133.60546875 C209.10522051 132.50810473 206.74049385 131.39436682 204.3828125 130.23828125 C176.41935451 116.54424215 150.21987329 117.06654715 122.25 130.5625 Z " fill="#020101" transform="translate(92,16)"/>
<path d="M0 0 C5.28 0 10.56 0 16 0 C27.33318863 25.81326265 38.47513193 53.11621948 27.765625 80.9609375 C25.55182889 86.24619245 22.77552871 90.68622443 19 95 C18.35546875 95.76441406 17.7109375 96.52882813 17.046875 97.31640625 C3.07913482 112.60332189 -18.70062371 119.01940803 -38.82543945 120.16015625 C-63.23088873 121.08089196 -81.22500404 116.46903355 -103.07421875 105.7421875 C-108.27467824 103.23704971 -113.42965571 101.47143555 -119 100 C-120.01707031 99.68675781 -121.03414062 99.37351562 -122.08203125 99.05078125 C-148.24826122 91.97579203 -173.37784957 99.83716627 -196.84228516 111.1652832 C-210.10637346 117.47881773 -223.84408201 120.39578598 -238.5 120.3125 C-240.05823486 120.30512817 -240.05823486 120.30512817 -241.64794922 120.29760742 C-265.43095013 119.94244697 -287.77502978 114.28540871 -305 97 C-308.87765476 92.97509253 -311.73028193 89.16991339 -314 84 C-311 85 -311 85 -309.171875 87.2890625 C-297.50897421 101.84671204 -274.08569891 108.7872286 -256.33544922 110.80810547 C-231.41181614 112.85598082 -210.21004675 109.09695013 -187.5625 98.90283203 C-165.01535108 88.7658419 -140.76799829 82.75594958 -116.59033203 91.91259766 C-111.19218248 94.09244321 -105.87870809 96.45490594 -100.57177734 98.84667969 C-83.14466749 106.66191293 -67.5459661 111.16888891 -48.3125 111.25 C-47.10916016 111.270625 -45.90582031 111.29125 -44.66601562 111.3125 C-27.78958654 111.38543973 -12.42861065 106.27865346 -0.1796875 94.37109375 C12.03160251 81.08748616 15.87658202 66.04595008 15.17480469 48.40771484 C14.20650307 35.07057721 8.8439044 22.31510993 4 10 C3.55785156 8.87078125 3.11570312 7.7415625 2.66015625 6.578125 C1.78762971 4.37973072 0.89694475 2.1885452 0 0 Z " fill="#E83F78" transform="translate(400,24)"/>
<path d="M0 0 C2.53469225 1.26734613 2.61134737 2.08222646 3.5859375 4.69140625 C4.01966675 5.84950806 4.01966675 5.84950806 4.4621582 7.03100586 C4.91401489 8.28409546 4.91401489 8.28409546 5.375 9.5625 C5.68590576 10.41787354 5.99681152 11.27324707 6.31713867 12.15454102 C9.10584014 19.99735507 11.25054153 27.86809503 13 36 C13.22558594 36.97582031 13.45117188 37.95164062 13.68359375 38.95703125 C19.39533738 67.12183606 12.36890494 98.03358854 -3.32226562 121.84716797 C-20.78630062 147.28297019 -45.15118071 162.67693041 -73 175 C-73.96164062 175.44085938 -74.92328125 175.88171875 -75.9140625 176.3359375 C-78 177 -78 177 -81 176 C-80.11441406 175.56171875 -79.22882813 175.1234375 -78.31640625 174.671875 C-62.89626007 166.85323902 -49.36916246 157.0599334 -37 145 C-36.360625 144.4225 -35.72125 143.845 -35.0625 143.25 C-15.97638756 125.57767367 -3.19923182 95.89622459 -1.85205078 70.17529297 C-1.48311134 58.69411768 -1.48644287 47.25515026 -4 36 C-4.22526367 34.98534668 -4.22526367 34.98534668 -4.45507812 33.95019531 C-5.42160438 29.63493985 -6.428687 25.33101037 -7.5 21.04052734 C-7.84991096 19.61252158 -8.1817817 18.18002964 -8.5 16.74462891 C-8.93977489 14.81503068 -9.46350573 12.90497379 -10 11 C-10.99 10.505 -10.99 10.505 -12 10 C-11.07767578 9.29423828 -11.07767578 9.29423828 -10.13671875 8.57421875 C-9.32847656 7.95160156 -8.52023437 7.32898438 -7.6875 6.6875 C-6.48673828 5.76517578 -6.48673828 5.76517578 -5.26171875 4.82421875 C-3.37298626 3.30083693 -1.66922364 1.75565593 0 0 Z " fill="#FBA98F" transform="translate(417,223)"/>
<path d="M0 0 C2 1 2 1 2.75854492 3.14990234 C3.59530679 6.55297919 4.4096035 9.95788136 5.1875 13.375 C5.33762543 14.03193848 5.48775085 14.68887695 5.64242554 15.36572266 C8.81425349 29.45475828 10.86146354 43.69868154 12.8125 58 C12.95916107 59.06675964 13.10582214 60.13351929 13.25692749 61.23260498 C15.85931562 80.32753853 18.48281815 99.62908201 18.125 118.9375 C18.11597656 119.93072266 18.10695313 120.92394531 18.09765625 121.94726562 C18.07494101 124.29829271 18.03914394 126.64918906 18 129 C12.72 129 7.44 129 2 129 C1.90203125 126.74671875 1.8040625 124.4934375 1.703125 122.171875 C0.26017092 90.61185856 -3.02009243 59.73915045 -8.71362305 28.6550293 C-8.86455917 27.83069397 -9.0154953 27.00635864 -9.17100525 26.15704346 C-9.45587699 24.61061101 -9.74368741 23.06471599 -10.03492737 21.51947021 C-10.57176699 18.62879208 -11 15.94790011 -11 13 C-9.1015625 10.625 -9.1015625 10.625 -6.625 8 C-4.17025826 5.38160881 -1.99346232 2.99019347 0 0 Z " fill="#E83F78" transform="translate(422,359)"/>
<path d="M0 0 C9.44036882 2.22126325 17.25883558 13.76745156 23.92578125 20.58422852 C25.36799799 22.05664999 26.81638151 23.52278012 28.265625 24.98828125 C29.11543945 25.85493408 29.96525391 26.72158691 30.84082031 27.61450195 C33.88938597 30.38872208 35.98841807 31.59359801 40.0625 32.125 C46.57779558 31.34316453 51.00070379 26.20812709 55.390625 21.70703125 C55.95448914 21.13796555 56.51835327 20.56889984 57.0993042 19.98258972 C58.88357951 18.18063377 60.66095645 16.37207646 62.4375 14.5625 C64.22922409 12.74314068 66.02240696 10.92527986 67.81854248 9.11027527 C68.93204233 7.98453112 70.04285804 6.85612435 71.1506958 5.72480774 C75.89082514 0.92288998 75.89082514 0.92288998 80 0.375 C83.1875 0.75 83.1875 0.75 86.0625 2.875 C88.1875 5.75 88.1875 5.75 88.9375 8.5625 C86.95792681 16.97568607 77.00762505 24.04945517 71.0625 29.9375 C69.74185547 31.25137695 69.74185547 31.25137695 68.39453125 32.59179688 C66.71447297 34.26298607 65.03284387 35.93259817 63.34936523 37.6003418 C61.64555363 39.29453279 59.95813328 41.0018961 58.27734375 42.71875 C52.30481128 48.52382829 46.19498313 49.32163245 38.05810547 49.22460938 C29.16992151 48.84861099 25.25635685 45.85671057 19.1875 39.75 C18.20873598 38.77506595 17.22921855 37.8008878 16.24902344 36.82739258 C13.41596221 34.01202073 10.58586423 31.19369162 7.75683594 28.37426758 C6.53766381 27.16016716 5.31760208 25.94695945 4.09667969 24.73461914 C2.327737 22.97775681 0.56200078 21.21772734 -1.203125 19.45703125 C-1.7509967 18.91432083 -2.29886841 18.37161041 -2.86334229 17.81245422 C-7.64111353 13.03539853 -7.64111353 13.03539853 -8.1875 8.9375 C-7.8125 5.75 -7.8125 5.75 -5.6875 2.875 C-2.8125 0.75 -2.8125 0.75 0 0 Z " fill="#040102" transform="translate(215.8125,447.25)"/>
<path d="M0 0 C2.69105198 2.17574416 4.45532928 3.91065856 6 7 C10.58285502 7.17406637 15.16486293 7.28078485 19.75 7.375 C21.05195313 7.42527344 22.35390625 7.47554687 23.6953125 7.52734375 C30.06612198 7.95686302 30.06612198 7.95686302 35.71289062 5.67285156 C36.93984181 3.87962487 36.93984181 3.87962487 38 1 C41.21149376 -0.60574688 44.51665361 -0.46719439 48 0 C50.5625 1.4375 50.5625 1.4375 52 4 C52.89586168 9.7574044 50.74797536 13.86838714 47.5 18.5 C40.81748259 26.99854789 31.43606685 38.88036432 20.02734375 40.39453125 C9.26757447 38.99229035 -0.35221768 27.62277535 -6.91796875 19.6796875 C-10.47787189 14.82604284 -12.69992857 10.13972428 -12 4 C-9.37187498 -0.68491852 -4.9765123 -1.17500985 0 0 Z " fill="#020101" transform="translate(236,16)"/>
<path d="M0 0 C6.97940514 13.75858144 13.22198823 31.86336272 9.12890625 47.28125 C4.23421265 61.01848842 -4.18799188 69.46802812 -17.0625 76.1875 C-20.55017486 77.9371649 -20.55017486 77.9371649 -22 83 C-26.95 83 -31.9 83 -37 83 C-33.81464298 80.45171438 -31.14620604 78.42530216 -27.75 76.375 C-16.33937098 68.7869317 -10.17471433 58.12862215 -7 45 C-6.68605952 42.16069042 -6.61941059 39.35525769 -6.625 36.5 C-6.62516113 35.72116455 -6.62532227 34.9423291 -6.62548828 34.13989258 C-6.79364374 25.43386477 -8.79316172 17.31924124 -12.1328125 9.26953125 C-13 7 -13 7 -13 4 C-11.39850114 3.32694982 -9.79368971 2.66177773 -8.1875 2 C-7.29417969 1.62875 -6.40085937 1.2575 -5.48046875 0.875 C-3 0 -3 0 0 0 Z " fill="#FBA88F" transform="translate(406,149)"/>
<path d="M0 0 C4.18421805 0.87171209 5.42961969 2.20639419 8 5.625 C8.68745025 9.14220473 8.60807733 12.55353546 8.5 16.125 C8.50386719 17.53072266 8.50386719 17.53072266 8.5078125 18.96484375 C8.43739363 23.92937377 8.31960315 27.65449427 5 31.625 C2.19084526 33.02957737 0.11189466 32.87395157 -3 32.625 C-6.1359157 30.84515595 -6.84102736 30.10191793 -8 26.625 C-8.3042547 23.17190178 -8.3234943 19.71492872 -8.375 16.25 C-8.41238281 15.30382812 -8.44976562 14.35765625 -8.48828125 13.3828125 C-8.54802825 8.65616069 -8.56587514 6.38202359 -5.6640625 2.5 C-3 0.625 -3 0.625 0 0 Z " fill="#040303" transform="translate(256,335.375)"/>
<path d="M0 0 C9.24 0 18.48 0 28 0 C25.37697796 5.24604408 21.36529705 11.23081442 16 14 C11.47109362 14.12240288 8.8317847 11.51642453 5.6484375 8.625 C3.54286763 6.54936714 1.68701568 4.42930258 0 2 C0 1.34 0 0.68 0 0 Z " fill="#F9C7B7" transform="translate(242,24)"/>
</svg>

