<?xml version="1.0" encoding="UTF-8"?>
<svg version="1.1" xmlns="http://www.w3.org/2000/svg" width="1057" height="1008">
<path d="M0 0 C1.60018334 0.41175799 3.20044044 0.82322945 4.80078125 1.234375 C50.75424942 13.5293162 91.64510063 43.4023562 119 82 C119.46132324 82.64855957 119.92264648 83.29711914 120.39794922 83.96533203 C141.76657712 114.29624573 156.97297393 153.68814628 157.203125 191.1171875 C157.21018463 191.88305679 157.21724426 192.64892609 157.22451782 193.43800354 C157.40975379 219.5195901 155.65831237 243.90883615 148 269 C147.7205957 269.92458008 147.44119141 270.84916016 147.15332031 271.80175781 C142.80271652 285.89574773 136.8621068 298.94304393 130.3515625 312.15625 C96.42225185 381.06603755 70.60557035 460.05795037 68.69604492 537.27636719 C68.45814842 546.81511767 68.23970634 554.36574679 61.44100285 561.67638874 C53.50225249 568.12330243 43.68245923 566.83321743 34.01147461 566.76049805 C31.97388271 566.76699687 29.93629763 566.7760619 27.89872742 566.78749084 C22.38213129 566.81051659 16.86622944 566.79588564 11.34965587 566.77302146 C5.5691589 566.75406893 -0.21129256 566.76526943 -5.99180603 566.77192688 C-15.69687901 566.77826188 -25.40167467 566.76002525 -35.10668945 566.72729492 C-46.31937073 566.68979215 -57.53152698 566.69158556 -68.74423605 566.7143361 C-79.54208038 566.73529891 -90.33973108 566.72800389 -101.13757133 566.70801735 C-105.72793562 566.70004072 -110.3181357 566.70201165 -114.90849495 566.71204185 C-120.31532529 566.72260759 -125.72154505 566.7084237 -131.12827873 566.67529869 C-133.1099672 566.66710452 -135.09171174 566.66736011 -137.07339478 566.67677689 C-139.78362268 566.6882393 -142.49196361 566.66877005 -145.20204163 566.64164734 C-145.98191706 566.65211883 -146.7617925 566.66259032 -147.56530052 566.67337912 C-154.58048868 566.54303177 -159.40991283 563.59008717 -164.3125 558.6875 C-169.21486201 550.88003457 -169.49012423 543.36604968 -169.79406738 534.38388062 C-170.9452574 502.25343809 -175.89420164 469.10037215 -185.06347656 438.26879883 C-186.04437328 434.84512152 -186.87851698 431.40546598 -187.6875 427.9375 C-197.57926127 387.56609973 -213.33794853 347.32743183 -232.30834961 310.36914062 C-243.85318315 287.75830585 -252.34160484 263.12863439 -256 238 C-256.11424316 237.28215332 -256.22848633 236.56430664 -256.34619141 235.82470703 C-259.67427295 214.59894249 -259.05793717 192.22371103 -256 171 C-255.85522217 169.97640381 -255.85522217 169.97640381 -255.70751953 168.93212891 C-248.33741788 119.2051212 -219.38708659 70.05164536 -179.66845703 39.29248047 C-178.50269958 38.38941931 -177.34264625 37.47896793 -176.18701172 36.56298828 C-158.62901325 22.74186194 -138.31336597 11.79037839 -117 5 C-116.26894043 4.7534668 -115.53788086 4.50693359 -114.78466797 4.25292969 C-108.91188916 2.27460212 -102.99932829 0.55179957 -97 -1 C-96.18321777 -1.21462891 -95.36643555 -1.42925781 -94.52490234 -1.65039062 C-65.05570037 -8.95536692 -29.14800931 -8.06639841 0 0 Z " fill="#000000" transform="translate(615,243)"/>
<path d="M0 0 C0.64241774 -0.00594224 1.28483548 -0.01188449 1.94672042 -0.0180068 C4.09139019 -0.03529838 6.23583561 -0.03839014 8.38056946 -0.04138184 C9.92171705 -0.05064418 11.46286007 -0.06069431 13.0039978 -0.07147217 C17.18605628 -0.09766929 21.36805061 -0.11060038 25.55017829 -0.11949348 C28.16595614 -0.12536399 30.78171664 -0.13357536 33.39748573 -0.14250183 C41.59020201 -0.16984011 49.78287841 -0.18917834 57.97563714 -0.19690561 C67.41695377 -0.20586061 76.85769037 -0.2409313 86.29883069 -0.2989068 C93.60689489 -0.34221779 100.91479636 -0.36231831 108.22298747 -0.36498785 C112.58298463 -0.36707872 116.94243614 -0.37877989 121.30229759 -0.41462708 C125.40738344 -0.44772352 129.51151749 -0.45183642 133.61668968 -0.43434906 C135.11703552 -0.43281532 136.61743395 -0.44140148 138.11764908 -0.46126556 C147.21271802 -0.57455672 154.26818363 0.2164784 161.46772766 6.28088379 C166.13711883 11.35707922 166.88422964 17.011121 166.81538391 23.67932129 C166.07574289 29.21416311 162.89502884 32.95801929 158.90522766 36.65588379 C154.02373553 39.91021188 151.06316531 40.43859119 145.09272766 40.46838379 C140.02688883 40.59175309 140.02688883 40.59175309 135.50288391 42.65197754 C134.12594026 44.40082784 134.12594026 44.40082784 132.89350891 46.31604004 C123.72258814 58.95432264 103.03478955 64.32923784 88.5124054 66.87512207 C83.10709558 67.5954833 77.72628311 67.62049786 72.28022766 67.59338379 C71.0920343 67.58774414 69.90384094 67.58210449 68.67964172 67.57629395 C46.93272535 67.27697008 25.20084865 61.22777001 9.46772766 45.28088379 C9.04878235 44.57318848 8.62983704 43.86549316 8.19819641 43.13635254 C6.53226181 40.9655918 6.53226181 40.9655918 3.39350891 40.81213379 C2.2011261 40.80182129 1.00874329 40.79150879 -0.21977234 40.78088379 C-7.68698237 40.44181543 -12.58268102 39.31019379 -17.84477234 33.90588379 C-21.70861315 27.89546475 -23.60200239 23.44078151 -22.53227234 16.28088379 C-20.6474789 10.12164808 -16.88974417 5.77827704 -11.53227234 2.28088379 C-7.56949958 0.3810742 -4.37737971 0.02269398 0 0 Z " fill="#000000" transform="translate(492.5322723388672,901.7191162109375)"/>
<path d="M0 0 C0.8388361 -0.00297112 1.6776722 -0.00594224 2.54192758 -0.0090034 C5.36310577 -0.01770051 8.18424158 -0.01919951 11.00543213 -0.02069092 C13.02404878 -0.0253184 15.04266455 -0.03034296 17.0612793 -0.03573608 C22.55313172 -0.04886937 28.0449719 -0.05530693 33.53683758 -0.05974674 C36.96700646 -0.06267614 40.39717198 -0.06678071 43.82733917 -0.07125092 C54.55678662 -0.08492867 65.28622642 -0.09459381 76.01568198 -0.09845281 C88.40620108 -0.10293353 100.79660986 -0.12048097 113.1870954 -0.1494534 C122.7608614 -0.1710633 132.33459634 -0.18115673 141.90838647 -0.18249393 C147.62797041 -0.1835425 153.34745069 -0.18946154 159.06700897 -0.20731354 C164.44813205 -0.22378205 169.82907342 -0.22595558 175.21021271 -0.21717453 C177.18427517 -0.21640349 179.15834735 -0.22075569 181.13238525 -0.23063278 C183.82968427 -0.24333615 186.52633816 -0.23748419 189.22363281 -0.22705078 C190.00273191 -0.23510719 190.78183101 -0.24316359 191.58453918 -0.25146413 C198.7618108 -0.18664399 204.6808446 1.9555028 209.86578369 7.14044189 C213.60454253 12.51643499 214.92328075 17.66327241 213.86578369 24.14044189 C212.16553718 30.55887248 209.25805913 34.25524823 203.86578369 38.04669189 C199.34306995 40.52005097 194.65629833 40.29114502 189.61804199 40.29434204 C188.35956455 40.30091542 188.35956455 40.30091542 187.07566333 40.3076216 C184.25993293 40.32099295 181.44423382 40.32718469 178.628479 40.33331299 C176.61133686 40.34121518 174.59419613 40.3494842 172.57705688 40.35809326 C165.94935453 40.3842968 159.32164589 40.39961787 152.69390869 40.41387939 C150.41203558 40.4192395 148.13016252 40.42461701 145.84828949 40.43001175 C136.35705233 40.45163678 126.86581687 40.47037394 117.37456131 40.48163414 C103.7729006 40.4978773 90.17152537 40.53106854 76.56997228 40.58803499 C67.00551449 40.62672781 57.44113308 40.64626599 47.87659907 40.6515547 C42.16417735 40.65520862 36.45206021 40.66723497 30.73972321 40.69965744 C25.36506415 40.7297267 19.9908942 40.73605377 14.61616898 40.72427368 C12.64573722 40.72405286 10.67528284 40.7323647 8.70492935 40.74992752 C6.00985267 40.77263893 3.31654676 40.76431548 0.62145996 40.7484436 C-0.54179625 40.76926673 -0.54179625 40.76926673 -1.72855258 40.79051054 C-8.2763554 40.69581957 -13.05583791 38.1830258 -17.70133281 33.59154737 C-22.48127685 28.09403812 -22.48550635 23.32680399 -22.40765381 16.30450439 C-21.83834183 9.71675149 -17.57173006 6.37361058 -12.81781006 2.33966064 C-8.88746426 -0.45991281 -4.60457196 -0.00506303 0 0 Z " fill="#000000" transform="translate(469.13421630859375,835.8595581054688)"/>
<path d="M0 0 C0.79567383 -0.0065712 1.59134766 -0.0131424 2.41113281 -0.01991272 C5.04077253 -0.03959985 7.67035521 -0.05129914 10.30004883 -0.0612793 C11.20084986 -0.06535482 12.10165089 -0.06943035 13.02974892 -0.07362938 C17.7992899 -0.09447229 22.56880227 -0.10878074 27.33837891 -0.11816406 C32.24981694 -0.12921444 37.16080018 -0.16360359 42.07207775 -0.20333576 C45.86150418 -0.22955793 49.65082324 -0.23786094 53.44033241 -0.24144554 C55.24992246 -0.24629836 57.05950814 -0.25787493 58.86900902 -0.27648354 C77.02538215 -0.45157008 77.02538215 -0.45157008 84.06958008 4.17700195 C84.89071289 4.70680664 85.7118457 5.23661133 86.55786133 5.7824707 C92.1723001 10.6515236 95.41033802 15.42496544 96.44458008 22.88012695 C96.81538794 31.17695287 94.37200353 37.44283358 89.38208008 43.98950195 C84.93642597 48.69954708 79.12929228 51.26669859 72.66906738 51.69166565 C71.11984027 51.71801209 69.57014964 51.72331792 68.02075195 51.71044922 C66.73836388 51.72337257 66.73836388 51.72337257 65.43006897 51.73655701 C62.63250574 51.75907229 59.83595595 51.75250557 57.03833008 51.7434082 C55.0773489 51.74864977 53.11637024 51.7549282 51.15539551 51.76219177 C47.05684496 51.77256902 42.9586422 51.76807239 38.86010742 51.75341797 C33.6246419 51.73622449 28.39027334 51.7597467 23.15493011 51.79490757 C19.10895607 51.81693329 15.0632425 51.81542773 11.01722717 51.80714226 C9.08763932 51.80632577 7.15803177 51.81313103 5.22850037 51.82791328 C-14.26963221 51.95442227 -14.26963221 51.95442227 -20.93041992 46.17700195 C-23.05151367 44.0793457 -23.05151367 44.0793457 -24.36791992 42.11450195 C-24.82038086 41.46352539 -25.2728418 40.81254883 -25.73901367 40.1418457 C-26.13217773 39.49344727 -26.5253418 38.84504883 -26.93041992 38.17700195 C-27.30553711 37.58532227 -27.6806543 36.99364258 -28.06713867 36.3840332 C-30.28464548 30.71484159 -29.87691631 22.4067989 -28.17260742 16.59106445 C-27.22486655 14.64334503 -26.18960524 12.93635147 -24.93041992 11.17700195 C-24.09510742 9.84668945 -24.09510742 9.84668945 -23.24291992 8.48950195 C-16.52808564 1.77466767 -9.1873616 0.03304472 0 0 Z " fill="#000000" transform="translate(201.930419921875,424.822998046875)"/>
<path d="M0 0 C1.82166755 -0.00269934 3.64333368 -0.00658543 5.46499634 -0.01159668 C9.27270296 -0.01747393 13.08003272 -0.00898826 16.88769531 0.00976562 C21.74172269 0.03252158 26.59486355 0.01944218 31.44885826 -0.00452423 C35.20838966 -0.01905822 38.96771495 -0.01434105 42.72725296 -0.00401306 C44.51562228 -0.00136502 46.30401098 -0.00454699 48.09235764 -0.01393127 C70.41357773 -0.1053571 70.41357773 -0.1053571 79.2890625 7.71875 C85.03663014 14.24002866 87.12824314 20.86435662 86.796875 29.53515625 C85.68986372 36.98320581 82.09469919 42.59401917 76.29296875 47.27734375 C70.51998078 51.00597381 66.27641441 51.97562789 59.55151367 51.95117188 C58.25515236 51.96387619 58.25515236 51.96387619 56.93260193 51.97683716 C54.08642705 52.00016232 51.24079434 52.00123024 48.39453125 52 C46.40684291 52.00710524 44.41915662 52.01480478 42.43147278 52.02307129 C38.26797789 52.03650653 34.10467258 52.03808957 29.94116211 52.03222656 C24.62157771 52.02633724 19.30290811 52.056895 13.98350048 52.09734344 C9.87835338 52.12327293 5.77342486 52.12609298 1.66820717 52.12245178 C-0.29209374 52.1241387 -2.2524052 52.13373981 -4.2126255 52.15159607 C-24.59533082 52.31681605 -24.59533082 52.31681605 -32.76953125 44.50390625 C-38.53838161 36.13308184 -40.01178827 28.38739011 -38.25390625 18.2578125 C-36.08805992 11.18737223 -30.54480095 5.90299073 -24.15625 2.44824219 C-16.59997372 -0.8190051 -8.0795377 -0.04228615 0 0 Z " fill="#000000" transform="translate(870.6484375,424.46875)"/>
<path d="M0 0 C4.78817991 3.78543511 9.00912875 8.20971093 13.28125 12.5546875 C14.50902686 13.78350446 15.7378479 15.0112789 16.96765137 16.23806763 C19.52511986 18.79571429 22.07205583 21.3632547 24.61132812 23.93896484 C27.85333684 27.22648905 31.11718734 30.49124694 34.38874054 33.74934196 C36.92211733 36.27601405 39.44537284 38.81259954 41.96556091 41.35242081 C43.1653118 42.55982182 44.36771292 43.76459582 45.57289124 44.96657944 C60.39677265 59.78387727 60.39677265 59.78387727 60.60742188 69.98657227 C60.59259766 70.65100342 60.57777344 71.31543457 60.5625 72 C60.54606445 73.04982056 60.54606445 73.04982056 60.52929688 74.12084961 C60.17959526 82.45249052 56.90137506 86.37233656 51.0625 91.875 C46.20704801 96.16215473 41.06704972 97.30507955 34.6875 97.4375 C33.11548828 97.49744141 33.11548828 97.49744141 31.51171875 97.55859375 C20.5806434 95.81983538 13.22877291 86.81689205 5.79296875 79.32421875 C4.53804253 78.07199215 3.28252348 76.82035942 2.02644348 75.56929016 C-0.59300315 72.95571422 -3.20514628 70.33510939 -5.81225586 67.70922852 C-9.14187842 64.35679474 -12.48917299 61.02267499 -15.8421526 57.69362164 C-18.43431736 55.11596027 -21.01681925 52.52878648 -23.59656334 49.93869972 C-24.82672935 48.70588022 -26.05983261 47.47598397 -27.29599953 46.24918175 C-29.02600364 44.52942068 -30.7425336 42.79720405 -32.45629883 41.0612793 C-32.96077042 40.56490463 -33.465242 40.06852997 -33.98500061 39.55711365 C-39.59401032 33.81409457 -42.57307497 27.74261318 -42.625 19.625 C-42.37637992 11.29622742 -40.06214453 5.86064927 -34.03125 0.12890625 C-22.75319995 -8.91522235 -11.70875072 -7.41126128 0 0 Z " fill="#000000" transform="translate(321,169)"/>
<path d="M0 0 C0.70439209 0.01353516 1.40878418 0.02707031 2.13452148 0.04101562 C10.19003309 0.36200439 14.44607393 2.53585345 19.875 8.3125 C24.76617367 14.38738237 26.37332376 19.66532987 26.65625 27.36328125 C24.61266022 38.15935093 17.15971339 45.0281964 9.5625 52.3125 C8.51836118 53.33148471 7.47538416 54.35166132 6.43359375 55.37304688 C4.5167117 57.24950884 2.59257015 59.11711648 0.66210938 60.97973633 C-1.89744307 63.4611657 -4.42155208 65.97445533 -6.9375 68.5 C-7.66710937 69.21800781 -8.39671875 69.93601562 -9.1484375 70.67578125 C-12.78074571 74.26219387 -16.31229938 77.86437112 -19.625 81.75 C-21.66196218 84.13117107 -23.68118244 86.22633641 -26.125 88.1875 C-28.97294152 90.35512825 -28.97294152 90.35512825 -30.875 93 C-35.34212183 98.41469313 -41.12388464 102.01573138 -48.13671875 102.90625 C-56.63234817 103.13457599 -62.42317814 102.16410706 -68.9375 96.5 C-75.28291669 89.71833592 -77.38996558 83.66561988 -77.17578125 74.421875 C-76.17409222 62.13886854 -64.26760562 52.52018331 -55.94677734 44.3034668 C-54.43393594 42.80897918 -52.92934885 41.3065463 -51.42578125 39.80273438 C-46.62780471 35.02276796 -41.75975713 30.37593813 -36.61767578 25.96337891 C-33.66820644 23.39448625 -30.98347627 20.57860585 -28.26269531 17.77294922 C-26.36740055 15.82308839 -24.46510793 13.88022316 -22.5625 11.9375 C-21.92828125 11.27814453 -21.2940625 10.61878906 -20.640625 9.93945312 C-14.4345067 3.63834322 -9.25387364 -0.25708283 0 0 Z " fill="#000000" transform="translate(824.9375,163.5)"/>
<path d="M0 0 C6.1467254 3.70923084 11.44733824 9.7133521 13.625 16.5625 C13.82221369 19.36895236 13.91882118 22.07614637 13.91552734 24.88183594 C13.92224457 25.7069165 13.92896179 26.53199707 13.93588257 27.38208008 C13.95484488 30.10374006 13.95878617 32.8251531 13.9609375 35.546875 C13.96736772 37.44631042 13.97409625 39.34574486 13.98110962 41.24517822 C13.99307873 45.22630101 13.99679092 49.20733706 13.99560547 53.18847656 C13.99540255 58.27366729 14.02267855 63.35829747 14.05714989 68.44335556 C14.0794621 72.36747762 14.08344165 76.29146585 14.08238602 80.21564484 C14.08473647 82.08941831 14.09352851 83.96319578 14.10905075 85.83690643 C14.26073174 106.04176493 14.26073174 106.04176493 7.4765625 114.12109375 C6.37441406 115.05115234 6.37441406 115.05115234 5.25 116 C4.52039063 116.63808594 3.79078125 117.27617187 3.0390625 117.93359375 C-3.7201798 122.49444171 -11.50829853 122.52417826 -19.375 121.5625 C-28.03096793 118.51902465 -32.50383205 112.38496693 -36.42910767 104.42486572 C-37.63747684 100.76821858 -37.67016607 97.32625183 -37.66552734 93.51855469 C-37.67224457 92.72273483 -37.67896179 91.92691498 -37.68588257 91.10697937 C-37.70483957 88.48271391 -37.70878591 85.85870463 -37.7109375 83.234375 C-37.71736815 81.40220028 -37.72409671 79.57002659 -37.73110962 77.737854 C-37.74307745 73.89796571 -37.74679106 70.05816734 -37.74560547 66.21826172 C-37.74540257 61.31466486 -37.77267695 56.41164944 -37.80714989 51.50819016 C-37.82946778 47.7230366 -37.83344148 43.93802174 -37.83238602 40.15280914 C-37.83473568 38.34602103 -37.84352323 36.53922872 -37.85905075 34.7325058 C-38.00000658 16.63358827 -38.00000658 16.63358827 -33.375 9.5625 C-32.7975 8.655 -32.22 7.7475 -31.625 6.8125 C-23.47375106 -1.33874894 -10.96079509 -4.81312359 0 0 Z " fill="#000000" transform="translate(576.375,57.4375)"/>
</svg>
