<?xml version="1.0" encoding="UTF-8"?>
<svg version="1.1" xmlns="http://www.w3.org/2000/svg" width="512" height="512">
<path d="M0 0 C9.04045464 6.31451603 14.56724519 14.14543971 17.796875 24.6796875 C18.46425863 29.45721178 18.51906111 34.15766584 18.50390625 38.9765625 C18.51902756 40.29134583 18.53414886 41.60612915 18.54972839 42.96075439 C18.5891633 46.41307372 18.59974147 49.86486495 18.60375977 53.31738281 C18.61317083 56.85758063 18.65063277 60.39747811 18.68554688 63.9375 C18.74969771 70.85151963 18.78328535 77.76538814 18.796875 84.6796875 C19.33957031 84.26251465 19.88226563 83.8453418 20.44140625 83.41552734 C21.15683594 82.87105957 21.87226563 82.3265918 22.609375 81.765625 C23.31707031 81.22470215 24.02476562 80.6837793 24.75390625 80.12646484 C26.99543254 78.53907421 29.17548113 77.49887309 31.796875 76.6796875 C31.57 75.6278125 31.343125 74.5759375 31.109375 73.4921875 C30.796875 69.6796875 30.796875 69.6796875 31.734375 66.9296875 C36.31060851 61.93743276 43.26747788 61.04445829 49.796875 60.6796875 C52.79930082 60.6141119 55.79449727 60.61713796 58.796875 60.6796875 C59.06371094 59.94363281 59.33054687 59.20757812 59.60546875 58.44921875 C65.30433695 45.20168578 78.01199181 36.96431699 90.75683594 31.47802734 C105.57256777 25.68010452 121.93828861 26.32354413 136.546875 32.4921875 C137.97565066 33.19733187 139.39236827 33.92736488 140.796875 34.6796875 C141.59480469 35.08832031 142.39273437 35.49695312 143.21484375 35.91796875 C157.44516196 43.75015939 166.30935676 56.32067051 171.234375 71.5546875 C173.76816931 80.78573549 175.08879664 90.46303282 172.796875 99.8671875 C172.38214279 103.56435301 172.38214279 103.56435301 174.23046875 105.34375 C175.62517694 106.49105382 177.03971536 107.61449596 178.46875 108.71875 C188.4150947 117.0963759 194.87521518 131.30236758 196.01806641 144.17016602 C196.67502236 159.32068862 195.6745833 171.63543175 187.06640625 184.55859375 C185.33520266 187.43430363 185.33520266 187.43430363 184.796875 190.6796875 C186.14982875 193.7800621 186.14982875 193.7800621 188.109375 196.9921875 C191.51274735 202.82555389 193.796875 207.84076167 193.796875 214.6796875 C194.40273438 214.69386719 195.00859375 214.70804688 195.6328125 214.72265625 C206.12507734 215.31990825 214.76142048 219.87425834 221.796875 227.6796875 C230.12803517 239.17668854 230.97270225 250.90193168 229.796875 264.6796875 C227.63083404 274.90684682 220.2655829 283.79490635 211.796875 289.6796875 C204.80302174 293.20330823 198.313217 294.82821873 190.484375 294.7421875 C187.6690625 294.71125 187.6690625 294.71125 184.796875 294.6796875 C184.796875 301.6096875 184.796875 308.5396875 184.796875 315.6796875 C186.446875 316.0096875 188.096875 316.3396875 189.796875 316.6796875 C192.07702637 318.26792908 192.07702637 318.26792908 193.796875 320.6796875 C194.19207728 323.34705359 194.34471319 325.60250861 194.31445312 328.26782227 C194.32496704 329.40797791 194.32496704 329.40797791 194.33569336 330.57116699 C194.35331158 333.08818025 194.34162021 335.6040686 194.328125 338.12109375 C194.330823 339.88590203 194.33470798 341.65070886 194.33972168 343.41551208 C194.34562535 347.12537709 194.33704144 350.83485746 194.31835938 354.54467773 C194.29581924 359.24449725 194.30852632 363.94339035 194.33264923 368.64317417 C194.34729967 372.29752715 194.34241044 375.95167115 194.33213806 379.60603142 C194.32951029 381.33475802 194.33259753 383.063505 194.34205627 384.79220772 C194.40834423 400.34220578 192.65008044 416.04570211 186.171875 430.3671875 C185.66092285 431.52951904 185.66092285 431.52951904 185.13964844 432.71533203 C178.858714 446.55204402 170.60638631 458.05119672 159.796875 468.6796875 C158.97445313 469.50082031 158.15203125 470.32195312 157.3046875 471.16796875 C137.70343783 489.77308934 110.36362172 500.83265999 83.39595032 500.82685852 C82.46894717 500.83053521 81.54194402 500.8342119 80.58684987 500.838 C77.49059278 500.84898425 74.39436931 500.8528718 71.2980957 500.85668945 C69.07338353 500.86295834 66.8486724 500.86960551 64.6239624 500.87660217 C57.32353438 500.89760368 50.02310625 500.90800454 42.72265625 500.91796875 C40.20237912 500.9220185 37.68210209 500.92613549 35.16182518 500.93031883 C24.66939406 500.94718522 14.17696406 500.96181694 3.68452168 500.96906757 C0.96570649 500.97097708 -1.75310868 500.97289747 -4.47192383 500.97485352 C-5.14756989 500.97533726 -5.82321596 500.975821 -6.51933614 500.9763194 C-17.43709555 500.98459993 -28.35474469 501.00990459 -39.27245607 501.04243419 C-50.514137 501.07565227 -61.75576433 501.09319807 -72.99750072 501.09671181 C-79.29594563 501.09905165 -85.59421629 501.10787174 -91.89261436 501.13317299 C-97.82952513 501.15663641 -103.76614918 501.16061417 -109.70309448 501.15041161 C-111.86682406 501.14992046 -114.03056864 501.15611433 -116.19425392 501.16996765 C-146.9279775 501.35552675 -176.10585126 493.94648566 -199.203125 472.6796875 C-199.7197168 472.20547363 -200.23630859 471.73125977 -200.76855469 471.24267578 C-216.87463457 456.28839568 -228.06942524 438.73789076 -234.140625 417.4921875 C-234.32794189 416.8415332 -234.51525879 416.19087891 -234.70825195 415.52050781 C-238.61943828 400.47551432 -238.47723752 385.09612114 -238.3984375 369.6796875 C-238.39469822 367.50537243 -238.39185558 365.33105565 -238.38986206 363.15673828 C-238.38229757 357.48843573 -238.36271246 351.82023889 -238.3404541 346.15197754 C-238.31983919 340.34612456 -238.31082719 334.54025418 -238.30078125 328.734375 C-238.27945843 317.38276655 -238.2454114 306.03123589 -238.203125 294.6796875 C-238.89033127 294.54863617 -239.57753754 294.41758484 -240.28556824 294.28256226 C-241.63730888 294.01966904 -241.63730888 294.01966904 -243.01635742 293.75146484 C-243.90981369 293.57916351 -244.80326996 293.40686218 -245.72380066 293.2293396 C-255.89988449 290.97335971 -262.94707972 284.66688487 -268.625 276.2734375 C-274.27799972 266.98236866 -275.72415449 255.98932064 -273.51953125 245.39453125 C-270.33470156 234.09565415 -265.02624472 225.14140493 -254.67578125 219.23828125 C-249.37345678 216.50536511 -244.86239281 214.66265089 -238.875 214.36328125 C-237.67617187 214.30043945 -237.67617187 214.30043945 -236.453125 214.23632812 C-235.628125 214.19701172 -234.803125 214.15769531 -233.953125 214.1171875 C-233.11265625 214.07400391 -232.2721875 214.03082031 -231.40625 213.98632812 C-229.33871829 213.88060207 -227.27094219 213.77967455 -225.203125 213.6796875 C-225.52474609 213.23278564 -225.84636719 212.78588379 -226.17773438 212.32543945 C-253.00686584 174.94740733 -253.00686584 174.94740733 -249.7421875 151.34765625 C-247.70429016 140.47487457 -243.3926108 131.77007701 -237.203125 122.6796875 C-238.93042237 121.46041877 -240.65775807 120.24120432 -242.38525391 119.0222168 C-243.90508982 117.94905273 -245.42428272 116.8749775 -246.94287109 115.80004883 C-250.90457964 112.99767589 -254.87485938 110.20999271 -258.87109375 107.45703125 C-259.61883057 106.93850586 -260.36656738 106.41998047 -261.13696289 105.88574219 C-262.5553417 104.90275431 -263.97748525 103.92516738 -265.40405273 102.95410156 C-273.53768801 97.29470838 -279.81712328 91.5766532 -282.203125 81.6796875 C-283.3328144 72.86345163 -282.11034916 64.83326671 -276.66015625 57.64453125 C-269.14606409 49.54581865 -260.90490611 47.91952799 -250.203125 46.6796875 C-250.24953125 45.90625 -250.2959375 45.1328125 -250.34375 44.3359375 C-250.63286429 35.99292515 -249.75769542 30.94362989 -244.40234375 24.51953125 C-238.12710394 17.8056339 -232.10028293 15.2613395 -222.96875 14.6875 C-213.8315329 14.66168865 -207.19938403 18.22746556 -200.4453125 24.24609375 C-199.203125 25.6796875 -199.203125 25.6796875 -199.203125 27.6796875 C-198.09904297 26.95652344 -198.09904297 26.95652344 -196.97265625 26.21875 C-195.99683594 25.58710937 -195.02101563 24.95546875 -194.015625 24.3046875 C-193.05269531 23.67820312 -192.08976562 23.05171875 -191.09765625 22.40625 C-183.44338831 17.84054631 -175.27393661 17.25655955 -166.5703125 19.296875 C-158.96423993 22.29160044 -153.09690243 28.02291712 -149.703125 35.4296875 C-145.41060116 48.8033134 -150.19647559 61.90223889 -153.703125 74.9296875 C-154.23441645 76.94626109 -154.76437597 78.96318609 -155.29296875 80.98046875 C-156.58102304 85.88439746 -157.88704529 90.78320913 -159.203125 95.6796875 C-158.52403076 95.80770248 -157.84493652 95.93571747 -157.14526367 96.06761169 C-156.2504126 96.24051224 -155.35556152 96.41341278 -154.43359375 96.59155273 C-153.10557739 96.84545021 -153.10557739 96.84545021 -151.75073242 97.10447693 C-139.92023148 99.77562208 -129.14692732 107.91427661 -122.203125 117.6796875 C-120.32738071 117.22440976 -118.45256254 116.7653157 -116.578125 116.3046875 C-115.53398437 116.04945312 -114.48984375 115.79421875 -113.4140625 115.53125 C-110.29209686 114.70328344 -107.25530768 113.73374458 -104.203125 112.6796875 C-104.67210205 112.1856543 -105.1410791 111.69162109 -105.62426758 111.18261719 C-107.75686703 108.93366534 -109.88627126 106.68171252 -112.015625 104.4296875 C-112.75361328 103.65238281 -113.49160156 102.87507813 -114.25195312 102.07421875 C-114.96416016 101.32011719 -115.67636719 100.56601563 -116.41015625 99.7890625 C-117.0647583 99.09780273 -117.71936035 98.40654297 -118.39379883 97.69433594 C-123.08610952 92.46954201 -123.08610952 92.46954201 -123.703125 88.3046875 C-123.05245818 83.58735307 -121.77550402 81.80551914 -118.203125 78.6796875 C-114.42378831 77.31577365 -111.55793479 77.04668393 -107.87890625 78.765625 C-104.34050656 81.29674303 -101.41638883 84.25372037 -98.390625 87.3671875 C-97.79314453 87.97369141 -97.19566406 88.58019531 -96.58007812 89.20507812 C-95.11648315 90.69209062 -93.65916398 92.18527561 -92.203125 93.6796875 C-92.17734375 92.43832031 -92.1515625 91.19695312 -92.125 89.91796875 C-92.06870418 88.27600722 -92.01135717 86.6340815 -91.953125 84.9921875 C-91.93894531 84.17556641 -91.92476562 83.35894531 -91.91015625 82.51757812 C-91.70090809 77.34914861 -91.12019539 74.41268503 -87.203125 70.6796875 C-84.05401021 69.10513011 -81.68303684 69.33169632 -78.203125 69.6796875 C-75.22639916 71.45249311 -72.77508493 73.53576765 -71.203125 76.6796875 C-70.97038291 79.55879338 -70.78339743 82.42115245 -70.640625 85.3046875 C-70.59744141 86.10648437 -70.55425781 86.90828125 -70.50976562 87.734375 C-70.40361043 89.7159386 -70.30285645 91.69779021 -70.203125 93.6796875 C-66.21081777 90.66129949 -62.75177379 87.82346051 -61.47668457 82.84121704 C-61.24995478 79.50004856 -61.25187762 76.23437291 -61.34375 72.88671875 C-61.34166534 71.05218391 -61.34166534 71.05218391 -61.33953857 69.18058777 C-61.33984904 65.28321994 -61.39283562 61.38905198 -61.453125 57.4921875 C-61.49227477 53.61370202 -61.51948304 49.73603084 -61.52386475 45.85734558 C-61.52864178 43.45071967 -61.55383814 41.04401029 -61.60357666 38.63789368 C-61.67522788 25.5545103 -58.15637485 14.36576563 -49.203125 4.6796875 C-35.56100443 -7.31338553 -15.57627022 -9.33471513 0 0 Z " fill="#0F0F0F" transform="translate(282.203125,8.3203125)"/>
<path d="M0 0 C132.99 0 265.98 0 403 0 C403 7.26 403 14.52 403 22 C400.69 22.99 398.38 23.98 396 25 C393.54319894 28.68520159 393.74361369 30.51358217 393.72875977 34.91137695 C393.72353302 35.61109116 393.71830627 36.31080536 393.71292114 37.03172302 C393.70267914 38.55238414 393.69690038 40.07308033 393.69503975 41.5937748 C393.69136816 44.01337978 393.67461339 46.43257768 393.65428162 48.85209656 C393.59899214 55.73213043 393.56841794 62.61222746 393.54370117 69.49243164 C393.5276612 73.70411892 393.49725872 77.91552546 393.45893669 82.12706566 C393.44741274 83.72033856 393.44135746 85.31366212 393.44125557 86.9069767 C393.43901755 112.62445312 385.4155504 136.69530515 368 156 C367.30132812 156.78117188 366.60265625 157.56234375 365.8828125 158.3671875 C350.3216959 174.84031093 326.21802015 186.48124919 303.47051811 187.19268417 C297.80544598 187.30029653 292.14024813 187.29364017 286.47436523 187.29052734 C284.29507722 187.29651887 282.11579132 187.30332585 279.93650818 187.31088257 C274.03943339 187.32848871 268.14241671 187.33323575 262.24531817 187.33451414 C258.55303077 187.33593965 254.86075796 187.34021686 251.1684742 187.34550858 C238.26424351 187.36399287 225.36005403 187.37218142 212.45581055 187.37060547 C200.4651586 187.36940535 188.47472069 187.39048642 176.48410267 187.4220928 C166.15926031 187.44832938 155.83447658 187.45896964 145.50960118 187.45769465 C139.35660613 187.45718708 133.20377142 187.46275626 127.05080986 187.48405075 C121.25665151 187.50355715 115.46280438 187.50347342 109.66863441 187.48901749 C107.55566828 187.48694342 105.44268203 187.49154538 103.32975006 187.5037384 C73.63262857 187.66385515 49.7779366 179.86736085 28 159 C27.36320312 158.41476562 26.72640625 157.82953125 26.0703125 157.2265625 C9.86441236 141.88497703 2.86272198 120.47041483 0 99 C0 66.33 0 33.66 0 0 Z " fill="#BD512F" transform="translate(64,302)"/>
<path d="M0 0 C11.23893728 6.55030087 18.40036509 15.04484528 22.546875 27.484375 C22.77323471 30.58455198 22.73202963 33.68926636 22.734375 36.796875 C22.74662109 37.63927734 22.75886719 38.48167969 22.77148438 39.34960938 C22.78279118 44.17007887 22.31222995 47.93519108 20.546875 52.484375 C20.04029441 56.6093884 19.85426704 58.58398465 22.421875 61.921875 C24.16464607 63.45175074 25.98977416 64.8098161 27.859375 66.18359375 C35.95935742 72.2709281 41.99364085 79.48619642 44.546875 89.484375 C45.94603509 103.54185568 44.93127978 114.25079339 35.921875 125.421875 C35.14585937 126.31777344 34.36984375 127.21367187 33.5703125 128.13671875 C31.06995159 131.03771664 29.64730358 132.84414282 29.046875 136.671875 C29.63910458 141.18762557 31.07160953 142.99734954 33.8828125 146.44140625 C35.50664142 148.43498026 36.95636031 150.45562438 38.359375 152.609375 C38.75769531 153.21007812 39.15601563 153.81078125 39.56640625 154.4296875 C40.546875 156.484375 40.546875 156.484375 41.546875 162.484375 C9.866875 162.484375 -21.813125 162.484375 -54.453125 162.484375 C-53.463125 159.184375 -52.473125 155.884375 -51.453125 152.484375 C-51.09734375 151.16050781 -50.7415625 149.83664063 -50.375 148.47265625 C-48.61352245 142.94748835 -47.27609521 138.82025529 -42.5 135.3203125 C-39.31515325 133.84013042 -36.15900167 132.56419127 -32.85742188 131.38134766 C-28.04905589 129.58748732 -23.38756078 127.45075039 -18.703125 125.359375 C-17.25583008 124.74678833 -17.25583008 124.74678833 -15.77929688 124.12182617 C-10.4691629 121.81056529 -10.4691629 121.81056529 -6.3046875 117.90625 C-5.08204192 114.4290011 -5.53775234 112.01509812 -6.453125 108.484375 C-8.03198466 106.42499284 -9.14454923 105.63866289 -11.453125 104.484375 C-16.88577421 103.91462892 -20.42749749 105.53967109 -25.140625 107.921875 C-32.28645833 111.42881944 -32.28645833 111.42881944 -35.453125 112.484375 C-33.02927717 103.80885408 -29.84443724 95.50196302 -26.50585938 87.14257812 C-23.535431 79.519778 -23.535431 79.519778 -23.453125 71.484375 C-25.9584548 68.68430052 -27.8808365 67.66321516 -31.453125 66.546875 C-35.18806513 66.46906375 -36.48538399 67.25274558 -39.453125 69.484375 C-41.07990569 72.13794131 -41.07990569 72.13794131 -42.265625 75.359375 C-42.5042627 75.94928223 -42.74290039 76.53918945 -42.98876953 77.14697266 C-43.83122106 79.25177101 -44.64342342 81.3667625 -45.453125 83.484375 C-45.97156982 84.82628906 -45.97156982 84.82628906 -46.50048828 86.1953125 C-48.84924165 92.28001626 -51.16434264 98.37687554 -53.453125 104.484375 C-54.113125 104.484375 -54.773125 104.484375 -55.453125 104.484375 C-56.24976563 102.71320313 -56.24976563 102.71320313 -57.0625 100.90625 C-57.77557481 99.3487445 -58.48914246 97.79146458 -59.203125 96.234375 C-59.55117188 95.45707031 -59.89921875 94.67976563 -60.2578125 93.87890625 C-62.1555097 89.76722897 -63.80249826 86.33596898 -67.453125 83.484375 C-70.81486637 82.23025932 -70.81486637 82.23025932 -74.453125 82.484375 C-78.02849656 84.31106438 -78.02849656 84.31106438 -80.453125 87.484375 C-81.15911059 93.41175949 -79.56885865 97.18914151 -76.91796875 102.2890625 C-76.18385092 103.774545 -75.45013946 105.26022838 -74.71679688 106.74609375 C-73.55653477 109.05582254 -72.3894282 111.36171795 -71.21362305 113.66357422 C-70.07528854 115.90481242 -68.96440422 118.1581668 -67.85546875 120.4140625 C-67.500327 121.08936005 -67.14518524 121.76465759 -66.77928162 122.4604187 C-63.65739397 128.86609982 -64.44749215 133.99123594 -66.37695312 140.69335938 C-66.74240234 141.64533203 -67.10785156 142.59730469 -67.484375 143.578125 C-67.88269531 144.62742188 -68.28101563 145.67671875 -68.69140625 146.7578125 C-69.10777344 147.82257813 -69.52414062 148.88734375 -69.953125 149.984375 C-70.57767578 151.62792969 -70.57767578 151.62792969 -71.21484375 153.3046875 C-74.28706615 161.31831615 -74.28706615 161.31831615 -75.453125 162.484375 C-78.2647588 162.57299492 -81.05170755 162.59959855 -83.86328125 162.58203125 C-84.70531601 162.5806163 -85.54735077 162.57920135 -86.41490173 162.57774353 C-89.11517835 162.57212763 -91.81537328 162.55957248 -94.515625 162.546875 C-96.34179568 162.54186205 -98.16796766 162.53729879 -99.99414062 162.53320312 C-104.48050042 162.52215304 -108.96679884 162.50487779 -113.453125 162.484375 C-113.66353942 145.78595028 -113.82215683 129.08795672 -113.91943455 112.38852596 C-113.96580695 104.63429845 -114.02900492 96.88089546 -114.13208008 89.12719727 C-114.22189779 82.36754107 -114.27987465 75.60848203 -114.29992145 68.84824568 C-114.31163753 65.26966473 -114.33908549 61.69279179 -114.40469551 58.11475945 C-114.47742243 54.11602533 -114.47902761 50.12024314 -114.47485352 46.12084961 C-114.507211 44.93977127 -114.53956848 43.75869293 -114.57290649 42.54182434 C-114.48398007 34.67091304 -114.48398007 34.67091304 -111.48628044 31.22049141 C-109.21655777 29.4298781 -106.95560735 27.92608753 -104.453125 26.484375 C-103.463125 25.824375 -102.473125 25.164375 -101.453125 24.484375 C-100.463125 24.484375 -99.473125 24.484375 -98.453125 24.484375 C-97.88005615 25.30019043 -97.3069873 26.11600586 -96.71655273 26.95654297 C-94.63747103 29.80789765 -94.63747103 29.80789765 -91.14086914 30.03955078 C-89.85301514 30.0032959 -88.56516113 29.96704102 -87.23828125 29.9296875 C-86.54552597 29.91227509 -85.85277069 29.89486267 -85.13902283 29.87692261 C-83.67697224 29.83348385 -82.21525367 29.77721962 -80.75415039 29.70898438 C-78.52633049 29.60985137 -76.30183636 29.56382738 -74.07226562 29.5234375 C-72.64832452 29.4745402 -71.22448534 29.42255785 -69.80078125 29.3671875 C-68.51179932 29.31965332 -67.22281738 29.27211914 -65.89477539 29.22314453 C-61.66377172 28.3149359 -60.15759526 26.79215976 -57.453125 23.484375 C-56.18834482 21.19084831 -56.18834482 21.19084831 -55.265625 18.796875 C-50.10363569 8.04005876 -41.23851639 1.93314375 -30.453125 -2.515625 C-20.91934547 -5.69355151 -8.871385 -4.36217273 0 0 Z " fill="#7FD249" transform="translate(413.453125,60.515625)"/>
<path d="M0 0 C4.03333109 2.92112885 7.23472219 5.85208329 10 10 C9.07380859 10.65742188 9.07380859 10.65742188 8.12890625 11.328125 C-7.74746189 23.2172774 -16.05507212 40.47219846 -19.6875 59.625 C-20.66136061 68.59911905 -20.66136061 68.59911905 -18 77 C-14.3082153 79.4611898 -11.2855753 79.67530277 -7 79 C-3.70766491 76.92063047 -3.08553518 75.2613575 -1.875 71.5625 C-1.32956154 69.04975359 -0.94343114 66.56287701 -0.61328125 64.01171875 C1.46681853 48.0770094 8.05478059 35.10583661 20.875 25.0625 C34.93697793 15.22621746 51.25779056 10.82619856 68.3125 10.8125 C69.10333984 10.80025391 69.89417969 10.78800781 70.70898438 10.77539062 C76.92594553 10.76023962 81.66832205 11.73366441 88 13 C88 40.06 88 67.12 88 95 C53.46477779 95.48363641 53.46477779 95.48363641 38.98046875 95.5859375 C28.98313442 95.65711504 18.98701462 95.74073398 8.99072266 95.90527344 C1.709902 96.02505875 -5.56993263 96.10233832 -12.85171127 96.12906194 C-16.70635839 96.14468034 -20.55818546 96.18124259 -24.41192627 96.26876068 C-28.04410665 96.35057445 -31.67232361 96.37527731 -35.30533791 96.35729218 C-37.26524752 96.36213951 -39.22473001 96.42655166 -41.18351746 96.49304199 C-44.82889178 96.44210536 -47.57715755 96.26735884 -51 95 C-54.48080686 91.38043269 -56.69866542 87.43255825 -59 83 C-59.89023183 81.66685934 -60.80280317 80.34797591 -61.75 79.0546875 C-62.4925 78.00539063 -63.235 76.95609375 -64 75.875 C-64.763125 74.79992187 -65.52625 73.72484375 -66.3125 72.6171875 C-68 70 -68 70 -68 68 C-67.34926514 67.75354736 -66.69853027 67.50709473 -66.02807617 67.25317383 C-63.07433403 66.12340635 -60.13113254 64.96833829 -57.1875 63.8125 C-55.65125977 63.23145508 -55.65125977 63.23145508 -54.08398438 62.63867188 C-53.10107422 62.24873047 -52.11816406 61.85878906 -51.10546875 61.45703125 C-50.19949951 61.10616455 -49.29353027 60.75529785 -48.36010742 60.39379883 C-45.44554131 58.67255564 -44.44297428 57.03085828 -43 54 C-42.41654524 50.95746492 -42.41654524 50.95746492 -43 48 C-45.70965827 44.65808814 -47.65013809 43.14303173 -51.94921875 42.6875 C-57.26495882 42.76463953 -61.9602045 45.01755767 -66.8125 47 C-68.69293835 47.75268391 -70.57439991 48.50281818 -72.45703125 49.25 C-73.28178955 49.58515625 -74.10654785 49.9203125 -74.95629883 50.265625 C-77 51 -77 51 -79 51 C-81.66440268 43.00679196 -80.92382349 32.84021512 -77.31640625 25.2734375 C-69.433033 11.65882851 -57.68119039 7.09267238 -43.46899414 1.99316406 C-41.06308889 1.12521245 -38.66962056 0.22770674 -36.27539062 -0.671875 C-22.97887839 -5.55789452 -12.93527539 -7.21424955 0 0 Z " fill="#EE3939" transform="translate(133,128)"/>
<path d="M0 0 C5.50732926 2.64885386 8.68835246 7.12670492 11.375 12.5 C11.47053197 15.01906893 11.50515437 17.51033724 11.49525452 20.02957153 C11.49610894 20.81532244 11.49696337 21.60107334 11.49784368 22.41063488 C11.49949789 25.05779631 11.49397806 27.70489513 11.48852539 30.35205078 C11.48824348 32.24394733 11.48840133 34.13584399 11.4889679 36.02774048 C11.48925572 41.1762277 11.4833614 46.32469179 11.47639394 51.47317362 C11.47015791 56.84904775 11.4695564 62.22492237 11.46836853 67.60079956 C11.46525595 77.78637029 11.45704355 87.97193032 11.44701904 98.15749633 C11.43585563 109.75103291 11.43034688 121.34456998 11.42532361 132.93811059 C11.41486088 156.79207966 11.39726285 180.64603923 11.375 204.5 C10.03661324 204.07612 10.03661324 204.07612 8.67118835 203.64367676 C7.50054337 203.27722046 6.32989838 202.91076416 5.1237793 202.53320312 C3.38320503 201.98557312 3.38320503 201.98557312 1.60746765 201.42687988 C-7.12010265 198.92433068 -15.53914372 199.71734005 -23.734375 203.625 C-25.625 204.5 -25.625 204.5 -27.625 204.5 C-27.71846491 179.86528035 -27.78898986 155.23058729 -27.83224869 130.59572601 C-27.8528689 119.15718151 -27.88097928 107.71874721 -27.92675781 96.28027344 C-27.96664199 86.30983802 -27.99243675 76.33948242 -28.00135398 66.36896944 C-28.00656601 61.09023437 -28.01880516 55.81172764 -28.04792023 50.5330658 C-28.07511416 45.56233756 -28.08343689 40.59193127 -28.07743073 35.62113571 C-28.07852918 33.79906336 -28.0864593 31.97698 -28.1018219 30.15497208 C-28.12181244 27.66131317 -28.11690674 25.16885945 -28.10601807 22.6751709 C-28.11766943 21.95919345 -28.1293208 21.24321601 -28.14132524 20.50554228 C-28.06788524 14.25560823 -25.94532995 9.13581341 -21.84375 4.4765625 C-21.2765625 4.03054687 -20.709375 3.58453125 -20.125 3.125 C-19.5578125 2.66351562 -18.990625 2.20203125 -18.40625 1.7265625 C-12.38975932 -2.41637187 -6.73503063 -2.56680762 0 0 Z " fill="#F1B482" transform="translate(268.625,24.5)"/>
<path d="M0 0 C0.73351915 -0.00085442 1.46703829 -0.00170885 2.22278529 -0.00258917 C4.68718851 -0.00423976 7.15152405 0.00127055 9.61592102 0.00672913 C11.37988788 0.00701111 13.14385486 0.00685304 14.90782166 0.00628662 C19.70295586 0.0059991 24.49806517 0.01188853 29.29319358 0.01886058 C34.30203867 0.02510164 39.31088429 0.02569851 44.31973267 0.02688599 C53.80757592 0.02999707 63.29540768 0.03820748 72.78324586 0.04823548 C83.58359206 0.0594035 94.3839388 0.0649088 105.18428934 0.06993091 C127.40410072 0.08039027 149.62390175 0.09798542 171.84370422 0.12025452 C171.865578 1.30615173 171.865578 1.30615173 171.88789368 2.51600647 C171.96312126 6.15537333 172.05953281 9.79389658 172.15620422 13.43275452 C172.17876282 14.6760553 172.20132141 15.91935608 172.2245636 17.20033264 C172.44756916 24.92443444 173.38951565 31.78233494 175.84370422 39.12025452 C151.82636311 39.21367699 127.80904922 39.28422355 103.79156303 39.3275032 C92.63993635 39.34813242 81.48842253 39.37626 70.33686829 39.42201233 C60.61768873 39.46186895 50.89859091 39.48768471 41.1793319 39.4966085 C36.03256178 39.50182521 30.8860255 39.51409403 25.73933029 39.54317474 C20.89500554 39.57032518 16.05101097 39.57870022 11.20661736 39.57268524 C9.42885608 39.57378564 7.65108377 39.58174174 5.87338829 39.59707642 C3.4447028 39.61699892 1.01726144 39.61218606 -1.41145325 39.60127258 C-2.11380163 39.61292395 -2.81615002 39.62457531 -3.53978169 39.63657975 C-9.27305797 39.5670144 -12.7955765 37.46415156 -16.80082703 33.48744202 C-21.98250011 26.86737808 -21.96012737 21.45087285 -21.15629578 13.12025452 C-19.12050907 7.3638921 -15.49916101 4.02398562 -10.15629578 1.12025452 C-6.59203446 -0.06783259 -3.76432887 -0.00263424 0 0 Z " fill="#F0B382" transform="translate(50.15629577636719,242.87974548339844)"/>
<path d="M0 0 C23.07011237 -0.09347737 46.14019346 -0.16399595 69.21045685 -0.20724869 C79.92259556 -0.22786626 90.63461654 -0.25597158 101.34667969 -0.30175781 C110.68426261 -0.34165009 120.02176025 -0.36743866 129.35942602 -0.37635398 C134.30281984 -0.38156465 139.24596971 -0.39379503 144.18928528 -0.42292023 C148.84484133 -0.45012703 153.5000536 -0.45843434 158.15568161 -0.45243073 C159.86165105 -0.45352861 161.56763232 -0.46145112 163.27353287 -0.4768219 C180.99806671 -0.62865468 180.99806671 -0.62865468 188.09375 5.9375 C192.34185413 12.16805272 193.17625862 17.55712216 192 25 C190.22920094 30.96169016 187.02133788 34.47437978 182 38 C178.48949134 39.17016955 175.34279435 39.13537545 171.69184875 39.12025452 C170.9419954 39.12110894 170.19214204 39.12196337 169.41956586 39.12284368 C166.89988505 39.12449449 164.38027041 39.11898362 161.8605957 39.11352539 C160.05722047 39.11324341 158.25384513 39.11340147 156.45046997 39.1139679 C151.5479014 39.11425543 146.64535718 39.10836572 141.74279428 39.10139394 C136.62184029 39.09515317 131.50088579 39.09455603 126.37992859 39.09336853 C116.67958966 39.09025736 106.97926196 39.08204683 97.27892798 39.07201904 C86.23674838 39.06085128 75.19456824 39.05534578 64.1523844 39.05032361 C41.4349167 39.03986406 18.71745898 39.02226873 -4 39 C-3.86722656 38.40832031 -3.73445313 37.81664062 -3.59765625 37.20703125 C-3.42105469 36.41683594 -3.24445313 35.62664062 -3.0625 34.8125 C-2.88847656 34.03519531 -2.71445312 33.25789063 -2.53515625 32.45703125 C-2.35855469 31.64621094 -2.18195313 30.83539063 -2 30 C-1.81961182 29.19860596 -1.63922363 28.39721191 -1.45336914 27.5715332 C-0.94852948 24.70805653 -0.78789753 21.94857414 -0.68359375 19.04296875 C-0.62075195 17.37524414 -0.62075195 17.37524414 -0.55664062 15.67382812 C-0.51732422 14.52333984 -0.47800781 13.37285156 -0.4375 12.1875 C-0.39431641 11.01767578 -0.35113281 9.84785156 -0.30664062 8.64257812 C-0.20081721 5.76182969 -0.09873175 2.88099877 0 0 Z " fill="#F0B382" transform="translate(300,243)"/>
<path d="M0 0 C4.03333109 2.92112885 7.23472219 5.85208329 10 10 C9.07380859 10.65742188 9.07380859 10.65742188 8.12890625 11.328125 C-7.74746189 23.2172774 -16.05507212 40.47219846 -19.6875 59.625 C-20.66136061 68.59911905 -20.66136061 68.59911905 -18 77 C-14.88214887 79.35355339 -14.88214887 79.35355339 -10 80 C-9.01 87.425 -9.01 87.425 -8 95 C-13.97693475 95.29793003 -19.94950826 95.51492746 -25.93212891 95.65917969 C-27.96381931 95.71932523 -29.99499446 95.80107478 -32.02490234 95.90527344 C-48.89034195 96.74895899 -48.89034195 96.74895899 -53.984375 92.52587891 C-56.0396468 89.43283006 -57.54172723 86.409089 -59 83 C-59.87580623 81.65733839 -60.78658719 80.33594177 -61.75 79.0546875 C-62.4925 78.00539063 -63.235 76.95609375 -64 75.875 C-64.763125 74.79992187 -65.52625 73.72484375 -66.3125 72.6171875 C-68 70 -68 70 -68 68 C-67.34926514 67.75354736 -66.69853027 67.50709473 -66.02807617 67.25317383 C-63.07433403 66.12340635 -60.13113254 64.96833829 -57.1875 63.8125 C-55.65125977 63.23145508 -55.65125977 63.23145508 -54.08398438 62.63867188 C-53.10107422 62.24873047 -52.11816406 61.85878906 -51.10546875 61.45703125 C-50.19949951 61.10616455 -49.29353027 60.75529785 -48.36010742 60.39379883 C-45.44554131 58.67255564 -44.44297428 57.03085828 -43 54 C-42.41654524 50.95746492 -42.41654524 50.95746492 -43 48 C-45.70965827 44.65808814 -47.65013809 43.14303173 -51.94921875 42.6875 C-57.26495882 42.76463953 -61.9602045 45.01755767 -66.8125 47 C-68.69293835 47.75268391 -70.57439991 48.50281818 -72.45703125 49.25 C-73.28178955 49.58515625 -74.10654785 49.9203125 -74.95629883 50.265625 C-77 51 -77 51 -79 51 C-81.66440268 43.00679196 -80.92382349 32.84021512 -77.31640625 25.2734375 C-69.433033 11.65882851 -57.68119039 7.09267238 -43.46899414 1.99316406 C-41.06308889 1.12521245 -38.66962056 0.22770674 -36.27539062 -0.671875 C-22.97887839 -5.55789452 -12.93527539 -7.21424955 0 0 Z " fill="#F28D41" transform="translate(133,128)"/>
<path d="M0 0 C3.46184248 1.27937657 4.55641632 2.16645774 6.875 5.0625 C8.41935574 8.46691472 9.64375595 11.97219721 10.875 15.5 C13.61953901 24.00902825 13.61953901 24.00902825 18.875 31.0625 C20.84756888 31.7675014 20.84756888 31.7675014 22.875 31.5625 C23.535 31.5521875 24.195 31.541875 24.875 31.53125 C27.69916354 30.86933667 28.8577915 30.20371722 30.875 28.0625 C31.99598823 25.17321377 32.67971303 22.20360694 33.375 19.1875 C34.67928702 13.58356337 35.69633816 9.29090781 39.875 5.0625 C42.76361709 3.61819145 44.67147701 3.68561494 47.875 4.0625 C50.8125 5.9375 50.8125 5.9375 52.875 9.0625 C53.90503342 16.6417011 50.29460715 25.0985664 48.20703125 32.3125 C46.70891373 37.54463517 45.47433815 42.82612514 44.30737305 48.14086914 C44.01360058 49.4467961 43.69531409 50.74744546 43.35302734 52.04150391 C42.81935838 54.08708184 42.81935838 54.08708184 42.66650391 56.32958984 C42.19116606 59.19547344 41.64749216 60.73300737 39.875 63.0625 C34.66623113 65.97723732 29.16355912 67.73731099 23.5 69.5625 C21.96505521 70.08797076 20.43118386 70.61658825 18.8984375 71.1484375 C3.06853049 76.57475225 3.06853049 76.57475225 0.01660156 75.26489258 C-0.5612207 74.83329834 -1.13904297 74.4017041 -1.734375 73.95703125 C-2.39832275 73.47379395 -3.06227051 72.99055664 -3.74633789 72.49267578 C-4.44879639 71.95884277 -5.15125488 71.42500977 -5.875 70.875 C-7.38897993 69.76385543 -8.90331336 68.65319239 -10.41796875 67.54296875 C-11.58078369 66.67937744 -11.58078369 66.67937744 -12.76708984 65.79833984 C-16.52813319 63.02954525 -20.36008297 60.3633615 -24.1875 57.6875 C-28.34011986 54.77661428 -32.47084935 51.8374345 -36.55859375 48.8359375 C-37.21786865 48.35302246 -37.87714355 47.87010742 -38.55639648 47.37255859 C-40.85460509 45.453152 -41.10284824 44.22863819 -41.5 41.25 C-41.125 38.0625 -41.125 38.0625 -39 35.1875 C-35.56647214 32.64967506 -34.29921806 32.61433177 -30.125 33.0625 C-27.59765625 34.453125 -27.59765625 34.453125 -25.1875 36.3125 C-24.32640625 36.94800781 -23.4653125 37.58351562 -22.578125 38.23828125 C-21.76859375 38.84027344 -20.9590625 39.44226563 -20.125 40.0625 C-14.5855414 43.90688427 -10.44083235 44.63037268 -3.75 43.75 C-3.21375 43.523125 -2.6775 43.29625 -2.125 43.0625 C0.61962784 34.82861647 -1.87380011 28.01213218 -5.125 20.3125 C-5.88263328 18.48752525 -6.63291764 16.65947826 -7.375 14.828125 C-7.71015625 14.03180664 -8.0453125 13.23548828 -8.390625 12.41503906 C-9.2162279 9.77025531 -9.44111829 7.81611609 -9.125 5.0625 C-6.15115483 1.80543148 -4.49720364 0.08994407 0 0 Z " fill="#7ED049" transform="translate(61.125,42.9375)"/>
<path d="M0 0 C4.19092741 2.7991065 6.88870143 6.95709037 9.1171875 11.4140625 C9.89056356 18.23498579 9.20218844 23.79250157 5.1171875 29.4140625 C0.55212939 34.20558563 -3.54104441 35.59896479 -10.0703125 35.8515625 C-15.79898206 35.80690695 -19.06220776 34.97063618 -23.29296875 31.09765625 C-23.81761719 30.54207031 -24.34226563 29.98648438 -24.8828125 29.4140625 C-25.7078125 28.5684375 -26.5328125 27.7228125 -27.3828125 26.8515625 C-29.74178869 21.44557541 -29.60797144 16.21533405 -28.8828125 10.4140625 C-26.29311952 4.83626223 -21.97055476 1.57548208 -17.0078125 -1.8984375 C-10.9382316 -3.86212544 -5.58973534 -2.68848862 0 0 Z " fill="#F0E593" transform="translate(270.8828125,245.5859375)"/>
<path d="M0 0 C1.30124062 -0.00006042 1.30124062 -0.00006042 2.62876892 -0.00012207 C4.45514202 0.00521937 6.28151559 0.02274315 8.10766602 0.05175781 C10.89736376 0.09367517 13.68464916 0.09281719 16.47460938 0.0859375 C18.25392296 0.09642908 20.03322416 0.10936701 21.8125 0.125 C22.64282242 0.12520142 23.47314484 0.12540283 24.32862854 0.12561035 C28.9670922 0.22010261 32.08796966 0.57482703 35.83984375 3.59375 C37.95949056 6.77322021 38.13211156 7.42052473 37.83984375 11.03125 C37.79859375 11.79308594 37.75734375 12.55492187 37.71484375 13.33984375 C36.3349967 16.89418192 34.15381061 17.80789008 30.83984375 19.59375 C27.79185086 20.16486194 24.80979892 20.17875937 21.71484375 20.16015625 C20.84972168 20.16635483 19.98459961 20.17255341 19.09326172 20.17893982 C17.27117025 20.18601756 15.44901384 20.18289981 13.62695312 20.17016602 C10.84774283 20.15628944 8.07189567 20.19041109 5.29296875 20.22851562 C3.51692626 20.22946685 1.74087959 20.22760783 -0.03515625 20.22265625 C-1.27289795 20.24254356 -1.27289795 20.24254356 -2.53564453 20.26283264 C-6.70190933 20.19597535 -9.37193526 19.84869472 -12.68066406 17.19702148 C-15.20691901 14.54465279 -15.98581458 13.6749109 -15.91015625 10.09375 C-15.925625 9.3615625 -15.94109375 8.629375 -15.95703125 7.875 C-13.34836702 0.40705925 -6.81899962 -0.1349747 0 0 Z " fill="#0F0E0F" transform="translate(142.16015625,427.40625)"/>
<path d="M0 0 C1.30124062 -0.00006042 1.30124062 -0.00006042 2.62876892 -0.00012207 C4.45514202 0.00521937 6.28151559 0.02274315 8.10766602 0.05175781 C10.89736376 0.09367517 13.68464916 0.09281719 16.47460938 0.0859375 C18.25392296 0.09642908 20.03322416 0.10936701 21.8125 0.125 C22.64282242 0.12520142 23.47314484 0.12540283 24.32862854 0.12561035 C28.9670922 0.22010261 32.08796966 0.57482703 35.83984375 3.59375 C38.20070497 7.13504184 38.41253953 8.42125218 37.83984375 12.59375 C36.01778832 15.51987619 33.9701188 18.02861248 30.83984375 19.59375 C25.20537556 19.87945153 19.56973786 19.90757411 13.92871094 19.94384766 C12.04316854 19.9603875 10.15768834 19.98765159 8.27246094 20.02587891 C5.54980032 20.08079051 2.82860938 20.10254426 0.10546875 20.1171875 C-0.7322406 20.13985687 -1.56994995 20.16252625 -2.43304443 20.18588257 C-6.64230317 20.17077208 -9.34269744 19.8861463 -12.68945312 17.20361328 C-15.20424189 14.54718128 -15.98572259 13.67055695 -15.91015625 10.09375 C-15.925625 9.3615625 -15.94109375 8.629375 -15.95703125 7.875 C-13.34836702 0.40705925 -6.81899962 -0.1349747 0 0 Z " fill="#0F0E0F" transform="translate(142.16015625,379.40625)"/>
<path d="M0 0 C1.26438904 -0.00361794 1.26438904 -0.00361794 2.55432129 -0.00730896 C4.32939375 -0.00633322 6.10449768 0.00699523 7.87939453 0.03198242 C10.58601957 0.06630821 13.28937868 0.0526246 15.99609375 0.03320312 C17.7265763 0.04010207 19.45705048 0.04977489 21.1875 0.0625 C21.99078735 0.05754013 22.79407471 0.05258026 23.6217041 0.04747009 C28.87714068 0.15683664 31.92260334 1.15064785 36.09375 4.62890625 C37.62589888 7.69320401 37.32313548 10.24547045 37.09375 13.62890625 C34.89375 18.22890625 34.89375 18.22890625 32.09375 19.62890625 C30.76266009 19.74262952 29.42630609 19.79813578 28.09057617 19.82177734 C26.85370308 19.84587173 26.85370308 19.84587173 25.59184265 19.87045288 C21.81896801 19.91493153 18.04626891 19.95596888 14.27319336 19.97900391 C12.28381653 19.99556176 10.29449915 20.02284953 8.30541992 20.06103516 C5.43637245 20.11582889 2.56871913 20.13768142 -0.30078125 20.15234375 C-1.18739944 20.17501312 -2.07401764 20.1976825 -2.98750305 20.22103882 C-7.48140497 20.20568247 -9.31222379 20.09340438 -12.96289062 17.23876953 C-14.94823302 14.57252453 -15.61103407 13.40135598 -15.59375 10.12890625 C-15.61824219 9.39671875 -15.64273438 8.66453125 -15.66796875 7.91015625 C-13.21019782 0.54944743 -6.67857745 -0.11022952 0 0 Z " fill="#100E0F" transform="translate(249.90625,330.37109375)"/>
<path d="M0 0 C1.26438904 -0.00361794 1.26438904 -0.00361794 2.55432129 -0.00730896 C4.32939375 -0.00633322 6.10449768 0.00699523 7.87939453 0.03198242 C10.58601957 0.06630821 13.28937868 0.0526246 15.99609375 0.03320312 C17.7265763 0.04010207 19.45705048 0.04977489 21.1875 0.0625 C21.99078735 0.05754013 22.79407471 0.05258026 23.6217041 0.04747009 C28.87714068 0.15683664 31.92260334 1.15064785 36.09375 4.62890625 C37.62589888 7.69320401 37.32313548 10.24547045 37.09375 13.62890625 C34.89375 18.22890625 34.89375 18.22890625 32.09375 19.62890625 C30.76266009 19.74262952 29.42630609 19.79813578 28.09057617 19.82177734 C26.85370308 19.84587173 26.85370308 19.84587173 25.59184265 19.87045288 C21.81896801 19.91493153 18.04626891 19.95596888 14.27319336 19.97900391 C12.28381653 19.99556176 10.29449915 20.02284953 8.30541992 20.06103516 C5.43637245 20.11582889 2.56871913 20.13768142 -0.30078125 20.15234375 C-1.18739944 20.17501312 -2.07401764 20.1976825 -2.98750305 20.22103882 C-7.48140497 20.20568247 -9.31222379 20.09340438 -12.96289062 17.23876953 C-14.94823302 14.57252453 -15.61103407 13.40135598 -15.59375 10.12890625 C-15.61824219 9.39671875 -15.64273437 8.66453125 -15.66796875 7.91015625 C-13.21019782 0.54944743 -6.67857745 -0.11022952 0 0 Z " fill="#100F0F" transform="translate(357.90625,330.37109375)"/>
<path d="M0 0 C0.85095749 -0.00570007 1.70191498 -0.01140015 2.57865906 -0.01727295 C4.38177241 -0.02672798 6.18490308 -0.03325892 7.98803711 -0.03710938 C10.74038073 -0.04679987 13.49197283 -0.07781175 16.24414062 -0.109375 C17.99608932 -0.11590663 19.74804335 -0.12115647 21.5 -0.125 C22.73149529 -0.1435202 22.73149529 -0.1435202 23.98786926 -0.16241455 C28.63256067 -0.14440473 31.69153493 0.17068615 35.44921875 3.203125 C37.94080915 6.9405106 37.9071516 8.77644083 37.44921875 13.203125 C35.6535947 15.95641521 34.39666953 17.72939961 31.44921875 19.203125 C25.65396752 19.48889046 19.85753899 19.51692261 14.0559082 19.55322266 C12.115031 19.56977944 10.17421469 19.59706588 8.23364258 19.63525391 C5.4340861 19.6900584 2.63595837 19.71190164 -0.1640625 19.7265625 C-1.02880692 19.74923187 -1.89355133 19.77190125 -2.78450012 19.79525757 C-7.23724756 19.77966762 -8.98668076 19.64809643 -12.59814453 16.79931641 C-15.04370818 13.54773803 -15.22823469 12.0458635 -14.984375 8.13671875 C-14.30272732 5.09693854 -12.74845838 3.33616456 -10.55078125 1.203125 C-7.26345757 -0.44053684 -3.61423905 0.01857168 0 0 Z " fill="#0F0E0F" transform="translate(141.55078125,331.796875)"/>
<path d="M0 0 C0.8452977 -0.00004028 1.6905954 -0.00008057 2.56150818 -0.00012207 C4.34080479 0.00521842 6.12010197 0.02273813 7.89916992 0.05175781 C10.61645834 0.09367849 13.33127017 0.09281677 16.04882812 0.0859375 C17.78256923 0.09642906 19.51629763 0.10936699 21.25 0.125 C22.46267296 0.12530212 22.46267296 0.12530212 23.69984436 0.12561035 C28.28822337 0.22154121 31.34060281 0.62180762 35.05859375 3.59375 C37.55018415 7.3311356 37.5165266 9.16706583 37.05859375 13.59375 C35.2629697 16.34704021 34.00604453 18.12002461 31.05859375 19.59375 C25.42412556 19.87945153 19.78848786 19.90757411 14.14746094 19.94384766 C12.26191854 19.9603875 10.37643834 19.98765159 8.49121094 20.02587891 C5.76855032 20.08079051 3.04735938 20.10254426 0.32421875 20.1171875 C-0.5134906 20.13985687 -1.35119995 20.16252625 -2.21429443 20.18588257 C-6.42355317 20.17077208 -9.12394744 19.8861463 -12.47070312 17.20361328 C-14.98549189 14.54718128 -15.76697259 13.67055695 -15.69140625 10.09375 C-15.706875 9.3615625 -15.72234375 8.629375 -15.73828125 7.875 C-13.16436157 0.50652405 -6.74853668 -0.13720324 0 0 Z " fill="#0F0E0F" transform="translate(357.94140625,427.40625)"/>
<path d="M0 0 C0.8452977 -0.00004028 1.6905954 -0.00008057 2.56150818 -0.00012207 C4.34080479 0.00521842 6.12010197 0.02273813 7.89916992 0.05175781 C10.61645834 0.09367849 13.33127017 0.09281677 16.04882812 0.0859375 C17.78256923 0.09642906 19.51629763 0.10936699 21.25 0.125 C22.46267296 0.12530212 22.46267296 0.12530212 23.69984436 0.12561035 C28.28822337 0.22154121 31.34060281 0.62180762 35.05859375 3.59375 C37.55018415 7.3311356 37.5165266 9.16706583 37.05859375 13.59375 C35.2629697 16.34704021 34.00604453 18.12002461 31.05859375 19.59375 C25.42412556 19.87945153 19.78848786 19.90757411 14.14746094 19.94384766 C12.26191854 19.9603875 10.37643834 19.98765159 8.49121094 20.02587891 C5.76855032 20.08079051 3.04735938 20.10254426 0.32421875 20.1171875 C-0.5134906 20.13985687 -1.35119995 20.16252625 -2.21429443 20.18588257 C-6.42355317 20.17077208 -9.12394744 19.8861463 -12.47070312 17.20361328 C-14.98549189 14.54718128 -15.76697259 13.67055695 -15.69140625 10.09375 C-15.706875 9.3615625 -15.72234375 8.629375 -15.73828125 7.875 C-13.16436157 0.50652405 -6.74853668 -0.13720324 0 0 Z " fill="#0E0E0F" transform="translate(249.94140625,427.40625)"/>
<path d="M0 0 C0.8452977 -0.00004028 1.6905954 -0.00008057 2.56150818 -0.00012207 C4.34080479 0.00521842 6.12010197 0.02273813 7.89916992 0.05175781 C10.61645834 0.09367849 13.33127017 0.09281677 16.04882812 0.0859375 C17.78256923 0.09642906 19.51629763 0.10936699 21.25 0.125 C22.46267296 0.12530212 22.46267296 0.12530212 23.69984436 0.12561035 C28.28822337 0.22154121 31.34060281 0.62180762 35.05859375 3.59375 C37.55018415 7.3311356 37.5165266 9.16706583 37.05859375 13.59375 C35.2629697 16.34704021 34.00604453 18.12002461 31.05859375 19.59375 C25.42412556 19.87945153 19.78848786 19.90757411 14.14746094 19.94384766 C12.26191854 19.9603875 10.37643834 19.98765159 8.49121094 20.02587891 C5.76855032 20.08079051 3.04735938 20.10254426 0.32421875 20.1171875 C-0.5134906 20.13985687 -1.35119995 20.16252625 -2.21429443 20.18588257 C-6.42355317 20.17077208 -9.12394744 19.8861463 -12.47070312 17.20361328 C-14.98549189 14.54718128 -15.76697259 13.67055695 -15.69140625 10.09375 C-15.706875 9.3615625 -15.72234375 8.629375 -15.73828125 7.875 C-13.16436157 0.50652405 -6.74853668 -0.13720324 0 0 Z " fill="#0F0E0F" transform="translate(357.94140625,379.40625)"/>
<path d="M0 0 C0.8452977 -0.00004028 1.6905954 -0.00008057 2.56150818 -0.00012207 C4.34080479 0.00521842 6.12010197 0.02273813 7.89916992 0.05175781 C10.61645834 0.09367849 13.33127017 0.09281677 16.04882812 0.0859375 C17.78256923 0.09642906 19.51629763 0.10936699 21.25 0.125 C22.46267296 0.12530212 22.46267296 0.12530212 23.69984436 0.12561035 C28.28822337 0.22154121 31.34060281 0.62180762 35.05859375 3.59375 C37.55018415 7.3311356 37.5165266 9.16706583 37.05859375 13.59375 C35.2629697 16.34704021 34.00604453 18.12002461 31.05859375 19.59375 C25.42412556 19.87945153 19.78848786 19.90757411 14.14746094 19.94384766 C12.26191854 19.9603875 10.37643834 19.98765159 8.49121094 20.02587891 C5.76855032 20.08079051 3.04735938 20.10254426 0.32421875 20.1171875 C-0.5134906 20.13985687 -1.35119995 20.16252625 -2.21429443 20.18588257 C-6.42355317 20.17077208 -9.12394744 19.8861463 -12.47070312 17.20361328 C-14.98549189 14.54718128 -15.76697259 13.67055695 -15.69140625 10.09375 C-15.706875 9.3615625 -15.72234375 8.629375 -15.73828125 7.875 C-13.16436157 0.50652405 -6.74853668 -0.13720324 0 0 Z " fill="#0F0E0F" transform="translate(249.94140625,379.40625)"/>
</svg>

