<svg xmlns="http://www.w3.org/2000/svg" viewBox="0 0 626 626">
  <circle cx="319.3" cy="523.3" r="1.84" fill="#FF0000"/>
  <circle cx="309.0" cy="524.3" r="3.45" fill="#FF0000"/>
  <circle cx="284.74" cy="493.21" r="5.32" fill="#FF0000"/>
  <circle cx="345.25" cy="489.38" r="3.63" fill="#FF0000"/>
  <circle cx="315.0" cy="499.0" r="17.49" fill="#FF0000"/>
  <circle cx="366.25" cy="474.5" r="2.3" fill="#FF0000"/>
  <circle cx="312.13" cy="471.61" r="4.88" fill="#FF0000"/>
  <circle cx="295.33" cy="471.0" r="6.67" fill="#FF0000"/>
  <circle cx="273.2" cy="475.59" r="11.07" fill="#FF0000"/>
  <circle cx="376.13" cy="464.85" r="5.2" fill="#FF0000"/>
  <circle cx="366.79" cy="452.79" r="3.31" fill="#FF0000"/>
  <circle cx="344.89" cy="464.26" r="16.55" fill="#FF0000"/>
  <circle cx="309.5" cy="454.75" r="7.5" fill="#FF0000"/>
  <circle cx="227.05" cy="451.26" r="3.42" fill="#FF0000"/>
  <circle cx="246.85" cy="451.85" r="11.62" fill="#FF0000"/>
  <circle cx="349.5" cy="441.5" r="1.58" fill="#FF0000"/>
  <circle cx="308.43" cy="439.0" r="3.57" fill="#FF0000"/>
  <circle cx="385.35" cy="445.85" r="11.04" fill="#FF0000"/>
  <circle cx="328.0" cy="441.46" r="6.54" fill="#FF0000"/>
  <circle cx="420.8" cy="435.28" r="3.28" fill="#FF0000"/>
  <circle cx="404.27" cy="436.94" r="5.12" fill="#FF0000"/>
  <circle cx="207.75" cy="431.5" r="3.72" fill="#FF0000"/>
  <circle cx="279.48" cy="443.53" r="16.84" fill="#FF0000"/>
  <circle cx="394.0" cy="427.5" r="4.03" fill="#FF0000"/>
  <circle cx="192.0" cy="426.0" r="2.24" fill="#FF0000"/>
  <circle cx="343.17" cy="428.5" r="6.35" fill="#FF0000"/>
  <circle cx="227.79" cy="431.5" r="11.35" fill="#FF0000"/>
  <circle cx="294.0" cy="419.83" r="3.0" fill="#FF0000"/>
  <circle cx="214.0" cy="418.0" r="3.16" fill="#FF0000"/>
  <circle cx="434.76" cy="418.34" r="5.79" fill="#FF0000"/>
  <circle cx="180.0" cy="415.15" r="5.25" fill="#FF0000"/>
  <circle cx="223.0" cy="409.5" r="4.03" fill="#FF0000"/>
  <circle cx="197.5" cy="412.0" r="7.63" fill="#FF0000"/>
  <circle cx="445.0" cy="406.9" r="5.0" fill="#FF0000"/>
  <circle cx="412.72" cy="413.2" r="11.8" fill="#FF0000"/>
  <circle cx="343.39" cy="406.13" r="4.88" fill="#FF0000"/>
  <circle cx="369.03" cy="417.68" r="16.81" fill="#FF0000"/>
  <circle cx="318.5" cy="415.12" r="16.66" fill="#FF0000"/>
  <circle cx="291.5" cy="400.5" r="1.58" fill="#FF0000"/>
  <circle cx="279.93" cy="402.5" r="4.95" fill="#FF0000"/>
  <circle cx="354.6" cy="398.0" r="2.6" fill="#FF0000"/>
  <circle cx="254.87" cy="411.37" r="16.83" fill="#FF0000"/>
  <circle cx="194.82" cy="396.39" r="3.24" fill="#FF0000"/>
  <circle cx="405.83" cy="395.0" r="2.17" fill="#FF0000"/>
  <circle cx="332.0" cy="395.4" r="2.6" fill="#FF0000"/>
  <circle cx="189.5" cy="386.5" r="1.58" fill="#FF0000"/>
  <circle cx="456.95" cy="389.51" r="11.06" fill="#FF0000"/>
  <circle cx="388.5" cy="389.5" r="11.07" fill="#FF0000"/>
  <circle cx="320.83" cy="383.5" r="7.98" fill="#FF0000"/>
  <circle cx="471.0" cy="377.5" r="2.5" fill="#FF0000"/>
  <circle cx="483.23" cy="376.12" r="3.35" fill="#FF0000"/>
  <circle cx="401.0" cy="372.0" r="2.24" fill="#FF0000"/>
  <circle cx="191.3" cy="374.7" r="5.42" fill="#FF0000"/>
  <circle cx="381.2" cy="371.46" r="3.55" fill="#FF0000"/>
  <circle cx="257.1" cy="378.21" r="11.04" fill="#FF0000"/>
  <circle cx="166.0" cy="384.0" r="16.76" fill="#FF0000"/>
  <circle cx="136.5" cy="372.5" r="6.04" fill="#FF0000"/>
  <circle cx="224.07" cy="382.63" r="17.39" fill="#FF0000"/>
  <circle cx="148.5" cy="367.5" r="2.12" fill="#FF0000"/>
  <circle cx="202.0" cy="367.0" r="3.16" fill="#FF0000"/>
  <circle cx="451.25" cy="365.5" r="2.8" fill="#FF0000"/>
  <circle cx="425.83" cy="379.39" r="16.91" fill="#FF0000"/>
  <circle cx="122.5" cy="363.83" r="1.9" fill="#FF0000"/>
  <circle cx="331.5" cy="361.75" r="2.8" fill="#FF0000"/>
  <circle cx="291.38" cy="375.75" r="17.66" fill="#FF0000"/>
  <circle cx="240.2" cy="362.46" r="3.55" fill="#FF0000"/>
  <circle cx="498.5" cy="359.5" r="2.92" fill="#FF0000"/>
  <circle cx="441.79" cy="359.79" r="3.31" fill="#FF0000"/>
  <circle cx="212.0" cy="360.0" r="3.61" fill="#FF0000"/>
  <circle cx="354.78" cy="372.33" r="16.64" fill="#FF0000"/>
  <circle cx="163.36" cy="359.21" r="3.23" fill="#FF0000"/>
  <circle cx="316.5" cy="359.5" r="7.38" fill="#FF0000"/>
  <circle cx="342.5" cy="352.0" r="2.06" fill="#FF0000"/>
  <circle cx="179.92" cy="355.5" r="8.25" fill="#FF0000"/>
  <circle cx="430.14" cy="352.14" r="5.46" fill="#FF0000"/>
  <circle cx="289.5" cy="348.5" r="1.58" fill="#FF0000"/>
  <circle cx="166.0" cy="349.0" r="2.24" fill="#FF0000"/>
  <circle cx="199.5" cy="348.81" r="7.35" fill="#FF0000"/>
  <circle cx="116.25" cy="342.75" r="1.77" fill="#FF0000"/>
  <circle cx="501.5" cy="345.5" r="5.7" fill="#FF0000"/>
  <circle cx="420.0" cy="343.0" r="3.16" fill="#FF0000"/>
  <circle cx="318.5" cy="341.5" r="1.58" fill="#FF0000"/>
  <circle cx="516.0" cy="341.93" r="4.19" fill="#FF0000"/>
  <circle cx="472.49" cy="353.14" r="17.14" fill="#FF0000"/>
  <circle cx="330.12" cy="340.29" r="5.17" fill="#FF0000"/>
  <circle cx="493.83" cy="334.83" r="2.17" fill="#FF0000"/>
  <circle cx="393.23" cy="348.14" r="17.76" fill="#FF0000"/>
  <circle cx="266.57" cy="345.57" r="16.63" fill="#FF0000"/>
  <circle cx="332.5" cy="328.5" r="2.12" fill="#FF0000"/>
  <circle cx="141.21" cy="343.23" r="16.94" fill="#FF0000"/>
  <circle cx="128.0" cy="322.67" r="1.67" fill="#FF0000"/>
  <circle cx="108.72" cy="328.24" r="7.95" fill="#FF0000"/>
  <circle cx="226.28" cy="336.35" r="17.35" fill="#FF0000"/>
  <circle cx="357.07" cy="333.25" r="16.51" fill="#FF0000"/>
  <circle cx="481.07" cy="321.82" r="7.48" fill="#FF0000"/>
  <circle cx="135.83" cy="315.0" r="2.17" fill="#FF0000"/>
  <circle cx="122.5" cy="314.5" r="2.12" fill="#FF0000"/>
  <circle cx="382.08" cy="318.29" r="7.44" fill="#FF0000"/>
  <circle cx="442.38" cy="327.19" r="17.67" fill="#FF0000"/>
  <circle cx="89.14" cy="314.6" r="4.89" fill="#FF0000"/>
  <circle cx="301.56" cy="324.82" r="16.58" fill="#FF0000"/>
  <circle cx="206.0" cy="311.0" r="2.24" fill="#FF0000"/>
  <circle cx="107.5" cy="311.5" r="3.81" fill="#FF0000"/>
  <circle cx="181.43" cy="324.37" r="18.11" fill="#FF0000"/>
  <circle cx="408.81" cy="317.12" r="11.66" fill="#FF0000"/>
  <circle cx="150.61" cy="313.4" r="7.77" fill="#FF0000"/>
  <circle cx="462.36" cy="308.36" r="4.95" fill="#FF0000"/>
  <circle cx="277.64" cy="309.36" r="6.57" fill="#FF0000"/>
  <circle cx="541.5" cy="304.0" r="2.69" fill="#FF0000"/>
  <circle cx="311.3" cy="303.7" r="1.84" fill="#FF0000"/>
  <circle cx="360.0" cy="306.36" r="5.72" fill="#FF0000"/>
  <circle cx="165.86" cy="302.23" r="3.87" fill="#FF0000"/>
  <circle cx="98.25" cy="302.12" r="3.37" fill="#FF0000"/>
  <circle cx="515.62" cy="314.4" r="17.01" fill="#FF0000"/>
  <circle cx="427.21" cy="302.38" r="4.83" fill="#FF0000"/>
  <circle cx="333.89" cy="309.22" r="11.95" fill="#FF0000"/>
  <circle cx="250.79" cy="310.78" r="13.33" fill="#FF0000"/>
  <circle cx="413.0" cy="298.0" r="2.24" fill="#FF0000"/>
  <circle cx="222.43" cy="303.14" r="7.66" fill="#FF0000"/>
  <circle cx="181.5" cy="298.5" r="2.92" fill="#FF0000"/>
  <circle cx="355.0" cy="291.07" r="4.19" fill="#FF0000"/>
  <circle cx="507.0" cy="289.0" r="5.1" fill="#FF0000"/>
  <circle cx="446.4" cy="290.4" r="7.42" fill="#FF0000"/>
  <circle cx="88.35" cy="289.7" r="7.83" fill="#FF0000"/>
  <circle cx="200.86" cy="290.68" r="11.47" fill="#FF0000"/>
  <circle cx="298.08" cy="289.77" r="11.95" fill="#FF0000"/>
  <circle cx="75.75" cy="280.5" r="2.8" fill="#FF0000"/>
  <circle cx="454.33" cy="277.0" r="3.33" fill="#FF0000"/>
  <circle cx="382.64" cy="289.19" r="16.89" fill="#FF0000"/>
  <circle cx="130.39" cy="290.64" r="17.96" fill="#FF0000"/>
  <circle cx="438.5" cy="274.0" r="2.06" fill="#FF0000"/>
  <circle cx="422.3" cy="282.13" r="11.2" fill="#FF0000"/>
  <circle cx="478.6" cy="283.81" r="17.02" fill="#FF0000"/>
  <circle cx="295.5" cy="269.5" r="3.81" fill="#FF0000"/>
  <circle cx="361.5" cy="267.5" r="2.92" fill="#FF0000"/>
  <circle cx="195.79" cy="269.5" r="5.02" fill="#FF0000"/>
  <circle cx="462.5" cy="265.5" r="2.55" fill="#FF0000"/>
  <circle cx="377.64" cy="265.36" r="2.72" fill="#FF0000"/>
  <circle cx="120.83" cy="266.17" r="3.37" fill="#FF0000"/>
  <circle cx="532.83" cy="278.34" r="17.98" fill="#FF0000"/>
  <circle cx="492.17" cy="263.17" r="2.84" fill="#FF0000"/>
  <circle cx="306.0" cy="262.5" r="2.06" fill="#FF0000"/>
  <circle cx="267.53" cy="276.47" r="16.54" fill="#FF0000"/>
  <circle cx="229.75" cy="275.03" r="16.53" fill="#FF0000"/>
  <circle cx="211.17" cy="260.0" r="2.17" fill="#FF0000"/>
  <circle cx="168.26" cy="275.27" r="18.25" fill="#FF0000"/>
  <circle cx="71.5" cy="259.5" r="1.58" fill="#FF0000"/>
  <circle cx="511.43" cy="260.75" r="4.96" fill="#FF0000"/>
  <circle cx="499.75" cy="256.5" r="2.3" fill="#FF0000"/>
  <circle cx="390.55" cy="259.9" r="4.93" fill="#FF0000"/>
  <circle cx="556.5" cy="256.7" r="2.75" fill="#FF0000"/>
  <circle cx="408.46" cy="261.0" r="8.17" fill="#FF0000"/>
  <circle cx="331.33" cy="272.26" r="20.11" fill="#FF0000"/>
  <circle cx="473.0" cy="254.6" r="2.6" fill="#FF0000"/>
  <circle cx="249.5" cy="253.7" r="5.32" fill="#FF0000"/>
  <circle cx="235.5" cy="250.5" r="3.81" fill="#FF0000"/>
  <circle cx="138.33" cy="255.33" r="8.36" fill="#FF0000"/>
  <circle cx="386.0" cy="246.33" r="1.67" fill="#FF0000"/>
  <circle cx="94.85" cy="261.0" r="16.62" fill="#FF0000"/>
  <circle cx="404.0" cy="245.33" r="1.67" fill="#FF0000"/>
  <circle cx="318.0" cy="247.25" r="3.4" fill="#FF0000"/>
  <circle cx="259.17" cy="246.0" r="2.17" fill="#FF0000"/>
  <circle cx="160.83" cy="245.5" r="3.21" fill="#FF0000"/>
  <circle cx="330.0" cy="244.0" r="3.16" fill="#FF0000"/>
  <circle cx="510.5" cy="243.88" r="4.16" fill="#FF0000"/>
  <circle cx="551.9" cy="239.5" r="3.27" fill="#FF0000"/>
  <circle cx="462.5" cy="239.0" r="2.5" fill="#FF0000"/>
  <circle cx="71.0" cy="242.5" r="5.59" fill="#FF0000"/>
  <circle cx="117.93" cy="242.57" r="7.43" fill="#FF0000"/>
  <circle cx="314.0" cy="236.5" r="2.69" fill="#FF0000"/>
  <circle cx="438.92" cy="247.65" r="17.39" fill="#FF0000"/>
  <circle cx="335.75" cy="233.88" r="3.37" fill="#FF0000"/>
  <circle cx="83.68" cy="234.68" r="4.05" fill="#FF0000"/>
  <circle cx="509.5" cy="232.0" r="2.06" fill="#FF0000"/>
  <circle cx="324.5" cy="232.5" r="2.92" fill="#FF0000"/>
  <circle cx="532.83" cy="237.17" r="11.05" fill="#FF0000"/>
  <circle cx="363.02" cy="243.24" r="16.53" fill="#FF0000"/>
  <circle cx="290.79" cy="243.85" r="16.97" fill="#FF0000"/>
  <circle cx="548.0" cy="226.5" r="1.5" fill="#FF0000"/>
  <circle cx="76.38" cy="223.25" r="3.63" fill="#FF0000"/>
  <circle cx="396.46" cy="229.3" r="11.17" fill="#FF0000"/>
  <circle cx="486.05" cy="234.3" r="16.52" fill="#FF0000"/>
  <circle cx="455.5" cy="222.5" r="5.15" fill="#FF0000"/>
  <circle cx="220.5" cy="231.69" r="14.41" fill="#FF0000"/>
  <circle cx="183.36" cy="233.97" r="17.2" fill="#FF0000"/>
  <circle cx="382.5" cy="218.0" r="2.06" fill="#FF0000"/>
  <circle cx="342.0" cy="220.0" r="6.71" fill="#FF0000"/>
  <circle cx="288.75" cy="215.25" r="1.77" fill="#FF0000"/>
  <circle cx="204.5" cy="215.5" r="2.92" fill="#FF0000"/>
  <circle cx="165.0" cy="216.0" r="3.61" fill="#FF0000"/>
  <circle cx="495.75" cy="212.25" r="1.77" fill="#FF0000"/>
  <circle cx="99.92" cy="221.25" r="11.44" fill="#FF0000"/>
  <circle cx="442.21" cy="214.43" r="5.44" fill="#FF0000"/>
  <circle cx="140.67" cy="224.72" r="16.71" fill="#FF0000"/>
  <circle cx="548.37" cy="212.78" r="7.41" fill="#FF0000"/>
  <circle cx="121.0" cy="209.0" r="3.16" fill="#FF0000"/>
  <circle cx="256.56" cy="217.97" r="16.77" fill="#FF0000"/>
  <circle cx="214.0" cy="206.5" r="4.92" fill="#FF0000"/>
  <circle cx="176.5" cy="202.5" r="2.92" fill="#FF0000"/>
  <circle cx="75.37" cy="207.11" r="7.67" fill="#FF0000"/>
  <circle cx="340.0" cy="201.0" r="2.24" fill="#FF0000"/>
  <circle cx="192.5" cy="205.5" r="7.91" fill="#FF0000"/>
  <circle cx="129.72" cy="200.08" r="4.28" fill="#FF0000"/>
  <circle cx="544.0" cy="197.0" r="2.24" fill="#FF0000"/>
  <circle cx="386.0" cy="199.0" r="4.47" fill="#FF0000"/>
  <circle cx="283.38" cy="201.75" r="7.66" fill="#FF0000"/>
  <circle cx="205.5" cy="196.5" r="2.92" fill="#FF0000"/>
  <circle cx="361.65" cy="203.95" r="11.07" fill="#FF0000"/>
  <circle cx="269.36" cy="195.64" r="2.72" fill="#FF0000"/>
  <circle cx="316.31" cy="205.98" r="17.07" fill="#FF0000"/>
  <circle cx="231.78" cy="198.45" r="9.71" fill="#FF0000"/>
  <circle cx="216.5" cy="189.5" r="1.58" fill="#FF0000"/>
  <circle cx="417.28" cy="204.07" r="16.78" fill="#FF0000"/>
  <circle cx="186.1" cy="190.9" r="3.1" fill="#FF0000"/>
  <circle cx="538.83" cy="188.83" r="2.17" fill="#FF0000"/>
  <circle cx="516.35" cy="200.29" r="17.1" fill="#FF0000"/>
  <circle cx="544.5" cy="180.5" r="1.58" fill="#FF0000"/>
  <circle cx="471.98" cy="195.22" r="17.4" fill="#FF0000"/>
  <circle cx="322.7" cy="179.5" r="5.32" fill="#FF0000"/>
  <circle cx="508.0" cy="175.0" r="1.41" fill="#FF0000"/>
  <circle cx="179.33" cy="175.0" r="1.67" fill="#FF0000"/>
  <circle cx="532.71" cy="178.14" r="5.15" fill="#FF0000"/>
  <circle cx="130.57" cy="177.75" r="4.96" fill="#FF0000"/>
  <circle cx="385.54" cy="179.78" r="8.04" fill="#FF0000"/>
  <circle cx="155.14" cy="188.68" r="17.03" fill="#FF0000"/>
  <circle cx="101.94" cy="187.5" r="17.58" fill="#FF0000"/>
  <circle cx="522.7" cy="170.7" r="2.4" fill="#FF0000"/>
  <circle cx="293.05" cy="179.77" r="11.58" fill="#FF0000"/>
  <circle cx="121.0" cy="170.0" r="2.24" fill="#FF0000"/>
  <circle cx="541.0" cy="169.67" r="1.67" fill="#FF0000"/>
  <circle cx="231.06" cy="174.76" r="6.95" fill="#FF0000"/>
  <circle cx="443.61" cy="177.96" r="11.07" fill="#FF0000"/>
  <circle cx="140.38" cy="169.0" r="2.58" fill="#FF0000"/>
  <circle cx="423.32" cy="168.05" r="3.32" fill="#FF0000"/>
  <circle cx="407.45" cy="173.32" r="8.46" fill="#FF0000"/>
  <circle cx="173.43" cy="166.0" r="3.57" fill="#FF0000"/>
  <circle cx="496.22" cy="167.63" r="7.4" fill="#FF0000"/>
  <circle cx="232.0" cy="161.5" r="1.5" fill="#FF0000"/>
  <circle cx="374.5" cy="162.5" r="3.81" fill="#FF0000"/>
  <circle cx="293.0" cy="161.0" r="2.24" fill="#FF0000"/>
  <circle cx="389.38" cy="162.5" r="4.86" fill="#FF0000"/>
  <circle cx="327.75" cy="160.5" r="3.58" fill="#FF0000"/>
  <circle cx="535.67" cy="158.67" r="2.69" fill="#FF0000"/>
  <circle cx="350.42" cy="172.89" r="17.2" fill="#FF0000"/>
  <circle cx="260.33" cy="172.79" r="17.06" fill="#FF0000"/>
  <circle cx="202.34" cy="171.38" r="16.79" fill="#FF0000"/>
  <circle cx="439.5" cy="157.5" r="5.15" fill="#FF0000"/>
  <circle cx="98.23" cy="158.0" r="7.4" fill="#FF0000"/>
  <circle cx="160.87" cy="155.66" r="7.64" fill="#FF0000"/>
  <circle cx="275.1" cy="150.45" r="4.93" fill="#FF0000"/>
  <circle cx="255.0" cy="145.6" r="2.6" fill="#FF0000"/>
  <circle cx="184.67" cy="149.17" r="6.72" fill="#FF0000"/>
  <circle cx="514.66" cy="153.14" r="11.18" fill="#FF0000"/>
  <circle cx="105.39" cy="142.82" r="3.24" fill="#FF0000"/>
  <circle cx="443.82" cy="141.61" r="3.24" fill="#FF0000"/>
  <circle cx="470.83" cy="152.68" r="16.84" fill="#FF0000"/>
  <circle cx="130.93" cy="145.75" r="17.5" fill="#FF0000"/>
  <circle cx="265.81" cy="132.39" r="7.71" fill="#FF0000"/>
  <circle cx="252.7" cy="126.3" r="1.84" fill="#FF0000"/>
  <circle cx="499.94" cy="130.5" r="7.78" fill="#FF0000"/>
  <circle cx="371.69" cy="137.66" r="16.57" fill="#FF0000"/>
  <circle cx="412.29" cy="140.26" r="19.34" fill="#FF0000"/>
  <circle cx="231.78" cy="137.79" r="16.91" fill="#FF0000"/>
  <circle cx="135.0" cy="121.5" r="2.06" fill="#FF0000"/>
  <circle cx="482.5" cy="123.0" r="5.59" fill="#FF0000"/>
  <circle cx="200.43" cy="127.62" r="10.98" fill="#FF0000"/>
  <circle cx="388.7" cy="119.0" r="3.45" fill="#FF0000"/>
  <circle cx="377.5" cy="113.5" r="1.58" fill="#FF0000"/>
  <circle cx="419.79" cy="113.79" r="3.31" fill="#FF0000"/>
  <circle cx="168.36" cy="123.37" r="16.54" fill="#FF0000"/>
  <circle cx="194.3" cy="107.5" r="5.32" fill="#FF0000"/>
  <circle cx="402.28" cy="109.83" r="7.94" fill="#FF0000"/>
  <circle cx="419.5" cy="102.83" r="2.64" fill="#FF0000"/>
  <circle cx="218.76" cy="109.58" r="9.43" fill="#FF0000"/>
  <circle cx="446.23" cy="116.0" r="17.69" fill="#FF0000"/>
  <circle cx="181.0" cy="100.33" r="3.07" fill="#FF0000"/>
</svg>
