<svg xmlns="http://www.w3.org/2000/svg" width="218" height="42" fill="none" viewBox="0 0 218 42"><path fill="#0075BB" d="M16.553 25.342h-4.054v-.81c-1.251.98-2.77 1.451-4.324 1.451C4.189 25.983 0 22.941 0 17.738s4.189-8.246 8.175-8.246c1.553 0 3.073.472 4.324 1.452v-.81h4.054zM8.276 13.009c-2.33 0-4.223 2.13-4.223 4.732 0 2.601 1.893 4.731 4.223 4.731s4.223-2.13 4.223-4.731c0-2.605-1.892-4.732-4.223-4.732M37.498 26.41c0 4.562-3.717 7.94-8.276 7.94a8.24 8.24 0 0 1-7.164-4.124l3.412-1.994c.71 1.52 2.13 2.568 3.752 2.568 2.33 0 4.222-1.791 4.222-4.393V24.08c-1.251.98-2.77 1.452-4.324 1.452-3.986 0-8.175-3.042-8.175-8.245 0-5.204 4.19-8.246 8.175-8.246 1.553 0 3.073.475 4.324 1.452v-.81h4.054zm-8.276-13.855c-2.33 0-4.223 2.13-4.223 4.732 0 2.601 1.892 4.731 4.223 4.731s4.222-2.13 4.222-4.732c0-2.601-1.892-4.731-4.222-4.731M46.284 4.39H42.23V-.002h4.053zm0 20.952H42.23V10.136h4.053zM55.065 25.342h-4.053V-.002h4.053zM74.324 25.34h-4.053v-.776c-1.014 1.081-2.466 1.451-3.82 1.451-3.344 0-6.654-2.635-6.654-6.454v-9.426h4.053v9.429c0 1.621 1.249 2.805 3.04 2.805 1.892 0 3.378-1.486 3.378-3.175v-9.06h4.053V25.34zM88.073 14.97c-.573-1.486-2.028-2.198-3.31-2.198-1.184 0-2.195.607-2.195 1.689 0 .607.407 1.014 1.251 1.217l2.972.642c2.195.508 4.528 1.42 4.528 4.596 0 3.344-3.141 5.135-6.384 5.135-2.94 0-5.946-1.486-6.892-4.528l3.243-1.184c.709 1.621 2.265 2.33 3.615 2.33 1.317 0 2.5-.675 2.5-1.824 0-.54-.407-.913-1.251-1.116l-2.972-.641c-2.194-.472-4.46-1.486-4.46-4.664 0-3.31 2.94-4.969 6.048-4.969 2.77 0 5.64 1.353 6.553 4.087z"></path><path fill="#76C58F" d="M115.246 24.413h3.067c.034 0 1.418.006 1.449.01l8.251-8.172-8.122-8.042h-4.525l8.042 8.042z"></path><path fill="#FFCB05" d="M106.305 24.413h3.067c.034 0 1.421.006 1.448.01l8.252-8.172-8.122-8.042h-4.522l8.042 8.042z"></path><path fill="#ED1C24" d="M97.371 24.413h3.067c.034 0 1.418.006 1.449.01l8.251-8.172-8.125-8.042h-4.522l8.042 8.042z"></path><path fill="#0075BB" d="M47.244 38.627h-.965v-.882c-.48.688-1.23 1.122-2.123 1.122-1.557 0-2.883-1.325-2.883-2.956 0-1.627 1.326-2.956 2.883-2.956.89 0 1.64.435 2.123 1.122V29.58h.965zm-2.99-4.824c-1.11 0-2.013.94-2.013 2.111s.904 2.112 2.013 2.112c1.11 0 2.025-.94 2.025-2.112 0-1.17-.915-2.111-2.025-2.111M52.523 31.03h-.964v-1.446h.964zm0 7.598h-.964V33.2h.964zM62.447 38.626h-.965v-.882c-.48.688-1.23 1.122-2.123 1.122-1.557 0-2.882-1.325-2.882-2.956 0-1.627 1.325-2.956 2.882-2.956.893 0 1.64.435 2.123 1.122v-.878h.965zm-2.99-4.824c-1.11 0-2.013.94-2.013 2.111s.904 2.112 2.013 2.112c1.11 0 2.025-.94 2.025-2.112 0-1.171-.915-2.111-2.025-2.111M72.368 39.045C72.368 40.89 70.8 42 69.233 42c-1.014 0-2.025-.472-2.617-1.483l.783-.447a2.1 2.1 0 0 0 1.856 1.073c1.085 0 2.145-.783 2.145-2.1v-1.3c-.48.688-1.23 1.122-2.123 1.122-1.557 0-2.883-1.325-2.883-2.956 0-1.627 1.326-2.956 2.883-2.956.89 0 1.64.435 2.123 1.122v-.878h.965v5.847zm-2.99-5.243c-1.11 0-2.013.94-2.013 2.111s.904 2.112 2.013 2.112c1.11 0 2.025-.94 2.025-2.112 0-1.171-.915-2.111-2.025-2.111M81.632 38.627h-.965V35.19c0-.82-.617-1.4-1.446-1.4-.881 0-1.569.712-1.569 1.557v3.28h-.965v-5.429h.965v.65c.398-.603 1.06-.89 1.723-.89 1.122 0 2.257.795 2.257 2.232zM88.543 38.866a2.96 2.96 0 0 1-2.953-2.956 2.96 2.96 0 0 1 2.953-2.956 2.96 2.96 0 0 1 2.956 2.956 2.965 2.965 0 0 1-2.956 2.956m0-5.064c-1.098 0-1.991.94-1.991 2.111s.893 2.112 1.99 2.112c1.098 0 1.992-.94 1.992-2.112-.003-1.171-.894-2.111-1.991-2.111M97.33 38.867c-.977 0-1.979-.46-2.244-1.338l.832-.327c.278.639.783.857 1.375.857.604 0 1.18-.314 1.18-.94 0-.314-.215-.58-.76-.7l-1.015-.227c-.795-.17-1.4-.617-1.4-1.557 0-1.134.965-1.677 1.967-1.677.916 0 1.859.447 2.112 1.325l-.833.327a1.37 1.37 0 0 0-1.279-.844c-.555 0-1.035.314-1.035.869 0 .265.194.613.542.687l1.023.228c.87.195 1.628.543 1.628 1.594.006 1.168-1.033 1.723-2.093 1.723M105.793 34.043h-.965v4.584h-.965v-4.584h-.965V33.2h.965V29.58h.965V33.2h.965zM110.594 31.03h-.965v-1.446h.965zm0 7.598h-.965V33.2h.965zM120.034 37.384c-.567.927-1.495 1.482-2.543 1.482a2.96 2.96 0 0 1-2.956-2.956 2.96 2.96 0 0 1 2.956-2.956c1.048 0 1.979.555 2.543 1.483l-.783.447c-.397-.7-1.035-1.098-1.772-1.098-1.122 0-1.979.953-1.979 2.124 0 1.18.857 2.124 1.979 2.124.737 0 1.375-.398 1.772-1.097zM125.881 38.867c-.977 0-1.979-.46-2.244-1.338l.832-.327c.277.639.783.857 1.375.857.604 0 1.18-.314 1.18-.94 0-.314-.215-.58-.761-.7l-1.014-.227c-.795-.17-1.4-.617-1.4-1.557 0-1.134.965-1.677 1.967-1.677.915 0 1.859.447 2.111 1.325l-.832.327a1.37 1.37 0 0 0-1.279-.844c-.555 0-1.036.314-1.036.869 0 .265.194.613.543.687l1.023.228c.869.195 1.628.543 1.628 1.594.006 1.168-1.033 1.723-2.093 1.723"></path></svg>
