<?xml version="1.0" encoding="UTF-8"?>
<svg version="1.1" xmlns="http://www.w3.org/2000/svg" width="512" height="512">
<path d="M0 0 C16.77277364 7.93671461 33.21114919 21.6453431 45.8125 35.0546875 C46.29855713 35.56539795 46.78461426 36.0761084 47.28540039 36.60229492 C48.66091556 38.05936698 50.01655235 39.53512857 51.37109375 41.01171875 C53.68916838 43.26518171 53.68916838 43.26518171 56.30078125 42.93359375 C57.16316406 42.62679687 58.02554688 42.32 58.9140625 42.00390625 C69.57586628 38.61151414 82.13319701 38.2056916 92.52734375 42.7421875 C96.57561413 44.88227151 100.30340736 47.1826529 103.9140625 50.00390625 C104.53023438 50.48214844 105.14640625 50.96039063 105.78125 51.453125 C113.60618321 58.35645496 118.46508534 69.28396941 119.15234375 79.5703125 C119.35942058 90.71976483 118.55731711 99.96254542 110.9140625 108.69140625 C109.0130369 111.16032298 107.87871039 112.85855302 107.9765625 116.02880859 C108.76692331 121.17176723 110.31207007 126.06442958 111.9140625 131.00390625 C112.25717039 132.3347578 112.59318224 133.6675213 112.9140625 135.00390625 C124.49384922 119.46135374 135.77967826 103.75489968 146.51171875 87.61328125 C147.00211639 86.87582672 147.49251404 86.13837219 147.99777222 85.37857056 C150.45966819 81.67328363 152.91551774 77.96414975 155.36328125 74.24951172 C156.27732017 72.86814846 157.19138169 71.48680016 158.10546875 70.10546875 C158.72193016 69.16438263 158.72193016 69.16438263 159.35084534 68.20428467 C166.59204372 57.28222599 166.59204372 57.28222599 171.4765625 56.25390625 C172.6109375 56.17140625 173.7453125 56.08890625 174.9140625 56.00390625 C177.50530737 55.01313615 179.08490171 53.86077069 181.2265625 52.06640625 C185.72590497 48.6134225 190.1722827 46.48192627 195.9140625 47.00390625 C195.9759375 46.24078125 196.0378125 45.47765625 196.1015625 44.69140625 C196.9140625 42.00390625 196.9140625 42.00390625 198.7890625 40.06640625 C204.59611797 38.09200739 210.12372381 39.76060585 215.60546875 42.203125 C224.78096929 47.31619018 231.13487238 54.75959729 234.49609375 64.73046875 C236.31335138 74.61499158 235.93042036 85.21904075 230.9140625 94.00390625 C230.5644043 94.6175 230.21474609 95.23109375 229.85449219 95.86328125 C222.85571429 108.00134105 214.92638922 119.52133089 206.9140625 131.00390625 C205.75382644 132.67442374 204.59367096 134.3449972 203.43359375 136.015625 C192.3101581 151.99966964 180.8736242 167.74654086 169.3046875 183.41015625 C166.04003742 187.8303354 162.78728588 192.25914617 159.5390625 196.69140625 C159.06839355 197.33360107 158.59772461 197.9757959 158.11279297 198.63745117 C157.04636212 200.09279893 155.98018027 201.54832913 154.9140625 203.00390625 C155.72746094 203.24625 156.54085938 203.48859375 157.37890625 203.73828125 C176.87959783 210.71974431 205.42545026 226.11657327 216.9140625 244.00390625 C218.02767395 246.49776851 218.99082644 248.98511686 219.859375 251.57421875 C221.1260568 254.49227831 222.91519781 256.53406603 224.9140625 259.00390625 C230.6848536 268.83286658 235.10261779 278.8987265 234.88671875 290.50390625 C234.71407111 303.62253063 237.9733524 313.15937302 243.42077637 325.02734375 C243.70473267 325.64609375 243.98868896 326.26484375 244.28125 326.90234375 C244.57326294 327.53720703 244.86527588 328.17207031 245.1661377 328.82617188 C249.03610888 337.33289052 252.30277296 346.07627798 255.6015625 354.81640625 C255.93468445 355.69684601 256.2678064 356.57728577 256.61102295 357.48440552 C259.06676356 363.98297949 261.49678122 370.49093734 263.9140625 377.00390625 C264.44797607 378.44228851 264.44797607 378.44228851 264.99267578 379.909729 C273.18773152 402.0208041 281.13518436 424.19775549 288.4140625 446.62890625 C288.69204681 447.48478333 288.97003113 448.3406604 289.25643921 449.22247314 C290.0323827 451.61950885 290.80294592 454.01817496 291.5703125 456.41796875 C291.9080645 457.46766846 291.9080645 457.46766846 292.25263977 458.53857422 C295.68983028 469.39376201 296.56770044 480.34952464 291.9140625 491.00390625 C286.80964524 500.54761973 279.47459069 507.10530754 269.18359375 510.58984375 C259.65591582 512.32811201 248.23802494 512.33867943 239.9140625 507.00390625 C229.24142812 498.99155979 224.80819626 490.79748604 221.2265625 478.19140625 C216.9270839 463.74051423 212.0081555 449.52720635 206.9765625 435.31640625 C206.58363007 434.20610046 206.19069763 433.09579468 205.78585815 431.95184326 C200.08389996 415.86942721 194.2637061 399.84369286 187.9140625 384.00390625 C187.18888428 384.40077637 186.46370605 384.79764648 185.71655273 385.20654297 C158.64067024 400.00390625 158.64067024 400.00390625 150.9140625 400.00390625 C150.65262451 400.69806641 150.39118652 401.39222656 150.12182617 402.10742188 C148.78818908 405.30577855 147.22985418 408.29462186 145.58984375 411.34765625 C144.89479168 412.64811509 144.19989414 413.94865652 143.50512695 415.24926758 C143.13505524 415.94001373 142.76498352 416.63075989 142.38369751 417.34243774 C133.30015993 434.31001735 124.51512209 451.42481467 115.79614258 468.58203125 C97.69896422 504.17160345 97.69896422 504.17160345 83.11328125 510.15234375 C74.37341408 512.47870644 63.32445424 512.31618863 55.1171875 508.32421875 C45.69929366 502.6801618 39.26177909 496.18661495 36.0390625 485.50390625 C32.78221153 471.66710746 37.09504888 460.88251199 43.35546875 448.59765625 C44.00448123 447.30644422 44.65265273 446.01480918 45.30003357 444.72277832 C47.00227392 441.3316434 48.7167403 437.94683384 50.43365479 434.56311035 C51.81001931 431.84550127 53.17764312 429.12354374 54.5448246 426.40130615 C61.51560232 412.52206266 68.5461215 398.67767452 75.9140625 385.00390625 C75.12797607 384.21870605 74.34188965 383.43350586 73.53198242 382.62451172 C66.93888896 376.02465485 61.46939322 369.14454332 56.4152832 361.32080078 C56.01784912 360.70575684 55.62041504 360.09071289 55.2109375 359.45703125 C54.86385742 358.91208008 54.51677734 358.36712891 54.15917969 357.80566406 C52.52612415 355.44253664 50.72511952 353.23223995 48.9140625 351.00390625 C48.65415527 351.68453125 48.39424805 352.36515625 48.12646484 353.06640625 C21.06567943 423.63323982 21.06567943 423.63323982 11.9140625 431.00390625 C9.93782324 431.19829044 7.96087879 431.38926969 5.98046875 431.53515625 C2.79754467 432.25718062 1.15160242 434.28768442 -1.14453125 436.50390625 C-4.6389725 439.20383671 -8.84136076 440.03030112 -13.0859375 441.00390625 C-13.1478125 441.76703125 -13.2096875 442.53015625 -13.2734375 443.31640625 C-14.0859375 446.00390625 -14.0859375 446.00390625 -16.2890625 447.84765625 C-21.31971353 449.92736673 -25.99351559 448.44039629 -31.0859375 447.00390625 C-34.31015089 445.62140995 -37.17995782 443.96123967 -40.0859375 442.00390625 C-40.9728125 441.42640625 -41.8596875 440.84890625 -42.7734375 440.25390625 C-50.75324928 432.48976506 -54.51922708 423.10653594 -55.13671875 412.12890625 C-54.97568247 402.21898103 -50.82541831 394.06677925 -46.3671875 385.45703125 C-32.95126776 359.47809388 -22.91091509 331.66141244 -12.8359375 304.25390625 C-12.39451416 303.05443359 -11.95309082 301.85496094 -11.49829102 300.61914062 C-9.14181633 294.13732794 -6.9713704 287.63867311 -5.0859375 281.00390625 C-6.40464844 281.03871094 -7.72335938 281.07351563 -9.08203125 281.109375 C-22.00491047 281.34398464 -34.34627729 280.78047207 -46.75 276.83984375 C-51.17844627 275.73013941 -53.51419597 276.14752506 -57.48046875 278.30859375 C-58.27839844 278.82679688 -59.07632813 279.345 -59.8984375 279.87890625 C-70.95628257 286.73049822 -81.83910488 288.41577277 -94.5234375 285.87890625 C-106.02560679 282.98662619 -115.60027635 276.20785885 -121.91015625 266.07421875 C-128.44043871 253.64612671 -129.96119595 241.93289412 -125.83984375 228.4140625 C-125.0859375 226.00390625 -125.0859375 226.00390625 -124.32299805 224.09301758 C-123.83671905 221.90249628 -123.83671905 221.90249628 -125.45019531 220.11962891 C-126.48418457 219.15355713 -126.48418457 219.15355713 -127.5390625 218.16796875 C-128.29856201 217.44029297 -129.05806152 216.71261719 -129.84057617 215.96289062 C-130.66404541 215.19267578 -131.48751465 214.42246094 -132.3359375 213.62890625 C-140.02470687 206.20164945 -146.80552288 198.63947636 -153.0859375 190.00390625 C-153.7253125 189.14796875 -154.3646875 188.29203125 -155.0234375 187.41015625 C-162.62707187 176.95515899 -170.11642356 166.32095685 -169.0859375 153.00390625 C-167.83265716 145.98553635 -163.76866756 142.03962626 -158.0859375 138.00390625 C-154.9653242 136.08256285 -152.73492908 135.8011845 -149.0859375 136.00390625 C-149.13234375 134.76898438 -149.17875 133.5340625 -149.2265625 132.26171875 C-149.73819481 112.71464101 -144.9881412 96.14165206 -138.0859375 78.00390625 C-137.62026367 76.77236816 -137.15458984 75.54083008 -136.67480469 74.27197266 C-135.38553819 70.87480902 -134.07602612 67.48594638 -132.75390625 64.10144043 C-132.2294694 62.7555527 -131.70889351 61.4081535 -131.19238281 60.0592041 C-130.45918727 58.15116467 -129.70856525 56.25088689 -128.953125 54.3515625 C-128.52112793 53.24820557 -128.08913086 52.14484863 -127.64404297 51.00805664 C-121.86500825 39.86562132 -107.73880534 36.52565632 -96.73901367 32.34716797 C-94.54852082 31.51345311 -92.36305878 30.6674672 -90.17773438 29.8203125 C-82.84677697 27.00432908 -75.48852739 24.41036725 -67.95703125 22.1796875 C-67.2754747 21.97722412 -66.59391815 21.77476074 -65.89170837 21.56616211 C-55.66563505 18.62801124 -42.43981522 15.55261368 -32.0859375 19.00390625 C-32.02277344 18.44703125 -31.95960938 17.89015625 -31.89453125 17.31640625 C-30.83132497 10.69095237 -28.22890462 6.34205791 -23.0859375 2.00390625 C-15.91384178 -2.29736445 -7.92654117 -2.55856709 0 0 Z " fill="#010101" transform="translate(193.0859375,0.99609375)"/>
<path d="M0 0 C16.735798 13.19038998 28.26369681 31.93848634 31.50048828 53.16357422 C34.69238166 81.58662476 27.27694247 110.18496217 9.87109375 133.046875 C6.33768005 137.40431242 2.63246754 141.55459482 -1.22265625 145.62890625 C-1.99351562 146.46421875 -2.764375 147.29953125 -3.55859375 148.16015625 C-16.2928502 161.51258049 -32.1901732 170.13079219 -49.53515625 176.00390625 C-50.23922607 176.24262451 -50.9432959 176.48134277 -51.66870117 176.72729492 C-74.88263257 184.17266325 -100.66974036 183.04972484 -122.36816406 171.97241211 C-142.13738081 161.28877765 -155.08987592 144.94026212 -162.22265625 123.62890625 C-162.45726562 122.93925781 -162.691875 122.24960938 -162.93359375 121.5390625 C-170.86898084 96.1803255 -164.26399501 67.74014311 -152.34765625 44.87890625 C-146.80956989 35.16927433 -139.87768679 26.7319076 -132.22265625 18.62890625 C-131.52527344 17.86707031 -130.82789063 17.10523438 -130.109375 16.3203125 C-117.68734525 3.21700141 -99.61666913 -7.43091836 -82.22265625 -12.37109375 C-81.61470215 -12.5501123 -81.00674805 -12.72913086 -80.38037109 -12.91357422 C-53.28490746 -20.67103361 -22.90386424 -17.25782702 0 0 Z " fill="#FED2BC" transform="translate(259.22265625,85.37109375)"/>
<path d="M0 0 C34.04084289 6.96053858 77.62697317 25.59144681 101.625 51.875 C105.11579067 59.80861517 102.7662853 67.00104882 99.76147461 74.75439453 C94.70775558 86.96623837 87.17195318 97.68129905 79 108 C78.31550781 108.87785156 77.63101563 109.75570312 76.92578125 110.66015625 C68.28303111 121.50752657 58.83719052 132.29222236 48 141 C46.90332936 141.90847227 45.80701038 142.81736912 44.7109375 143.7265625 C31.67832712 154.44429446 18.57533394 163.39455717 3 170 C2.175 170.3815625 1.35 170.763125 0.5 171.15625 C-5.15971361 173.06640334 -12.52135036 173.39916166 -18.1171875 171.1484375 C-20.09929542 169.602583 -21.46589904 167.99962125 -23 166 C-23.77730469 164.99066406 -24.55460937 163.98132813 -25.35546875 162.94140625 C-28.02130453 159.37216535 -30.52900474 155.70598799 -33 152 C-33.98806641 150.51886719 -33.98806641 150.51886719 -34.99609375 149.0078125 C-47.60283935 129.24588696 -57.52198475 107.69429989 -65.5 85.6875 C-65.74347168 85.02443848 -65.98694336 84.36137695 -66.23779297 83.67822266 C-67.83600004 79.09607309 -68.5312298 74.79956764 -69 70 C-67.9584375 69.48953125 -66.916875 68.9790625 -65.84375 68.453125 C-36.503934 53.71419838 -12.68429039 30.57635853 0 0 Z " fill="#8DAEE1" transform="translate(295,201)"/>
<path d="M0 0 C3.09070919 3.09070919 3.43170391 6.75119042 4 11 C3.9635243 13.17917633 3.77005699 15.30489933 3.56274414 17.47387695 C2.49245716 30.8058392 7.78557332 41.1190197 13.27243042 52.93467712 C17.02425049 61.09441871 20.18377342 69.48414555 23.375 77.875 C23.68795013 78.69410858 24.00090027 79.51321716 24.32333374 80.35714722 C31.11760103 98.14288987 37.7087737 116.00366473 44.22998047 133.89105225 C45.21288303 136.5830491 46.20104526 139.27309939 47.18930054 141.96313477 C48.2556919 144.86961958 49.31515639 147.77862239 50.375 150.6875 C50.75060059 151.7089209 51.12620117 152.7303418 51.51318359 153.78271484 C51.84656738 154.70391113 52.17995117 155.62510742 52.5234375 156.57421875 C52.81138184 157.36401123 53.09932617 158.15380371 53.39599609 158.9675293 C54 161 54 161 54 164 C53.33097656 164.01417969 52.66195312 164.02835938 51.97265625 164.04296875 C45.52622246 164.36312721 39.60771564 165.44761291 33.4375 167.25 C32.76662354 167.44231201 32.09574707 167.63462402 31.40454102 167.83276367 C27.18953179 169.11867296 23.23120226 170.75543206 19.22680664 172.59667969 C18.24531143 173.04678406 17.26381622 173.49688843 16.25257874 173.96063232 C15.50922775 174.30362366 14.76587677 174.64661499 14 175 C13.7908345 174.41151276 13.58166901 173.82302551 13.36616516 173.21670532 C1.07869779 138.54862023 1.07869779 138.54862023 -11.62783813 104.03289795 C-12.16486779 102.60161504 -12.69761175 101.16871631 -13.22592163 99.73419189 C-13.94948591 97.77360905 -14.68886421 95.81981069 -15.43359375 93.8671875 C-15.83634521 92.79581543 -16.23909668 91.72444336 -16.65405273 90.62060547 C-18.11144499 87.78301279 -19.25283055 86.57596761 -22 85 C-25.71161391 84.44720644 -27.36734527 84.57295806 -30.5 86.6875 C-31.7375 87.8321875 -31.7375 87.8321875 -33 89 C-42.56191914 97.21808185 -52.54229522 102.28206287 -64.52734375 105.89453125 C-66.24630859 106.44173828 -66.24630859 106.44173828 -68 107 C-69.78664063 107.54720703 -69.78664063 107.54720703 -71.609375 108.10546875 C-76.28134719 110.71596012 -77.86001868 113.85466993 -80.3125 118.5 C-80.80322998 119.39130615 -81.29395996 120.2826123 -81.79956055 121.20092773 C-87.60867465 131.87200818 -93.10633326 142.72290591 -98.59301758 153.5625 C-102.80981912 161.87636767 -107.17771689 170.01600488 -112 178 C-112.9744104 177.44747559 -112.9744104 177.44747559 -113.96850586 176.88378906 C-120.10743971 173.42332557 -126.38132973 170.32456732 -132.75 167.3125 C-133.55348877 166.93230713 -134.35697754 166.55211426 -135.18481445 166.16040039 C-139.75366017 164.01410543 -144.34782851 161.95913639 -149 160 C-143.64517679 148.34709204 -137.95637961 136.88757171 -132.0625 125.5 C-131.72821991 124.85286041 -131.39393982 124.20572083 -131.04953003 123.53897095 C-130.08881198 121.68096987 -129.12517123 119.8245224 -128.16015625 117.96875 C-127.59949463 116.89044922 -127.03883301 115.81214844 -126.46118164 114.70117188 C-125 112 -125 112 -123 109 C-120.26953125 108.26171875 -120.26953125 108.26171875 -116.8125 107.6875 C-97.77406268 103.89923951 -82.03363964 93.91462726 -67 82 C-66.09894531 81.29230469 -65.19789063 80.58460938 -64.26953125 79.85546875 C-37.05497225 58.06025916 -14.9147245 31.60736318 0 0 Z " fill="#4A5064" transform="translate(409,279)"/>
<path d="M0 0 C3.38720815 0.84024072 5.92026837 2.52300225 8.79858398 4.46118164 C9.39598389 4.86232178 9.99338379 5.26346191 10.60888672 5.67675781 C12.46029149 6.9361422 14.28891313 8.2224129 16.11108398 9.52368164 C16.67021484 9.92296875 17.2293457 10.32225586 17.80541992 10.73364258 C29.53456542 19.22523691 40.02326795 29.16157454 50.11108398 39.52368164 C49.78108398 40.18368164 49.45108398 40.84368164 49.11108398 41.52368164 C47.25670536 41.38056868 45.4025897 41.23404713 43.54858398 41.08618164 C42.51604492 41.0049707 41.48350586 40.92375977 40.41967773 40.84008789 C38.19863676 40.6276861 35.9831955 40.34649869 33.77905273 40.00024414 C22.00028092 38.46988188 9.70450791 39.07555571 -1.88891602 41.52368164 C-3.11610352 41.76860352 -4.34329102 42.01352539 -5.60766602 42.26586914 C-26.62063747 46.78059938 -45.79811074 57.4539437 -61.88891602 71.52368164 C-62.98139648 72.4344043 -62.98139648 72.4344043 -64.09594727 73.36352539 C-81.89754234 88.3740482 -95.00580575 110.42555432 -101.88891602 132.52368164 C-102.09919434 133.17401367 -102.30947266 133.8243457 -102.52612305 134.49438477 C-108.47715862 153.62439619 -107.14635712 174.99402896 -103.88891602 194.52368164 C-107.88891602 194.52368164 -107.88891602 194.52368164 -109.54541016 193.36889648 C-110.3515979 192.5599292 -110.3515979 192.5599292 -111.17407227 191.73461914 C-111.78162354 191.13004883 -112.3891748 190.52547852 -113.01513672 189.90258789 C-113.97359497 188.9106543 -113.97359497 188.9106543 -114.95141602 187.89868164 C-115.61681396 187.2193457 -116.28221191 186.54000977 -116.96777344 185.84008789 C-144.98882555 156.78471295 -144.98882555 156.78471295 -146.20141602 142.96118164 C-145.88891602 139.52368164 -145.88891602 139.52368164 -144.80688477 137.87133789 C-141.15056474 135.30223319 -136.47975135 135.58276517 -132.13891602 135.14868164 C-128.98282238 134.74025432 -128.98282238 134.74025432 -126.93188477 133.32055664 C-125.38906393 130.66251325 -125.82892619 128.79875056 -126.20141602 125.77368164 C-126.31227539 124.60063477 -126.42313477 123.42758789 -126.53735352 122.21899414 C-126.65336914 120.99954102 -126.76938477 119.78008789 -126.88891602 118.52368164 C-128.83266393 95.77657772 -118.96001798 74.19150544 -110.21606445 53.69262695 C-109.39956439 51.74300025 -108.62248937 49.77560683 -107.91333008 47.78442383 C-106.3985631 43.71794643 -105.29825321 41.34554076 -101.25927734 39.48901367 C-100.54463318 39.15733185 -99.82998901 38.82565002 -99.09368896 38.48391724 C-95.69300898 37.00283322 -92.2813367 35.57119128 -88.83032227 34.21118164 C-88.08290268 33.9155835 -87.33548309 33.61998535 -86.56541443 33.31542969 C-84.99057243 32.69489432 -83.41487996 32.07651336 -81.83837891 31.46020508 C-79.48420076 30.53654471 -77.13687451 29.59680398 -74.78930664 28.65649414 C-61.50054968 23.40570689 -47.86595432 18.66647702 -33.38891602 19.21118164 C-32.58711914 19.22084961 -31.78532227 19.23051758 -30.95922852 19.24047852 C-26.90344035 19.3159503 -23.05004333 19.64945504 -19.04516602 20.29321289 C-15.85109912 20.66861399 -15.20189941 20.71736427 -12.35766602 18.95727539 C-10.55956344 15.97797246 -10.42385854 14.04985962 -10.38891602 10.58618164 C-10.1725788 6.82099348 -9.95449815 4.66271577 -8.32641602 1.21118164 C-5.31177028 -0.87588079 -3.53545568 -0.53803025 0 0 Z " fill="#4A5063" transform="translate(185.888916015625,15.476318359375)"/>
<path d="M0 0 C0.4021875 1.36125 0.4021875 1.36125 0.8125 2.75 C3.71641465 7.06438748 6.53466236 7.52689027 11.34375 9.08984375 C17.32912222 11.14071394 20.25020145 15.05530797 23.03515625 20.52734375 C25.23909059 26.17548316 24.92454627 30.57380214 22.7734375 36.21875 C18.77700197 44.62831102 13.71449997 52.30085601 8.42285156 59.94140625 C6.92421946 62.10963993 5.44127419 64.28798868 3.9609375 66.46875 C-15.1800225 94.62968869 -35.05649722 122.15070469 -56 149 C-62.24535682 147.73831175 -68.22459639 146.0629348 -74.25 144 C-75.02601563 143.73960937 -75.80203125 143.47921875 -76.6015625 143.2109375 C-80.44799161 141.9112908 -84.24947598 140.56021799 -88 139 C-87.87882812 138.44054687 -87.75765625 137.88109375 -87.6328125 137.3046875 C-87.46523438 136.50289062 -87.29765625 135.70109375 -87.125 134.875 C-86.92648437 133.95460937 -86.72796875 133.03421875 -86.5234375 132.0859375 C-85.92644809 129.00393233 -85.92644809 129.00393233 -85.9140625 125.8515625 C-85.34561093 114.23890908 -79.0047291 107.6979247 -71.75830078 99.125 C-69.32794447 96.18778515 -67.11712866 93.12548803 -64.9375 90 C-64.14359459 88.87213852 -63.34931703 87.74453892 -62.5546875 86.6171875 C-61.94512207 85.7504541 -61.94512207 85.7504541 -61.32324219 84.86621094 C-59.31735991 82.03725076 -57.27504167 79.23503472 -55.23632812 76.4296875 C-45.40684069 62.89550411 -35.96102437 49.11317679 -26.75390625 35.1484375 C-25.09004283 32.6254176 -23.39968223 30.12991141 -21.65234375 27.6640625 C-17.72570726 22.32479446 -17.72570726 22.32479446 -16.9375 16 C-17.90638622 12.87489795 -17.90638622 12.87489795 -20 10 C-8.625 -0.78409091 -8.625 -0.78409091 0 0 Z " fill="#FDBC9B" transform="translate(389,48)"/>
<path d="M0 0 C1.2065625 0.0309375 1.2065625 0.0309375 2.4375 0.0625 C2.65776855 0.75996338 2.87803711 1.45742676 3.10498047 2.17602539 C7.81032123 16.960956 12.9654245 31.25525123 19.37109375 45.39453125 C19.73122559 46.21872559 20.09135742 47.04291992 20.46240234 47.89208984 C21.2374631 49.61725012 22.10565357 51.30050026 23.00390625 52.96484375 C23.76293372 58.3874454 21.09664941 62.91283682 18.9375 67.8125 C18.1713816 69.61449855 17.40531383 71.41651944 16.6411438 73.21934509 C15.8178319 75.15586767 14.98653322 77.08885036 14.15527344 79.02197266 C12.39684945 83.13284222 10.71202507 87.27171932 9.0390625 91.41796875 C2.89033703 106.62157757 -3.47084815 121.64664347 -10.65185547 136.39624023 C-11.16635254 137.46817627 -11.68084961 138.5401123 -12.2109375 139.64453125 C-12.66645996 140.57499268 -13.12198242 141.5054541 -13.59130859 142.46411133 C-15.07030879 146.42112466 -14.88713138 149.08860587 -13.5625 153.0625 C-12.9025 153.0625 -12.2425 153.0625 -11.5625 153.0625 C-13.64600602 157.92401405 -17.08657318 160.41125415 -21.5625 163.0625 C-24.25598026 164.03032681 -26.72984638 164.556669 -29.5625 165.0625 C-29.85125 164.134375 -30.14 163.20625 -30.4375 162.25 C-33.20374109 158.10063837 -35.39789892 157.93464896 -40.0625 156.76171875 C-46.21363583 155.04132295 -49.91618089 151.02554545 -53.5625 146.0625 C-56.07141363 140.61762362 -56.58602361 135.97619198 -55.5625 130.0625 C-53.61366162 125.31750219 -51.19675567 120.87907411 -48.76855469 116.36572266 C-30.41573326 81.31703493 -16.65943324 42.00447876 -4.6640625 4.34765625 C-3.23266579 0.07884551 -3.23266579 0.07884551 0 0 Z " fill="#FCD1BB" transform="translate(209.5625,276.9375)"/>
<path d="M0 0 C2.25903684 1.69572203 3.97291506 3.1711837 5.875 5.1875 C6.3596875 5.65736328 6.844375 6.12722656 7.34375 6.61132812 C10.56609676 9.91018312 11.68786347 12.41973566 12 17 C13.155 16.9175 14.31 16.835 15.5 16.75 C20.38863983 16.7586678 23.9949502 18.24986581 28 21 C33.44968405 26.73650953 34.43538822 31.31409676 34.43823242 39.14038086 C34.26548935 45.43599053 32.48556464 49.85418033 29 55 C27.948125 56.5778125 27.948125 56.5778125 26.875 58.1875 C23.09477517 62.41316534 17.90514739 65.26552128 13 68 C12.21753906 68.46535156 11.43507812 68.93070312 10.62890625 69.41015625 C6.62941974 70.30751504 3.88212201 68.54331071 0.4375 66.6875 C-0.26052734 66.32591797 -0.95855469 65.96433594 -1.67773438 65.59179688 C-8.3079102 62.04964815 -14.18904013 57.75442171 -20 53 C-19.67 52.34 -19.34 51.68 -19 51 C-18.92188365 49.5215758 -18.86221629 48.0421515 -18.8125 46.5625 C-17.90095913 36.99132083 -12.46784905 29.87491604 -5.734375 23.36328125 C-4 22 -4 22 -2 22 C-3.8540378 18.51004649 -6.0153661 15.93059246 -8.75 13.125 C-11.47279769 10.07984149 -11.97813134 9.44466283 -12.1875 5.1875 C-11 2 -11 2 -9.375 0 C-5.87751364 -1.47262584 -3.66577786 -0.87408779 0 0 Z " fill="#ECA0AA" transform="translate(139,192)"/>
<path d="M0 0 C3.61883504 4.39865135 6.53229149 9.36635764 9.4375 14.25 C9.98664063 15.11496094 10.53578125 15.97992188 11.1015625 16.87109375 C14.56982154 22.81535591 14.56982154 22.81535591 14.21484375 26.6640625 C12.77719071 31.36196697 10.38146619 35.32471175 7.4375 39.25 C6.90125 40.075 6.365 40.9 5.8125 41.75 C-0.30997888 48.19471461 -8.6445112 52.22958689 -17.5 52.5625 C-24.3263288 52.40875386 -29.66825697 50.14424303 -34.5625 45.25 C-37.90378633 40.24898974 -39.06008708 36.22104496 -38.5625 30.25 C-39.25730469 30.20101562 -39.95210937 30.15203125 -40.66796875 30.1015625 C-44.64791348 28.93067458 -47.01959347 26.49081506 -49.875 23.625 C-50.42478516 23.11582031 -50.97457031 22.60664062 -51.54101562 22.08203125 C-54.52633954 19.12266667 -55.49286572 17.82076299 -56.01953125 13.50390625 C-55.5625 10.25 -55.5625 10.25 -53.9375 7.8125 C-51.5625 6.25 -51.5625 6.25 -48.8125 5.5625 C-44.56332681 6.46136356 -42.55155384 8.53779083 -39.4921875 11.5234375 C-37.59747581 13.21870585 -35.87791222 14.23121862 -33.5625 15.25 C-33.16160156 14.74210937 -32.76070312 14.23421875 -32.34765625 13.7109375 C-26.3871486 6.49345205 -19.93687888 1.12487578 -10.5625 -0.75 C-9.89089844 -0.91757813 -9.21929687 -1.08515625 -8.52734375 -1.2578125 C-4.91792298 -1.9999364 -3.07974738 -2.10324212 0 0 Z " fill="#ECA0AA" transform="translate(271.5625,96.75)"/>
<path d="M0 0 C0.99 0.495 0.99 0.495 2 1 C-13.66870639 22.11869122 -33.3690331 36.92899428 -58.3125 45.375 C-59.01656982 45.61371826 -59.72063965 45.85243652 -60.44604492 46.09838867 C-70.88829125 49.44751419 -81.00408885 50.34212984 -91.9375 50.3125 C-93.12279297 50.32861328 -94.30808594 50.34472656 -95.52929688 50.36132812 C-103.20863217 50.3655406 -110.79922909 49.90464602 -118 47 C-118.66 46.01 -119.32 45.02 -120 44 C-118.845 43.62875 -117.69 43.2575 -116.5 42.875 C-106.88686243 39.17894358 -101.84575327 32.94708648 -97 24 C-95.9458482 20.83754459 -95.68724328 18.13051782 -95.4375 14.8125 C-95.35371094 13.72582031 -95.26992187 12.63914063 -95.18359375 11.51953125 C-95.09271484 10.27236328 -95.09271484 10.27236328 -95 9 C-94.67 9 -94.34 9 -94 9 C-94 11.64 -94 14.28 -94 17 C-63.90539661 25.22096483 -32.91543325 18.71435466 -6 4 C-3.95199287 2.72247564 -1.97969687 1.38332856 0 0 Z " fill="#FDBC9C" transform="translate(268,216)"/>
<path d="M0 0 C7.21930632 1.44386126 14.05110733 3.57788174 21 6 C12.83840198 21.86724084 4.19852324 36.87543033 -8 50 C-8.58523438 50.63437988 -9.17046875 51.26875977 -9.7734375 51.92236328 C-21.63622968 64.64348508 -34.55965389 74.48572291 -49.625 83.125 C-50.26373047 83.49165771 -50.90246094 83.85831543 -51.56054688 84.23608398 C-55.65143496 86.49113755 -59.50284765 87.87860211 -64 89 C-64.65697732 87.33769459 -65.29995967 85.66985652 -65.9375 84 C-66.29714844 83.071875 -66.65679687 82.14375 -67.02734375 81.1875 C-68.17522529 77.42576774 -68.5997854 73.90946476 -69 70 C-67.9584375 69.48953125 -66.916875 68.9790625 -65.84375 68.453125 C-36.503934 53.71419838 -12.68429039 30.57635853 0 0 Z " fill="#7B92DB" transform="translate(295,201)"/>
<path d="M0 0 C3 1 3 1 4.09985352 2.63549805 C4.43944092 3.33715088 4.77902832 4.03880371 5.12890625 4.76171875 C5.51908936 5.54442139 5.90927246 6.32712402 6.3112793 7.13354492 C6.72418213 7.9763501 7.13708496 8.81915527 7.5625 9.6875 C13.37356054 21.13222514 20.42375043 33.23990806 30 42 C30.66 42 31.32 42 32 42 C33.65625 43.6796875 33.65625 43.6796875 35.5 45.875 C37.28933258 47.99035504 39.04019124 50.04019124 41 52 C41 52.99 41 53.98 41 55 C39.42578125 56.54296875 39.42578125 56.54296875 37.3125 58.1875 C33.16359499 61.6534879 30.52499656 65.25339795 28 70 C27.6390625 70.63035156 27.278125 71.26070313 26.90625 71.91015625 C25.82585806 74.40157731 25.5882891 76.54833806 25.375 79.25 C25.30023438 80.14203125 25.22546875 81.0340625 25.1484375 81.953125 C25.09945312 82.62859375 25.05046875 83.3040625 25 84 C21 84 21 84 18.88671875 82.015625 C4.16988132 63.50848309 -2.1741351 45.54463045 -2.1875 22.0625 C-2.19974609 20.93392578 -2.21199219 19.80535156 -2.22460938 18.64257812 C-2.23602949 12.09885122 -1.69678412 6.32437716 0 0 Z " fill="#FDBC9C" transform="translate(96,159)"/>
<path d="M0 0 C13.2578494 2.18040245 25.96970234 9.64646823 37 17 C35.62695142 24.72830203 30.20516935 34.64361924 24.25 39.8125 C18.06922484 43.97263712 13.47830102 45.12619064 6 44 C-0.2846674 41.45808431 -4.95645473 38.08709053 -8 32 C-10.71167913 22.71105661 -9.03741719 16.12416818 -4.5 7.8125 C-3.03325186 5.18597828 -1.5305507 2.59039632 0 0 Z " fill="#FCD0BA" transform="translate(253,453)"/>
<path d="M0 0 C1.01900391 0.01353516 1.01900391 0.01353516 2.05859375 0.02734375 C3.70588741 0.05054507 5.35299526 0.08639833 7 0.125 C10.77787746 8.66628817 12.92467418 17.21816923 10.31640625 26.578125 C7.80959428 32.02862074 4.11065929 35.66752222 -1.359375 38.23046875 C-6.52022553 39.97874504 -12.19684716 40.22640744 -17.31640625 38.21484375 C-24.81258046 33.79110527 -28.52498586 28.10982483 -30.875 19.9375 C-31.09929687 19.22658203 -31.32359375 18.51566406 -31.5546875 17.78320312 C-33.13556985 12.53170956 -33.13556985 12.53170956 -32 9.125 C-29.48509713 7.79497481 -27.05335441 6.65341686 -24.4375 5.5625 C-23.74591797 5.25892578 -23.05433594 4.95535156 -22.34179688 4.64257812 C-14.82727235 1.42807043 -8.18136129 -0.14609574 0 0 Z " fill="#FBCFBA" transform="translate(461,457.875)"/>
<path d="M0 0 C6.74267065 4.57642914 11.53780784 10.92817359 13.69921875 18.83203125 C14.81322378 26.66452026 13.11620655 32.79974832 9.69921875 39.83203125 C9.03921875 39.83203125 8.37921875 39.83203125 7.69921875 39.83203125 C6.44888278 38.25486886 5.27479833 36.61701803 4.13671875 34.95703125 C-6.03795569 20.70883365 -18.062961 11.23444632 -33.30078125 2.83203125 C-22.67097682 -5.87325698 -12.17304598 -6.79462828 0 0 Z " fill="#F8B999" transform="translate(283.30078125,60.16796875)"/>
<path d="M0 0 C3 1 3 1 4.25390625 3.046875 C4.68574219 3.93890625 5.11757812 4.8309375 5.5625 5.75 C13.34452878 20.52818766 24.71864831 32.32540119 39 41 C32.84142993 46.01809413 27.3662532 46.50534524 19.578125 46.375 C11.81441204 45.56133576 5.65864043 41.65955963 0.47265625 35.921875 C-5.54950782 28.06271127 -6.24544572 19.7165352 -5 10 C-3.7163434 6.37555782 -2.11298313 3.20720654 0 0 Z " fill="#FACEB9" transform="translate(86,226)"/>
<path d="M0 0 C2.70981843 2.07591448 3.8503059 3.29592156 4.56640625 6.6640625 C4.55395732 16.10035466 2.13645338 22.86329943 -4.25 29.875 C-10.32763181 35.52613133 -18.5371451 38.45118734 -26.76953125 38.34375 C-29 38 -29 38 -32.0625 35.875 C-34.34404561 32.48948071 -34.7652998 30.99656562 -34 27 C-32.6875 24.75 -32.6875 24.75 -30 23 C-27.22287897 22.40185086 -24.44101729 21.98153463 -21.6328125 21.5546875 C-18.20976689 20.83351172 -16.34645722 19.57353372 -14 17 C-11.81171111 13.25899142 -11.31564218 9.57186453 -10.66015625 5.33984375 C-9.04101244 -0.39901509 -5.51229142 -0.67694807 0 0 Z " fill="#050403" transform="translate(202,144)"/>
<path d="M0 0 C4.28348343 1.1004278 6.5898471 2.95640191 9.5546875 6.0703125 C10.039375 6.53179687 10.5240625 6.99328125 11.0234375 7.46875 C14.561086 11.0656887 15.54301804 13.94796399 15.6796875 18.9453125 C13.63097876 22.41920993 12.00431912 22.85988313 8.1171875 23.8828125 C3.56886933 23.67685092 0.85418781 20.9177354 -2.2578125 17.8828125 C-2.74258057 17.4180249 -3.22734863 16.9532373 -3.72680664 16.47436523 C-7.1863534 12.84230323 -8.23231271 9.9261007 -8.3203125 4.9453125 C-5.80461926 1.17177264 -4.60575051 -0.07585942 0 0 Z " fill="#070505" transform="translate(135.3203125,191.0546875)"/>
<path d="M0 0 C4.98623751 1.05478101 7.74088129 4.13523639 11.25 7.6875 C11.7965625 8.20054688 12.343125 8.71359375 12.90625 9.2421875 C15.63508754 12.04682608 16.25 13.42121756 16.25 17.375 C14.77655539 22.25578528 14.77655539 22.25578528 12.25 23.6875 C9.0165148 24.10396346 6.43814326 24.39980421 3.5546875 22.67114258 C1.86106337 21.24073758 0.33907298 19.73201973 -1.1875 18.125 C-1.99864258 17.35446289 -1.99864258 17.35446289 -2.82617188 16.56835938 C-5.75285881 13.58987267 -6.68623801 12.21977404 -7.19921875 7.9375 C-6.75 4.6875 -6.75 4.6875 -5.125 2.25 C-2.75 0.6875 -2.75 0.6875 0 0 Z " fill="#040303" transform="translate(222.75,102.3125)"/>
</svg>

