<?xml version="1.0" encoding="UTF-8"?>
<svg version="1.1" xmlns="http://www.w3.org/2000/svg" width="512" height="512">
<path d="M0 0 C1.80659204 -0.00302255 3.6131828 -0.00691256 5.41977131 -0.01159257 C10.37211187 -0.02186783 15.32438 -0.01969193 20.27672648 -0.01541197 C25.62243984 -0.01294391 30.9681358 -0.0219599 36.31384277 -0.02944946 C46.7819101 -0.04219613 57.24995177 -0.0439902 67.71802555 -0.0416492 C76.22696872 -0.03986589 84.73590411 -0.04161597 93.24484634 -0.04587364 C94.45605921 -0.04646883 95.66727207 -0.04706402 96.91518835 -0.04767724 C99.3757975 -0.048889 101.83640665 -0.05010313 104.2970158 -0.05131962 C127.37043079 -0.06219498 150.44383116 -0.06003265 173.51724698 -0.05393478 C194.62247089 -0.04876532 215.72764865 -0.06002183 236.83286344 -0.07903299 C258.5079737 -0.09840773 280.18306213 -0.10666805 301.85818112 -0.10290974 C314.02540234 -0.10099719 326.19258427 -0.10349064 338.35979843 -0.11762428 C348.71756252 -0.12953436 359.07526313 -0.1309471 369.43302809 -0.11883412 C374.71638983 -0.11294293 379.99963547 -0.11185275 385.2829895 -0.12383652 C390.12275312 -0.13468647 394.96230355 -0.13160242 399.80205716 -0.11757483 C401.54961687 -0.11492548 403.29719324 -0.11730191 405.04473661 -0.1253107 C420.92166487 -0.19300242 434.33871108 2.04623824 446.44168091 13.10835266 C453.47595085 20.9861631 457.59940444 30.33957224 457.63098145 40.91285706 C457.63951141 42.21077682 457.64804138 43.50869659 457.65682983 44.84594727 C457.65613094 46.26707471 457.65520795 47.68820205 457.65408325 49.10932922 C457.66007365 50.61959158 457.66688037 52.12985088 457.67443848 53.6401062 C457.69205524 57.72915933 457.69679207 61.81812866 457.69807005 65.90721607 C457.69949484 68.4663943 457.70377068 71.02555145 457.70906448 73.58472443 C457.72755158 82.52571965 457.73573689 91.46665536 457.73416138 100.40766907 C457.73296085 108.72092972 457.7540491 117.03393039 457.7856487 125.34712529 C457.81186722 132.50153161 457.82252632 139.65585332 457.82125056 146.81030726 C457.82074249 151.07571613 457.82633893 155.34089388 457.84760666 159.60625458 C457.86708299 163.62176126 457.86705003 167.63681858 457.85257339 171.65234184 C457.85049567 173.11838633 457.85512382 174.58445965 457.86729431 176.05045509 C457.97348401 189.73813426 455.07116017 201.02153323 445.55105591 211.19819641 C435.16267434 220.91635982 423.43945952 223.54838988 409.61135864 223.57954407 C408.05856956 223.5946125 408.05856956 223.5946125 406.47441101 223.60998535 C403.08199576 223.64066424 399.68965888 223.65780988 396.29714966 223.67475891 C393.93345981 223.69348286 391.56977655 223.71305718 389.20610046 223.73344421 C383.00677389 223.78464171 376.80742567 223.82433365 370.60800171 223.86158752 C364.27321066 223.90170492 357.93850868 223.95276192 351.60379028 224.00288391 C339.1904415 224.09949655 326.77704229 224.18394812 314.36355591 224.26069641 C314.98346909 225.08049484 315.60338226 225.90029327 316.24208069 226.74493408 C317.06251396 227.83338362 317.88286806 228.92189284 318.70315552 230.01045227 C319.31478672 230.81864536 319.31478672 230.81864536 319.93877411 231.64316559 C322.89206069 235.56695528 325.57026543 239.5181717 327.92605591 243.82319641 C328.29118286 244.4868219 328.65630981 245.15044739 329.03250122 245.83418274 C347.98668953 281.10549046 351.93040406 320.70248322 341.30496216 359.25288391 C334.46481035 381.2644451 322.71616418 400.24279779 307.36355591 417.26069641 C306.67132935 418.03671204 305.97910278 418.81272766 305.26589966 419.61225891 C280.18724435 446.18886859 243.40093113 461.15702072 207.20339966 462.48335266 C166.77427672 463.41533209 128.99700379 449.56075686 99.61257935 421.53388977 C71.74575773 394.19433894 56.15282976 357.56908413 55.33230591 318.51069641 C55.22957267 283.99232776 66.67212453 252.69071656 87.36355591 225.26069641 C87.69355591 224.93069641 88.02355591 224.60069641 88.36355591 224.26069641 C86.41156281 224.25189705 86.41156281 224.25189705 84.4201355 224.24291992 C72.12105627 224.18556076 59.82215161 224.11273043 47.52325058 224.0249815 C41.20115193 223.98036628 34.87911641 223.94109064 28.55691528 223.91426086 C22.44893673 223.88813969 16.34120228 223.84767499 10.23337555 223.79751015 C7.9099762 223.78090095 5.58653468 223.76934982 3.26308441 223.7630825 C-14.37260872 223.71072368 -29.14476695 223.6541928 -42.92550659 211.19038391 C-50.48455527 203.29160271 -54.74217204 193.87972253 -54.78361511 182.96929932 C-54.79077042 181.67550354 -54.79792572 180.38170776 -54.80529785 179.04870605 C-54.80813798 177.6166842 -54.81084973 176.18466209 -54.81344604 174.75263977 C-54.81971345 173.2428217 -54.8263605 171.73300517 -54.83335876 170.22319031 C-54.8543745 165.26565113 -54.86476114 160.30811174 -54.87472534 155.35054016 C-54.8787743 153.64079332 -54.88289126 151.93104664 -54.88707542 150.22130013 C-54.9061243 142.18502377 -54.92035407 134.14875657 -54.92868739 126.11246198 C-54.93844884 116.85297104 -54.964741 107.59371985 -55.00518829 98.33431333 C-55.03541497 91.16723908 -55.0501626 84.00023328 -55.05346841 76.83309656 C-55.05581207 72.55756742 -55.06468254 68.28229447 -55.08992958 64.00683403 C-55.11332937 59.97907567 -55.11739618 55.95174002 -55.1071682 51.92393112 C-55.10667555 50.45304388 -55.11291527 48.98213499 -55.12672424 47.51131248 C-55.24813268 33.8025308 -52.35944337 22.51631633 -42.82394409 12.32319641 C-30.34519485 0.64952776 -16.18944078 -0.03833545 0 0 Z " fill="#5FA816" transform="translate(54.636444091796875,24.739303588867188)"/>
<path d="M0 0 C0.74634166 -0.00436032 1.49268331 -0.00872064 2.26164138 -0.0132131 C4.75259272 -0.02412678 7.24298557 -0.01376577 9.7339325 -0.00342751 C11.54180083 -0.00688561 13.34966705 -0.01165119 15.15752888 -0.01760924 C20.11795601 -0.03012791 25.0782099 -0.02394485 30.03863764 -0.01465058 C35.39113187 -0.00786402 40.74359628 -0.01833938 46.09608459 -0.02659035 C56.57867039 -0.03993404 67.06119176 -0.03704709 77.54378009 -0.02835242 C86.06278687 -0.0215788 94.5817756 -0.02065777 103.1007843 -0.02392387 C104.31299882 -0.02438357 105.52521334 -0.02484327 106.77416164 -0.0253169 C109.23670952 -0.02627607 111.6992574 -0.02724871 114.16180527 -0.02823468 C137.25611749 -0.03679043 160.350394 -0.02695151 183.44470036 -0.01083358 C203.26305279 0.00256976 223.0813525 0.00024172 242.89970398 -0.01358986 C265.91107012 -0.02964237 288.92240495 -0.03596644 311.9337759 -0.02675307 C314.38729286 -0.02579741 316.84080982 -0.0248543 319.29432678 -0.02392387 C320.50152148 -0.02346105 321.70871618 -0.02299822 322.95249254 -0.02252137 C331.46181032 -0.0199305 339.97110826 -0.02430458 348.48042297 -0.03136253 C358.84964685 -0.03977406 369.21880259 -0.03750465 379.58801866 -0.0215203 C384.87909969 -0.01363297 390.1700671 -0.01055395 395.46114731 -0.02046776 C400.30449989 -0.02940546 405.14763349 -0.02449694 409.9909662 -0.0085351 C411.74321094 -0.0051834 413.49547416 -0.00689011 415.24770701 -0.01416247 C417.6304376 -0.02329316 420.01241941 -0.01392031 422.39511108 0 C423.0745115 -0.0070235 423.75391191 -0.014047 424.45390022 -0.02128333 C432.46267677 0.07215191 438.49615649 2.80570162 444.19755554 8.37752342 C448.40851966 13.99214224 450.44305893 18.5050276 450.46498108 25.53688622 C450.47777603 27.39562874 450.47777603 27.39562874 450.49082947 29.29192162 C450.4901305 30.65736974 450.48920747 32.02281777 450.48808289 33.38826561 C450.49407018 34.83251352 450.50087619 36.27675824 450.50843811 37.72099876 C450.52608752 41.63855457 450.53079311 45.55602297 450.53206968 49.47361469 C450.53349274 51.92388565 450.53776534 54.37413449 450.54306412 56.82439995 C450.56156276 65.38053354 450.56973517 73.93660487 450.56816101 82.4927578 C450.56696051 90.4549743 450.58804525 98.41691934 450.61964834 106.37906718 C450.64584828 113.22512479 450.65652671 120.07109396 450.65525019 126.91720128 C450.65474153 131.00149218 450.66037081 135.0855419 450.68160629 139.16978264 C450.70105091 143.01454178 450.70107114 146.8588313 450.68657303 150.70360756 C450.68449132 152.10921354 450.68914766 153.51484939 450.70129395 154.92040443 C450.77919194 164.5647316 449.75053251 171.88249495 443.88505554 179.69002342 C438.37244398 185.20263499 432.70993596 187.46755199 424.97587585 187.55834007 C423.3907444 187.57991173 423.3907444 187.57991173 421.77359009 187.60191917 C420.04212486 187.61773537 420.04212486 187.61773537 418.27568054 187.63387108 C417.05566849 187.64847374 415.83565643 187.6630764 414.57867432 187.67812157 C403.32440249 187.80412413 392.06938524 187.87429765 380.81454468 187.92596436 C372.50689766 187.96480737 364.20061335 188.03305708 355.89356422 188.14051211 C350.03943939 188.21365691 344.18568444 188.25184488 338.33112144 188.26499021 C334.84132937 188.27380955 331.35322397 188.29767428 327.86393738 188.35965919 C302.70757406 188.78739541 302.70757406 188.78739541 295.62626648 182.9693203 C294.11168006 181.47665933 292.62741545 179.95153404 291.19755554 178.37752342 C268.21969866 161.99074681 239.79448171 155.13283984 212.07255554 155.06502342 C210.99196365 155.05950966 210.99196365 155.05950966 209.88954163 155.05388451 C196.55957019 155.01844203 183.38920541 155.91095907 170.57255554 159.87752342 C169.32985901 160.25892479 169.32985901 160.25892479 168.0620575 160.64803123 C152.69747587 165.59997781 133.43168575 173.30976405 122.26428223 185.48532677 C117.43646977 188.46412844 112.66191146 187.92571919 107.09867859 187.87923241 C105.25880371 187.88733688 105.25880371 187.88733688 103.38175964 187.89560509 C100.02382962 187.9059611 96.66688686 187.89839805 93.30904365 187.88189387 C89.78805653 187.86801513 86.26709837 187.87450701 82.74609375 187.87802696 C76.83049789 187.88072794 70.91510504 187.86726704 64.9995575 187.84407616 C58.17454294 187.81750387 51.34986855 187.81570794 44.52482003 187.82746452 C37.94616797 187.83827324 31.36763814 187.83202868 24.78899574 187.81790924 C21.99611816 187.81217245 19.20333071 187.81221394 16.41045189 187.81697464 C12.50171084 187.82266697 8.59330497 187.80335358 4.68461609 187.78157616 C3.53368973 187.7860778 2.38276337 187.79057945 1.19696045 187.79521751 C-7.67877327 187.71323932 -14.55108866 186.25747164 -21.26338196 180.12752342 C-25.96279448 174.78402898 -27.92008335 168.46509294 -27.9563446 161.46539879 C-27.96494507 160.23043159 -27.97354553 158.9954644 -27.98240662 157.72307396 C-27.9868418 156.35195011 -27.99114016 154.98082582 -27.99531555 153.60970116 C-28.00321838 152.16737229 -28.01148744 150.72504539 -28.02009583 149.28272057 C-28.04630385 144.54220527 -28.06162624 139.80168122 -28.07588196 135.06111717 C-28.0812429 133.42719136 -28.08662041 131.79326561 -28.09201431 130.1593399 C-28.11364482 123.35918092 -28.13237878 116.55902429 -28.1436367 109.75883961 C-28.15985687 100.02621787 -28.19298537 90.29399656 -28.25003755 80.56152576 C-28.28881346 73.71210879 -28.30827865 66.86279855 -28.31355727 60.01327473 C-28.31720144 55.92604259 -28.32912163 51.83923765 -28.36166 47.75212479 C-28.39187446 43.90159804 -28.39800551 40.05175394 -28.38627625 36.20113373 C-28.38605659 34.79431798 -28.39427137 33.38746933 -28.41193008 31.98076439 C-28.5239597 22.53576163 -27.62598668 14.70217478 -21.07620811 7.47195148 C-15.19007191 1.78743795 -8.01345223 -0.08284138 0 0 Z " fill="#A2C200" transform="translate(44.80244445800781,42.62247657775879)"/>
<path d="M0 0 C1.80659204 -0.00302255 3.6131828 -0.00691256 5.41977131 -0.01159257 C10.37211187 -0.02186783 15.32438 -0.01969193 20.27672648 -0.01541197 C25.62243984 -0.01294391 30.9681358 -0.0219599 36.31384277 -0.02944946 C46.7819101 -0.04219613 57.24995177 -0.0439902 67.71802555 -0.0416492 C76.22696872 -0.03986589 84.73590411 -0.04161597 93.24484634 -0.04587364 C94.45605921 -0.04646883 95.66727207 -0.04706402 96.91518835 -0.04767724 C99.3757975 -0.048889 101.83640665 -0.05010313 104.2970158 -0.05131962 C127.37043079 -0.06219498 150.44383116 -0.06003265 173.51724698 -0.05393478 C194.62247089 -0.04876532 215.72764865 -0.06002183 236.83286344 -0.07903299 C258.5079737 -0.09840773 280.18306213 -0.10666805 301.85818112 -0.10290974 C314.02540234 -0.10099719 326.19258427 -0.10349064 338.35979843 -0.11762428 C348.71756252 -0.12953436 359.07526313 -0.1309471 369.43302809 -0.11883412 C374.71638983 -0.11294293 379.99963547 -0.11185275 385.2829895 -0.12383652 C390.12275312 -0.13468647 394.96230355 -0.13160242 399.80205716 -0.11757483 C401.54961687 -0.11492548 403.29719324 -0.11730191 405.04473661 -0.1253107 C420.92166487 -0.19300242 434.33871108 2.04623824 446.44168091 13.10835266 C453.47595085 20.9861631 457.59940444 30.33957224 457.63098145 40.91285706 C457.63951141 42.21077682 457.64804138 43.50869659 457.65682983 44.84594727 C457.65613094 46.26707471 457.65520795 47.68820205 457.65408325 49.10932922 C457.66007365 50.61959158 457.66688037 52.12985088 457.67443848 53.6401062 C457.69205524 57.72915933 457.69679207 61.81812866 457.69807005 65.90721607 C457.69949484 68.4663943 457.70377068 71.02555145 457.70906448 73.58472443 C457.72755158 82.52571965 457.73573689 91.46665536 457.73416138 100.40766907 C457.73296085 108.72092972 457.7540491 117.03393039 457.7856487 125.34712529 C457.81186722 132.50153161 457.82252632 139.65585332 457.82125056 146.81030726 C457.82074249 151.07571613 457.82633893 155.34089388 457.84760666 159.60625458 C457.86708299 163.62176126 457.86705003 167.63681858 457.85257339 171.65234184 C457.85049567 173.11838633 457.85512382 174.58445965 457.86729431 176.05045509 C457.97348401 189.73813426 455.07116017 201.02153323 445.55105591 211.19819641 C435.16267434 220.91635982 423.43945952 223.54838988 409.61135864 223.57954407 C408.05856956 223.5946125 408.05856956 223.5946125 406.47441101 223.60998535 C403.08199576 223.64066424 399.68965888 223.65780988 396.29714966 223.67475891 C393.93345981 223.69348286 391.56977655 223.71305718 389.20610046 223.73344421 C383.00677389 223.78464171 376.80742567 223.82433365 370.60800171 223.86158752 C364.27321066 223.90170492 357.93850868 223.95276192 351.60379028 224.00288391 C339.1904415 224.09949655 326.77704229 224.18394812 314.36355591 224.26069641 C314.98346909 225.08049484 315.60338226 225.90029327 316.24208069 226.74493408 C317.06251396 227.83338362 317.88286806 228.92189284 318.70315552 230.01045227 C319.31478672 230.81864536 319.31478672 230.81864536 319.93877411 231.64316559 C322.89206069 235.56695528 325.57026543 239.5181717 327.92605591 243.82319641 C328.29118286 244.4868219 328.65630981 245.15044739 329.03250122 245.83418274 C347.98668953 281.10549046 351.93040406 320.70248322 341.30496216 359.25288391 C334.46481035 381.2644451 322.71616418 400.24279779 307.36355591 417.26069641 C306.67132935 418.03671204 305.97910278 418.81272766 305.26589966 419.61225891 C280.18724435 446.18886859 243.40093113 461.15702072 207.20339966 462.48335266 C166.77427672 463.41533209 128.99700379 449.56075686 99.61257935 421.53388977 C71.74575773 394.19433894 56.15282976 357.56908413 55.33230591 318.51069641 C55.22957267 283.99232776 66.67212453 252.69071656 87.36355591 225.26069641 C87.69355591 224.93069641 88.02355591 224.60069641 88.36355591 224.26069641 C86.41156281 224.25189705 86.41156281 224.25189705 84.4201355 224.24291992 C72.12105627 224.18556076 59.82215161 224.11273043 47.52325058 224.0249815 C41.20115193 223.98036628 34.87911641 223.94109064 28.55691528 223.91426086 C22.44893673 223.88813969 16.34120228 223.84767499 10.23337555 223.79751015 C7.9099762 223.78090095 5.58653468 223.76934982 3.26308441 223.7630825 C-14.37260872 223.71072368 -29.14476695 223.6541928 -42.92550659 211.19038391 C-50.48455527 203.29160271 -54.74217204 193.87972253 -54.78361511 182.96929932 C-54.79077042 181.67550354 -54.79792572 180.38170776 -54.80529785 179.04870605 C-54.80813798 177.6166842 -54.81084973 176.18466209 -54.81344604 174.75263977 C-54.81971345 173.2428217 -54.8263605 171.73300517 -54.83335876 170.22319031 C-54.8543745 165.26565113 -54.86476114 160.30811174 -54.87472534 155.35054016 C-54.8787743 153.64079332 -54.88289126 151.93104664 -54.88707542 150.22130013 C-54.9061243 142.18502377 -54.92035407 134.14875657 -54.92868739 126.11246198 C-54.93844884 116.85297104 -54.964741 107.59371985 -55.00518829 98.33431333 C-55.03541497 91.16723908 -55.0501626 84.00023328 -55.05346841 76.83309656 C-55.05581207 72.55756742 -55.06468254 68.28229447 -55.08992958 64.00683403 C-55.11332937 59.97907567 -55.11739618 55.95174002 -55.1071682 51.92393112 C-55.10667555 50.45304388 -55.11291527 48.98213499 -55.12672424 47.51131248 C-55.24813268 33.8025308 -52.35944337 22.51631633 -42.82394409 12.32319641 C-30.34519485 0.64952776 -16.18944078 -0.03833545 0 0 Z M-32.63644409 27.26069641 C-38.05404271 35.0690359 -38.3518417 42.59987046 -38.26754761 51.83906555 C-38.2726959 53.28405635 -38.27998401 54.72904085 -38.28923035 56.17401123 C-38.30763556 60.07083316 -38.29487625 63.96696479 -38.27514005 67.86375737 C-38.25866465 71.95680648 -38.26757859 76.0498149 -38.2726593 80.1428833 C-38.27716988 87.01307609 -38.26137376 93.8829957 -38.23336792 100.75312805 C-38.20130783 108.67856548 -38.20134004 116.60351076 -38.21858269 124.52898318 C-38.23448414 132.17713425 -38.22769185 139.82510613 -38.21064568 147.47324944 C-38.20380076 150.71747591 -38.20478111 153.96155763 -38.21219063 157.20578194 C-38.21989091 161.03015379 -38.20760672 164.85397011 -38.18034172 168.67824745 C-38.17349625 170.0757711 -38.17331842 171.47334702 -38.18055725 172.87086868 C-38.22454335 182.47426038 -37.16649133 189.79892155 -31.32394409 197.57319641 C-25.81133253 203.08580797 -20.14882451 205.35072498 -12.4147644 205.44151306 C-10.82963295 205.46308472 -10.82963295 205.46308472 -9.21247864 205.48509216 C-8.05816849 205.49563629 -6.90385834 205.50618042 -5.71456909 205.51704407 C-4.49455704 205.53164673 -3.27454498 205.54624939 -2.01756287 205.56129456 C9.23670896 205.68729712 20.49172621 205.75747064 31.74656677 205.80913734 C40.05421379 205.84798036 48.3604981 205.91623007 56.66754723 206.0236851 C62.52167206 206.0968299 68.37542701 206.13501787 74.22999001 206.1481632 C77.71978208 206.15698254 81.20788748 206.18084727 84.69717407 206.24283218 C101.77695762 207.31044836 101.77695762 207.31044836 116.90750122 200.86616516 C118.42660887 199.36440421 119.91808595 197.83346167 121.36355591 196.26069641 C123.86055287 194.5460615 126.45381712 193.08178878 129.11355591 191.63569641 C129.7762146 191.26944153 130.43887329 190.90318665 131.12161255 190.52583313 C162.81930146 173.33930516 202.65320759 166.80486094 237.93045044 176.52876282 C256.92380869 182.24239798 279.02386785 190.92100835 293.36355591 205.26069641 C294.99027451 205.36328037 296.62144701 205.39589795 298.25138855 205.40113831 C299.3097995 205.40684845 300.36821045 205.41255859 301.45869446 205.41844177 C303.21576469 205.42011856 303.21576469 205.42011856 305.0083313 205.42182922 C306.23433044 205.42679413 307.46032959 205.43175903 308.72348022 205.43687439 C312.09783342 205.44901155 315.47212439 205.45644957 318.84649205 205.46088505 C320.95567738 205.46381373 323.06485725 205.46791832 325.17403984 205.47238922 C331.77563708 205.48607644 338.37722185 205.49573491 344.9788323 205.49959111 C352.59359889 205.50406348 360.20818522 205.52156779 367.82289702 205.55059171 C373.71004605 205.57224917 379.59714455 205.58229769 385.48433298 205.58363223 C388.99909189 205.58467812 392.51368164 205.59053864 396.02839851 205.60845184 C399.95666351 205.62808075 403.88470605 205.62362736 407.8130188 205.61714172 C408.97022934 205.62635651 410.12743988 205.63557129 411.31971741 205.64506531 C420.22519052 205.59906433 427.08913188 204.16171151 433.82449341 198.01069641 C438.52885986 192.66156908 440.48295652 186.34189718 440.51072693 179.33511353 C440.51788223 178.09725601 440.52503754 176.8593985 440.53240967 175.58403015 C440.53524991 174.20973231 440.53796164 172.83543419 440.54055786 171.46113586 C440.54682358 170.01556231 440.55347048 168.56999036 440.56047058 167.12442017 C440.5815033 162.37428406 440.59187332 157.62414766 440.60183716 152.87397766 C440.60588523 151.23753022 440.61000217 149.60108295 440.61418724 147.96463585 C440.63323845 140.27488685 440.64746872 132.58514743 440.65579921 124.89537936 C440.66556692 116.02580726 440.69187444 107.15648503 440.7323001 98.28700095 C440.76248927 91.42742209 440.7772708 84.56791472 440.78058022 77.70827073 C440.78292784 73.61334692 440.79185026 69.51869007 440.8170414 65.42383766 C440.84037587 61.56845913 440.84453402 57.71352229 440.83428001 53.85809135 C440.83378582 52.44722141 440.84007203 51.03632932 440.85383606 49.62552643 C440.9562646 38.49927874 439.38043415 31.46401369 431.36355591 23.26069641 C425.33428426 19.01033149 420.27375765 18.11074969 413.05330276 18.12926865 C412.31157649 18.12721601 411.56985021 18.12516338 410.80564737 18.12304854 C408.30648072 18.11736924 405.80736901 18.11883694 403.30819702 18.12025452 C401.50378314 18.11767142 399.69936982 18.11465841 397.8949573 18.11125112 C392.92554742 18.10317143 387.95615197 18.10139101 382.9867363 18.10065365 C377.63145306 18.09880479 372.27617734 18.09125831 366.92089844 18.08451843 C355.20609675 18.0709279 343.49129847 18.06490932 331.77649021 18.06050777 C324.46427144 18.05774668 317.152054 18.05350958 309.83983612 18.0490036 C289.60162565 18.03681019 269.36341624 18.02651089 249.12520218 18.02312851 C247.82954143 18.02290894 246.53388068 18.02268938 245.19895749 18.02246316 C243.90016634 18.02224488 242.6013752 18.0220266 241.26322675 18.02180171 C238.63130522 18.02135824 235.99938369 18.02091168 233.36746216 18.02046204 C232.06193338 18.02024061 230.7564046 18.02001918 229.41131434 18.01979104 C208.25201616 18.01584213 187.09275241 17.99838557 165.93346754 17.97510251 C144.21898261 17.95140102 122.50451496 17.93892721 100.79001689 17.93776059 C88.59430871 17.93684318 76.39864537 17.93107409 64.20294952 17.91294098 C53.81899838 17.89755625 43.43510595 17.89240992 33.05114558 17.90067908 C27.75198518 17.90459129 22.45294307 17.90362809 17.15379715 17.88962173 C12.30289355 17.87691725 7.45219754 17.87804996 2.60129437 17.89021245 C0.84623413 17.89217543 -0.90884064 17.88906335 -2.66388044 17.88036808 C-5.05044746 17.86929239 -7.43627965 17.87675208 -9.82282639 17.88875961 C-10.50337019 17.88116442 -11.18391399 17.87356923 -11.88508034 17.86574388 C-20.24424067 17.9564684 -27.06964628 21.11371234 -32.63644409 27.26069641 Z M106.23855591 230.04585266 C91.40434796 246.29212444 82.29621532 265.21902289 76.36355591 286.26069641 C76.1700354 286.93890442 75.97651489 287.61711243 75.77713013 288.31587219 C67.39669456 319.23623763 74.85129754 353.9738165 90.27029419 381.4066925 C106.26603067 408.53300399 132.94460885 430.46120051 163.36355591 439.26069641 C169.3288193 440.74861828 175.34020089 442.03201251 181.36355591 443.26069641 C182.16059937 443.4393927 182.95764282 443.61808899 183.77883911 443.80220032 C213.90331183 449.14590106 248.72548622 439.74318882 273.66751099 422.81269836 C303.54315194 401.75499614 321.9204342 371.22128471 328.50418091 335.43647766 C333.70483502 302.35174675 325.08041979 268.64248692 305.73464966 241.47944641 C284.68247954 213.18227437 254.18156563 194.82825405 219.36355591 189.26069641 C218.59269653 189.12921204 217.82183716 188.99772766 217.02761841 188.86225891 C175.68945441 183.00205942 134.54100879 200.24258386 106.23855591 230.04585266 Z " fill="#010100" transform="translate(54.636444091796875,24.739303588867188)"/>
<path d="M0 0 C6.88986781 2.65459005 12.26973669 8.2572048 15.5546875 14.81640625 C17.8646488 22.33223155 17.17433832 30.56496074 13.546875 37.50390625 C10.82314309 41.88866811 7.58334266 45.28111693 3.6953125 48.62109375 C-0.58637826 52.34260881 -4.71734555 56.20506133 -8.83203125 60.109375 C-13.95304847 64.94929957 -19.08352582 69.77659445 -24.26953125 74.546875 C-28.91320905 78.81876812 -33.53523267 83.11290232 -38.14453125 87.421875 C-43.32223459 92.26152885 -48.51773402 97.08093371 -53.73046875 101.8828125 C-57.88424282 105.71238957 -62.01707262 109.56396469 -66.14453125 113.421875 C-71.32076386 118.26006792 -76.51429248 123.07855847 -81.72607422 127.87841797 C-85.27544306 131.15017042 -88.80880689 134.43849156 -92.33349609 137.73681641 C-94.24139925 139.52057353 -96.15369963 141.29952142 -98.06640625 143.078125 C-100.30548114 145.16220536 -102.52399473 147.2640035 -104.72265625 149.390625 C-110.03762899 154.43836447 -114.70642948 157.99735152 -121.64453125 160.421875 C-122.30453125 160.751875 -122.96453125 161.081875 -123.64453125 161.421875 C-131.47974209 162.47661492 -137.04673185 160.56559524 -143.64453125 156.421875 C-147.06406956 153.66016453 -150.14366351 150.62533807 -153.23046875 147.5 C-154.09467438 146.640578 -154.95888 145.78115601 -155.84927368 144.89569092 C-157.66201045 143.08633784 -159.46852397 141.27073034 -161.26904297 139.44921875 C-164.01518074 136.67626799 -166.78703007 133.93105669 -169.5625 131.1875 C-171.32842849 129.41826779 -173.0928055 127.64748535 -174.85546875 125.875 C-175.67840424 125.06218567 -176.50133972 124.24937134 -177.34921265 123.41192627 C-183.79148732 116.83748722 -188.23962423 110.35678665 -188.14453125 100.859375 C-187.86085269 92.99873365 -185.60464612 88.32137445 -180.33203125 82.609375 C-173.88101796 76.66086169 -168.3933287 75.88702337 -159.78515625 76.15234375 C-146.27303022 77.31196651 -137.61163122 89.28306461 -128.64453125 98.421875 C-124.87186509 96.83152392 -122.30769671 94.45410163 -119.33203125 91.671875 C-118.81568115 91.19161865 -118.29933105 90.7113623 -117.76733398 90.21655273 C-116.05564475 88.62264844 -114.35010303 87.02232171 -112.64453125 85.421875 C-111.42357853 84.28212188 -110.20221642 83.14280718 -108.98046875 82.00390625 C-106.44097638 79.635961 -103.90355968 77.26581794 -101.3671875 74.89453125 C-97.97202888 71.72344085 -94.56163941 68.56928077 -91.14453125 65.421875 C-85.81733153 60.51461773 -80.51946164 55.5766545 -75.22827148 50.63061523 C-71.23500039 46.90003909 -67.22750365 43.18560394 -63.20703125 39.484375 C-58.32698716 34.99086906 -53.48063295 30.46261592 -48.64453125 25.921875 C-47.28910582 24.6522975 -45.93363749 23.3827658 -44.578125 22.11328125 C-42.0613777 19.75533091 -39.55432038 17.38779299 -37.0546875 15.01171875 C-25.63609757 4.22212588 -16.59736905 -3.6283761 0 0 Z " fill="#020201" transform="translate(341.64453125,265.578125)"/>
<path d="M0 0 C3.875 0.5625 3.875 0.5625 6.375 2.0625 C8.47891883 5.56903138 8.79825877 8.64213422 7.875 12.5625 C5.76992747 15.67755945 3.1410479 18.0968126 0.375 20.625 C-0.32109375 21.29337891 -1.0171875 21.96175781 -1.734375 22.65039062 C-5.76351765 26.4892682 -9.93193926 30.15697804 -14.13330078 33.80493164 C-17.60545031 36.86891845 -20.95366999 40.06293721 -24.3125 43.25 C-31.02380842 49.59220111 -37.7755677 55.88633634 -44.57324219 62.13574219 C-47.21774565 64.56722083 -49.85935641 67.00183056 -52.5 69.4375 C-53.03141602 69.92766602 -53.56283203 70.41783203 -54.11035156 70.92285156 C-58.93812436 75.38081291 -63.7402655 79.86598827 -68.54077148 84.35327148 C-73.05521915 88.5708152 -77.59094673 92.76447454 -82.13623047 96.94873047 C-86.53242308 101.00191018 -90.89273792 105.09254459 -95.25 109.1875 C-99.97896589 113.62715647 -104.71368155 118.05963135 -109.5 122.4375 C-110.35335937 123.21867187 -111.20671875 123.99984375 -112.0859375 124.8046875 C-115.18883112 127.4795958 -117.70667943 128.16272378 -121.85305786 128.09231567 C-126.68518437 126.96546639 -129.83219887 122.94319436 -133.18359375 119.49609375 C-134.0133522 118.66924576 -134.84311066 117.84239777 -135.69801331 116.99049377 C-137.44468284 115.24050959 -139.18148173 113.4806251 -140.90893555 111.71166992 C-143.55346479 109.00923306 -146.23331126 106.34608106 -148.91992188 103.68554688 C-150.61421451 101.97877861 -152.30634744 100.26986312 -153.99609375 98.55859375 C-154.79703964 97.76351913 -155.59798553 96.96844452 -156.42320251 96.14927673 C-162.49332879 89.86961059 -162.49332879 89.86961059 -163.25024414 85.71899414 C-163.11060007 82.19958249 -162.33432057 80.15032135 -159.81323242 77.62109375 C-157.2084773 75.98780117 -154.80130428 76.04414395 -151.83105469 76.47070312 C-145.46909187 79.03752897 -140.80424638 85.14180056 -136.1875 90.0625 C-134.48950609 91.8328359 -132.78588029 93.59758367 -131.08091736 95.36120605 C-130.02597875 96.4566711 -128.97626193 97.557194 -127.93238831 98.66320801 C-124.29344035 102.56529084 -124.29344035 102.56529084 -119.2890625 103.86328125 C-115.37514825 103.4912178 -114.27723296 102.4747423 -111.5 99.75 C-110.63503906 98.92242187 -109.77007812 98.09484375 -108.87890625 97.2421875 C-107.97011719 96.35789062 -107.06132812 95.47359375 -106.125 94.5625 C-104.23403522 92.82801057 -102.33801471 91.09902008 -100.4375 89.375 C-95.18023184 84.55989999 -89.97019645 79.69448567 -84.76293945 74.82543945 C-80.73054684 71.05621893 -76.68495058 67.30201051 -72.625 63.5625 C-67.94091636 59.24766206 -63.27760381 54.9112603 -58.625 50.5625 C-53.44725349 45.72289204 -48.25179757 40.90344161 -43.0390625 36.1015625 C-38.88528718 32.27198428 -34.75261389 28.42024563 -30.625 24.5625 C-25.7773022 20.03469153 -20.92780486 15.50889299 -16.0625 11 C-15.55074219 10.52369141 -15.03898438 10.04738281 -14.51171875 9.55664062 C-13.05999783 8.21379878 -11.59264276 6.88792166 -10.125 5.5625 C-9.35397949 4.85516724 -9.35397949 4.85516724 -8.56738281 4.13354492 C-3.74738761 -0.12895868 -3.74738761 -0.12895868 0 0 Z " fill="#F1F1F1" transform="translate(333.125,281.4375)"/>
<path d="M0 0 C7.17551695 4.08381511 12.25013949 10.06299108 14.6875 18 C15.12639913 21.39455654 15.1554987 24.75594005 15.15625 28.17578125 C15.16767029 29.62358223 15.16767029 29.62358223 15.17932129 31.10063171 C15.19008667 33.13533961 15.19298995 35.17010261 15.18847656 37.20483398 C15.18750609 40.29310878 15.22913102 43.37888126 15.2734375 46.46679688 C15.27864687 48.45311988 15.28133265 50.43945142 15.28125 52.42578125 C15.3058429 53.791903 15.3058429 53.791903 15.33093262 55.18562317 C15.24465467 63.32240838 12.48072819 69.61872377 7.3125 75.875 C0.58377211 81.32206544 -5.46531781 83.43387199 -14.10546875 83.33984375 C-21.58113796 82.54765956 -27.2807836 78.79878034 -32.05859375 73.13671875 C-36.01695144 66.39147994 -36.77076249 60.38741329 -36.74609375 52.7265625 C-36.7513356 51.76277679 -36.75657745 50.79899109 -36.76197815 49.80599976 C-36.76837064 47.77725177 -36.76709752 45.74846659 -36.75854492 43.71972656 C-36.75004306 40.64059408 -36.77882288 37.56332438 -36.81054688 34.484375 C-36.81215954 32.50260472 -36.81158012 30.52083119 -36.80859375 28.5390625 C-36.81982773 27.63145172 -36.83106171 26.72384094 -36.84263611 25.78872681 C-36.76302188 18.36823643 -35.08312645 11.51326859 -30.41796875 5.59765625 C-21.20230254 -1.77863055 -11.33031548 -5.11245943 0 0 Z " fill="#020200" transform="translate(207.3125,96)"/>
<path d="M0 0 C1.15693359 -0.00322266 2.31386719 -0.00644531 3.50585938 -0.00976562 C4.70662109 0.01794922 5.90738281 0.04566406 7.14453125 0.07421875 C8.32595703 0.05939453 9.50738281 0.04457031 10.72460938 0.02929688 C19.74207781 0.11422594 26.41262471 1.981996 33.39453125 7.7890625 C33.91015625 8.41941406 34.42578125 9.04976562 34.95703125 9.69921875 C35.49328125 10.32699219 36.02953125 10.95476562 36.58203125 11.6015625 C40.71607037 18.09623192 40.80480873 25.31526092 39.95703125 32.76171875 C37.86903108 39.39313561 34.61893035 43.81155659 28.95703125 47.76171875 C29.53686795 51.35884647 30.49338742 54.11954527 32.2421875 57.30859375 C32.69013672 58.15421875 33.13808594 58.99984375 33.59960938 59.87109375 C34.54059668 61.62104538 35.4910319 63.36595185 36.45117188 65.10546875 C39.33863634 70.60540107 41.24331993 75.48848637 39.95703125 81.76171875 C37.41231903 84.83034231 35.86761144 85.60995538 31.95703125 86.26171875 C28.16051034 85.62896527 26.75946028 84.38408612 23.95703125 81.76171875 C22.10424805 78.76904297 22.10424805 78.76904297 20.40625 75.31640625 C20.10258011 74.70532013 19.79891022 74.09423401 19.48603821 73.46463013 C18.85116429 72.18151502 18.2220219 70.89554946 17.59838867 69.60693359 C16.6412676 67.62997761 15.66702922 65.66222206 14.68945312 63.6953125 C9.95703125 54.08973215 9.95703125 54.08973215 9.95703125 51.76171875 C8.63703125 51.76171875 7.31703125 51.76171875 5.95703125 51.76171875 C5.98321533 52.61403076 6.00939941 53.46634277 6.03637695 54.34448242 C6.12184617 57.52199002 6.18439914 60.69890985 6.23168945 63.87719727 C6.25675742 65.24978977 6.29082207 66.62224977 6.33422852 67.99438477 C6.39520656 69.97222571 6.42064134 71.95106059 6.4453125 73.9296875 C6.47149658 75.11844482 6.49768066 76.30720215 6.5246582 77.53198242 C5.78855517 81.72032953 4.25576309 83.16521445 0.95703125 85.76171875 C-2.54296875 86.44921875 -2.54296875 86.44921875 -6.04296875 85.76171875 C-9.38557263 82.53242283 -10.83282437 80.90442744 -11.67788696 76.3092041 C-11.68186493 75.04378784 -11.6858429 73.77837158 -11.68994141 72.47460938 C-11.698703 71.77136032 -11.7074646 71.06811127 -11.7164917 70.34355164 C-11.73837865 68.03438385 -11.72397376 65.72715369 -11.70703125 63.41796875 C-11.71040253 61.8042362 -11.71525775 60.19050612 -11.7215271 58.57678223 C-11.72888383 55.20084367 -11.7182325 51.82556827 -11.69482422 48.44970703 C-11.66633614 44.13183047 -11.6827467 39.81550789 -11.71268654 35.49768829 C-11.73079259 32.16721989 -11.72498656 28.83711726 -11.71204758 25.50663757 C-11.70872265 23.91509312 -11.71276845 22.32351498 -11.72444534 20.73200989 C-11.73721004 18.50339372 -11.71770486 16.27726027 -11.68994141 14.04882812 C-11.68596344 12.78341187 -11.68198547 11.51799561 -11.67788696 10.2142334 C-10.47293321 3.66201866 -6.86172735 0.00265444 0 0 Z " fill="#020300" transform="translate(113.04296875,93.23828125)"/>
<path d="M0 0 C21.22571616 5.76021239 39.19546909 16.88986851 55 32 C55.99193359 32.8971875 55.99193359 32.8971875 57.00390625 33.8125 C78.84847939 54.28902916 92.01018226 85.93970878 93.37890625 115.5625 C93.74855739 129.4741973 92.69778621 142.57840561 89 156 C88.79632813 156.75539063 88.59265625 157.51078125 88.3828125 158.2890625 C79.70324555 189.47121042 59.24357604 216.61071156 31.359375 233.12109375 C12.70093851 243.55680067 12.70093851 243.55680067 3 246 C2.34 245.67 1.68 245.34 1 245 C1.93199219 244.46632813 2.86398437 243.93265625 3.82421875 243.3828125 C13.52191355 237.74640326 23.35135622 231.78665602 31.23828125 223.70703125 C33 222 33 222 35 222 C35 221.34 35 220.68 35 220 C35.66 220 36.32 220 37 220 C37.24621094 219.43023437 37.49242187 218.86046875 37.74609375 218.2734375 C39.20685319 215.62495777 40.95944549 213.79852724 43.0625 211.625 C67.19710567 185.16975917 76.47795047 149.01952775 75.17285156 113.99023438 C74.46505971 101.74583517 72.54086588 88.08173176 67 77 C66.87030258 75.12659287 66.77061618 73.25105101 66.6875 71.375 C66.03101212 63.29440653 63.9937881 58.5467138 57.9375 53.125 C55.68133846 51.2629089 53.43933084 49.62622056 51 48 C51 47.01 51 46.02 51 45 C48.65788075 41.65088262 45.96425736 38.59696073 43.29541016 35.50390625 C42.07404073 34.08595758 40.87039416 32.6527984 39.66796875 31.21875 C30.56767835 20.71493222 19.92027978 12.75135359 7.88598633 5.90380859 C4.86285279 4.17969373 2.38638792 2.52408986 0 0 Z " fill="#529113" transform="translate(291,218)"/>
<path d="M0 0 C3.80516574 0.71346858 5.19447908 1.88915691 8 4.5625 C9.63503194 7.06354984 10.9183583 9.69795616 12.20703125 12.390625 C12.57728928 13.13963074 12.9475473 13.88863647 13.32902527 14.66033936 C14.50163283 17.03896934 15.65721814 19.42541481 16.8125 21.8125 C17.60761184 23.43283787 18.40382435 25.05263612 19.20117188 26.671875 C21.14691226 30.62928327 23.07743546 34.59378428 25 38.5625 C25.00410889 37.58901611 25.00821777 36.61553223 25.01245117 35.61254883 C25.03428785 31.98717921 25.08862216 28.36288798 25.15258789 24.73803711 C25.17572882 23.17173631 25.19015448 21.60528078 25.19555664 20.03881836 C25.20487588 17.78141297 25.24592233 15.52642779 25.29296875 13.26953125 C25.28706978 12.22548882 25.28706978 12.22548882 25.28105164 11.16035461 C25.39550411 7.31300859 25.92407608 5.65742653 28.35668945 2.6159668 C31 0.5625 31 0.5625 34 0 C37.65907504 0.68607657 39.35167676 1.98984314 42 4.5625 C43.47305882 7.50861765 43.13547255 10.13854227 43.14526367 13.42724609 C43.14862228 14.13312363 43.1519809 14.83900116 43.15544128 15.56626892 C43.16496142 17.90617622 43.166895 20.24601202 43.16796875 22.5859375 C43.17118087 24.21017486 43.17454491 25.83441193 43.17805481 27.45864868 C43.18404893 30.86664501 43.18589445 34.27461596 43.18530273 37.68261719 C43.18520116 42.04966008 43.1988473 46.41654021 43.21607494 50.78354454 C43.22719436 54.13956448 43.22922195 57.49554509 43.22869301 60.85158157 C43.22987345 62.46152939 43.2342988 64.07147822 43.24202538 65.68140793 C43.25182303 67.9340427 43.24894811 70.18632438 43.24291992 72.43896484 C43.24434494 73.72088715 43.24576996 75.00280945 43.24723816 76.32357788 C43.01234385 79.40079042 42.74680061 81.05956111 41 83.5625 C37.24952518 86.06281654 35.44143734 86.09853554 31 85.5625 C26.67008839 81.96313029 24.39972718 78.04033708 22.01171875 73.07421875 C21.66365677 72.37102005 21.31559479 71.66782135 20.95698547 70.9433136 C19.85759974 68.71676228 18.77239744 66.48364071 17.6875 64.25 C16.94038293 62.73066222 16.19234502 61.21177688 15.44335938 59.69335938 C13.61821579 55.98822007 11.8057519 52.27712616 10 48.5625 C9.9906543 49.47539795 9.98130859 50.3882959 9.97167969 51.32885742 C9.92754819 54.73066048 9.865886 58.13122167 9.79248047 61.5324707 C9.76433389 63.0017545 9.74308791 64.47118795 9.72900391 65.94067383 C9.7074847 68.05888114 9.66079666 70.17530153 9.609375 72.29296875 C9.5779541 74.20178833 9.5779541 74.20178833 9.54589844 76.14916992 C8.91574243 80.08933588 7.77918781 81.75502612 5 84.5625 C2.11138291 86.00680855 0.20352299 85.93938506 -3 85.5625 C-6.40078014 82.92425375 -7.83912831 81.42775078 -8.63491821 77.14758301 C-8.63889618 75.84140015 -8.64287415 74.53521729 -8.64697266 73.18945312 C-8.65573425 72.46523666 -8.66449585 71.7410202 -8.67352295 70.99485779 C-8.69545752 68.61053842 -8.68098755 66.22808687 -8.6640625 63.84375 C-8.6674324 62.18135219 -8.67228647 60.51895678 -8.67855835 58.85656738 C-8.68592155 55.37630707 -8.67524267 51.89668938 -8.65185547 48.41650391 C-8.6233672 43.96063334 -8.63977425 39.50626853 -8.66971779 35.05045319 C-8.6878062 31.6188019 -8.68202584 28.18750625 -8.66907883 24.75584412 C-8.66574904 23.11323365 -8.66981691 21.47059065 -8.68147659 19.82801819 C-8.69421185 17.52966096 -8.67477609 15.23372426 -8.64697266 12.93554688 C-8.64299469 11.62936401 -8.63901672 10.32318115 -8.63491821 8.97741699 C-7.68487457 3.86759319 -5.1606515 0.96762216 0 0 Z " fill="#010100" transform="translate(435,93.4375)"/>
<path d="M0 0 C1.20650208 -0.02352791 1.20650208 -0.02352791 2.43737793 -0.04753113 C3.29271118 -0.03224869 4.14804443 -0.01696625 5.02929688 -0.0012207 C5.92040161 -0.00458939 6.81150635 -0.00795807 7.72961426 -0.01142883 C9.60902696 -0.01113053 11.48848891 0.0040672 13.36767578 0.03320312 C16.23947057 0.07287956 19.10664488 0.05390677 21.97851562 0.02807617 C23.80796057 0.03563578 25.63739529 0.04658975 27.46679688 0.0612793 C28.32213013 0.0542952 29.17746338 0.0473111 30.05871582 0.04011536 C34.4043638 0.14270612 36.23556044 0.37034682 39.796875 3.08154297 C42.34249771 6.57667786 42.36424052 8.52416673 41.74804688 12.76049805 C39.98789557 15.94553374 39.24913771 16.59346777 35.74804688 17.76049805 C33.61010163 17.84387845 31.46962678 17.86783551 29.33007812 17.8581543 C28.07646484 17.85493164 26.82285156 17.85170898 25.53125 17.84838867 C24.22091797 17.84000977 22.91058594 17.83163086 21.56054688 17.82299805 C20.22526206 17.81798122 18.88997546 17.81341863 17.5546875 17.80932617 C14.28578807 17.79752509 11.01691185 17.77958941 7.74804688 17.76049805 C7.74804688 23.37049805 7.74804688 28.98049805 7.74804688 34.76049805 C9.71128906 34.72569336 11.67453125 34.69088867 13.69726562 34.6550293 C16.27668415 34.62689019 18.85611193 34.59959016 21.43554688 34.57299805 C23.3759082 34.53529297 23.3759082 34.53529297 25.35546875 34.49682617 C26.60263672 34.4871582 27.84980469 34.47749023 29.13476562 34.4675293 C30.28162842 34.45181885 31.42849121 34.4361084 32.61010742 34.41992188 C36.10042485 34.79874338 37.95449686 35.67207903 40.74804688 37.76049805 C42.27651349 40.81743127 41.98047133 43.39034352 41.74804688 46.76049805 C39.98789557 49.94553374 39.24913771 50.59346777 35.74804688 51.76049805 C33.61010163 51.84387845 31.46962678 51.86783551 29.33007812 51.8581543 C28.07646484 51.85493164 26.82285156 51.85170898 25.53125 51.84838867 C24.22091797 51.84000977 22.91058594 51.83163086 21.56054688 51.82299805 C20.22526206 51.81798122 18.88997546 51.81341863 17.5546875 51.80932617 C14.28578807 51.79752509 11.01691185 51.77958941 7.74804688 51.76049805 C7.74804688 57.37049805 7.74804688 62.98049805 7.74804688 68.76049805 C9.71128906 68.72569336 11.67453125 68.69088867 13.69726562 68.6550293 C16.27668415 68.62689019 18.85611193 68.59959016 21.43554688 68.57299805 C22.72912109 68.54786133 24.02269531 68.52272461 25.35546875 68.49682617 C26.60263672 68.4871582 27.84980469 68.47749023 29.13476562 68.4675293 C30.85505981 68.44396362 30.85505981 68.44396362 32.61010742 68.41992188 C36.10042485 68.79874338 37.95449686 69.67207903 40.74804688 71.76049805 C42.31740281 74.89920992 42.1000579 77.29905627 41.74804688 80.76049805 C39.75229244 83.51970377 38.1570678 85.42720182 34.74536133 86.23422241 C32.30595872 86.43932631 29.91477826 86.47970544 27.46679688 86.4597168 C26.57569214 86.4668721 25.6845874 86.4740274 24.76647949 86.48139954 C22.88713581 86.48916533 21.00770169 86.48418808 19.12841797 86.46728516 C16.25640457 86.44805401 13.38922846 86.4874588 10.51757812 86.53198242 C8.68814817 86.53227279 6.85871378 86.52913262 5.02929688 86.5222168 C3.746297 86.54514046 3.746297 86.54514046 2.43737793 86.56852722 C1.63304321 86.55284195 0.8287085 86.53715668 0 86.52099609 C-0.70217651 86.51923874 -1.40435303 86.51748138 -2.12780762 86.51567078 C-5.5606386 85.29523633 -7.49361643 82.83063117 -9.25195312 79.76049805 C-9.88687134 76.3079834 -9.88687134 76.3079834 -9.89892578 72.47338867 C-9.90768738 71.77013962 -9.91644897 71.06689056 -9.92547607 70.34233093 C-9.94736302 68.03316315 -9.93295814 65.72593298 -9.91601562 63.41674805 C-9.9193869 61.80301549 -9.92424212 60.18928542 -9.93051147 58.57556152 C-9.93786821 55.19962296 -9.92721687 51.82434756 -9.90380859 48.44848633 C-9.87532052 44.13060977 -9.89173108 39.81428719 -9.92167091 35.49646759 C-9.93977697 32.16599918 -9.93397094 28.83589656 -9.92103195 25.50541687 C-9.91770703 23.91387242 -9.92175283 22.32229428 -9.93342972 20.73078918 C-9.94619441 18.50217301 -9.92668924 16.27603957 -9.89892578 14.04760742 C-9.89494781 12.78219116 -9.89096985 11.5167749 -9.88687134 10.2130127 C-8.9094008 4.89779055 -6.00558159 0.01503032 0 0 Z " fill="#010100" transform="translate(316.251953125,93.239501953125)"/>
<path d="M0 0 C1.11632813 -0.00193359 2.23265625 -0.00386719 3.3828125 -0.00585938 C5.11917969 0.02991211 5.11917969 0.02991211 6.890625 0.06640625 C8.60378906 0.0499707 8.60378906 0.0499707 10.3515625 0.03320312 C20.34931548 0.11939065 28.0106011 2.49888235 35.140625 9.62890625 C40.10129807 16.68832562 40.77332027 23.19296938 40.140625 31.62890625 C38.89847619 37.6922767 35.7721859 42.55561386 31.140625 46.62890625 C25.15230949 50.37160344 20.03350515 51.75636387 12.953125 51.69140625 C11.68082031 51.68238281 10.40851562 51.67335937 9.09765625 51.6640625 C7.63392578 51.64666016 7.63392578 51.64666016 6.140625 51.62890625 C6.16680908 52.48121826 6.19299316 53.33353027 6.2199707 54.21166992 C6.30543992 57.38917752 6.36799289 60.56609735 6.4152832 63.74438477 C6.44035117 65.11697727 6.47441582 66.48943727 6.51782227 67.86157227 C6.57880031 69.83941321 6.60423509 71.81824809 6.62890625 73.796875 C6.65509033 74.98563232 6.68127441 76.17438965 6.70825195 77.39916992 C5.97192634 81.5887835 4.44756742 83.03931273 1.140625 85.62890625 C-2.421875 86.19140625 -2.421875 86.19140625 -5.859375 85.62890625 C-8.22434939 83.7618212 -9.51968215 82.30829194 -10.859375 79.62890625 C-10.97731572 77.3174622 -11.02926425 75.00256935 -11.05224609 72.68823242 C-11.06042358 71.97420761 -11.06860107 71.2601828 -11.07702637 70.52452087 C-11.10187802 68.1569808 -11.1183958 65.78950068 -11.1328125 63.421875 C-11.13813618 62.61354029 -11.14345985 61.80520557 -11.14894485 60.97237587 C-11.17567564 56.69375176 -11.1950506 52.41515682 -11.20947266 48.13647461 C-11.22611936 43.71768856 -11.27089669 39.29964853 -11.3218441 34.88114452 C-11.35550505 31.48304897 -11.36704875 28.08513075 -11.37269974 24.68688393 C-11.37941562 23.05817273 -11.39464665 21.42947334 -11.41859055 19.8009243 C-11.45022251 17.51925301 -11.45028312 15.23959679 -11.44287109 12.95776367 C-11.45095795 11.66029709 -11.4590448 10.36283051 -11.46737671 9.02604675 C-10.30522147 2.53263635 -6.32329935 -0.00455861 0 0 Z " fill="#010100" transform="translate(44.859375,93.37109375)"/>
<path d="M0 0 C0.89110474 -0.00478363 1.78220947 -0.00956726 2.70031738 -0.01449585 C4.57968924 -0.01789022 6.4591205 -0.00872012 8.33837891 0.01220703 C11.21000198 0.03898094 14.07771679 0.01244539 16.94921875 -0.01953125 C18.77865443 -0.01622707 20.60808769 -0.00982066 22.4375 0 C23.29283325 -0.01012115 24.1481665 -0.02024231 25.02941895 -0.03067017 C29.40156261 0.05500125 31.19929992 0.26417235 34.77148438 3.01416016 C37.14156736 6.23944611 37.30252694 7.74441731 36.71875 11.6640625 C35.86536459 14.22421874 35.27418022 15.30808222 33 16.765625 C30.18869836 17.87281571 27.98083307 17.86077876 24.96875 17.7890625 C23.98390625 17.77101563 22.9990625 17.75296875 21.984375 17.734375 C21.23671875 17.71117188 20.4890625 17.68796875 19.71875 17.6640625 C19.72541183 18.42970016 19.73207367 19.19533783 19.73893738 19.98417664 C19.79910961 27.20822666 19.84475528 34.43215474 19.87418652 41.65639019 C19.88982623 45.37023824 19.91103309 49.08387878 19.94506836 52.79760742 C19.97772295 56.38322291 19.99561576 59.96863912 20.00338173 63.55439186 C20.00891435 64.92071481 20.01971836 66.28702715 20.03594017 67.653265 C20.05779275 69.57041107 20.05897607 71.48775872 20.05932617 73.4050293 C20.06598801 74.49534958 20.07264984 75.58566986 20.07951355 76.70903015 C19.66837563 80.07668147 18.72276896 81.95076867 16.71875 84.6640625 C13.62701248 86.20993126 11.12445448 85.95765771 7.71875 85.6640625 C5.35377561 83.79697745 4.05844285 82.34344819 2.71875 79.6640625 C2.6273834 77.69299705 2.60123032 75.71878334 2.60522461 73.74560547 C2.60530014 72.50446991 2.60537567 71.26333435 2.60545349 69.98458862 C2.6105605 68.62514201 2.6157765 67.26569581 2.62109375 65.90625 C2.62295858 64.51905366 2.62438218 63.13185666 2.62538147 61.74465942 C2.62920152 58.09171738 2.63902745 54.43881502 2.65008545 50.78588867 C2.66031056 47.05908749 2.66488145 43.33227991 2.66992188 39.60546875 C2.68065017 32.29164856 2.69772046 24.97786109 2.71875 17.6640625 C1.89020508 17.6945166 1.06166016 17.7249707 0.20800781 17.75634766 C-0.87641602 17.78003418 -1.96083984 17.8037207 -3.078125 17.828125 C-4.69219238 17.87380615 -4.69219238 17.87380615 -6.33886719 17.92041016 C-9.48051186 17.64670231 -10.47092597 17.35412565 -12.53125 15.0390625 C-14.43321106 11.37099474 -15.14020957 9.70117249 -14.28125 5.6640625 C-10.11330344 0.04273676 -6.51448536 -0.07708588 0 0 Z " fill="#010100" transform="translate(253.28125,93.3359375)"/>
<path d="M0 0 C4.46063809 0.79654252 5.70174897 2.10741748 8.5 5.625 C9.12145996 9.00195312 9.12145996 9.00195312 9.11523438 12.90625 C9.12078339 13.62071289 9.1263324 14.33517578 9.13204956 15.07128906 C9.14382056 17.42321735 9.1195999 19.77320771 9.09375 22.125 C9.09203811 23.76497307 9.09210538 25.40494887 9.09387207 27.04492188 C9.09222029 30.47813174 9.0735493 33.91068748 9.04199219 37.34375 C9.00231462 41.73880314 8.99794774 46.13299998 9.00545502 50.52819824 C9.00852832 53.91349089 8.99639144 57.29859196 8.97932434 60.68383789 C8.97230585 62.30410561 8.96916841 63.92439504 8.97001648 65.54467773 C8.96821351 67.81143238 8.94679085 70.07717157 8.91992188 72.34375 C8.90729309 74.27637695 8.90729309 74.27637695 8.89440918 76.24804688 C8.47364472 79.85065534 7.67691837 81.75546356 5.5 84.625 C2.40826248 86.17086876 -0.09429552 85.91859521 -3.5 85.625 C-5.86497439 83.75791495 -7.16030715 82.30438569 -8.5 79.625 C-8.61794072 77.31355595 -8.66988925 74.9986631 -8.69287109 72.68432617 C-8.70104858 71.97030136 -8.70922607 71.25627655 -8.71765137 70.52061462 C-8.74250302 68.15307455 -8.7590208 65.78559443 -8.7734375 63.41796875 C-8.77876118 62.60963404 -8.78408485 61.80129932 -8.78956985 60.96846962 C-8.81630064 56.68984551 -8.8356756 52.41125057 -8.85009766 48.13256836 C-8.86674436 43.71378231 -8.91152169 39.29574228 -8.9624691 34.87723827 C-8.99613005 31.47914272 -9.00767375 28.0812245 -9.01332474 24.68297768 C-9.02004062 23.05426648 -9.03527165 21.42556709 -9.05921555 19.79701805 C-9.09084751 17.51534676 -9.09090812 15.23569054 -9.08349609 12.95385742 C-9.09158295 11.65639084 -9.0996698 10.35892426 -9.10800171 9.0221405 C-8.1295761 3.55529853 -5.41840677 0.96757264 0 0 Z " fill="#000100" transform="translate(392.5,93.375)"/>
<path d="M0 0 C3.65907504 0.68607657 5.35167676 1.98984314 8 4.5625 C9.6433869 7.8492738 9.20599853 11.49878294 9.23828125 15.11328125 C9.246353 15.96423874 9.25442474 16.81519623 9.26274109 17.69194031 C9.27658294 19.49504559 9.28730465 21.29817709 9.29516602 23.10131836 C9.31236789 25.85386067 9.35625049 28.60519838 9.40039062 31.35742188 C9.41051863 33.10936617 9.4190344 34.86132067 9.42578125 36.61328125 C9.44328934 37.43427811 9.46079742 38.25527496 9.47883606 39.10115051 C9.46364043 43.12124452 9.3055325 45.08099898 7.09838867 48.55932617 C4.60909638 50.93566629 3.59674549 51.48293393 0.1875 51.9375 C-3 51.5625 -3 51.5625 -5.65771484 49.61914062 C-8.85301165 45.44933491 -8.72463294 42.40002441 -8.6640625 37.28125 C-8.66884613 36.39014526 -8.67362976 35.49904053 -8.67855835 34.58093262 C-8.68195272 32.70156076 -8.67278262 30.8221295 -8.65185547 28.94287109 C-8.62508156 26.07124802 -8.65161711 23.20353321 -8.68359375 20.33203125 C-8.68028957 18.50259557 -8.67388316 16.67316231 -8.6640625 14.84375 C-8.67418365 13.98841675 -8.68430481 13.1330835 -8.69473267 12.25183105 C-8.60904793 7.87900797 -8.40392958 6.08498596 -5.64599609 2.51757812 C-3 0.5625 -3 0.5625 0 0 Z " fill="#A1C000" transform="translate(196,110.4375)"/>
<path d="M0 0 C10.95652174 -0.48160535 10.95652174 -0.48160535 15.25 1.5 C17.38624377 4.55177681 17.60173958 6.43902409 17.36328125 10.09765625 C16.86048824 12.73056157 15.95982195 14.18535005 14 16 C9.36297289 17.5456757 4.87528349 17.05735628 0 17 C0 11.39 0 5.78 0 0 Z " fill="#9DBC00" transform="translate(119,111)"/>
<path d="M0 0 C12.03647687 -0.43505338 12.03647687 -0.43505338 16 3 C17.52846661 6.05693322 17.23242445 8.62984547 17 12 C15.23984869 15.1850357 14.50109084 15.83296972 11 17 C7.32893957 17.13281695 3.67480286 17.04323297 0 17 C0 11.39 0 5.78 0 0 Z " fill="#9FBE00" transform="translate(51,111)"/>
</svg>

